<svg width="34" height="34" viewBox="0 0 34 34" fill="none" xmlns="http://www.w3.org/2000/svg">
<path d="M33.5953 13.7283L31.8925 13.2655C31.5079 11.7229 30.8838 10.2501 30.0428 8.90087L30.6707 7.33303C30.7106 7.23332 30.7203 7.12409 30.6987 7.0189C30.677 6.91371 30.625 6.8172 30.549 6.74132L27.2587 3.451C27.1828 3.375 27.0863 3.32295 26.9811 3.30131C26.8759 3.27966 26.7667 3.28938 26.667 3.32926L25.0991 3.95716C23.7499 3.11624 22.2771 2.49209 20.7345 2.10745L20.2711 0.404161C20.2395 0.288066 20.1705 0.185603 20.0749 0.112566C19.9793 0.0395301 19.8623 -2.45555e-05 19.7419 1.1437e-08H14.2581C14.1377 -2.45555e-05 14.0207 0.0395301 13.9251 0.112566C13.8295 0.185603 13.7605 0.288066 13.7289 0.404161L13.2655 2.10745C11.7229 2.49209 10.2501 3.11624 8.90087 3.95716L7.33303 3.32926C7.23332 3.28938 7.12409 3.27966 7.0189 3.30131C6.91371 3.32295 6.8172 3.375 6.74132 3.451L3.451 6.74132C3.375 6.8172 3.32295 6.91371 3.30131 7.0189C3.27966 7.12409 3.28938 7.23332 3.32926 7.33303L3.95716 8.90087C3.11624 10.2501 2.49209 11.7229 2.10745 13.2655L0.407452 13.7283C0.290654 13.7594 0.187388 13.8282 0.113706 13.924C0.0400226 14.0198 4.97351e-05 14.1372 1.14343e-08 14.2581V19.7419C-2.45555e-05 19.8623 0.0395301 19.9793 0.112566 20.0749C0.185603 20.1705 0.288066 20.2395 0.404161 20.2711L2.10745 20.7345C2.49209 22.2773 3.11624 23.7502 3.95716 25.0997L3.32926 26.667C3.28938 26.7667 3.27966 26.8759 3.30131 26.9811C3.32295 27.0863 3.375 27.1828 3.451 27.2587L6.74132 30.549C6.8172 30.625 6.91371 30.677 7.0189 30.6987C7.12409 30.7203 7.23332 30.7106 7.33303 30.6707L8.90087 30.0428C10.2501 30.8838 11.7229 31.5079 13.2655 31.8925L13.7289 33.5958C13.7605 33.7119 13.8295 33.8144 13.9251 33.8874C14.0207 33.9605 14.1377 34 14.2581 34H19.7419C19.8623 34 19.9793 33.9605 20.0749 33.8874C20.1705 33.8144 20.2395 33.7119 20.2711 33.5958L20.7345 31.8925C22.2771 31.5079 23.7499 30.8838 25.0991 30.0428L26.667 30.6707C26.7667 30.7106 26.8759 30.7203 26.9811 30.6987C27.0863 30.677 27.1828 30.625 27.2587 30.549L30.549 27.2587C30.625 27.1828 30.677 27.0863 30.6987 26.9811C30.7203 26.8759 30.7106 26.7667 30.6707 26.667L30.0428 25.0991C30.8838 23.7497 31.5079 22.2768 31.8925 20.734L33.5958 20.2706C33.7118 20.239 33.8142 20.1701 33.8873 20.0746C33.9603 19.979 33.9999 19.8622 34 19.7419V14.2581C34.0001 14.1376 33.9605 14.0204 33.8874 13.9246C33.8142 13.8289 33.7116 13.7599 33.5953 13.7283ZM32.9032 19.3219L31.291 19.7606C31.195 19.7866 31.1079 19.8383 31.039 19.9101C30.9701 19.9819 30.9221 20.071 30.9 20.168C30.5318 21.7952 29.8781 23.3443 28.9691 24.7432C28.9212 24.8169 28.8918 24.901 28.8832 24.9884C28.8746 25.0758 28.8871 25.164 28.9197 25.2455L29.5175 26.7388L26.7394 29.5175L25.2461 28.9197C25.1645 28.8871 25.0763 28.8746 24.9889 28.8832C24.9015 28.8918 24.8174 28.9212 24.7438 28.9691C23.3448 29.8781 21.7958 30.5318 20.1686 30.9C20.0716 30.9221 19.9824 30.9701 19.9107 31.039C19.8389 31.1079 19.7872 31.195 19.7611 31.291L19.3224 32.9032H14.6776L14.2389 31.291C14.2128 31.195 14.1611 31.1079 14.0893 31.039C14.0176 30.9701 13.9284 30.9221 13.8314 30.9C12.2042 30.5318 10.6552 29.8781 9.25623 28.9691C9.18243 28.9216 9.09838 28.8923 9.01103 28.8837C8.92368 28.8752 8.83554 28.8875 8.7539 28.9197L7.26064 29.5175L4.48252 26.7394L5.08026 25.2461C5.11286 25.1645 5.1254 25.0763 5.11681 24.9889C5.10822 24.9015 5.07876 24.8174 5.0309 24.7438C4.12192 23.3448 3.46818 21.7958 3.10003 20.1686C3.07794 20.0716 3.02989 19.9824 2.96101 19.9107C2.89213 19.8389 2.80503 19.7872 2.70903 19.7611L1.09677 19.3219V14.677L2.70848 14.2383C2.80459 14.2123 2.8918 14.1607 2.96078 14.0889C3.02976 14.0171 3.0779 13.9279 3.10003 13.8309C3.46818 12.2037 4.12192 10.6546 5.0309 9.25568C5.07876 9.18202 5.10822 9.09795 5.11681 9.01053C5.1254 8.92312 5.11286 8.83492 5.08026 8.75336L4.48252 7.26064L7.26064 4.48252L8.7539 5.08026C8.83546 5.11286 8.92366 5.1254 9.01108 5.11681C9.0985 5.10822 9.18257 5.07876 9.25623 5.0309C10.6552 4.12192 12.2042 3.46818 13.8314 3.10003C13.9284 3.07794 14.0176 3.02989 14.0893 2.96101C14.1611 2.89213 14.2128 2.80503 14.2389 2.70903L14.6776 1.09677H19.3224L19.7611 2.70903C19.7872 2.80503 19.8389 2.89213 19.9107 2.96101C19.9824 3.02989 20.0716 3.07794 20.1686 3.10003C21.7958 3.46818 23.3448 4.12192 24.7438 5.0309C24.8174 5.07876 24.9015 5.10822 24.9889 5.11681C25.0763 5.1254 25.1645 5.11286 25.2461 5.08026L26.7394 4.48252L29.5175 7.26064L28.9197 8.7539C28.8871 8.83546 28.8746 8.92366 28.8832 9.01108C28.8918 9.0985 28.9212 9.18257 28.9691 9.25623C29.8781 10.6552 30.5318 12.2042 30.9 13.8314C30.9221 13.9285 30.9702 14.0177 31.0392 14.0895C31.1082 14.1612 31.1954 14.2129 31.2915 14.2389L32.9032 14.6776V19.3219Z" fill="#87AB42"/>
<path d="M17 5.48387C14.7223 5.48387 12.4958 6.15928 10.602 7.42469C8.70816 8.6901 7.23211 10.4887 6.36048 12.593C5.48885 14.6973 5.2608 17.0128 5.70515 19.2467C6.1495 21.4806 7.24631 23.5326 8.85687 25.1431C10.4674 26.7537 12.5194 27.8505 14.7533 28.2949C16.9872 28.7392 19.3027 28.5111 21.407 27.6395C23.5113 26.7679 25.3099 25.2918 26.5753 23.398C27.8407 21.5042 28.5161 19.2777 28.5161 17C28.5126 13.9468 27.2982 11.0197 25.1393 8.86071C22.9803 6.70178 20.0532 5.48735 17 5.48387ZM17 27.4194C14.9392 27.4194 12.9248 26.8083 11.2113 25.6634C9.49786 24.5185 8.16239 22.8912 7.37377 20.9873C6.58515 19.0834 6.37882 16.9884 6.78085 14.9673C7.18288 12.9461 8.17523 11.0896 9.6324 9.6324C11.0896 8.17523 12.9461 7.18288 14.9673 6.78085C16.9884 6.37882 19.0834 6.58516 20.9873 7.37377C22.8912 8.16239 24.5185 9.49786 25.6634 11.2113C26.8083 12.9248 27.4194 14.9392 27.4194 17C27.4163 19.7624 26.3176 22.4109 24.3642 24.3642C22.4109 26.3176 19.7624 27.4163 17 27.4194Z" fill="#87AB42"/>
<path d="M22.4674 10.835C22.4378 10.7163 22.3694 10.611 22.273 10.5356C22.1766 10.4603 22.0578 10.4194 21.9355 10.4194H12.0645C11.9422 10.4194 11.8234 10.4603 11.727 10.5356C11.6306 10.611 11.5622 10.7163 11.5326 10.835L9.88742 17.4157C9.87645 17.4591 9.87093 17.5036 9.87097 17.5484V19.7419C9.87097 19.8874 9.92874 20.0269 10.0316 20.1297C10.1344 20.2325 10.2739 20.2903 10.4194 20.2903H15.3548V21.3871C14.9185 21.3871 14.5001 21.5604 14.1915 21.869C13.883 22.1775 13.7097 22.5959 13.7097 23.0323V24.129C13.7097 24.2745 13.7675 24.414 13.8703 24.5168C13.9731 24.6196 14.1126 24.6774 14.2581 24.6774H19.7419C19.8874 24.6774 20.0269 24.6196 20.1297 24.5168C20.2325 24.414 20.2903 24.2745 20.2903 24.129V23.0323C20.2903 22.5959 20.117 22.1775 19.8085 21.869C19.4999 21.5604 19.0815 21.3871 18.6452 21.3871V20.2903H23.5806C23.7261 20.2903 23.8656 20.2325 23.9684 20.1297C24.0713 20.0269 24.129 19.8874 24.129 19.7419V17.5484C24.1291 17.5036 24.1235 17.4591 24.1126 17.4157L22.4674 10.835ZM22.604 15.9032L22.8782 17H21.2665L20.9923 15.9032H22.604ZM22.0556 13.7097L22.3298 14.8065H20.7181L20.4439 13.7097H22.0556ZM21.5072 11.5161L21.7814 12.6129H20.1697L19.8955 11.5161H21.5072ZM17.5484 11.5161H18.7658L19.04 12.6129H17.5484V11.5161ZM17.5484 13.7097H19.3142L19.5884 14.8065H17.5484V13.7097ZM17.5484 15.9032H19.8626L20.1368 17H17.5484V15.9032ZM15.2709 11.5161H16.4516V12.6129H15.0883L15.2709 11.5161ZM14.9052 13.7097H16.4516V14.8065H14.7225L14.9052 13.7097ZM14.5399 15.9032H16.4516V17H14.3568L14.5399 15.9032ZM12.4928 11.5161H14.1594L13.9762 12.6129H12.2186L12.4928 11.5161ZM11.9444 13.7097H13.7936L13.611 14.8065H11.6702L11.9444 13.7097ZM11.396 15.9032H13.4278L13.2452 17H11.1218L11.396 15.9032ZM19.1935 23.0323V23.5806H14.8065V23.0323C14.8065 22.8868 14.8642 22.7473 14.9671 22.6445C15.0699 22.5416 15.2094 22.4839 15.3548 22.4839H18.6452C18.7906 22.4839 18.9301 22.5416 19.0329 22.6445C19.1358 22.7473 19.1935 22.8868 19.1935 23.0323ZM16.4516 21.3871V20.2903H17.5484V21.3871H16.4516ZM23.0323 19.1935H10.9677V18.0968H23.0323V19.1935Z" fill="#87AB42"/>
</svg>
