<svg width="104" height="187" viewBox="0 0 104 187" fill="none" xmlns="http://www.w3.org/2000/svg">
<g opacity="0.1">
<path d="M0 98.0477H67.9493L17.4212 187L103.912 79.1698H35.4356L58.7444 45.9377C52.5208 43.098 46.8361 39.2211 41.9383 34.4762L0 98.0477Z" fill="#87AB42"/>
<path d="M66.741 34.4762L93.2793 -3.47538L97.7609 -10H71.3984L57.3604 11.0963C60.5291 14.0972 63.0072 17.739 64.626 21.7735C66.2448 25.8081 66.9661 30.1407 66.741 34.4762Z" fill="#87AB42"/>
<path d="M61.2488 42.3492L58.7444 45.9377C59.9527 46.4814 61.0731 46.9382 62.1276 47.3079C62.0177 46.3075 61.9299 45.3288 61.7322 44.3501C61.5344 43.3714 61.5125 43.0234 61.2488 42.3492Z" fill="#87AB42"/>
<path d="M63.5775 43.9803C63.7533 44.6328 63.9071 45.2418 64.0389 45.8507C65.5359 42.2227 66.4477 38.3844 66.741 34.4762L62.4791 40.5875C62.9272 41.6908 63.2943 42.8247 63.5775 43.9803Z" fill="#87AB42"/>
<path d="M49.7152 22.6231C48.6168 21.2747 47.6282 20.1002 46.8373 19.165C45.3654 17.4469 44.6405 16.4247 44.6405 16.4247C44.6405 16.4247 45.4753 17.3817 47.0131 19.0346C47.8259 19.9045 48.8585 20.9484 50.0008 22.2099L57.3604 11.0963C48.5509 1.98355 36.2924 -3.1274 32.9531 -6.10698C31.2534 2.43257 31.3431 11.2267 33.2167 19.7305C34.661 25.3766 37.7108 30.4941 42.0042 34.4761L49.7152 22.6231Z" fill="#87AB42"/>
<path d="M50.0228 22.2534C51.0114 23.3408 52.2197 24.6022 53.2962 25.9724C54.3726 27.3426 55.8445 29.1477 57.1187 30.9094C58.4745 32.8277 59.7001 34.8329 60.7875 36.912C61.3807 38.0864 61.9518 39.3044 62.4571 40.5875L66.7191 34.4762C66.947 30.1423 66.229 25.8107 64.6141 21.7763C62.9991 17.7418 60.5251 14.0991 57.3604 11.0963L50.0228 22.2316V22.2534Z" fill="#87AB42"/>
<path d="M61.2488 42.3492C60.7746 40.7063 60.1799 39.0999 59.4694 37.5427C58.519 35.4667 57.4329 33.4543 56.218 31.5183C55.0317 29.6914 53.8673 27.9733 52.681 26.4509C51.4947 24.9285 50.6379 23.8193 49.7153 22.6883L41.9383 34.4762C46.8361 39.2211 52.5208 43.098 58.7444 45.9377L61.2488 42.3492Z" fill="#87AB42"/>
<path d="M72.6067 67.6647C77.8988 65.461 83.3656 63.6934 88.9514 62.3798C90.7691 61.9487 92.5531 61.3891 94.2898 60.7051C94.783 60.5316 95.2489 60.29 95.6739 59.9874C95.8164 59.8823 95.9713 59.7946 96.1352 59.7264L95.6958 60.0309C95.2871 60.3579 94.8454 60.6421 94.3777 60.8791C92.6826 61.728 90.9278 62.4548 89.1272 63.054C83.6986 64.6705 78.4092 66.7142 73.3097 69.1654C71.9746 69.8711 70.6834 70.6555 69.4432 71.5142L68.85 71.9057C86.2932 80.9314 101.056 65.9031 104 51.8969C96.7283 52.7886 67.6417 40.7398 67.7736 70.4051L68.4985 69.9483C69.8166 69.1 71.1889 68.3372 72.6067 67.6647Z" fill="#87AB42"/>
<path d="M62.1276 47.3079C62.2724 48.7531 62.3311 50.2056 62.3033 51.6576C62.2174 54.1239 61.8639 56.5738 61.2488 58.9652C60.6022 61.2727 59.757 63.521 58.7224 65.6856C57.7347 67.7162 56.5966 69.6717 55.3173 71.536C54.1497 73.1861 52.8881 74.7691 51.5387 76.2772C50.4842 77.4299 49.4516 78.4521 48.485 79.3003H51.6485C52.1318 78.8218 52.6591 78.2998 53.1643 77.7344C54.5762 76.1645 55.8964 74.5161 57.1187 72.7974C58.4503 70.8391 59.6397 68.7896 60.6777 66.6643C61.787 64.3941 62.6842 62.0281 63.3578 59.5959C64.0266 57.0501 64.4097 54.4389 64.5002 51.8099C64.5408 50.4895 64.5041 49.1678 64.3904 47.8516C64.3904 47.1557 64.1707 46.5249 64.0389 45.8942C63.7972 46.5249 63.5775 47.1339 63.2919 47.7646C62.9185 47.6124 62.523 47.4601 62.1276 47.3079Z" fill="#87AB42"/>
<path d="M47.0351 19.0563C45.4973 17.4034 44.6624 16.4465 44.6624 16.4465C44.6624 16.4465 45.4533 17.4686 46.8593 19.1868C47.6502 20.122 48.6388 21.3617 49.7372 22.6448L50.0448 22.1881C48.8804 20.9702 47.8479 19.9263 47.0351 19.0563Z" fill="#87AB42"/>
<path d="M62.4791 40.5875L61.2488 42.3492C61.4466 43.0234 61.6003 43.6759 61.7322 44.3501C61.864 45.0243 62.0177 46.3075 62.1276 47.3079C62.523 47.4601 62.9185 47.6124 63.2919 47.7211C63.5775 47.0904 63.7972 46.4814 64.0389 45.8507C63.9071 45.2418 63.7533 44.6328 63.5775 43.9803C63.2943 42.8247 62.9272 41.6908 62.4791 40.5875Z" fill="#87AB42"/>
<path d="M62.4791 40.5875C61.9738 39.3044 61.4026 38.0864 60.8095 36.912C59.715 34.8323 58.482 32.827 57.1187 30.9094C55.8226 29.1042 54.5264 27.4513 53.2742 25.9724C52.022 24.4935 51.0773 23.3408 50.0008 22.2534L49.6933 22.7101C50.616 23.841 51.6265 25.0807 52.6591 26.4726C53.6916 27.8645 55.0097 29.7132 56.196 31.5401C57.411 33.4761 58.4971 35.4885 59.4474 37.5645C60.1579 39.1216 60.7527 40.728 61.2269 42.3709L62.4571 40.6093L62.4791 40.5875Z" fill="#87AB42"/>
<path d="M61.5125 79.322C62.0397 78.5608 62.5889 77.7344 63.226 76.9079C64.0522 75.8984 64.9477 74.9464 65.9062 74.0588L67.5539 72.6887C67.9382 72.3744 68.3417 72.0838 68.7621 71.8187C68.3667 71.623 67.9932 71.4272 67.5978 71.188V70.3181C65.3358 71.7716 63.2879 73.5282 61.5125 75.5378C60.6337 76.6034 59.9307 77.7126 59.2057 78.6913L58.8762 79.322H61.5125Z" fill="#87AB42"/>
<path d="M60.436 79.322H58.8762V79.3438L60.436 79.322Z" fill="#87AB42"/>
<path d="M68.85 71.8187L69.4432 71.4272C70.6834 70.5685 71.9746 69.7842 73.3097 69.0784C78.4092 66.6272 83.6986 64.5835 89.1272 62.967C90.9278 62.3678 92.6825 61.641 94.3777 60.7921C94.8454 60.5551 95.2871 60.2709 95.6958 59.9439L96.1352 59.6394C95.9713 59.7076 95.8164 59.7953 95.6738 59.9004C95.2489 60.203 94.783 60.4446 94.2898 60.6181C92.5531 61.3021 90.7691 61.8617 88.9514 62.2928C83.3656 63.6064 77.8988 65.374 72.6067 67.5777C71.1617 68.2116 69.7601 68.9381 68.4106 69.7526L67.6857 70.2093V71.0793C68.1031 71.4272 68.4546 71.623 68.85 71.8187Z" fill="#87AB42"/>
</g>
</svg>
