<svg width="256" height="253" viewBox="0 0 256 253" fill="none" xmlns="http://www.w3.org/2000/svg">
<g opacity="0.5" filter="url(#filter0_f_2534_7)">
<ellipse cx="268" cy="234.5" rx="68" ry="65.5" fill="#FF7029"/>
</g>
<g opacity="0.1">
<path d="M152 98.0477H219.949L169.421 187L255.912 79.1698H187.436L210.744 45.9377C204.521 43.098 198.836 39.2211 193.938 34.4762L152 98.0477Z" fill="#FF7029"/>
<path d="M218.741 34.4762L245.279 -3.47538L249.761 -10H223.398L209.36 11.0963C212.529 14.0972 215.007 17.739 216.626 21.7735C218.245 25.8081 218.966 30.1407 218.741 34.4762Z" fill="#FF7029"/>
<path d="M213.249 42.3492L210.744 45.9377C211.953 46.4814 213.073 46.9382 214.128 47.3079C214.018 46.3075 213.93 45.3288 213.732 44.3501C213.534 43.3714 213.512 43.0234 213.249 42.3492Z" fill="#FF7029" fill-opacity="0.56"/>
<path d="M215.578 43.9803C215.753 44.6328 215.907 45.2418 216.039 45.8507C217.536 42.2227 218.448 38.3844 218.741 34.4762L214.479 40.5875C214.927 41.6908 215.294 42.8247 215.578 43.9803Z" fill="#FF7029" fill-opacity="0.56"/>
<path d="M201.715 22.6231C200.617 21.2747 199.628 20.1002 198.837 19.165C197.365 17.4469 196.64 16.4247 196.64 16.4247C196.64 16.4247 197.475 17.3817 199.013 19.0346C199.826 19.9045 200.858 20.9484 202.001 22.2099L209.36 11.0963C200.551 1.98355 188.292 -3.1274 184.953 -6.10698C183.253 2.43257 183.343 11.2267 185.217 19.7305C186.661 25.3766 189.711 30.4941 194.004 34.4761L201.715 22.6231Z" fill="#FF7029" fill-opacity="0.56"/>
<path d="M202.023 22.2534C203.011 23.3408 204.22 24.6022 205.296 25.9724C206.373 27.3426 207.845 29.1477 209.119 30.9094C210.474 32.8277 211.7 34.8329 212.787 36.912C213.381 38.0864 213.952 39.3044 214.457 40.5875L218.719 34.4762C218.947 30.1423 218.229 25.8107 216.614 21.7763C214.999 17.7418 212.525 14.0991 209.36 11.0963L202.023 22.2316V22.2534Z" fill="#FF7029" fill-opacity="0.56"/>
<path d="M213.249 42.3492C212.775 40.7063 212.18 39.0999 211.469 37.5427C210.519 35.4667 209.433 33.4543 208.218 31.5183C207.032 29.6914 205.867 27.9733 204.681 26.4509C203.495 24.9285 202.638 23.8193 201.715 22.6883L193.938 34.4762C198.836 39.2211 204.521 43.098 210.744 45.9377L213.249 42.3492Z" fill="#FF7029" fill-opacity="0.56"/>
<path d="M224.607 67.6647C229.899 65.461 235.366 63.6934 240.951 62.3798C242.769 61.9487 244.553 61.3891 246.29 60.7051C246.783 60.5316 247.249 60.29 247.674 59.9874C247.816 59.8823 247.971 59.7946 248.135 59.7264L247.696 60.0309C247.287 60.3579 246.845 60.6421 246.378 60.8791C244.683 61.728 242.928 62.4548 241.127 63.054C235.699 64.6705 230.409 66.7142 225.31 69.1654C223.975 69.8711 222.683 70.6555 221.443 71.5142L220.85 71.9057C238.293 80.9314 253.056 65.9031 256 51.8969C248.728 52.7886 219.642 40.7398 219.774 70.4051L220.499 69.9483C221.817 69.1 223.189 68.3372 224.607 67.6647Z" fill="#FF7029" fill-opacity="0.56"/>
<path d="M214.128 47.3079C214.272 48.7531 214.331 50.2056 214.303 51.6576C214.217 54.1239 213.864 56.5738 213.249 58.9652C212.602 61.2727 211.757 63.521 210.722 65.6856C209.735 67.7162 208.597 69.6717 207.317 71.536C206.15 73.1861 204.888 74.7691 203.539 76.2772C202.484 77.4299 201.452 78.4521 200.485 79.3003H203.648C204.132 78.8218 204.659 78.2998 205.164 77.7344C206.576 76.1645 207.896 74.5161 209.119 72.7974C210.45 70.8391 211.64 68.7896 212.678 66.6643C213.787 64.3941 214.684 62.0281 215.358 59.5959C216.027 57.0501 216.41 54.4389 216.5 51.8099C216.541 50.4895 216.504 49.1678 216.39 47.8516C216.39 47.1557 216.171 46.525 216.039 45.8942C215.797 46.525 215.578 47.1339 215.292 47.7646C214.918 47.6124 214.523 47.4601 214.128 47.3079Z" fill="#FF7029"/>
<path d="M199.035 19.0563C197.497 17.4034 196.662 16.4465 196.662 16.4465C196.662 16.4465 197.453 17.4686 198.859 19.1868C199.65 20.122 200.639 21.3617 201.737 22.6448L202.045 22.1881C200.88 20.9702 199.848 19.9263 199.035 19.0563Z" fill="#FF7029"/>
<path d="M214.479 40.5875L213.249 42.3492C213.447 43.0234 213.6 43.6759 213.732 44.3501C213.864 45.0243 214.018 46.3075 214.128 47.3079C214.523 47.4601 214.918 47.6124 215.292 47.7211C215.578 47.0904 215.797 46.4815 216.039 45.8507C215.907 45.2418 215.753 44.6328 215.578 43.9803C215.294 42.8247 214.927 41.6908 214.479 40.5875Z" fill="#FF7029"/>
<path d="M214.479 40.5875C213.974 39.3044 213.403 38.0864 212.809 36.912C211.715 34.8323 210.482 32.827 209.119 30.9094C207.823 29.1042 206.526 27.4513 205.274 25.9724C204.022 24.4935 203.077 23.3408 202.001 22.2534L201.693 22.7101C202.616 23.841 203.627 25.0807 204.659 26.4726C205.692 27.8645 207.01 29.7132 208.196 31.5401C209.411 33.4761 210.497 35.4885 211.447 37.5645C212.158 39.1216 212.753 40.728 213.227 42.3709L214.457 40.6093L214.479 40.5875Z" fill="#FF7029"/>
<path d="M213.512 79.322C214.04 78.5608 214.589 77.7344 215.226 76.9079C216.052 75.8984 216.948 74.9464 217.906 74.0588L219.554 72.6887C219.938 72.3744 220.342 72.0838 220.762 71.8187C220.367 71.623 219.993 71.4272 219.598 71.188V70.3181C217.336 71.7716 215.288 73.5282 213.512 75.5378C212.634 76.6034 211.931 77.7126 211.206 78.6913L210.876 79.322H213.512Z" fill="#FF7029"/>
<path d="M212.436 79.322H210.876V79.3438L212.436 79.322Z" fill="#FF7029"/>
<path d="M220.85 71.8187L221.443 71.4272C222.683 70.5685 223.975 69.7842 225.31 69.0784C230.409 66.6272 235.699 64.5835 241.127 62.967C242.928 62.3678 244.683 61.641 246.378 60.7921C246.845 60.5551 247.287 60.2709 247.696 59.9439L248.135 59.6394C247.971 59.7076 247.816 59.7953 247.674 59.9004C247.249 60.203 246.783 60.4446 246.29 60.6181C244.553 61.3021 242.769 61.8617 240.951 62.2928C235.366 63.6064 229.899 65.374 224.607 67.5777C223.162 68.2116 221.76 68.9381 220.411 69.7526L219.686 70.2093V71.0793C220.103 71.4272 220.455 71.623 220.85 71.8187Z" fill="#FF7029"/>
</g>
<defs>
<filter id="filter0_f_2534_7" x="0" y="-31" width="536" height="531" filterUnits="userSpaceOnUse" color-interpolation-filters="sRGB">
<feFlood flood-opacity="0" result="BackgroundImageFix"/>
<feBlend mode="normal" in="SourceGraphic" in2="BackgroundImageFix" result="shape"/>
<feGaussianBlur stdDeviation="100" result="effect1_foregroundBlur_2534_7"/>
</filter>
</defs>
</svg>
