<svg width="70" height="71" viewBox="0 0 70 71" fill="none" xmlns="http://www.w3.org/2000/svg">
<circle cx="35" cy="35.8203" r="35" fill="white"/>
<path d="M41.25 30.8203C41.1979 32.5911 40.599 34.0755 39.4531 35.2734C38.2552 36.4193 36.7708 37.0182 35 37.0703C33.2292 37.0182 31.7448 36.4193 30.5469 35.2734C29.401 34.0755 28.8021 32.5911 28.75 30.8203C28.8021 29.0495 29.401 27.5651 30.5469 26.3672C31.7448 25.2214 33.2292 24.6224 35 24.5703C36.7708 24.6224 38.2552 25.2214 39.4531 26.3672C40.599 27.5651 41.1979 29.0495 41.25 30.8203ZM35 28.3203C34.2708 28.3203 33.6719 28.5547 33.2031 29.0234C32.7344 29.4922 32.5 30.0911 32.5 30.8203C32.5 31.5495 32.7344 32.1484 33.2031 32.6172C33.6719 33.0859 34.2708 33.3203 35 33.3203C35.7292 33.3203 36.3281 33.0859 36.7969 32.6172C37.2656 32.1484 37.5 31.5495 37.5 30.8203C37.5 30.0911 37.2656 29.4922 36.7969 29.0234C36.3281 28.5547 35.7292 28.3203 35 28.3203ZM50 30.8203C49.8958 33.1641 49.0625 35.8724 47.5 38.9453C45.8854 42.0182 44.0625 44.987 42.0312 47.8516C40 50.7682 38.2812 53.0859 36.875 54.8047C36.3542 55.4297 35.7292 55.7422 35 55.7422C34.2708 55.7422 33.6458 55.4297 33.125 54.8047C31.7188 53.0859 29.974 50.7682 27.8906 47.8516C25.8594 44.987 24.0625 42.0182 22.5 38.9453C20.9375 35.8724 20.1042 33.1641 20 30.8203C20.1042 26.5495 21.5625 23.0078 24.375 20.1953C27.1875 17.3828 30.7292 15.9245 35 15.8203C39.2708 15.9245 42.8125 17.3828 45.625 20.1953C48.4375 23.0078 49.8958 26.5495 50 30.8203ZM35 19.5703C31.8229 19.6745 29.1667 20.7682 27.0312 22.8516C24.9479 24.987 23.8542 27.6432 23.75 30.8203C23.75 31.8099 24.1406 33.2943 24.9219 35.2734C25.8073 37.2526 26.9271 39.3359 28.2812 41.5234C29.375 43.3464 30.5208 45.0651 31.7188 46.6797C32.9167 48.3464 34.0104 49.8307 35 51.1328C35.9896 49.8307 37.0833 48.3724 38.2812 46.7578C39.4792 45.0911 40.625 43.3464 41.7188 41.5234C43.0729 39.3359 44.1927 37.2526 45.0781 35.2734C45.8594 33.2943 46.25 31.8099 46.25 30.8203C46.1458 27.6432 45.0521 24.987 42.9688 22.8516C40.8333 20.7682 38.1771 19.6745 35 19.5703Z" fill="#87AB42"/>
</svg>
