<svg width="70" height="71" viewBox="0 0 70 71" fill="none" xmlns="http://www.w3.org/2000/svg">
<circle cx="35" cy="35.8203" r="35" fill="white"/>
<path d="M15 25.8203C15.0521 24.4141 15.5469 23.2422 16.4844 22.3047C17.4219 21.3672 18.5938 20.8724 20 20.8203H50C51.4062 20.8724 52.5781 21.3672 53.5156 22.3047C54.4531 23.2422 54.9479 24.4141 55 25.8203V45.8203C54.9479 47.2266 54.4531 48.3984 53.5156 49.3359C52.5781 50.2734 51.4062 50.7682 50 50.8203H20C18.5938 50.7682 17.4219 50.2734 16.4844 49.3359C15.5469 48.3984 15.0521 47.2266 15 45.8203V25.8203ZM18.75 25.8203V27.5391L32.2656 38.6328C33.099 39.2578 34.0104 39.5703 35 39.5703C35.9896 39.5703 36.9271 39.2578 37.8125 38.6328L51.25 27.5391V25.7422C51.1979 25.013 50.7812 24.5964 50 24.4922H20C19.2188 24.5964 18.8021 25.013 18.75 25.7422V25.8203ZM18.75 32.3828V45.8203C18.8021 46.6016 19.2188 47.0182 20 47.0703H50C50.7812 47.0182 51.1979 46.6016 51.25 45.8203V32.3828L40.1562 41.5234C38.5938 42.7214 36.875 43.3203 35 43.3203C33.125 43.3203 31.3802 42.7214 29.7656 41.5234L18.75 32.3828Z" fill="#87AB42"/>
</svg>
