<svg width="70" height="71" viewBox="0 0 70 71" fill="none" xmlns="http://www.w3.org/2000/svg">
<circle cx="35" cy="35.8203" r="35" fill="white"/>
<path d="M41.6055 24.5117C43.2878 25.9466 44.5742 27.6042 45.4648 29.4844C46.4049 31.4141 46.875 33.418 46.875 35.4961C46.875 37.6732 46.4049 39.7018 45.4648 41.582C44.5742 43.5117 43.2878 45.1445 41.6055 46.4805C41.2591 46.7773 40.888 46.9258 40.4922 46.9258C39.9479 46.9258 39.4779 46.7031 39.082 46.2578C38.4883 45.3672 38.5872 44.526 39.3789 43.7344C41.9518 41.5573 43.263 38.8112 43.3125 35.4961C43.263 32.181 41.9518 29.4349 39.3789 27.2578C38.5872 26.5156 38.4883 25.6745 39.082 24.7344C39.8737 23.9922 40.7148 23.918 41.6055 24.5117ZM46.1328 19.0195C48.6562 21.0977 50.5859 23.5716 51.9219 26.4414C53.3073 29.2617 54 32.2799 54 35.4961C54 38.7617 53.3073 41.8294 51.9219 44.6992C50.5859 47.569 48.6562 50.0182 46.1328 52.0469C45.7865 52.2943 45.4154 52.418 45.0195 52.418C44.4753 52.418 44.0299 52.2201 43.6836 51.8242C43.0404 50.8841 43.1146 50.043 43.9062 49.3008C45.9844 47.569 47.5924 45.5156 48.7305 43.1406C49.8685 40.7656 50.4375 38.2174 50.4375 35.4961C50.4375 32.8242 49.8685 30.3008 48.7305 27.9258C47.5924 25.5508 45.9844 23.4974 43.9062 21.7656C43.1146 21.0234 43.0404 20.1823 43.6836 19.2422C44.4258 18.5 45.2422 18.4258 46.1328 19.0195ZM27.8008 31.7852L25.6484 31.6367C25.0547 34.2591 25.0547 36.8815 25.6484 39.5039L27.8008 39.2812C29.4336 39.2318 30.5964 39.9245 31.2891 41.3594L33.5898 47.0742C33.8867 47.8659 33.9115 48.6328 33.6641 49.375C33.4167 50.1667 32.9219 50.7852 32.1797 51.2305L27.6523 54.0508C27.1081 54.3971 26.5143 54.5703 25.8711 54.5703C24.9805 54.5703 24.1888 54.224 23.4961 53.5312C21.0716 51.1068 19.2161 48.3607 17.9297 45.293C16.6432 42.1758 16 38.9102 16 35.4961C16 32.082 16.6432 28.8411 17.9297 25.7734C19.2161 22.7057 21.0716 19.9596 23.4961 17.5352C24.0404 16.9909 24.7083 16.6693 25.5 16.5703C26.2422 16.5208 26.9596 16.694 27.6523 17.0898L32.1797 19.8359C32.9219 20.3307 33.4167 20.9492 33.6641 21.6914C33.9115 22.4336 33.8867 23.2005 33.5898 23.9922L31.2891 29.707C30.5964 31.1914 29.4336 31.8841 27.8008 31.7852ZM22.6797 41.9531C21.2943 37.6979 21.2943 33.4427 22.6797 29.1875C23.026 28.3464 23.6445 27.9258 24.5352 27.9258L28.1719 28.2969L30.25 22.6562L25.8711 20.1328C23.8424 22.2109 22.2839 24.5612 21.1953 27.1836C20.1068 29.806 19.5625 32.5768 19.5625 35.4961C19.5625 38.4648 20.1068 41.2852 21.1953 43.957C22.2839 46.5794 23.8672 48.9544 25.9453 51.082L30.3242 48.1875L28.0234 42.6953L24.5352 43.1406C23.6445 43.1901 23.026 42.7943 22.6797 41.9531ZM37.1523 30.0781C38.8346 31.513 39.7005 33.3438 39.75 35.5703C39.7005 37.7969 38.8346 39.6276 37.1523 41.0625C36.806 41.3099 36.4102 41.4336 35.9648 41.4336C35.4206 41.4336 34.9753 41.2357 34.6289 40.8398C33.9857 39.8997 34.0599 39.0586 34.8516 38.3164C35.7422 37.5742 36.1875 36.6589 36.1875 35.5703C36.1875 34.4818 35.7422 33.5664 34.8516 32.8242C34.0599 32.082 33.9857 31.2409 34.6289 30.3008C35.3711 29.5586 36.2122 29.4844 37.1523 30.0781Z" fill="#87AB42"/>
</svg>
