<svg width="126" height="35" viewBox="0 0 126 35" fill="none" xmlns="http://www.w3.org/2000/svg">
<path d="M54.8342 15.0472C54.7631 14.3311 54.4583 13.7747 53.9197 13.3782C53.3812 12.9817 52.6502 12.7834 51.7269 12.7834C51.0996 12.7834 50.5698 12.8722 50.1378 13.0497C49.7057 13.2214 49.3743 13.4611 49.1435 13.7688C48.9186 14.0766 48.8061 14.4258 48.8061 14.8164C48.7943 15.1419 48.8623 15.426 49.0103 15.6687C49.1642 15.9113 49.3743 16.1214 49.6406 16.299C49.907 16.4706 50.2147 16.6216 50.5639 16.7518C50.9131 16.8761 51.286 16.9826 51.6825 17.0714L53.3161 17.462C54.1091 17.6396 54.8371 17.8763 55.5 18.1722C56.1629 18.4682 56.737 18.8321 57.2223 19.2642C57.7076 19.6963 58.0835 20.2053 58.3498 20.7912C58.622 21.3771 58.7611 22.0489 58.767 22.8065C58.7611 23.9192 58.477 24.8839 57.9148 25.7006C57.3584 26.5115 56.5535 27.1418 55.5 27.5916C54.4524 28.0355 53.1888 28.2575 51.7092 28.2575C50.2414 28.2575 48.9629 28.0326 47.8739 27.5827C46.7908 27.1329 45.9445 26.4671 45.3349 25.5852C44.7312 24.6974 44.4145 23.5996 44.3849 22.2915H48.1048C48.1462 22.9012 48.3208 23.4102 48.6286 23.8185C48.9422 24.221 49.3595 24.5258 49.8803 24.733C50.4071 24.9342 51.0019 25.0348 51.6648 25.0348C52.3158 25.0348 52.881 24.9401 53.3604 24.7507C53.8458 24.5613 54.2216 24.2979 54.4879 23.9606C54.7543 23.6232 54.8874 23.2356 54.8874 22.7976C54.8874 22.3892 54.7661 22.0459 54.5234 21.7678C54.2867 21.4896 53.9375 21.2528 53.4759 21.0575C53.0201 20.8622 52.4608 20.6847 51.7979 20.5249L49.8182 20.0277C48.2853 19.6548 47.0749 19.0719 46.1871 18.2788C45.2994 17.4857 44.8584 16.4174 44.8643 15.0739C44.8584 13.973 45.1514 13.0112 45.7433 12.1886C46.341 11.3659 47.1607 10.7237 48.2024 10.2621C49.2441 9.80043 50.4278 9.5696 51.7536 9.5696C53.103 9.5696 54.2808 9.80043 55.2869 10.2621C56.299 10.7237 57.0862 11.3659 57.6484 12.1886C58.2107 13.0112 58.5007 13.9641 58.5185 15.0472H54.8342ZM67.4429 28.2663C66.0639 28.2663 64.8713 27.9734 63.8651 27.3874C62.8649 26.7956 62.0925 25.9729 61.548 24.9194C61.0035 23.86 60.7313 22.6319 60.7313 21.2351C60.7313 19.8265 61.0035 18.5954 61.548 17.5419C62.0925 16.4825 62.8649 15.6598 63.8651 15.0739C64.8713 14.482 66.0639 14.1861 67.4429 14.1861C68.8219 14.1861 70.0116 14.482 71.0118 15.0739C72.018 15.6598 72.7933 16.4825 73.3378 17.5419C73.8823 18.5954 74.1546 19.8265 74.1546 21.2351C74.1546 22.6319 73.8823 23.86 73.3378 24.9194C72.7933 25.9729 72.018 26.7956 71.0118 27.3874C70.0116 27.9734 68.8219 28.2663 67.4429 28.2663ZM67.4607 25.3366C68.088 25.3366 68.6118 25.1591 69.032 24.804C69.4523 24.4429 69.7689 23.9517 69.982 23.3303C70.201 22.7088 70.3105 22.0015 70.3105 21.2085C70.3105 20.4154 70.201 19.7081 69.982 19.0866C69.7689 18.4652 69.4523 17.974 69.032 17.6129C68.6118 17.2519 68.088 17.0714 67.4607 17.0714C66.8274 17.0714 66.2947 17.2519 65.8627 17.6129C65.4365 17.974 65.114 18.4652 64.895 19.0866C64.6819 19.7081 64.5754 20.4154 64.5754 21.2085C64.5754 22.0015 64.6819 22.7088 64.895 23.3303C65.114 23.9517 65.4365 24.4429 65.8627 24.804C66.2947 25.1591 66.8274 25.3366 67.4607 25.3366ZM80.3957 9.81818V28H76.6137V9.81818H80.3957ZM87.3137 28.2575C86.4437 28.2575 85.6684 28.1065 84.9877 27.8047C84.3071 27.4969 83.7685 27.0442 83.372 26.4464C82.9814 25.8427 82.786 25.091 82.786 24.1914C82.786 23.4338 82.9251 22.7976 83.2033 22.2827C83.4815 21.7678 83.8603 21.3535 84.3397 21.0398C84.8191 20.7261 85.3636 20.4893 85.9732 20.3295C86.5887 20.1697 87.2338 20.0573 87.9086 19.9922C88.7016 19.9093 89.3408 19.8324 89.8262 19.7614C90.3115 19.6844 90.6636 19.572 90.8826 19.424C91.1016 19.276 91.2111 19.0571 91.2111 18.767V18.7138C91.2111 18.1515 91.0336 17.7165 90.6784 17.4087C90.3292 17.101 89.8321 16.9471 89.187 16.9471C88.5063 16.9471 87.9648 17.098 87.5623 17.3999C87.1599 17.6958 86.8935 18.0687 86.7633 18.5185L83.2654 18.2344C83.443 17.4058 83.7922 16.6896 84.313 16.0859C84.8339 15.4763 85.5056 15.0088 86.3283 14.6832C87.1569 14.3518 88.1157 14.1861 89.2047 14.1861C89.9623 14.1861 90.6873 14.2749 91.3798 14.4524C92.0782 14.63 92.6967 14.9052 93.2353 15.2781C93.7798 15.6509 94.2089 16.1303 94.5225 16.7163C94.8362 17.2963 94.9931 17.9917 94.9931 18.8026V28H91.4064V26.109H91.2999C91.0809 26.5352 90.7879 26.911 90.421 27.2365C90.054 27.5561 89.6131 27.8076 89.0982 27.9911C88.5833 28.1687 87.9885 28.2575 87.3137 28.2575ZM88.3968 25.6474C88.9532 25.6474 89.4444 25.5379 89.8706 25.3189C90.2967 25.094 90.6311 24.7921 90.8738 24.4134C91.1164 24.0346 91.2377 23.6055 91.2377 23.1261V21.679C91.1194 21.7559 90.9566 21.8269 90.7495 21.892C90.5482 21.9512 90.3204 22.0075 90.0659 22.0607C89.8114 22.1081 89.5569 22.1525 89.3024 22.1939C89.0479 22.2294 88.8171 22.262 88.6099 22.2915C88.166 22.3567 87.7784 22.4602 87.4469 22.6023C87.1155 22.7443 86.858 22.9367 86.6745 23.1793C86.4911 23.4161 86.3993 23.712 86.3993 24.0671C86.3993 24.582 86.5858 24.9756 86.9586 25.2479C87.3374 25.5142 87.8168 25.6474 88.3968 25.6474ZM97.9272 28V14.3636H101.594V16.7429H101.736C101.984 15.8965 102.402 15.2573 102.988 14.8253C103.574 14.3873 104.248 14.1683 105.012 14.1683C105.201 14.1683 105.405 14.1802 105.624 14.2038C105.843 14.2275 106.036 14.2601 106.201 14.3015V17.6573C106.024 17.604 105.778 17.5567 105.464 17.5153C105.151 17.4738 104.864 17.4531 104.603 17.4531C104.047 17.4531 103.55 17.5745 103.112 17.8171C102.68 18.0539 102.337 18.3853 102.082 18.8114C101.833 19.2376 101.709 19.7288 101.709 20.2852V28H97.9272ZM111.832 9.81818L115.499 16.0149H115.641L119.325 9.81818H123.666L118.118 18.9091L123.791 28H119.369L115.641 21.7944H115.499L111.77 28H107.367L113.057 18.9091L107.473 9.81818H111.832Z" fill="white"/>
<path d="M31.0465 25.5883C30.5847 25.8285 30.109 26.0384 29.6216 26.2203C28.0801 26.794 26.4453 27.0855 24.7989 27.0808C18.4463 27.0808 12.91 22.7152 12.91 17.0996C12.9263 15.5698 13.7682 14.1659 15.1138 13.4336C9.36525 13.6761 7.88672 19.6672 7.88672 23.1723C7.88672 33.1116 17.0331 34.1074 19.0084 34.1074C20.0694 34.1074 21.6669 33.7995 22.6347 33.4894L22.8096 33.4357C26.5106 32.1578 29.6659 29.6555 31.7554 26.3439C31.9094 26.0897 31.8277 25.7586 31.5735 25.607C31.415 25.5067 31.2121 25.4997 31.0465 25.5883Z" fill="white"/>
<path opacity="0.35" d="M31.0465 25.5883C30.5847 25.8285 30.109 26.0384 29.6216 26.2203C28.0801 26.794 26.4453 27.0855 24.7989 27.0808C18.4463 27.0808 12.91 22.7152 12.91 17.0996C12.9263 15.5698 13.7682 14.1659 15.1138 13.4336C9.36525 13.6761 7.88672 19.6672 7.88672 23.1723C7.88672 33.1116 17.0331 34.1074 19.0084 34.1074C20.0694 34.1074 21.6669 33.7995 22.6347 33.4894L22.8096 33.4357C26.5106 32.1578 29.6659 29.6555 31.7554 26.3439C31.9094 26.0897 31.8277 25.7586 31.5735 25.607C31.415 25.5067 31.2121 25.4997 31.0465 25.5883Z" fill="url(#paint0_radial_0_10937)"/>
<path d="M14.2039 32.4122C13.0075 31.6706 11.9721 30.6981 11.1559 29.5507C7.62511 24.7164 8.67921 17.9347 13.5136 14.404C14.0196 14.0355 14.556 13.709 15.118 13.4315C15.5472 13.2309 16.2608 12.8811 17.2146 12.8951C18.5742 12.9068 19.8521 13.5528 20.666 14.6418C21.2071 15.3694 21.5033 16.2486 21.5126 17.1535C21.5126 17.1255 24.8031 6.46094 10.7664 6.46094C4.86861 6.46094 0.0202368 12.0486 0.0202368 16.9646C-0.00308385 19.5625 0.551949 22.1301 1.64569 24.4878C5.35368 32.3819 14.3811 36.2508 22.653 33.4873C19.8195 34.3828 16.7365 33.9887 14.2179 32.4122H14.2039Z" fill="white"/>
<path opacity="0.41" d="M14.2039 32.4122C13.0075 31.6706 11.9721 30.6981 11.1559 29.5507C7.62511 24.7164 8.67921 17.9347 13.5136 14.404C14.0196 14.0355 14.556 13.709 15.118 13.4315C15.5472 13.2309 16.2608 12.8811 17.2146 12.8951C18.5742 12.9068 19.8521 13.5528 20.666 14.6418C21.2071 15.3694 21.5033 16.2486 21.5126 17.1535C21.5126 17.1255 24.8031 6.46094 10.7664 6.46094C4.86861 6.46094 0.0202368 12.0486 0.0202368 16.9646C-0.00308385 19.5625 0.551949 22.1301 1.64569 24.4878C5.35368 32.3819 14.3811 36.2508 22.653 33.4873C19.8195 34.3828 16.7365 33.9887 14.2179 32.4122H14.2039Z" fill="url(#paint1_radial_0_10937)"/>
<path d="M20.4756 19.9881C20.3543 20.1234 20.0185 20.324 20.0185 20.7414C20.0185 21.0912 20.247 21.441 20.6621 21.7209C22.5837 23.0641 26.2241 22.8752 26.2358 22.8752C27.6677 22.8752 29.0739 22.4881 30.3052 21.7605C32.8309 20.2843 34.384 17.5791 34.3887 14.6547C34.4283 11.6463 33.3136 9.64543 32.8705 8.75691C30.0091 3.19493 23.871 0 17.1943 0C7.79144 0 0.132928 7.55122 0 16.9518C0.06763 12.0498 4.94399 8.08528 10.7462 8.08528C11.2172 8.08528 13.9038 8.12492 16.3874 9.42855C18.1342 10.2961 19.58 11.6673 20.5385 13.3651C21.3571 14.79 21.5063 16.602 21.5063 17.3273C21.5063 18.0525 21.1425 19.1136 20.4592 19.9998L20.4756 19.9881Z" fill="url(#paint2_radial_0_10937)"/>
<path d="M20.4756 19.9881C20.3543 20.1234 20.0185 20.324 20.0185 20.7414C20.0185 21.0912 20.247 21.441 20.6621 21.7209C22.5837 23.0641 26.2241 22.8752 26.2358 22.8752C27.6677 22.8752 29.0739 22.4881 30.3052 21.7605C32.8309 20.2843 34.384 17.5791 34.3887 14.6547C34.4283 11.6463 33.3136 9.64543 32.8705 8.75691C30.0091 3.19493 23.871 0 17.1943 0C7.79144 0 0.132928 7.55122 0 16.9518C0.06763 12.0498 4.94399 8.08528 10.7462 8.08528C11.2172 8.08528 13.9038 8.12492 16.3874 9.42855C18.1342 10.2961 19.58 11.6673 20.5385 13.3651C21.3571 14.79 21.5063 16.602 21.5063 17.3273C21.5063 18.0525 21.1425 19.1136 20.4592 19.9998L20.4756 19.9881Z" fill="url(#paint3_linear_0_10937)"/>
<defs>
<radialGradient id="paint0_radial_0_10937" cx="0" cy="0" r="1" gradientUnits="userSpaceOnUse" gradientTransform="translate(21.1197 23.9563) scale(12.8146 12.1738)">
<stop offset="0.7" stop-opacity="0"/>
<stop offset="0.9" stop-opacity="0.5"/>
<stop offset="1"/>
</radialGradient>
<radialGradient id="paint1_radial_0_10937" cx="0" cy="0" r="1" gradientUnits="userSpaceOnUse" gradientTransform="translate(9.48304 26.7226) rotate(-81.3844) scale(19.2603 15.5604)">
<stop offset="0.8" stop-opacity="0"/>
<stop offset="0.9" stop-opacity="0.5"/>
<stop offset="1"/>
</radialGradient>
<radialGradient id="paint2_radial_0_10937" cx="0" cy="0" r="1" gradientUnits="userSpaceOnUse" gradientTransform="translate(3.48188 6.35737) rotate(92.2906) scale(27.2091 57.9497)">
<stop stop-color="#FF7029"/>
<stop offset="0.1" stop-color="#FF7029"/>
<stop offset="0.2" stop-color="#FF7029"/>
<stop offset="0.3" stop-color="#FF7029"/>
<stop offset="0.7" stop-color="#87AB42"/>
</radialGradient>
<linearGradient id="paint3_linear_0_10937" x1="-1.73744" y1="11.3615" x2="36.1697" y2="15.0976" gradientUnits="userSpaceOnUse">
<stop offset="0.49" stop-color="white"/>
<stop offset="1" stop-color="white"/>
</linearGradient>
</defs>
</svg>
