<svg width="126" height="35" viewBox="0 0 126 35" fill="none" xmlns="http://www.w3.org/2000/svg">
<path d="M54.8342 15.2269C54.7631 14.5108 54.4583 13.9544 53.9197 13.5579C53.3812 13.1613 52.6502 12.9631 51.7269 12.9631C51.0996 12.9631 50.5698 13.0518 50.1378 13.2294C49.7057 13.401 49.3743 13.6407 49.1435 13.9485C48.9186 14.2563 48.8061 14.6055 48.8061 14.9961C48.7943 15.3216 48.8623 15.6057 49.0103 15.8484C49.1642 16.091 49.3743 16.3011 49.6406 16.4787C49.907 16.6503 50.2147 16.8013 50.5639 16.9315C50.9131 17.0558 51.286 17.1623 51.6825 17.2511L53.3161 17.6417C54.1091 17.8192 54.8371 18.056 55.5 18.3519C56.1629 18.6478 56.737 19.0118 57.2223 19.4439C57.7076 19.8759 58.0835 20.3849 58.3498 20.9709C58.622 21.5568 58.7611 22.2286 58.767 22.9862C58.7611 24.0988 58.477 25.0636 57.9148 25.8803C57.3584 26.6912 56.5535 27.3215 55.5 27.7713C54.4524 28.2152 53.1888 28.4371 51.7092 28.4371C50.2414 28.4371 48.9629 28.2122 47.8739 27.7624C46.7908 27.3126 45.9445 26.6468 45.3349 25.7649C44.7312 24.8771 44.4145 23.7792 44.3849 22.4712H48.1048C48.1462 23.0808 48.3208 23.5898 48.6286 23.9982C48.9422 24.4007 49.3595 24.7055 49.8803 24.9126C50.4071 25.1139 51.0019 25.2145 51.6648 25.2145C52.3158 25.2145 52.881 25.1198 53.3604 24.9304C53.8458 24.741 54.2216 24.4776 54.4879 24.1403C54.7543 23.8029 54.8874 23.4152 54.8874 22.9773C54.8874 22.5689 54.7661 22.2256 54.5234 21.9474C54.2867 21.6693 53.9375 21.4325 53.4759 21.2372C53.0201 21.0419 52.4608 20.8643 51.7979 20.7045L49.8182 20.2074C48.2853 19.8345 47.0749 19.2515 46.1871 18.4585C45.2994 17.6654 44.8584 16.5971 44.8643 15.2536C44.8584 14.1527 45.1514 13.1909 45.7433 12.3683C46.341 11.5456 47.1607 10.9034 48.2024 10.4418C49.2441 9.98011 50.4278 9.74929 51.7536 9.74929C53.103 9.74929 54.2808 9.98011 55.2869 10.4418C56.299 10.9034 57.0862 11.5456 57.6484 12.3683C58.2107 13.1909 58.5007 14.1438 58.5185 15.2269H54.8342ZM67.4429 28.446C66.0639 28.446 64.8713 28.1531 63.8651 27.5671C62.8649 26.9753 62.0925 26.1526 61.548 25.0991C61.0035 24.0397 60.7313 22.8116 60.7313 21.4148C60.7313 20.0062 61.0035 18.7751 61.548 17.7216C62.0925 16.6622 62.8649 15.8395 63.8651 15.2536C64.8713 14.6617 66.0639 14.3658 67.4429 14.3658C68.8219 14.3658 70.0116 14.6617 71.0118 15.2536C72.018 15.8395 72.7933 16.6622 73.3378 17.7216C73.8823 18.7751 74.1546 20.0062 74.1546 21.4148C74.1546 22.8116 73.8823 24.0397 73.3378 25.0991C72.7933 26.1526 72.018 26.9753 71.0118 27.5671C70.0116 28.1531 68.8219 28.446 67.4429 28.446ZM67.4607 25.5163C68.088 25.5163 68.6118 25.3388 69.032 24.9837C69.4523 24.6226 69.7689 24.1314 69.982 23.5099C70.201 22.8885 70.3105 22.1812 70.3105 21.3881C70.3105 20.5951 70.201 19.8878 69.982 19.2663C69.7689 18.6449 69.4523 18.1536 69.032 17.7926C68.6118 17.4316 68.088 17.2511 67.4607 17.2511C66.8274 17.2511 66.2947 17.4316 65.8627 17.7926C65.4365 18.1536 65.114 18.6449 64.895 19.2663C64.6819 19.8878 64.5754 20.5951 64.5754 21.3881C64.5754 22.1812 64.6819 22.8885 64.895 23.5099C65.114 24.1314 65.4365 24.6226 65.8627 24.9837C66.2947 25.3388 66.8274 25.5163 67.4607 25.5163ZM80.3957 9.99787V28.1797H76.6137V9.99787H80.3957ZM87.3137 28.4371C86.4437 28.4371 85.6684 28.2862 84.9877 27.9844C84.3071 27.6766 83.7685 27.2238 83.372 26.6261C82.9814 26.0224 82.786 25.2707 82.786 24.3711C82.786 23.6135 82.9251 22.9773 83.2033 22.4624C83.4815 21.9474 83.8603 21.5331 84.3397 21.2195C84.8191 20.9058 85.3636 20.669 85.9732 20.5092C86.5887 20.3494 87.2338 20.237 87.9086 20.1719C88.7016 20.089 89.3408 20.0121 89.8262 19.9411C90.3115 19.8641 90.6636 19.7517 90.8826 19.6037C91.1016 19.4557 91.2111 19.2367 91.2111 18.9467V18.8935C91.2111 18.3312 91.0336 17.8962 90.6784 17.5884C90.3292 17.2807 89.8321 17.1268 89.187 17.1268C88.5063 17.1268 87.9648 17.2777 87.5623 17.5795C87.1599 17.8755 86.8935 18.2483 86.7633 18.6982L83.2654 18.4141C83.443 17.5855 83.7922 16.8693 84.313 16.2656C84.8339 15.656 85.5056 15.1884 86.3283 14.8629C87.1569 14.5315 88.1157 14.3658 89.2047 14.3658C89.9623 14.3658 90.6873 14.4545 91.3798 14.6321C92.0782 14.8097 92.6967 15.0849 93.2353 15.4577C93.7798 15.8306 94.2089 16.31 94.5225 16.896C94.8362 17.476 94.9931 18.1714 94.9931 18.9822V28.1797H91.4064V26.2887H91.2999C91.0809 26.7148 90.7879 27.0907 90.421 27.4162C90.054 27.7358 89.6131 27.9873 89.0982 28.1708C88.5833 28.3484 87.9885 28.4371 87.3137 28.4371ZM88.3968 25.8271C88.9532 25.8271 89.4444 25.7176 89.8706 25.4986C90.2967 25.2737 90.6311 24.9718 90.8738 24.593C91.1164 24.2143 91.2377 23.7852 91.2377 23.3058V21.8587C91.1194 21.9356 90.9566 22.0066 90.7495 22.0717C90.5482 22.1309 90.3204 22.1871 90.0659 22.2404C89.8114 22.2878 89.5569 22.3321 89.3024 22.3736C89.0479 22.4091 88.8171 22.4416 88.6099 22.4712C88.166 22.5363 87.7784 22.6399 87.4469 22.782C87.1155 22.924 86.858 23.1164 86.6745 23.359C86.4911 23.5958 86.3993 23.8917 86.3993 24.2468C86.3993 24.7617 86.5858 25.1553 86.9586 25.4276C87.3374 25.6939 87.8168 25.8271 88.3968 25.8271ZM97.9272 28.1797V14.5433H101.594V16.9226H101.736C101.984 16.0762 102.402 15.437 102.988 15.005C103.574 14.567 104.248 14.348 105.012 14.348C105.201 14.348 105.405 14.3598 105.624 14.3835C105.843 14.4072 106.036 14.4397 106.201 14.4812V17.837C106.024 17.7837 105.778 17.7364 105.464 17.695C105.151 17.6535 104.864 17.6328 104.603 17.6328C104.047 17.6328 103.55 17.7541 103.112 17.9968C102.68 18.2335 102.337 18.565 102.082 18.9911C101.833 19.4173 101.709 19.9085 101.709 20.4648V28.1797H97.9272ZM111.832 9.99787L115.499 16.1946H115.641L119.325 9.99787H123.666L118.118 19.0888L123.791 28.1797H119.369L115.641 21.9741H115.499L111.77 28.1797H107.367L113.057 19.0888L107.473 9.99787H111.832Z" fill="white"/>
<path d="M31.0465 25.768C30.5847 26.0082 30.109 26.2181 29.6216 26.4C28.0801 26.9737 26.4453 27.2652 24.7989 27.2605C18.4463 27.2605 12.91 22.8949 12.91 17.2793C12.9263 15.7494 13.7682 14.3456 15.1138 13.6133C9.36525 13.8558 7.88672 19.8469 7.88672 23.352C7.88672 33.2913 17.0331 34.2871 19.0084 34.2871C20.0694 34.2871 21.6669 33.9792 22.6347 33.6691L22.8096 33.6154C26.5106 32.3375 29.6659 29.8351 31.7554 26.5236C31.9094 26.2694 31.8277 25.9383 31.5735 25.7867C31.415 25.6864 31.2121 25.6794 31.0465 25.768Z" fill="#496018"/>
<path opacity="0.35" d="M31.0465 25.768C30.5847 26.0082 30.109 26.2181 29.6216 26.4C28.0801 26.9737 26.4453 27.2652 24.7989 27.2605C18.4463 27.2605 12.91 22.8949 12.91 17.2793C12.9263 15.7494 13.7682 14.3456 15.1138 13.6133C9.36525 13.8558 7.88672 19.8469 7.88672 23.352C7.88672 33.2913 17.0331 34.2871 19.0084 34.2871C20.0694 34.2871 21.6669 33.9792 22.6347 33.6691L22.8096 33.6154C26.5106 32.3375 29.6659 29.8351 31.7554 26.5236C31.9094 26.2694 31.8277 25.9383 31.5735 25.7867C31.415 25.6864 31.2121 25.6794 31.0465 25.768Z" fill="url(#paint0_radial_0_11550)"/>
<path d="M14.2039 32.5919C13.0075 31.8503 11.9721 30.8778 11.1559 29.7304C7.62511 24.8961 8.67921 18.1144 13.5136 14.5836C14.0196 14.2152 14.556 13.8887 15.118 13.6112C15.5472 13.4106 16.2608 13.0608 17.2146 13.0748C18.5742 13.0865 19.8521 13.7324 20.666 14.8215C21.2071 15.5491 21.5033 16.4283 21.5126 17.3332C21.5126 17.3052 24.8031 6.64062 10.7664 6.64062C4.86861 6.64062 0.0202368 12.2283 0.0202368 17.1443C-0.00308385 19.7422 0.551949 22.3098 1.64569 24.6675C5.35368 32.5616 14.3811 36.4305 22.653 33.667C19.8195 34.5625 16.7365 34.1684 14.2179 32.5919H14.2039Z" fill="#87AB42"/>
<path opacity="0.41" d="M14.2039 32.5919C13.0075 31.8503 11.9721 30.8778 11.1559 29.7304C7.62511 24.8961 8.67921 18.1144 13.5136 14.5836C14.0196 14.2152 14.556 13.8887 15.118 13.6112C15.5472 13.4106 16.2608 13.0608 17.2146 13.0748C18.5742 13.0865 19.8521 13.7324 20.666 14.8215C21.2071 15.5491 21.5033 16.4283 21.5126 17.3332C21.5126 17.3052 24.8031 6.64062 10.7664 6.64062C4.86861 6.64062 0.0202368 12.2283 0.0202368 17.1443C-0.00308385 19.7422 0.551949 22.3098 1.64569 24.6675C5.35368 32.5616 14.3811 36.4305 22.653 33.667C19.8195 34.5625 16.7365 34.1684 14.2179 32.5919H14.2039Z" fill="url(#paint1_radial_0_11550)"/>
<path d="M20.4756 20.1678C20.3543 20.3031 20.0185 20.5037 20.0185 20.9211C20.0185 21.2709 20.247 21.6207 20.6621 21.9006C22.5837 23.2438 26.2241 23.0549 26.2358 23.0549C27.6677 23.0549 29.0739 22.6678 30.3052 21.9402C32.8309 20.464 34.384 17.7588 34.3887 14.8344C34.4283 11.826 33.3136 9.82512 32.8705 8.9366C30.0091 3.37462 23.871 0.179688 17.1943 0.179688C7.79144 0.179688 0.132928 7.73091 0 17.1315C0.06763 12.2295 4.94399 8.26497 10.7462 8.26497C11.2172 8.26497 13.9038 8.30461 16.3874 9.60824C18.1342 10.4758 19.58 11.847 20.5385 13.5448C21.3571 14.9697 21.5063 16.7817 21.5063 17.507C21.5063 18.2322 21.1425 19.2933 20.4592 20.1795L20.4756 20.1678Z" fill="url(#paint2_radial_0_11550)"/>
<path d="M20.4756 20.1678C20.3543 20.3031 20.0185 20.5037 20.0185 20.9211C20.0185 21.2709 20.247 21.6207 20.6621 21.9006C22.5837 23.2438 26.2241 23.0549 26.2358 23.0549C27.6677 23.0549 29.0739 22.6678 30.3052 21.9402C32.8309 20.464 34.384 17.7588 34.3887 14.8344C34.4283 11.826 33.3136 9.82512 32.8705 8.9366C30.0091 3.37462 23.871 0.179688 17.1943 0.179688C7.79144 0.179688 0.132928 7.73091 0 17.1315C0.06763 12.2295 4.94399 8.26497 10.7462 8.26497C11.2172 8.26497 13.9038 8.30461 16.3874 9.60824C18.1342 10.4758 19.58 11.847 20.5385 13.5448C21.3571 14.9697 21.5063 16.7817 21.5063 17.507C21.5063 18.2322 21.1425 19.2933 20.4592 20.1795L20.4756 20.1678Z" fill="url(#paint3_linear_0_11550)"/>
<defs>
<radialGradient id="paint0_radial_0_11550" cx="0" cy="0" r="1" gradientUnits="userSpaceOnUse" gradientTransform="translate(21.1197 24.136) scale(12.8146 12.1738)">
<stop offset="0.7" stop-opacity="0"/>
<stop offset="0.9" stop-opacity="0.5"/>
<stop offset="1"/>
</radialGradient>
<radialGradient id="paint1_radial_0_11550" cx="0" cy="0" r="1" gradientUnits="userSpaceOnUse" gradientTransform="translate(9.48304 26.9023) rotate(-81.3844) scale(19.2603 15.5604)">
<stop offset="0.8" stop-opacity="0"/>
<stop offset="0.9" stop-opacity="0.5"/>
<stop offset="1"/>
</radialGradient>
<radialGradient id="paint2_radial_0_11550" cx="0" cy="0" r="1" gradientUnits="userSpaceOnUse" gradientTransform="translate(3.48188 6.53706) rotate(92.2906) scale(27.2091 57.9497)">
<stop stop-color="#FF7029"/>
<stop offset="0.1" stop-color="#FF7029"/>
<stop offset="0.2" stop-color="#FF7029"/>
<stop offset="0.3" stop-color="#FF7029"/>
<stop offset="0.7" stop-color="#87AB42"/>
</radialGradient>
<linearGradient id="paint3_linear_0_11550" x1="-1.73744" y1="11.5412" x2="36.1697" y2="15.2773" gradientUnits="userSpaceOnUse">
<stop offset="0.49" stop-color="#87AB42"/>
<stop offset="1" stop-color="#FF7029"/>
</linearGradient>
</defs>
</svg>
