<svg width="252" height="249" viewBox="0 0 252 249" fill="none" xmlns="http://www.w3.org/2000/svg">
<path d="M126.026 233.105C95.8755 233.105 69.0755 223.055 48.9755 199.605C28.8755 179.505 15.4755 152.705 18.8255 122.555C18.8255 92.4055 28.8755 65.6055 52.3255 45.5055C92.5255 5.30547 166.226 5.30547 206.426 45.5055C226.526 65.6055 239.926 92.4055 239.926 122.555C239.926 152.705 229.876 179.505 206.426 199.605C182.976 219.705 156.176 233.105 126.026 233.105ZM126.026 48.8555C105.926 48.8555 85.8255 55.5555 72.4255 72.3055C59.0255 85.7055 48.9755 105.805 48.9755 125.905C48.9755 146.005 55.6755 166.105 72.4255 179.505C99.2255 206.305 149.476 206.305 179.626 179.505C193.026 166.105 203.076 146.005 203.076 125.905C203.076 105.805 196.376 85.7055 179.626 72.3055C166.226 55.5555 146.126 48.8555 126.026 48.8555Z" fill="#87AB42" fill-opacity="0.05"/>
<path d="M227.57 0L251.255 23.718L191.96 82.9292L168.275 59.2112L227.57 0Z" fill="#87AB42" fill-opacity="0.06"/>
<path d="M59.3789 166.031L83.0299 189.783L23.6512 248.91L0.000158393 225.159L59.3789 166.031Z" fill="#87AB42" fill-opacity="0.06"/>
<path d="M190.891 164.668L250.102 223.963L226.384 247.647L167.173 188.352L190.891 164.668Z" fill="#87AB42" fill-opacity="0.06"/>
<path d="M24.8828 1.21484L84.1778 60.4261L60.4933 84.1441L1.19831 24.9328L24.8828 1.21484Z" fill="#87AB42" fill-opacity="0.06"/>
</svg>
