<svg width="483" height="483" viewBox="0 0 483 483" fill="none" xmlns="http://www.w3.org/2000/svg">
<g opacity="0.015">
<path d="M218.767 6.57812H241.501V135.406L196.032 105.094L218.767 6.57812Z" fill="#E6F8FA"/>
<path d="M241.501 117.188V29.3125H229.081L213.159 98.2962L241.501 117.188Z" fill="#DCF0F5"/>
<path d="M296.313 312.243L305.786 328.649L391.108 279.391L345.912 261.734L296.313 312.243Z" fill="#E6F8FA"/>
<path d="M313.235 311.233L348.762 275.055L378.491 286.672L318.911 321.069L313.235 311.233Z" fill="#DCF0F5"/>
<path d="M402.475 286.969H379.741L360.796 453.688H421.421L402.475 286.969Z" fill="#AABEC3"/>
<path d="M402.475 286.969H394.897L375.952 453.688H421.421L402.475 286.969Z" fill="#9BAFB4"/>
<path d="M410.054 180.875H391.108L391.108 279.391L428.999 249.078L410.054 180.875Z" fill="#E6F8FA"/>
<path d="M402.46 196.031L416.033 244.887L391.108 264.825V196.031H402.46Z" fill="#DCF0F5"/>
<path d="M466.95 345.055L476.423 328.648L391.108 279.391L398.414 327.36L466.95 345.055Z" fill="#E6F8FA"/>
<path d="M457.622 330.905L408.523 318.227L403.719 286.672L463.298 321.069L457.622 330.905Z" fill="#DCF0F5"/>
<path d="M391.108 302.125C403.664 302.125 413.843 291.946 413.843 279.391C413.843 266.835 403.664 256.656 391.108 256.656C378.552 256.656 368.374 266.835 368.374 279.391C368.374 291.946 378.552 302.125 391.108 302.125Z" fill="#69DC97"/>
<path d="M80.5264 286.969H103.261L122.206 453.688H61.5811L80.5264 286.969Z" fill="#AABEC3"/>
<path d="M103.261 286.969H95.6826L76.7373 453.688H122.206L103.261 286.969Z" fill="#9BAFB4"/>
<path d="M72.9483 180.875H91.8936V279.391L54.0029 249.078L72.9483 180.875Z" fill="#E6F8FA"/>
<path d="M80.5411 196.031L66.9687 244.887L91.8931 264.825V196.031H80.5411Z" fill="#DCF0F5"/>
<path d="M16.0517 345.055L6.57904 328.648L91.8936 279.391L84.5882 327.36L16.0517 345.055Z" fill="#E6F8FA"/>
<path d="M25.3801 330.905L74.4787 318.227L79.2833 286.672L19.704 321.069L25.3801 330.905Z" fill="#DCF0F5"/>
<path d="M186.688 312.243L177.216 328.649L91.8936 279.391L137.089 261.734L186.688 312.243Z" fill="#E6F8FA"/>
<path d="M169.766 311.233L134.24 275.055L104.511 286.672L164.09 321.069L169.766 311.233Z" fill="#DCF0F5"/>
<path d="M91.8936 302.125C104.449 302.125 114.628 291.946 114.628 279.391C114.628 266.835 104.449 256.656 91.8936 256.656C79.3377 256.656 69.1592 266.835 69.1592 279.391C69.1592 291.946 79.3377 302.125 91.8936 302.125Z" fill="#69DC97"/>
<path d="M6.57904 453.688H476.423V476.422H6.57904V453.688Z" fill="#A5EAC1"/>
<path d="M29.3134 465.055H476.423V476.422H29.3134V465.055Z" fill="#69DC97"/>
<path d="M196.032 453.688L226.345 150.562H256.657L286.97 453.688H196.032Z" fill="#AABEC3"/>
<path d="M256.657 150.562H241.501L211.188 453.688H286.97L256.657 150.562Z" fill="#9BAFB4"/>
<path d="M364.433 180.133L353.066 199.821L241.501 135.406L290.486 111.188L364.433 180.133Z" fill="#E6F8FA"/>
<path d="M257.278 144.514L333.378 188.452L339.592 177.691L287.811 129.418L257.278 144.514Z" fill="#DCF0F5"/>
<path d="M141.303 219.508L129.935 199.82L241.501 135.406L237.984 189.938L141.303 219.508Z" fill="#E6F8FA"/>
<path d="M225.723 144.516L149.624 188.454L155.83 199.215L223.533 178.511L225.723 144.516Z" fill="#DCF0F5"/>
<path d="M241.501 161.93C256.149 161.93 268.024 150.055 268.024 135.406C268.024 120.758 256.149 108.883 241.501 108.883C226.852 108.883 214.977 120.758 214.977 135.406C214.977 150.055 226.852 161.93 241.501 161.93Z" fill="#69DC97"/>
<path d="M438.532 52.0469H398.307L415.798 6.57812H376.013L347.595 80.4648H381.696L370.329 131.617L438.532 52.0469Z" fill="#FFED8D"/>
<path d="M409.97 21.7344H385.341L362.751 80.4648H396.852L370.329 131.617L438.532 52.0469H398.307L409.97 21.7344Z" fill="#FFE164"/>
<path d="M135.407 52.0469H95.1825L112.673 6.57812H72.8876L44.4697 80.4648H78.5712L67.204 131.617L135.407 52.0469Z" fill="#FFED8D"/>
<path d="M106.845 21.7344H82.2163L59.6259 80.4648H93.7275L67.204 131.617L135.407 52.0469H95.1825L106.845 21.7344Z" fill="#FFE164"/>
<path d="M347.595 86.1484H374.611L364.759 130.374C364.489 131.609 364.637 132.899 365.182 134.039C365.727 135.18 366.636 136.107 367.766 136.673C368.896 137.239 370.183 137.412 371.423 137.165C372.662 136.917 373.784 136.264 374.611 135.308L442.814 55.7374C443.519 54.9143 443.974 53.9066 444.126 52.8333C444.277 51.7599 444.119 50.6656 443.669 49.6794C443.219 48.6933 442.496 47.8564 441.586 47.2675C440.676 46.6786 439.616 46.3622 438.532 46.3557H406.583L421.103 8.61664C421.433 7.75582 421.55 6.82745 421.441 5.91163C421.333 4.99582 421.004 4.12007 420.482 3.35996C419.96 2.59985 419.26 1.97821 418.444 1.54869C417.628 1.11916 416.72 0.894653 415.798 0.894531H376.013C374.864 0.895734 373.742 1.24456 372.796 1.89515C371.849 2.54574 371.121 3.46764 370.708 4.53961L342.29 78.4112C341.956 79.2728 341.837 80.2028 341.944 81.1207C342.051 82.0386 342.379 82.9166 342.902 83.6787C343.424 84.4409 344.125 85.0641 344.943 85.4944C345.76 85.9248 346.671 86.1493 347.595 86.1484ZM379.915 12.2617H407.523L393.01 50.0008C392.68 50.8616 392.563 51.79 392.671 52.7058C392.78 53.6216 393.109 54.4974 393.631 55.2575C394.153 56.0176 394.853 56.6392 395.669 57.0687C396.485 57.4983 397.393 57.7228 398.315 57.7229H426.172L380.81 110.641L387.243 81.6849C387.424 80.8552 387.417 79.9955 387.223 79.1689C387.028 78.3423 386.651 77.5697 386.119 76.9077C385.587 76.2457 384.914 75.7111 384.149 75.3432C383.383 74.9752 382.545 74.7832 381.696 74.7813H355.87L379.915 12.2617Z" fill="black"/>
<path d="M44.4697 86.1484H71.4857L61.6341 130.374C61.3636 131.609 61.5124 132.899 62.057 134.039C62.6016 135.18 63.5109 136.107 64.6411 136.673C65.7713 137.239 67.058 137.412 68.2976 137.165C69.5372 136.917 70.659 136.264 71.4857 135.308L139.689 55.7374C140.394 54.9143 140.849 53.9066 141.001 52.8333C141.152 51.7599 140.994 50.6656 140.544 49.6794C140.094 48.6933 139.371 47.8564 138.461 47.2675C137.551 46.6786 136.491 46.3622 135.407 46.3557H103.458L117.977 8.61664C118.308 7.75582 118.425 6.82745 118.316 5.91163C118.208 4.99582 117.879 4.12007 117.357 3.35996C116.835 2.59985 116.135 1.97821 115.319 1.54869C114.503 1.11916 113.595 0.894653 112.673 0.894531H72.8876C71.7388 0.895734 70.6173 1.24456 69.6705 1.89515C68.7237 2.54574 67.996 3.46764 67.5829 4.53961L39.165 78.4112C38.8311 79.2728 38.7123 80.2028 38.8189 81.1207C38.9256 82.0386 39.2544 82.9166 39.7769 83.6787C40.2994 84.4409 40.9999 85.0641 41.8176 85.4944C42.6353 85.9248 43.5456 86.1493 44.4697 86.1484ZM76.7904 12.2617H104.397L89.8854 50.0008C89.5546 50.8616 89.4383 51.79 89.5464 52.7058C89.6546 53.6216 89.9839 54.4974 90.5061 55.2575C91.0282 56.0176 91.7275 56.6392 92.5435 57.0687C93.3596 57.4983 94.2679 57.7228 95.1901 57.7229H123.047L77.6846 110.641L84.1184 81.6849C84.2993 80.8552 84.2923 79.9955 84.0978 79.1689C83.9033 78.3423 83.5263 77.5697 82.9944 76.9077C82.4624 76.2457 81.7891 75.7111 81.0238 75.3432C80.2584 74.9752 79.4204 74.7832 78.5712 74.7813H52.745L76.7904 12.2617Z" fill="black"/>
<path d="M476.423 448.004H426.498L413.903 337.234L465.525 350.557C466.728 350.867 467.999 350.776 469.145 350.295C470.29 349.815 471.247 348.972 471.868 347.897L481.341 331.49C481.716 330.845 481.959 330.132 482.058 329.392C482.156 328.652 482.108 327.9 481.915 327.179C481.722 326.458 481.388 325.782 480.934 325.19C480.479 324.599 479.912 324.102 479.265 323.73L417.942 288.325C419.215 284.779 419.726 281.005 419.443 277.249C419.159 273.492 418.088 269.838 416.298 266.523L432.553 253.519C433.422 252.822 434.068 251.886 434.41 250.826C434.752 249.766 434.776 248.628 434.478 247.555L415.533 179.352C415.198 178.155 414.482 177.101 413.493 176.35C412.504 175.599 411.296 175.192 410.054 175.191H391.108C389.601 175.191 388.155 175.79 387.089 176.856C386.023 177.922 385.425 179.368 385.425 180.875V251.549C381.73 252.316 378.224 253.81 375.112 255.945C372 258.08 369.344 260.813 367.298 263.984L347.981 256.406C346.944 256.002 345.811 255.911 344.723 256.144C343.635 256.377 342.639 256.924 341.858 257.717L292.274 308.263C291.403 309.148 290.846 310.295 290.69 311.528C290.534 312.76 290.787 314.009 291.41 315.084L300.883 331.49C301.255 332.137 301.751 332.704 302.343 333.159C302.935 333.614 303.611 333.947 304.332 334.14C305.053 334.333 305.805 334.382 306.545 334.283C307.284 334.185 307.998 333.941 308.643 333.567L369.958 298.169C370.745 299.055 371.588 299.891 372.481 300.67L355.726 448.004H292.115L263.212 159.035C264.191 158.115 265.113 157.136 265.971 156.102L350.232 204.739C350.877 205.113 351.59 205.357 352.33 205.455C353.07 205.554 353.822 205.505 354.543 205.312C355.264 205.119 355.94 204.786 356.532 204.331C357.124 203.876 357.62 203.309 357.992 202.662L369.359 182.959C370.004 181.846 370.252 180.547 370.062 179.275C369.872 178.003 369.255 176.833 368.313 175.957L294.358 106.996C293.514 106.208 292.45 105.696 291.307 105.528C290.164 105.36 288.998 105.544 287.962 106.056L267.267 116.317C262.405 109.727 255.211 105.241 247.154 103.775V6.57812C247.154 5.07598 246.56 3.63491 245.5 2.5699C244.441 1.50488 243.003 0.902543 241.501 0.894531H218.767C217.482 0.895397 216.235 1.33096 215.229 2.13037C214.223 2.92977 213.518 4.04599 213.227 5.29742L190.493 103.813C190.233 104.939 190.322 106.117 190.748 107.19C191.175 108.264 191.918 109.182 192.88 109.822L211.999 122.569C208.644 130.068 208.396 138.591 211.31 146.273L127.071 194.902C125.768 195.656 124.817 196.897 124.427 198.352C124.038 199.807 124.242 201.358 124.995 202.662L136.362 222.365C137.004 223.478 138.003 224.34 139.198 224.81C140.393 225.281 141.712 225.333 142.94 224.957L215.402 202.799L190.887 448.004H127.276L110.536 300.67C111.429 299.891 112.272 299.055 113.059 298.169L174.374 333.567C175.019 333.941 175.732 334.185 176.472 334.283C177.212 334.382 177.964 334.333 178.685 334.14C179.406 333.947 180.082 333.614 180.674 333.159C181.266 332.704 181.762 332.137 182.134 331.49L191.607 315.084C192.23 314.009 192.483 312.76 192.327 311.528C192.17 310.295 191.614 309.148 190.743 308.263L141.151 257.747C140.371 256.954 139.375 256.407 138.286 256.174C137.198 255.941 136.065 256.032 135.028 256.436L115.712 264.015C113.665 260.842 111.007 258.109 107.894 255.974C104.781 253.839 101.274 252.345 97.5772 251.579V180.875C97.5772 179.368 96.9783 177.922 95.9125 176.856C94.8466 175.79 93.4009 175.191 91.8936 175.191H72.9482C71.7061 175.192 70.4982 175.599 69.509 176.35C68.5197 177.101 67.8034 178.155 67.4693 179.352L48.524 247.555C48.2259 248.628 48.2494 249.766 48.5915 250.826C48.9337 251.886 49.5795 252.822 50.4488 253.519L66.7039 266.508C64.9139 269.823 63.8423 273.477 63.559 277.234C63.2757 280.99 63.7869 284.764 65.0594 288.31L3.73724 323.73C3.09022 324.102 2.52305 324.599 2.06828 325.19C1.61351 325.782 1.2801 326.458 1.08717 327.179C0.894246 327.9 0.84561 328.652 0.944055 329.392C1.0425 330.132 1.28609 330.845 1.66084 331.49L11.1259 347.897C11.7473 348.972 12.7038 349.815 13.8493 350.295C14.9948 350.776 16.2661 350.867 17.4688 350.557L69.0986 337.234L56.5037 448.004H6.57904C5.07166 448.004 3.62601 448.603 2.56013 449.669C1.49425 450.734 0.895444 452.18 0.895444 453.688V476.422C0.895444 477.929 1.49425 479.375 2.56013 480.441C3.62601 481.507 5.07166 482.105 6.57904 482.105H476.423C477.93 482.105 479.376 481.507 480.442 480.441C481.508 479.375 482.106 477.929 482.106 476.422V453.688C482.106 452.18 481.508 450.734 480.442 449.669C479.376 448.603 477.93 448.004 476.423 448.004ZM468.663 330.725L464.192 338.47L403.506 322.806L400.945 305.967C405.317 304.345 409.221 301.669 412.312 298.177L468.663 330.725ZM405.764 186.559L422.55 246.987L409.212 257.649C405.648 254.633 401.391 252.55 396.822 251.586V186.559H405.764ZM391.131 262.34C394.502 262.346 397.796 263.351 400.596 265.228C403.396 267.105 405.576 269.77 406.862 272.887C408.148 276.003 408.481 279.43 407.82 282.736C407.159 286.041 405.532 289.076 403.147 291.458C400.761 293.84 397.723 295.461 394.416 296.116C391.109 296.771 387.682 296.432 384.569 295.141C381.455 293.849 378.794 291.664 376.921 288.86C375.049 286.057 374.05 282.762 374.05 279.391C374.056 274.87 375.854 270.537 379.051 267.341C382.247 264.144 386.58 262.346 391.101 262.34H391.131ZM307.87 320.888L303.399 313.144L347.352 268.395L363.183 274.579C362.887 276.166 362.725 277.776 362.698 279.391C362.736 282.435 363.271 285.453 364.282 288.325L307.87 320.888ZM383.212 306.558C385.305 307.179 387.465 307.55 389.646 307.665L392.775 328.216C392.943 329.317 393.43 330.344 394.176 331.17C394.923 331.996 395.895 332.585 396.974 332.862L402.097 334.188L415.04 448.004H367.146L383.212 306.558ZM289.486 118.022L357.249 181.201L350.99 192.06L271.692 146.273C274.151 139.952 274.367 132.979 272.306 126.517L289.486 118.022ZM262.341 135.406C262.341 139.528 261.118 143.557 258.829 146.984C256.539 150.411 253.284 153.082 249.476 154.66C245.668 156.237 241.478 156.65 237.435 155.846C233.393 155.042 229.679 153.057 226.765 150.142C223.85 147.228 221.866 143.514 221.061 139.472C220.257 135.429 220.67 131.239 222.247 127.431C223.825 123.623 226.496 120.368 229.923 118.079C233.35 115.789 237.379 114.566 241.501 114.566C247.027 114.57 252.325 116.767 256.232 120.675C260.14 124.582 262.337 129.88 262.341 135.406ZM202.474 102.547L223.313 12.2617H235.817V103.775C229.146 104.967 223.026 108.244 218.335 113.134L202.474 102.547ZM137.681 201.897L217.016 156.102C221.362 161.276 227.231 164.944 233.786 166.583L232.551 185.657L143.963 212.756L137.681 201.897ZM227.178 199.184L239.629 195.395C240.734 195.059 241.71 194.393 242.427 193.487C243.143 192.581 243.566 191.478 243.638 190.325L245.154 167.265C247.646 166.997 250.098 166.435 252.459 165.59L280.695 448.027H202.314L227.178 199.184ZM135.665 268.395L179.618 313.144L175.147 320.888L118.75 288.302C119.753 285.437 120.283 282.427 120.319 279.391C120.292 277.776 120.13 276.166 119.834 274.579L135.665 268.395ZM108.952 279.391C108.952 282.763 107.952 286.06 106.078 288.864C104.205 291.668 101.542 293.853 98.4262 295.143C95.3106 296.434 91.8822 296.772 88.5747 296.114C85.2672 295.456 82.229 293.832 79.8444 291.447C77.4598 289.063 75.8359 286.025 75.178 282.717C74.5201 279.41 74.8577 275.981 76.1483 272.866C77.4388 269.75 79.6243 267.087 82.4282 265.213C85.2322 263.34 88.5288 262.34 91.9011 262.34C96.4214 262.346 100.755 264.144 103.951 267.341C107.148 270.537 108.946 274.87 108.952 279.391ZM77.2678 186.559H86.21V251.549C81.6416 252.512 77.3841 254.595 73.8197 257.611L60.4822 246.949L77.2678 186.559ZM14.3694 330.725L70.7658 298.139C73.8564 301.631 77.7608 304.307 82.1329 305.929L79.5715 322.768L18.8101 338.5L14.3694 330.725ZM80.9129 334.188L86.0357 332.862C87.1139 332.585 88.0868 331.996 88.8333 331.17C89.5798 330.344 90.0669 329.317 90.2339 328.216L93.3637 307.665C95.5444 307.55 97.7039 307.179 99.7975 306.558L115.84 448.004H67.9618L80.9129 334.188ZM470.739 470.738H12.2626V459.371H470.739V470.738Z" fill="black"/>
</g>
</svg>
