<svg width="63" height="67" viewBox="0 0 63 67" fill="none" xmlns="http://www.w3.org/2000/svg">
<path d="M24.3906 31.344H38.6094V36.7346H24.3906V31.344Z" fill="#87AB42"/>
<path d="M31.5 20.5627C28.1393 20.5627 25.4062 17.6615 25.4062 14.094C25.4062 10.5265 28.1393 7.62524 31.5 7.62524C34.8607 7.62524 37.5938 10.5265 37.5938 14.094C37.5938 17.6615 34.8607 20.5627 31.5 20.5627Z" fill="#87AB42"/>
<path d="M9.15625 36.7346C7.47641 36.7346 6.10938 35.2835 6.10938 33.5002C6.10938 31.717 7.47641 30.2659 9.15625 30.2659C10.8361 30.2659 12.2031 31.717 12.2031 33.5002C12.2031 35.2835 10.8361 36.7346 9.15625 36.7346Z" fill="#87AB42"/>
<path d="M57.6832 24.8754C55.1228 16.1296 48.6553 9.03339 40.513 6.01572L41.2605 4.02227L38.1984 4.67238C36.2413 5.08638 34.2009 4.26053 33.0025 2.56464L31.5003 0.4375L29.9982 2.56464C28.7998 4.26053 26.7604 5.08638 24.8023 4.67238L21.7402 4.02227L22.4877 6.01464C14.3221 9.02584 7.99574 15.9097 5.37238 24.6759C2.57027 26.0451 0.493315 28.8892 0.0921431 32.2303C-0.361841 36.0124 1.22761 39.6317 4.23996 41.6758C4.76707 42.0337 5.0941 42.7216 5.0941 43.473V45.3597C5.0941 47.5623 6.66425 49.3639 8.67519 49.6205C10.6719 52.7966 13.278 55.5696 16.266 57.6956V64.766H4.07847V66.9222H58.9222V64.766H44.7035V59.0045C48.9183 56.541 52.4364 52.9594 54.9349 48.5941H60.9535V46.4379H58.9222V44.2816H62.9847V24.8754H57.6832ZM60.9535 33.5004H56.891V27.0316H60.9535V33.5004ZM50.7972 42.1254V35.6566H54.8597V42.1254H50.7972ZM44.7035 35.6566H48.766V42.1254H44.7035V35.6566ZM44.7035 33.5004V27.0316H48.766V33.5004H44.7035ZM50.7972 33.5004V27.0316H54.8597V33.5004H50.7972ZM24.8084 6.85989C27.3322 7.23723 29.9068 6.15588 31.5003 4.02658C33.0939 6.15588 35.6695 7.23831 38.1933 6.85989C37.7718 9.57892 38.757 12.3411 40.8106 14.0833C38.759 15.7641 37.7231 18.4767 38.0542 21.1655C35.5232 20.868 33.0471 21.9957 31.4993 24.1595C30.1161 22.3127 27.9964 21.2539 25.8078 21.2539C25.4746 21.2539 25.1405 21.2777 24.8074 21.3283C25.2299 18.6039 24.2407 15.8364 22.1779 14.0941C24.2407 12.3519 25.2299 9.58431 24.8084 6.85989ZM5.3348 39.8591C2.98972 38.2689 1.75371 35.4507 2.10816 32.5031C2.51339 29.121 5.12863 26.3869 8.32378 26.0031C8.60613 25.9697 8.88644 25.9535 9.16472 25.9535C10.9167 25.9535 12.5711 26.6187 13.8904 27.8704C15.4007 29.3011 16.266 31.3538 16.266 33.5004C16.266 36.0771 15.0432 38.45 12.9957 39.8473C11.9221 40.5793 11.266 41.8235 11.2 43.2035H10.1722V36.5364C9.85332 36.6571 9.51375 36.7346 9.15625 36.7346C8.79875 36.7346 8.45988 36.6571 8.14097 36.5364V43.2035H7.11011C7.03496 41.8116 6.388 40.5739 5.3348 39.8591ZM7.12535 45.3597H11.1878C11.1878 46.5489 10.2768 47.516 9.1566 47.516C8.03636 47.516 7.12535 46.5489 7.12535 45.3597ZM36.5785 47.516V52.4538L32.516 51.5913V64.766H28.4535V49.435L26.4222 49.8663V47.516H36.5785ZM26.4222 52.0657V64.766H18.2972V53.7907L26.4222 52.0657ZM34.5472 64.766V54.2219L42.6722 55.9469V64.766H34.5472ZM44.7035 56.5194V54.1788L38.6097 52.885V45.3597H36.5785V43.2035H34.5472V45.3597H32.516V41.0472H30.4847V45.3597H28.4535V43.2035H26.4222V45.3597H24.391V50.2976L16.266 52.0225V55.051C14.2185 53.4144 12.3903 51.4479 10.8913 49.2431C12.2624 48.5499 13.2191 47.0761 13.2191 45.3597V43.4277C13.2191 42.7065 13.5543 42.0294 14.0946 41.6607C16.726 39.8656 18.2972 36.8145 18.2972 33.5004C18.2972 30.7404 17.1841 28.1022 15.2443 26.2629C13.3054 24.4236 10.6953 23.546 8.09527 23.8608C7.98457 23.8738 7.87691 23.8986 7.76722 23.9158C10.3906 16.576 15.8811 10.8328 22.8574 8.15795C22.8381 10.0296 21.9332 11.815 20.3325 12.8338L18.3551 14.0941L20.3335 15.3544C22.5405 16.7603 23.4495 19.6217 22.4918 22.1606L21.7402 24.166L24.8023 23.5158C26.7604 23.1029 28.7998 23.9277 29.9982 25.6236L31.5003 27.7507L33.0969 25.492C34.2649 23.8382 36.1834 23.0167 38.108 23.3487L40.9619 23.8425L40.3525 22.1046C39.4771 19.6055 40.4043 16.797 42.5564 15.4256L44.6466 14.0941L42.6682 12.8338C41.0685 11.815 40.1646 10.0307 40.1443 8.16011C47.3461 10.9384 53.0966 17.1754 55.5554 24.8754H42.6722V44.2816H46.7347V46.4379H44.7035V48.5941H52.54C50.4935 51.8058 47.8225 54.5012 44.7035 56.5194ZM56.891 46.4379H48.766V44.2816H56.891V46.4379ZM56.891 42.1254V35.6566H60.9535V42.1254H56.891Z" fill="#87AB42"/>
<path d="M60.9531 64.7659H62.9844V66.9221H60.9531V64.7659Z" fill="#87AB42"/>
<path d="M0.015625 64.7659H2.04688V66.9221H0.015625V64.7659Z" fill="#87AB42"/>
<path d="M36.5781 60.4534H40.6406V62.6096H36.5781V60.4534Z" fill="#87AB42"/>
<path d="M20.3281 56.1409H24.3906V58.2971H20.3281V56.1409Z" fill="#87AB42"/>
<path d="M20.3281 60.4534H24.3906V62.6096H20.3281V60.4534Z" fill="#87AB42"/>
<path d="M24.3906 30.2659H38.6094V32.4221H24.3906V30.2659Z" fill="#87AB42"/>
<path d="M28.4531 34.5784H30.4844V36.7346H28.4531V34.5784Z" fill="#87AB42"/>
<path d="M24.3906 34.5784H26.4219V36.7346H24.3906V34.5784Z" fill="#87AB42"/>
<path d="M36.5781 34.5784H38.6094V36.7346H36.5781V34.5784Z" fill="#87AB42"/>
<path d="M32.5156 34.5784H34.5469V36.7346H32.5156V34.5784Z" fill="#87AB42"/>
</svg>
