<svg width="58" height="66" viewBox="0 0 58 66" fill="none" xmlns="http://www.w3.org/2000/svg">
<path d="M4.71733 5.49902C4.71733 5.04648 5.08511 4.67871 5.53765 4.67871H28.2302C28.6828 4.67871 29.0505 5.04648 29.0505 5.49902C29.0505 5.95156 28.6828 6.31934 28.2302 6.31934H5.53765C5.08374 6.31934 4.71733 5.95156 4.71733 5.49902ZM5.53765 11.017H28.2302C28.6828 11.017 29.0505 10.6492 29.0505 10.1967C29.0505 9.74414 28.6828 9.37637 28.2302 9.37637H5.53765C5.08511 9.37637 4.71733 9.74414 4.71733 10.1967C4.71733 10.6492 5.08374 11.017 5.53765 11.017ZM5.53765 15.7146H28.2302C28.6828 15.7146 29.0505 15.3469 29.0505 14.8943C29.0505 14.4418 28.6828 14.074 28.2302 14.074H5.53765C5.08511 14.074 4.71733 14.4418 4.71733 14.8943C4.71733 15.3469 5.08374 15.7146 5.53765 15.7146ZM23.1839 42.7289C16.3986 42.7289 10.8792 37.2082 10.8792 30.4242C10.8792 23.6402 16.4 18.1195 23.1839 18.1195C29.9679 18.1195 35.4886 23.6402 35.4886 30.4242C35.4886 37.2082 29.9693 42.7289 23.1839 42.7289ZM33.848 30.4229C33.848 24.5426 29.0642 19.7588 23.1839 19.7588C17.3037 19.7588 12.5199 24.5426 12.5199 30.4229C12.5199 36.3031 17.3037 41.0869 23.1839 41.0869C29.0642 41.0869 33.848 36.3045 33.848 30.4229ZM28.3847 26.1613L21.6021 32.9439L17.9832 29.325C17.6632 29.0051 17.1437 29.0051 16.8238 29.325C16.5039 29.6449 16.5039 30.1645 16.8238 30.4857L21.0224 34.6844C21.1755 34.8375 21.3847 34.925 21.6021 34.925C21.8195 34.925 22.0287 34.8389 22.1818 34.6844L29.5455 27.3207C29.8654 27.0008 29.8654 26.4813 29.5455 26.16C29.2242 25.8414 28.7046 25.8414 28.3847 26.1613ZM30.3453 58.2793V54.1477C30.3453 51.4338 32.5533 49.2271 35.2658 49.2271H40.8425C41.1433 46.743 41.1625 44.4816 40.8959 42.3461C38.2517 41.0609 36.5687 38.4127 36.5687 35.4732C36.5687 31.2637 40.0208 27.8402 44.2646 27.8402C44.78 27.8402 45.2832 27.8922 45.7712 27.9879V15.4768H32.8089C32.3564 15.4768 31.9886 15.109 31.9886 14.6564V1.69141H4.30444C2.85659 1.69141 1.67944 2.86855 1.67944 4.31641V59.7627C1.67944 61.2105 2.85659 62.3877 4.30444 62.3877H30.3466V60.8387C30.3466 60.3861 30.7144 60.0184 31.1669 60.0184H57.1435C57.596 60.0184 57.9638 60.3861 57.9638 60.8387V65.1289C57.9638 65.5814 57.596 65.9492 57.1435 65.9492H31.1669C30.7144 65.9492 30.3466 65.5814 30.3466 65.1289V64.0297H4.30444C1.95151 64.0297 0.0388184 62.1156 0.0388184 59.7641V4.31641C0.0388184 1.96348 1.95288 0.0507812 4.30444 0.0507812H32.8103C33.0277 0.0507812 33.2369 0.136914 33.39 0.291406L47.1726 14.074C47.3271 14.2285 47.4132 14.4363 47.4132 14.6537V28.5074C50.0916 29.7037 51.9619 32.3738 51.9619 35.4705C51.9619 38.4018 50.298 41.0391 47.6826 42.3215C47.4775 44.8152 47.4843 47.0834 47.6976 49.2258H53.0406C55.7531 49.2258 57.9611 51.4338 57.9611 54.1463V58.2779C57.9611 58.7305 57.5933 59.0982 57.1408 59.0982H31.1642C30.713 59.0996 30.3453 58.7318 30.3453 58.2793ZM31.9859 64.3086H56.3218V61.6604H31.9859V64.3086ZM33.6306 13.8348H44.6132L33.6306 2.85215V13.8348ZM42.4982 49.2271H46.0501C45.8287 46.892 45.841 44.4229 46.0912 41.698C46.1185 41.3945 46.3127 41.1307 46.5957 41.0145C48.8597 40.0807 50.3226 37.9055 50.3226 35.4719C50.3226 32.1674 47.606 29.4795 44.2673 29.4795C40.9287 29.4795 38.2121 32.1674 38.2121 35.4719C38.2121 37.9055 39.6845 40.0848 41.9636 41.0254C42.2316 41.1361 42.4216 41.3795 42.4626 41.6666C42.8017 44.0223 42.814 46.5023 42.4982 49.2271ZM31.9859 57.459H56.3218V54.1477C56.3218 52.3389 54.8507 50.8678 53.0419 50.8678H35.2658C33.457 50.8678 31.9859 52.3389 31.9859 54.1477V57.459ZM4.66128 48.4848H9.3603C9.72124 48.4848 10.0275 48.7186 10.1369 49.0439C11.2074 48.9605 11.947 48.6939 12.2957 48.2605C12.8261 47.6002 12.5636 46.4025 12.3312 45.3457C12.0988 44.2889 11.88 43.2895 12.4392 42.5949C12.7427 42.2162 13.1994 42.0248 13.7941 42.0248C16.1265 42.0248 18.0228 43.9225 18.0228 46.2535V49.1902L20.0517 49.141C21.0375 49.1164 21.9357 49.4691 22.6425 50.1596C23.3494 50.85 23.7226 51.7373 23.7226 52.7244V55.709C23.7226 57.5 22.6849 59.6342 20.7025 60.2467C19.2218 60.7047 17.7958 60.8906 16.4341 60.8906C14.14 60.8906 12.025 60.3615 10.1164 59.708C9.99331 60.0047 9.70073 60.2139 9.35894 60.2139H4.66128C4.20874 60.2139 3.84097 59.8461 3.84097 59.3936V49.3051C3.84097 48.8525 4.20737 48.4848 4.66128 48.4848ZM10.1806 50.6846V57.9922C13.1898 59.075 16.4847 59.8338 20.2199 58.6799C21.3861 58.3189 22.0834 56.8861 22.0834 55.709V52.7244C22.0834 52.1734 21.8919 51.7182 21.4968 51.334C21.1031 50.9498 20.641 50.7693 20.0927 50.7816L17.223 50.8514C16.9974 50.8582 16.7882 50.7721 16.6296 50.6189C16.471 50.4645 16.3822 50.2525 16.3822 50.0324V46.2549C16.3822 44.8275 15.2214 43.6668 13.7941 43.6668C13.7667 43.6668 13.7435 43.6682 13.7257 43.6695C13.7025 43.9416 13.8406 44.5664 13.9335 44.9957C14.2289 46.3424 14.5966 48.0186 13.574 49.29C12.9095 50.1131 11.7939 50.5725 10.1806 50.6846ZM5.48159 58.5732H8.53999V50.1254H5.48159V58.5732Z" fill="#87AB42"/>
</svg>
