<svg width="50" height="50" viewBox="0 0 50 50" fill="none" xmlns="http://www.w3.org/2000/svg">
<path fill-rule="evenodd" clip-rule="evenodd" d="M27.9145 49.9707H22.0855C21.8219 49.9707 21.6169 49.795 21.529 49.5606L19.8008 44.464C18.0726 43.9953 16.4323 43.3216 14.9092 42.4429L10.0762 44.8155C9.84183 44.9326 9.57821 44.9033 9.40247 44.7276L5.27241 40.5975C5.09667 40.4218 5.03808 40.1289 5.15525 39.9239L7.55712 35.0615C6.67839 33.5384 5.9754 31.8981 5.53603 30.1992L0.410082 28.471C0.175753 28.3831 0.0292969 28.1781 0.0292969 27.9145V22.0855C0.0292969 21.8219 0.175753 21.6169 0.410082 21.529L5.53603 19.8008C5.9754 18.0726 6.67839 16.4616 7.55712 14.9092L5.15525 10.0762C5.03808 9.84183 5.09667 9.57821 5.27241 9.40247L9.40247 5.27241C9.57821 5.09667 9.84183 5.03808 10.0762 5.15525L14.9092 7.55712C16.4616 6.6491 18.0726 5.9754 19.8008 5.53603L21.529 0.410082C21.6169 0.175753 21.8219 0.0292969 22.0855 0.0292969H27.9145C28.1781 0.0292969 28.3831 0.175753 28.471 0.410082L30.1992 5.53603C31.8981 5.9754 33.5384 6.67839 35.0615 7.55712L39.9239 5.15525C40.1289 5.03808 40.4218 5.09667 40.5975 5.27241L44.7276 9.40247C44.9033 9.57821 44.9326 9.84183 44.8155 10.0762L42.4429 14.9092C43.3216 16.4323 43.9953 18.0726 44.464 19.8008L49.5606 21.529C49.795 21.6169 49.9707 21.8219 49.9707 22.0855V27.9145C49.9707 28.1781 49.795 28.3831 49.5606 28.471L44.464 30.1992C43.9953 31.8981 43.3216 33.5384 42.4429 35.0615L44.8155 39.9239C44.9326 40.1289 44.9033 40.4218 44.7276 40.5975L40.5975 44.7276C40.4218 44.9033 40.1289 44.9326 39.9239 44.8155L35.0615 42.4429C33.5384 43.3216 31.8981 43.9953 30.1992 44.464L28.471 49.5606C28.3831 49.795 28.1781 49.9707 27.9145 49.9707ZM22.4956 48.7991H27.5044L29.2033 43.7903C29.2619 43.5852 29.4083 43.4388 29.6134 43.4095C31.4294 42.9408 33.1576 42.2379 34.7393 41.2712C34.9151 41.1541 35.1201 41.1541 35.3251 41.242L40.0703 43.5852L43.5852 40.0703L41.242 35.2958C41.1541 35.1201 41.1834 34.9151 41.2712 34.7393C42.2379 33.1576 42.9408 31.4294 43.4095 29.6134C43.4388 29.4083 43.5852 29.2619 43.7903 29.2033L48.7991 27.5044V22.4956L43.7903 20.7967C43.5852 20.7381 43.4681 20.5624 43.4095 20.3867C42.9408 18.5706 42.2379 16.8424 41.2712 15.2314C41.1834 15.0557 41.1541 14.8506 41.242 14.6749L43.5852 9.92971L40.0703 6.38548L35.2958 8.72877C35.1201 8.81664 34.9151 8.81664 34.7393 8.72877C33.1576 7.76216 31.4294 7.02988 29.6134 6.59052C29.4083 6.53193 29.2619 6.38548 29.2033 6.20973L27.5044 1.20094H22.4956L20.7967 6.20973C20.7381 6.38548 20.5624 6.53193 20.3867 6.59052C18.5706 7.02988 16.8424 7.76216 15.2314 8.72877C15.085 8.81664 14.8506 8.81664 14.6749 8.72877L9.92971 6.38548L6.38548 9.92971L8.72877 14.6749C8.81664 14.8506 8.81664 15.085 8.72877 15.2314C7.76216 16.8424 7.02988 18.5706 6.59052 20.3867C6.53193 20.5917 6.38548 20.7381 6.20973 20.7967L1.20094 22.4956V27.5044L6.20973 29.2033C6.38548 29.2619 6.53193 29.4083 6.59052 29.6134C7.02988 31.4294 7.76216 33.1576 8.72877 34.7393C8.81664 34.9151 8.81664 35.1201 8.72877 35.2958L6.38548 40.0703L9.92971 43.5852L14.6749 41.242C14.8506 41.1541 15.085 41.1834 15.2314 41.2712C16.8424 42.2379 18.5706 42.9408 20.3867 43.4095C20.5917 43.4388 20.7381 43.5852 20.7967 43.7903L22.4956 48.7991Z" fill="#FF7029"/>
<path fill-rule="evenodd" clip-rule="evenodd" d="M24.9854 40.2461C16.5788 40.2461 9.75396 33.4212 9.75396 24.9854C9.75396 16.5788 16.5788 9.75396 24.9854 9.75396C33.4212 9.75396 40.2461 16.5788 40.2461 24.9854C40.2461 33.4212 33.4212 40.2461 24.9854 40.2461ZM24.9854 10.8963C17.2232 10.8963 10.8963 17.2232 10.8963 24.9854C10.8963 32.7475 17.2232 39.0744 24.9854 39.0744C32.7475 39.0744 39.0744 32.7475 39.0744 24.9854C39.0744 17.2232 32.7475 10.8963 24.9854 10.8963Z" fill="#FF7029"/>
<path fill-rule="evenodd" clip-rule="evenodd" d="M27.7094 31.1658C27.3579 31.1658 27.065 30.8436 27.1236 30.4628L29.4083 19.2736C29.5841 18.5413 30.7264 18.7756 30.58 19.5079L28.2953 30.6971C28.2367 30.99 27.9731 31.1658 27.7094 31.1658Z" fill="#FF7029"/>
<path fill-rule="evenodd" clip-rule="evenodd" d="M19.5079 28.8518H15.2021C14.6456 28.8518 14.4113 28.1195 14.8506 27.7973C16.0516 26.9186 18.6878 25.4833 18.6878 24.1945C18.6878 21.9684 15.2314 22.2027 15.495 24.3995C15.5829 25.1318 14.3234 25.5126 14.3234 24.1945C14.3234 22.6714 15.5536 21.4411 17.0767 21.4411C18.5999 21.4411 19.8594 22.6714 19.8594 24.1945C19.8594 25.6298 18.4534 26.7428 17.106 27.6801H19.5079C20.2988 27.6801 20.2988 28.8518 19.5079 28.8518Z" fill="#FF7029"/>
<path fill-rule="evenodd" clip-rule="evenodd" d="M24.6339 28.8518C23.8723 28.8518 24.048 27.8266 24.048 26.9479H21.0603C20.5917 26.9479 20.2988 26.362 20.621 25.9813L24.1945 21.6462C24.546 21.2361 25.2197 21.4704 25.2197 22.027V25.7762C25.5419 25.7762 26.157 25.7469 26.157 26.362C26.157 26.9772 25.5419 26.9479 25.2197 26.9479C25.2197 27.8266 25.4247 28.8518 24.6339 28.8518ZM22.3199 25.7762H24.048V23.6673L22.3199 25.7762Z" fill="#FF7029"/>
<path fill-rule="evenodd" clip-rule="evenodd" d="M31.488 28.8518C31.0486 28.8518 30.7557 28.3538 30.9608 27.9731L34.0656 22.6128H31.6637C30.8729 22.6128 30.8729 21.4411 31.6637 21.4411H35.0908C35.5302 21.4411 35.8231 21.9391 35.5888 22.3199L31.9859 28.5589C31.8688 28.7346 31.693 28.8518 31.488 28.8518Z" fill="#FF7029"/>
</svg>
