<svg width="50" height="50" viewBox="0 0 50 50" fill="none" xmlns="http://www.w3.org/2000/svg">
<path d="M23.2111 26.529C23.3716 26.5777 23.5435 26.5735 23.7013 26.5169C23.8592 26.4602 23.9946 26.3543 24.0875 26.2146L33.4625 12.1521C33.5409 12.0345 33.586 11.8977 33.5928 11.7565C33.5996 11.6152 33.568 11.4748 33.5013 11.3501C33.4346 11.2254 33.3353 11.1212 33.214 11.0485C33.0927 10.9759 32.9539 10.9375 32.8125 10.9375H27.3437V2.34373C27.3437 2.17606 27.2898 2.01284 27.1899 1.8782C27.09 1.74355 26.9494 1.64462 26.7889 1.59603C26.6284 1.54744 26.4566 1.55176 26.2988 1.60836C26.1409 1.66496 26.0055 1.77083 25.9125 1.91033L16.5375 15.9728C16.459 16.0905 16.414 16.2272 16.4072 16.3685C16.4003 16.5097 16.432 16.6502 16.4987 16.7748C16.5654 16.8995 16.6647 17.0038 16.786 17.0764C16.9073 17.1491 17.0461 17.1875 17.1875 17.1875H22.6562V25.7812C22.6562 25.9489 22.7102 26.1121 22.8101 26.2468C22.91 26.3815 23.0506 26.4804 23.2111 26.529ZM18.6473 15.625L25.7812 4.924V11.7187C25.7812 11.9259 25.8635 12.1246 26.0101 12.2712C26.1566 12.4177 26.3553 12.5 26.5625 12.5H31.3527L24.2187 23.2011V16.4062C24.2187 16.199 24.1364 16.0003 23.9899 15.8538C23.8434 15.7073 23.6447 15.625 23.4375 15.625H18.6473Z" fill="#FF7029"/>
<path d="M14.0566 6.93359C12.5378 9.00004 11.7188 11.4976 11.7188 14.0621C11.7187 16.6267 12.5378 19.1242 14.0566 21.1906C15.5664 23.2515 17.6432 24.8285 20.0338 25.7295C20.2274 25.8034 20.4424 25.7974 20.6315 25.7128C20.8207 25.6282 20.9685 25.4719 21.0424 25.2783C21.1163 25.0847 21.1103 24.8697 21.0257 24.6806C20.9411 24.4914 20.7848 24.3436 20.5912 24.2697C16.1506 22.574 13.2812 18.5673 13.2812 14.0625C13.2812 9.92754 15.6999 6.21367 19.5312 4.31973V5.46875C19.5312 5.67595 19.6136 5.87466 19.7601 6.02118C19.9066 6.16769 20.1053 6.25 20.3125 6.25C20.5197 6.25 20.7184 6.16769 20.8649 6.02118C21.0114 5.87466 21.0937 5.67595 21.0937 5.46875V2.34375C21.0937 2.13655 21.0114 1.93784 20.8649 1.79132C20.7184 1.64481 20.5197 1.5625 20.3125 1.5625H17.1875C16.9803 1.5625 16.7816 1.64481 16.6351 1.79132C16.4886 1.93784 16.4062 2.13655 16.4062 2.34375C16.4062 2.55095 16.4886 2.74966 16.6351 2.89618C16.7816 3.04269 16.9803 3.125 17.1875 3.125H18.4418C16.7124 4.04879 15.2135 5.3506 14.0566 6.93359Z" fill="#FF7029"/>
<path d="M35.9434 21.1914C37.4624 19.1249 38.2816 16.6272 38.2816 14.0625C38.2816 11.4978 37.4624 9.00011 35.9434 6.93359C34.4336 4.87273 32.3568 3.29568 29.9662 2.39473C29.7727 2.32081 29.5577 2.32681 29.3685 2.41143C29.1794 2.49604 29.0316 2.65232 28.9577 2.8459C28.8837 3.03948 28.8897 3.25449 28.9744 3.44364C29.059 3.63278 29.2152 3.78057 29.4088 3.85449C33.8495 5.55098 36.7188 9.55771 36.7188 14.0625C36.7188 18.1975 34.3001 21.9113 30.4688 23.8053V22.6562C30.4688 22.4491 30.3865 22.2503 30.24 22.1038C30.0935 21.9573 29.8947 21.875 29.6875 21.875C29.4803 21.875 29.2816 21.9573 29.1351 22.1038C28.9886 22.2503 28.9063 22.4491 28.9063 22.6562V25.7812C28.9063 25.9885 28.9886 26.1872 29.1351 26.3337C29.2816 26.4802 29.4803 26.5625 29.6875 26.5625H32.8125C33.0197 26.5625 33.2185 26.4802 33.365 26.3337C33.5115 26.1872 33.5938 25.9885 33.5938 25.7812C33.5938 25.5741 33.5115 25.3753 33.365 25.2288C33.2185 25.0823 33.0197 25 32.8125 25H31.5582C33.2876 24.0762 34.7865 22.7744 35.9434 21.1914Z" fill="#FF7029"/>
<path d="M44.5312 10.9375H44.4316C43.6267 10.9357 42.8522 11.2454 42.2703 11.8016C41.6884 12.3578 41.3441 13.1175 41.3096 13.9218L41.0584 18.9191L40.7031 27.0996C40.0282 26.4596 39.1477 26.0804 38.219 26.0297C37.2903 25.9791 36.3738 26.2602 35.6332 26.823L25.752 34.3786C25.4672 34.5972 25.2141 34.8544 25 35.1426C24.7859 34.8543 24.5329 34.5972 24.248 34.3785L14.3668 26.8225C13.6262 26.2597 12.7097 25.9787 11.7809 26.0294C10.8522 26.0802 9.97172 26.4595 9.29687 27.0996L8.85742 16.9691L8.69082 13.9269C8.65727 13.1217 8.31344 12.3609 7.73138 11.8036C7.14931 11.2464 6.37417 10.936 5.56836 10.9375H5.46875C4.64023 10.9384 3.84592 11.268 3.26007 11.8538C2.67422 12.4397 2.34468 13.234 2.34375 14.0625V30.4688C2.34506 31.075 2.48683 31.6726 2.75793 32.2148C3.02903 32.757 3.42208 33.229 3.90625 33.5938L14.0704 41.2169C13.8223 41.4363 13.6236 41.706 13.4876 42.008C13.3515 42.31 13.2812 42.6375 13.2812 42.9688V47.6563C13.2812 47.8635 13.3636 48.0622 13.5101 48.2087C13.6566 48.3552 13.8553 48.4375 14.0625 48.4375H35.9375C36.1447 48.4375 36.3434 48.3552 36.4899 48.2087C36.6364 48.0622 36.7188 47.8635 36.7188 47.6563V42.9688C36.7188 42.6375 36.6485 42.31 36.5124 42.008C36.3764 41.706 36.1777 41.4363 35.9296 41.2169L46.0938 33.5938C46.5779 33.229 46.971 32.757 47.2421 32.2148C47.5132 31.6726 47.6549 31.0749 47.6562 30.4688V14.0625C47.6553 13.234 47.3258 12.4397 46.7399 11.8538C46.1541 11.268 45.3598 10.9384 44.5312 10.9375ZM24.2188 46.875H14.8438V42.9688C14.844 42.7616 14.9264 42.563 15.0728 42.4166C15.2193 42.2701 15.4179 42.1877 15.625 42.1875H24.2188V46.875ZM24.2188 40.625H15.8855L4.84375 32.3438C4.55322 32.1249 4.31737 31.8417 4.15471 31.5164C3.99205 31.1911 3.907 30.8325 3.90625 30.4688V14.0625C3.90674 13.6483 4.07152 13.2511 4.36444 12.9582C4.65736 12.6653 5.0545 12.5005 5.46875 12.5H5.56836C5.97267 12.4999 6.36127 12.6566 6.6525 12.937C6.94373 13.2175 7.11492 13.5999 7.13008 14.0039L7.29668 17.0459L7.81328 28.9404C7.81809 29.0459 7.84425 29.1492 7.8902 29.2442C7.93615 29.3392 8.00091 29.4239 8.08057 29.4931L8.0793 29.4945L14.3293 34.9633C14.4852 35.0997 14.689 35.1686 14.8957 35.1548C15.1025 35.1411 15.2953 35.0457 15.4317 34.8898C15.5682 34.7338 15.6371 34.5301 15.6233 34.3233C15.6095 34.1166 15.5141 33.9238 15.3582 33.7873L9.73633 28.8683L10.3363 28.2684C10.7389 27.8683 11.2725 27.6273 11.8387 27.5897C12.405 27.5521 12.9658 27.7205 13.4177 28.0639L23.2984 35.6195C23.5838 35.8391 23.8151 36.121 23.9746 36.4438C24.1341 36.7665 24.2176 37.1215 24.2188 37.4816V40.625ZM35.1562 46.875H25.7812V42.1875H34.375C34.5821 42.1877 34.7807 42.2701 34.9272 42.4166C35.0736 42.563 35.156 42.7616 35.1562 42.9688V46.875ZM46.0938 30.4688C46.093 30.8325 46.0079 31.1911 45.8453 31.5164C45.6826 31.8417 45.4468 32.1249 45.1562 32.3438L34.1146 40.625H25.7812V37.4816C25.7823 37.1216 25.8658 36.7666 26.0252 36.4439C26.1847 36.1212 26.4159 35.8392 26.7012 35.6196L36.582 28.0642C37.0339 27.7207 37.5947 27.5522 38.1611 27.5898C38.7274 27.6273 39.2611 27.8683 39.6637 28.2684L40.2637 28.8683L34.6421 33.787C34.4861 33.9235 34.3908 34.1163 34.377 34.323C34.3632 34.5298 34.4321 34.7335 34.5686 34.8895C34.705 35.0454 34.8978 35.1408 35.1045 35.1546C35.3113 35.1683 35.5151 35.0994 35.671 34.963L41.921 29.4942L41.9197 29.4928C41.9994 29.4236 42.0641 29.3389 42.1101 29.2439C42.156 29.149 42.1822 29.0456 42.187 28.9402L42.6194 18.9923L42.8706 13.995C42.8874 13.5925 43.0593 13.212 43.3502 12.9333C43.6412 12.6547 44.0287 12.4994 44.4316 12.5H44.5312C44.9455 12.5005 45.3426 12.6653 45.6356 12.9582C45.9285 13.2511 46.0933 13.6483 46.0938 14.0625V30.4688Z" fill="#FF7029"/>
</svg>
