<svg width="34" height="36" viewBox="0 0 34 36" fill="none" xmlns="http://www.w3.org/2000/svg">
<path d="M33.8744 12.3786C34.0536 12.0187 34.0403 11.5926 33.8391 11.2446L31.2537 6.75506C31.0544 6.4055 30.6929 6.18011 30.2921 6.15542L27.3485 5.97555L22.2113 3.0007L20.5816 0.536109C20.36 0.201141 19.9856 -7.25944e-05 19.5847 1.96451e-08H14.4152C14.0134 0.000435704 13.6386 0.203174 13.4177 0.539667L11.7886 3.00426L6.65379 5.97613L3.71023 6.156C3.30938 6.1812 2.94801 6.40644 2.74799 6.75565L0.160873 11.2441C-0.039946 11.5924 -0.0531987 12.0184 0.125605 12.3786L1.44132 15.0254V20.974L0.125605 23.6208C-0.0536333 23.9807 -0.0403081 24.4068 0.160873 24.7548L2.74625 29.2444C2.94555 29.5939 3.30707 29.8193 3.70791 29.844L6.65147 30.0239L11.7887 32.9987L13.4183 35.4639C13.64 35.7989 14.0144 36.0001 14.4153 36H19.5848C19.9866 35.9996 20.3614 35.7968 20.5823 35.4603L22.2114 32.9957L27.3486 30.0209L30.2922 29.841C30.693 29.8158 31.0544 29.5906 31.2544 29.2414L33.8391 24.7524C34.0399 24.404 34.0532 23.978 33.8744 23.6179L32.5587 20.971V15.0254L33.8744 12.3786ZM31.426 21.3824L32.8015 24.1551L30.2168 28.6447L27.1326 28.8354C27.0404 28.8411 26.9507 28.8682 26.8707 28.9145L21.4883 32.0327C21.4082 32.0793 21.3399 32.1438 21.2885 32.221L19.5817 34.8031H14.4152L12.7083 32.2204C12.657 32.1432 12.5886 32.0788 12.5086 32.0322L7.12618 28.9169C7.04616 28.8706 6.9565 28.8435 6.86424 28.8378L3.78308 28.6447L1.19654 24.1551L2.57208 21.3824C2.61206 21.2989 2.63248 21.2074 2.6319 21.1149V14.8846C2.63255 14.792 2.61206 14.7006 2.57208 14.6171L1.19654 11.8444L3.78308 7.35478L6.86721 7.1641C6.95947 7.15836 7.04913 7.13128 7.12915 7.08495L12.5116 3.96974C12.5916 3.92312 12.66 3.85871 12.7113 3.78145L14.4182 1.19937H19.5877L21.2945 3.78203C21.3459 3.85929 21.4143 3.9237 21.4943 3.97032L26.8767 7.08851C26.9567 7.13484 27.0464 7.16192 27.1387 7.16766L30.2228 7.35834L32.8075 11.8479L31.432 14.6207C31.392 14.7041 31.3716 14.7956 31.3722 14.8881V21.1179C31.3701 21.209 31.3885 21.2994 31.426 21.3824Z" fill="#FF7029"/>
<path d="M23.2366 10.8039H10.7638C10.2006 10.8063 9.71446 11.2003 9.59403 11.7519L8.05649 18.9478C7.98081 19.3018 8.0688 19.6712 8.29576 19.9529C8.5228 20.2345 8.86455 20.3982 9.22563 20.3984H14.01V21.5977C12.6889 21.5977 11.6179 22.6716 11.6179 23.9963C11.6179 24.6586 12.1534 25.1956 12.8139 25.1956H21.1866C21.8472 25.1956 22.3827 24.6586 22.3827 23.9963C22.3827 22.6716 21.3116 21.5977 19.9905 21.5977V20.3984H24.7749C25.136 20.3982 25.4778 20.2346 25.7048 19.9529C25.9318 19.6713 26.0197 19.3018 25.944 18.9478L24.4064 11.7519C24.2859 11.2002 23.7998 10.8062 23.2366 10.8039ZM14.0369 14.4018H16.4022V16.2007H13.8306L14.0369 14.4018ZM12.6261 16.2007H9.86669L10.2512 14.4018H12.833L12.6261 16.2007ZM17.5983 14.4018H19.9636L20.1705 16.2007H17.5983V14.4018ZM21.1674 14.4018H23.7497L24.1348 16.2007H21.3743L21.1674 14.4018ZM23.2372 12.0032L23.4938 13.2025H21.0293L20.8918 12.0032H23.2372ZM19.8254 13.2025H17.5983V12.0032H19.6872L19.8254 13.2025ZM16.4021 12.0032V13.2025H14.175L14.3132 12.0032H16.4021ZM13.1087 12.0032L12.9712 13.2025H10.5078L10.7637 12.0032H13.1087ZM9.61018 17.4H12.488L12.2811 19.1989H9.2257L9.61018 17.4ZM13.6918 17.4H16.4022V19.1989H13.4849L13.6918 17.4ZM21.1865 23.9962H12.8139C12.8139 23.3338 13.3494 22.7969 14.0099 22.7969H19.9904C20.651 22.7969 21.1865 23.3338 21.1865 23.9962ZM18.7943 21.5976H15.2061V20.3983H18.7943V21.5976ZM17.5983 19.1989V17.4H20.3086L20.5155 19.1989H17.5983ZM21.7194 19.1989L21.5125 17.4H24.3914L24.7747 19.1989H21.7194Z" fill="#FF7029"/>
<path d="M16.9999 5.40706C10.0638 5.40706 4.44101 11.045 4.44101 17.9997C4.44101 24.9545 10.0638 30.5924 16.9999 30.5924C23.9361 30.5924 29.5588 24.9545 29.5588 17.9997C29.551 11.0483 23.9328 5.41497 16.9999 5.40706ZM16.9999 29.3931C10.7244 29.3931 5.63709 24.2922 5.63709 17.9998C5.63709 11.7074 10.7244 6.60635 16.9999 6.60635C23.2754 6.60635 28.3628 11.7073 28.3628 17.9997C28.3559 24.2892 23.2726 29.3862 16.9999 29.3931Z" fill="#FF7029"/>
</svg>
