<svg width="32" height="32" viewBox="0 0 32 32" fill="none" xmlns="http://www.w3.org/2000/svg">
<g clip-path="url(#clip0_4149_21)">
<path d="M30.999 15.7854C29.9291 14.9036 28.2379 14.828 27.128 16.0191L24.3726 18.9771C24.0163 17.8321 22.947 16.9985 21.6865 16.9985H16.7693C16.3962 16.9985 16.2713 16.856 15.6231 16.3566C13.152 14.2024 9.44038 14.2093 6.97675 16.3773L5.16938 17.9684C4.35694 17.5384 3.40825 17.5278 2.59138 17.9359L0.518375 18.9721C0.0552505 19.204 -0.132187 19.767 0.0990005 20.2301L5.72369 31.4795C5.95556 31.9426 6.51863 32.13 6.98175 31.8988L9.05475 30.862C10.0766 30.3515 10.6452 29.309 10.6084 28.2478H21.6864C23.7407 28.2478 25.7037 27.2666 26.9361 25.623L31.4365 19.6221C32.3096 18.459 32.1714 16.7535 30.999 15.7854ZM8.216 29.1852L6.98169 29.8026L2.19513 20.2301L3.43006 19.6127C3.89319 19.3815 4.45563 19.5683 4.6875 20.0321L8.63538 27.9278C8.86663 28.3909 8.67912 28.9533 8.216 29.1852ZM29.9366 18.4971L25.4363 24.498C24.5557 25.6723 23.1539 26.3729 21.6865 26.3729H9.95406L6.44113 19.3465L8.21537 17.7847C9.98087 16.2316 12.6432 16.2316 14.4087 17.7847C15.4487 18.7003 16.0955 18.8734 16.7693 18.8734H21.6864C22.2033 18.8734 22.6239 19.294 22.6239 19.8108C22.6239 20.3276 22.2033 20.7483 21.6864 20.7483H16.8986C16.3811 20.7483 15.9612 21.1683 15.9612 21.6857C15.9612 22.2031 16.3812 22.6231 16.8986 22.6231H22.3146C23.0926 22.6231 23.8426 22.2969 24.3726 21.7276L28.4998 17.2972C28.8773 16.8922 29.456 16.926 29.811 17.2366C30.1822 17.5615 30.2222 18.1171 29.9366 18.4971Z" fill="#87AB42"/>
<path d="M19.7114 6.39712C20.3533 5.72406 20.7489 4.81412 20.7489 3.81225C20.7489 1.74862 19.0815 0 16.9991 0C14.9324 0 13.1869 1.7455 13.1869 3.81225C13.1869 4.78344 13.5675 5.70025 14.2587 6.40462C12.5444 7.36581 11.312 9.21069 11.312 11.3743V12.3118C11.312 12.8292 11.732 13.2492 12.2494 13.2492H21.6864C22.2038 13.2492 22.6238 12.8292 22.6238 12.3118V11.3743C22.6238 9.25319 21.4571 7.37956 19.7114 6.39712ZM16.9991 1.87494C18.0153 1.87494 18.874 2.76237 18.874 3.81231C18.874 4.846 18.0328 5.68719 16.9991 5.68719C15.9492 5.68719 15.0618 4.8285 15.0618 3.81231C15.0618 2.7805 15.9673 1.87494 16.9991 1.87494ZM13.1869 11.3743C13.1869 9.30756 14.9324 7.56206 16.9991 7.56206C19.0665 7.56206 20.7489 9.27194 20.7489 11.3743H13.1869Z" fill="#87AB42"/>
</g>
<defs>
<clipPath id="clip0_4149_21">
<rect width="32" height="32" fill="white"/>
</clipPath>
</defs>
</svg>
