<svg width="66" height="80" viewBox="0 0 66 80" fill="none" xmlns="http://www.w3.org/2000/svg">
<path d="M22.5775 80L51.0665 33.9622H34.3529L43.0896 0L14.6006 46.0378H31.3142L22.5775 80Z" fill="#87AB42"/>
<path d="M27.9141 33.9622H34.3527L43.0894 0L32.0698 17.8072L27.9141 33.9622Z" fill="#87AB42"/>
<path d="M44.6276 33.9609L27.1579 62.1916L22.5771 79.9987L51.0662 33.9609H44.6276Z" fill="#87AB42"/>
<path d="M65.6671 40.0019C65.6671 29.1455 60.2548 19.0314 51.189 12.947C50.6356 12.5758 49.8856 12.723 49.5138 13.2767C49.1423 13.8303 49.2898 14.5803 49.8435 14.9519C58.2399 20.587 63.2527 29.9516 63.2527 40.0019C63.2527 52.3589 55.7368 63.3572 44.3527 67.9719L46.609 63.6525C46.9177 63.0616 46.6888 62.3322 46.0979 62.0234C45.5071 61.7148 44.7774 61.9433 44.4688 62.5345L40.9024 69.3617C40.7476 69.658 40.7226 70.0052 40.8332 70.3205C40.9438 70.6359 41.1804 70.8913 41.4863 71.0258L48.5906 74.1505C48.7487 74.22 48.9135 74.253 49.076 74.253C49.5402 74.253 49.9829 73.9836 50.1816 73.5314C50.4501 72.9211 50.1731 72.2088 49.5626 71.9403L45.4499 70.1314C57.6352 65.1044 65.6671 53.28 65.6671 40.0019Z" fill="#87AB42"/>
<path d="M26.1536 8.28968L19.0494 5.16499C18.4391 4.89655 17.7267 5.17358 17.4583 5.78405C17.1898 6.39436 17.4669 7.10671 18.0773 7.37514L22.1202 9.15343C16.0303 11.2481 10.5834 15.1628 6.66516 20.2923C2.30484 26.0003 0 32.8153 0 40.0001C0 45.238 1.27922 50.4453 3.69969 55.0595C6.04109 59.5233 9.45016 63.4498 13.5584 66.4147C13.772 66.5689 14.0191 66.6431 14.2639 66.6431C14.6384 66.6431 15.0078 66.4692 15.2439 66.1423C15.6341 65.6017 15.512 64.847 14.9714 64.4569C11.165 61.7097 8.00672 58.0723 5.83797 53.938C3.59828 49.6684 2.41453 44.8487 2.41453 40.0001C2.41453 33.3495 4.54781 27.0414 8.58391 21.758C12.3016 16.8912 17.5037 13.205 23.3098 11.3011L21.0313 15.663C20.7225 16.2539 20.9514 16.9833 21.5423 17.292C21.7209 17.3853 21.9119 17.4295 22.1003 17.4295C22.5355 17.4295 22.9558 17.1934 23.1713 16.7811L26.7377 9.95389C26.8925 9.65764 26.9175 9.31046 26.8069 8.99514C26.6961 8.67968 26.4595 8.42421 26.1536 8.28968Z" fill="#87AB42"/>
</svg>
