<svg width="80" height="80" viewBox="0 0 80 80" fill="none" xmlns="http://www.w3.org/2000/svg">
<g clip-path="url(#clip0_0_14876)">
<path d="M14.8957 20.8772C15.1513 21.0878 15.48 21.1883 15.8096 21.1567C16.1393 21.1251 16.4429 20.964 16.6538 20.7087C16.8648 20.4535 16.9658 20.1249 16.9347 19.7952C16.9037 19.4656 16.743 19.1617 16.4881 18.9503L14.5429 17.3427C14.4164 17.2378 14.2705 17.1588 14.1135 17.1104C13.9565 17.0619 13.7914 17.0449 13.6278 17.0603C13.4642 17.0757 13.3053 17.1232 13.1601 17.2001C13.0148 17.277 12.8862 17.3818 12.7815 17.5085C12.6769 17.6351 12.5982 17.7812 12.55 17.9383C12.5019 18.0954 12.4851 18.2605 12.5008 18.424C12.5165 18.5876 12.5643 18.7465 12.6415 18.8916C12.7186 19.0366 12.8237 19.1651 12.9505 19.2695L14.8957 20.8772Z" fill="#87AB42"/>
<path d="M10.6037 28.1352L8.21726 27.2801C7.90527 27.1687 7.56183 27.1857 7.26238 27.3273C6.96292 27.469 6.73194 27.7237 6.62017 28.0356C6.5084 28.3474 6.52499 28.6909 6.66629 28.9905C6.80759 29.2901 7.06204 29.5214 7.37375 29.6336L9.76023 30.4887C10.0721 30.5996 10.4152 30.5822 10.7143 30.4405C11.0134 30.2988 11.2441 30.0442 11.3558 29.7326C11.4674 29.421 11.451 29.0779 11.31 28.7784C11.169 28.4789 10.915 28.2476 10.6037 28.1352Z" fill="#87AB42"/>
<path d="M5.72949 38.7501C5.39797 38.7501 5.08003 38.8818 4.84561 39.1162C4.61119 39.3507 4.47949 39.6686 4.47949 40.0001C4.47949 40.3316 4.61119 40.6496 4.84561 40.884C5.08003 41.1184 5.39797 41.2501 5.72949 41.2501H8.26882C8.60034 41.2501 8.91829 41.1184 9.15271 40.884C9.38713 40.6496 9.51882 40.3316 9.51882 40.0001C9.51882 39.6686 9.38713 39.3507 9.15271 39.1162C8.91829 38.8818 8.60034 38.7501 8.26882 38.7501H5.72949Z" fill="#87AB42"/>
<path d="M9.76015 49.5099L7.37368 50.365C7.21895 50.4202 7.07664 50.5054 6.95487 50.6157C6.8331 50.726 6.73426 50.8592 6.66401 51.0077C6.59375 51.1562 6.55346 51.3171 6.54544 51.4812C6.53741 51.6453 6.56181 51.8093 6.61724 51.964C6.67267 52.1186 6.75804 52.2608 6.86847 52.3825C6.9789 52.5041 7.11222 52.6028 7.26082 52.6729C7.40941 52.7429 7.57036 52.783 7.73446 52.7909C7.89856 52.7987 8.0626 52.7741 8.21718 52.7185L10.6036 51.8634C10.9149 51.7509 11.1689 51.5196 11.3099 51.2201C11.4509 50.9207 11.4674 50.5775 11.3557 50.2659C11.244 49.9544 11.0133 49.6998 10.7142 49.558C10.4151 49.4163 10.072 49.399 9.76015 49.5099Z" fill="#87AB42"/>
<path d="M14.5429 62.6597L16.4881 61.052C16.743 60.8407 16.9037 60.5368 16.9347 60.2071C16.9658 59.8774 16.8648 59.5489 16.6538 59.2936C16.4429 59.0384 16.1393 58.8773 15.8096 58.8457C15.48 58.8141 15.1513 58.9146 14.8957 59.1252L12.9505 60.7328C12.8237 60.8373 12.7186 60.9657 12.6415 61.1108C12.5643 61.2559 12.5165 61.4148 12.5008 61.5783C12.4851 61.7419 12.5019 61.907 12.55 62.0641C12.5982 62.2212 12.6769 62.3672 12.7815 62.4939C12.8862 62.6206 13.0148 62.7254 13.1601 62.8023C13.3053 62.8792 13.4642 62.9267 13.6278 62.9421C13.7914 62.9575 13.9565 62.9404 14.1135 62.892C14.2705 62.8435 14.4164 62.7646 14.5429 62.6597Z" fill="#87AB42"/>
<path d="M24.7667 65.9839C24.4806 65.8165 24.1397 65.7695 23.819 65.8531C23.4983 65.9368 23.2238 66.1442 23.0559 66.43L21.7864 68.5955C21.7029 68.7372 21.6482 68.8939 21.6254 69.0567C21.6026 69.2195 21.6121 69.3853 21.6534 69.5444C21.6947 69.7035 21.767 69.8529 21.8661 69.9841C21.9653 70.1153 22.0893 70.2256 22.2311 70.3087C22.373 70.3919 22.5298 70.4462 22.6927 70.4687C22.8555 70.4912 23.0212 70.4813 23.1803 70.4396C23.3393 70.398 23.4886 70.3253 23.6195 70.2259C23.7505 70.1265 23.8605 70.0022 23.9433 69.8602L25.2128 67.6947C25.3804 67.4086 25.4276 67.0677 25.3439 66.7469C25.2603 66.4261 25.0526 66.1516 24.7667 65.9839Z" fill="#87AB42"/>
<path d="M46.7408 70.5545C46.6817 70.2288 46.4958 69.9397 46.2239 69.7509C45.952 69.562 45.6163 69.4887 45.2905 69.547C44.9646 69.6054 44.6752 69.7906 44.4857 70.0621C44.2962 70.3336 44.2222 70.6692 44.2798 70.9952L44.7208 73.4579C44.7494 73.6198 44.8097 73.7745 44.8982 73.913C44.9866 74.0516 45.1016 74.1713 45.2364 74.2654C45.3712 74.3595 45.5232 74.426 45.6838 74.4613C45.8444 74.4965 46.0103 74.4997 46.1721 74.4708C46.3339 74.4418 46.4884 74.3812 46.6268 74.2924C46.7652 74.2036 46.8846 74.0884 46.9784 73.9534C47.0722 73.8184 47.1384 73.6662 47.1733 73.5056C47.2082 73.345 47.2111 73.179 47.1818 73.0173L46.7408 70.5545Z" fill="#87AB42"/>
<path d="M56.944 66.4301C56.8613 66.2879 56.7513 66.1635 56.6204 66.0639C56.4894 65.9643 56.3401 65.8915 56.1809 65.8497C56.0218 65.8079 55.856 65.798 55.693 65.8204C55.53 65.8428 55.3731 65.8972 55.2311 65.9804C55.0892 66.0636 54.9651 66.174 54.8659 66.3053C54.7668 66.4366 54.6945 66.5862 54.6532 66.7454C54.612 66.9047 54.6026 67.0705 54.6255 67.2335C54.6485 67.3964 54.7034 67.5531 54.7871 67.6948L56.0566 69.8603C56.1396 70.0021 56.2497 70.1261 56.3806 70.2253C56.5115 70.3245 56.6607 70.3969 56.8196 70.4385C56.9786 70.48 57.1441 70.4898 57.3068 70.4673C57.4695 70.4448 57.6262 70.3904 57.7679 70.3073C57.9096 70.2243 58.0336 70.1141 58.1327 69.9831C58.2317 69.8521 58.3041 69.7028 58.3454 69.5439C58.3868 69.3849 58.3965 69.2193 58.3738 69.0566C58.3512 68.8939 58.2967 68.7373 58.2135 68.5957L56.944 66.4301Z" fill="#87AB42"/>
<path d="M65.1039 59.125C64.8483 58.9145 64.5196 58.8141 64.1901 58.8457C63.8605 58.8773 63.5569 59.0384 63.346 59.2936C63.1351 59.5488 63.034 59.8773 63.0651 60.207C63.0961 60.5366 63.2567 60.8405 63.5115 61.0518L65.4567 62.6595C65.7123 62.87 66.041 62.9704 66.3705 62.9388C66.7001 62.9072 67.0037 62.7461 67.2146 62.4908C67.4255 62.2356 67.5266 61.9071 67.4955 61.5775C67.4645 61.2479 67.3039 60.944 67.0491 60.7326L65.1039 59.125Z" fill="#87AB42"/>
<path d="M68.6416 50.2661C68.5298 50.5781 68.5465 50.9219 68.6881 51.2216C68.8297 51.5214 69.0845 51.7527 69.3966 51.8646L71.7831 52.7197C72.095 52.8306 72.4381 52.8132 72.7372 52.6715C73.0363 52.5297 73.267 52.2752 73.3786 51.9636C73.4903 51.652 73.4738 51.3088 73.3328 51.0094C73.1919 50.7099 72.9379 50.4786 72.6266 50.3662L70.2401 49.5111C70.0856 49.4556 69.9217 49.4311 69.7577 49.4391C69.5937 49.447 69.4329 49.4872 69.2844 49.5573C69.136 49.6274 69.0028 49.7261 68.8925 49.8477C68.7822 49.9693 68.697 50.1115 68.6416 50.2661Z" fill="#87AB42"/>
<path d="M71.7314 38.7501C71.3999 38.7501 71.082 38.8818 70.8476 39.1162C70.6131 39.3507 70.4814 39.6686 70.4814 40.0001C70.4814 40.3316 70.6131 40.6496 70.8476 40.884C71.082 41.1184 71.3999 41.2501 71.7314 41.2501H74.2708C74.6023 41.2501 74.9202 41.1184 75.1547 40.884C75.3891 40.6496 75.5208 40.3316 75.5208 40.0001C75.5208 39.6686 75.3891 39.3507 75.1547 39.1162C74.9202 38.8818 74.6023 38.7501 74.2708 38.7501H71.7314Z" fill="#87AB42"/>
<path d="M72.6261 29.6329C72.9374 29.5205 73.1914 29.2891 73.3324 28.9897C73.4734 28.6902 73.4898 28.3471 73.3782 28.0355C73.2665 27.7239 73.0358 27.4693 72.7367 27.3276C72.4376 27.1858 72.0945 27.1685 71.7826 27.2794L69.3961 28.1345C69.2414 28.1897 69.0991 28.2749 68.9773 28.3852C68.8556 28.4955 68.7567 28.6287 68.6865 28.7772C68.6162 28.9257 68.5759 29.0866 68.5679 29.2507C68.5599 29.4148 68.5843 29.5789 68.6397 29.7335C68.6951 29.8882 68.7805 30.0304 68.8909 30.152C69.0014 30.2737 69.1347 30.3723 69.2833 30.4424C69.4319 30.5125 69.5928 30.5526 69.7569 30.5604C69.921 30.5682 70.0851 30.5436 70.2396 30.488L72.6261 29.6329Z" fill="#87AB42"/>
<path d="M65.4572 17.3437L63.512 18.9514C63.3852 19.0558 63.2802 19.1843 63.203 19.3294C63.1258 19.4744 63.078 19.6333 63.0624 19.7969C63.0467 19.9605 63.0634 20.1255 63.1115 20.2826C63.1597 20.4397 63.2384 20.5858 63.3431 20.7125C63.4477 20.8391 63.5764 20.9439 63.7216 21.0208C63.8668 21.0977 64.0258 21.1452 64.1894 21.1606C64.353 21.176 64.518 21.159 64.675 21.1106C64.832 21.0621 64.978 20.9832 65.1044 20.8783L67.0496 19.2706C67.3045 19.0592 67.465 18.7554 67.4961 18.4257C67.5271 18.0961 67.426 17.7676 67.2151 17.5124C67.0042 17.2572 66.7006 17.0961 66.3711 17.0644C66.0415 17.0328 65.7128 17.1333 65.4572 17.3437Z" fill="#87AB42"/>
<path d="M18.6519 16.8734C18.7583 16.9986 18.8883 17.1016 19.0345 17.1765C19.1808 17.2514 19.3403 17.2968 19.5041 17.31C19.6678 17.3232 19.8326 17.3039 19.9889 17.2534C20.1453 17.2029 20.2901 17.122 20.4151 17.0155C20.5402 16.9089 20.643 16.7788 20.7177 16.6324C20.7925 16.4861 20.8376 16.3265 20.8506 16.1627C20.8636 15.9989 20.8441 15.8342 20.7934 15.6779C20.7427 15.5217 20.6616 15.377 20.5549 15.252L15.6596 9.5071C15.5533 9.38191 15.4232 9.27891 15.277 9.20401C15.1308 9.1291 14.9712 9.08376 14.8075 9.07056C14.6437 9.05737 14.4789 9.07659 14.3226 9.12712C14.1663 9.17766 14.0214 9.25851 13.8964 9.36506C13.7713 9.47161 13.6685 9.60177 13.5938 9.74809C13.5191 9.89441 13.4739 10.054 13.4609 10.2178C13.448 10.3816 13.4674 10.5463 13.5181 10.7026C13.5689 10.8588 13.6499 11.0036 13.7566 11.1285L18.6519 16.8734Z" fill="#87AB42"/>
<path d="M5.30601 21.7119L11.9014 25.4619C12.0441 25.5434 12.2015 25.5959 12.3646 25.6165C12.5277 25.6372 12.6932 25.6254 12.8517 25.582C13.0102 25.5385 13.1586 25.4643 13.2884 25.3634C13.4182 25.2626 13.5268 25.1371 13.6081 24.9942C13.6893 24.8514 13.7416 24.6939 13.7619 24.5308C13.7822 24.3677 13.7702 24.2022 13.7264 24.0437C13.6827 23.8853 13.6082 23.737 13.5071 23.6074C13.406 23.4778 13.2804 23.3694 13.1374 23.2884L6.54194 19.5384C6.25372 19.3745 5.9122 19.3318 5.59251 19.4197C5.27281 19.5077 5.00114 19.719 4.83724 20.0072C4.67335 20.2954 4.63066 20.6369 4.71858 20.9566C4.80649 21.2763 5.01779 21.548 5.30601 21.7119Z" fill="#87AB42"/>
<path d="M1.03615 34.5013L8.53611 35.8038C8.60727 35.8161 8.67935 35.8224 8.75157 35.8224C9.06442 35.822 9.36574 35.7043 9.59606 35.4926C9.82638 35.2809 9.96894 34.9905 9.99562 34.6788C10.0223 34.3671 9.93114 34.0567 9.74014 33.8089C9.54915 33.5611 9.2722 33.394 8.96397 33.3404L1.46401 32.0379C1.13747 31.9815 0.801894 32.057 0.531017 32.2479C0.260139 32.4388 0.0761282 32.7294 0.019422 33.0559C-0.0372841 33.3823 0.0379547 33.718 0.228604 33.989C0.419253 34.2601 0.709712 34.4443 1.03615 34.5013Z" fill="#87AB42"/>
<path d="M9.98172 45.2119C9.92464 44.8854 9.74038 44.5949 9.46937 44.4041C9.19835 44.2133 8.86271 44.1378 8.5361 44.1941L1.03614 45.4966C0.727927 45.5502 0.450996 45.7174 0.260016 45.9651C0.0690356 46.2129 -0.0221162 46.5233 0.00455434 46.835C0.0312249 47.1467 0.17378 47.437 0.404078 47.6488C0.634376 47.8605 0.935681 47.9782 1.24851 47.9786C1.32073 47.9786 1.39282 47.9724 1.46397 47.96L8.96393 46.6575C9.2906 46.6008 9.58135 46.4166 9.77222 46.1455C9.96309 45.8744 10.0384 45.5386 9.98172 45.2119Z" fill="#87AB42"/>
<path d="M13.6061 55.0072C13.4421 54.7191 13.1704 54.5079 12.8508 54.42C12.5311 54.3321 12.1897 54.3747 11.9014 54.5384L5.30601 58.2884C5.1633 58.3696 5.03797 58.478 4.93718 58.6076C4.83638 58.7372 4.7621 58.8854 4.71857 59.0437C4.67504 59.202 4.66312 59.3673 4.68348 59.5302C4.70384 59.6931 4.75609 59.8504 4.83724 59.9931C4.91839 60.1358 5.02686 60.2612 5.15645 60.3619C5.28604 60.4627 5.43421 60.537 5.5925 60.5806C5.7508 60.6241 5.91612 60.636 6.07902 60.6156C6.24193 60.5953 6.39922 60.543 6.54194 60.4619L13.1374 56.7119C13.4255 56.5479 13.6368 56.2763 13.7247 55.9566C13.8126 55.6369 13.7699 55.2954 13.6061 55.0072Z" fill="#87AB42"/>
<path d="M18.6518 63.1282L13.7565 68.8731C13.5415 69.1255 13.4356 69.4529 13.462 69.7834C13.4884 70.1139 13.645 70.4203 13.8974 70.6353C14.1497 70.8504 14.4772 70.9563 14.8076 70.9299C15.1381 70.9035 15.4446 70.7469 15.6596 70.4945L20.5549 64.7496C20.6616 64.6247 20.7426 64.4799 20.7934 64.3237C20.8441 64.1674 20.8635 64.0027 20.8505 63.8389C20.8376 63.6751 20.7924 63.5155 20.7177 63.3692C20.643 63.2229 20.5402 63.0927 20.4151 62.9861C20.29 62.8796 20.1452 62.7987 19.9889 62.7482C19.8325 62.6977 19.6678 62.6785 19.504 62.6917C19.3403 62.7049 19.1807 62.7502 19.0345 62.8251C18.8882 62.9 18.7582 63.003 18.6518 63.1282Z" fill="#87AB42"/>
<path d="M52.0251 68.9301C51.9681 68.7761 51.8815 68.6348 51.77 68.5144C51.6585 68.3939 51.5243 68.2966 51.3752 68.2279C51.2261 68.1593 51.0649 68.1207 50.9009 68.1143C50.7369 68.108 50.5732 68.134 50.4192 68.1909C50.2652 68.2478 50.124 68.3345 50.0035 68.446C49.883 68.5575 49.7857 68.6916 49.7171 68.8408C49.6484 68.9899 49.6098 69.1511 49.6035 69.3151C49.5971 69.4791 49.6232 69.6428 49.6801 69.7968L52.2847 76.8445C52.3411 76.9992 52.4275 77.1412 52.5389 77.2624C52.6503 77.3836 52.7846 77.4816 52.934 77.5508C53.0833 77.62 53.2449 77.6589 53.4094 77.6655C53.5739 77.672 53.7381 77.646 53.8925 77.5889C54.0469 77.5319 54.1886 77.4449 54.3093 77.3329C54.43 77.2209 54.5273 77.0862 54.5958 76.9365C54.6643 76.7868 54.7026 76.6251 54.7084 76.4605C54.7142 76.296 54.6874 76.132 54.6297 75.9778L52.0251 68.9301Z" fill="#87AB42"/>
<path d="M61.3481 63.127C61.1331 62.8746 60.8266 62.718 60.4961 62.6916C60.1657 62.6652 59.8382 62.7711 59.5859 62.9862C59.3335 63.2012 59.1769 63.5076 59.1505 63.8381C59.124 64.1686 59.23 64.496 59.445 64.7484L64.3403 70.4933C64.4468 70.6183 64.5768 70.721 64.723 70.7957C64.8692 70.8705 65.0286 70.9156 65.1922 70.9287C65.3559 70.9418 65.5205 70.9225 65.6767 70.872C65.8329 70.8214 65.9776 70.7406 66.1025 70.6342C66.2275 70.5277 66.3303 70.3977 66.405 70.2515C66.4797 70.1053 66.5248 69.9458 66.5379 69.7822C66.551 69.6186 66.5317 69.454 66.4812 69.2978C66.4306 69.1416 66.3498 68.9969 66.2434 68.8719L61.3481 63.127Z" fill="#87AB42"/>
<path d="M74.694 58.2884L68.0986 54.5384C67.9559 54.4573 67.7986 54.405 67.6357 54.3847C67.4728 54.3643 67.3074 54.3762 67.1491 54.4197C66.9908 54.4633 66.8427 54.5376 66.7131 54.6383C66.5835 54.7391 66.475 54.8645 66.3939 55.0072C66.3127 55.1499 66.2605 55.3072 66.2401 55.4701C66.2198 55.633 66.2317 55.7983 66.2752 55.9566C66.3187 56.1149 66.393 56.2631 66.4938 56.3927C66.5946 56.5223 66.7199 56.6307 66.8627 56.7119L73.458 60.4619C73.7462 60.6251 74.0874 60.6672 74.4066 60.5792C74.7258 60.4911 74.9971 60.2799 75.1608 59.992C75.3245 59.7041 75.3673 59.3631 75.2798 59.0437C75.1923 58.7243 74.9816 58.4526 74.694 58.2884Z" fill="#87AB42"/>
<path d="M78.9639 45.4967L71.464 44.1942C71.1375 44.1377 70.8019 44.2133 70.531 44.4041C70.2601 44.595 70.0761 44.8856 70.0194 45.2121C69.9627 45.5386 70.038 45.8742 70.2286 46.1453C70.4193 46.4163 70.7097 46.6006 71.0361 46.6575L78.5361 47.96C78.6072 47.9724 78.6793 47.9786 78.7515 47.9787C79.0644 47.9783 79.3657 47.8606 79.596 47.6489C79.8263 47.4371 79.9689 47.1468 79.9956 46.835C80.0223 46.5233 79.9311 46.213 79.7401 45.9652C79.5491 45.7174 79.2722 45.5502 78.9639 45.4967Z" fill="#87AB42"/>
<path d="M70.0184 34.786C70.0688 35.0759 70.2197 35.3387 70.4448 35.5283C70.6698 35.7179 70.9544 35.822 71.2486 35.8224C71.3208 35.8224 71.3929 35.8162 71.4641 35.8038L78.964 34.5013C79.2904 34.4443 79.5809 34.2601 79.7715 33.989C79.9622 33.718 80.0374 33.3823 79.9807 33.0559C79.924 32.7294 79.74 32.4388 79.4691 32.2479C79.1982 32.057 78.8627 31.9815 78.5361 32.0379L71.0362 33.3404C70.7095 33.3972 70.4188 33.5813 70.2279 33.8524C70.0371 34.1236 69.9617 34.4594 70.0184 34.786Z" fill="#87AB42"/>
<path d="M66.3938 24.9922C66.4749 25.1349 66.5834 25.2603 66.7129 25.3611C66.8425 25.4619 66.9907 25.5362 67.149 25.5798C67.3073 25.6233 67.4727 25.6352 67.6356 25.6148C67.7985 25.5944 67.9558 25.5421 68.0985 25.4609L74.6939 21.7109C74.9815 21.5467 75.1922 21.2751 75.2797 20.9557C75.3672 20.6363 75.3244 20.2952 75.1607 20.0073C74.997 19.7194 74.7258 19.5083 74.4065 19.4202C74.0873 19.3321 73.7461 19.3743 73.4579 19.5374L66.8626 23.2874C66.5744 23.4514 66.3631 23.7231 66.2752 24.0427C66.1873 24.3624 66.23 24.7039 66.3938 24.9922Z" fill="#87AB42"/>
<path d="M60.3961 17.3102C60.5772 17.3104 60.7561 17.2712 60.9206 17.1954C61.085 17.1195 61.2309 17.0087 61.3482 16.8707L66.2435 11.1258C66.3505 11.0009 66.4317 10.8561 66.4826 10.6998C66.5336 10.5435 66.5531 10.3786 66.5402 10.2147C66.5274 10.0508 66.4823 9.89099 66.4075 9.74453C66.3328 9.59807 66.2299 9.46779 66.1047 9.36115C65.9796 9.25451 65.8346 9.17362 65.6781 9.1231C65.5217 9.07257 65.3568 9.05342 65.1929 9.06672C65.029 9.08003 64.8693 9.12554 64.7231 9.20064C64.5768 9.27574 64.4468 9.37897 64.3404 9.5044L59.4452 15.2493C59.2903 15.431 59.1907 15.6532 59.1582 15.8897C59.1256 16.1262 59.1615 16.3671 59.2615 16.5839C59.3615 16.8007 59.5215 16.9842 59.7226 17.113C59.9236 17.2417 60.1573 17.3101 60.3961 17.3102Z" fill="#87AB42"/>
<path d="M52.9083 48.0473C52.7643 47.8359 52.559 47.6737 52.32 47.5826C52.081 47.4914 51.8199 47.4756 51.5716 47.5374L46.2805 48.8603L51.1856 34.1453C51.1916 34.1273 51.1918 34.1083 51.1969 34.0901C51.2133 34.0323 51.2254 33.9733 51.2332 33.9137C51.2379 33.8785 51.2422 33.8437 51.2438 33.8084C51.2447 33.7887 51.2497 33.7701 51.2497 33.7501C51.2497 32.184 51.5204 31.4866 52.4521 29.9016L53.3392 28.3909C54.4198 26.5635 54.993 24.4807 54.9996 22.3576V10.4414C54.9735 9.30606 54.4983 8.22736 53.6783 7.44173C52.8582 6.65609 51.7601 6.2276 50.6247 6.25014C49.9774 6.2504 49.3379 6.39031 48.7497 6.6603V6.62947C48.7497 4.52498 46.7871 2.81264 44.3747 2.81264C43.6816 2.81119 42.9962 2.95798 42.3644 3.24317C42.1164 2.33242 41.5821 1.52559 40.8403 0.941912C40.0985 0.358232 39.1886 0.0286588 38.2451 0.00189187C37.3015 -0.0248751 36.3744 0.252584 35.6007 0.793271C34.827 1.33396 34.2478 2.10919 33.9486 3.00442C33.308 2.67183 32.5966 2.49884 31.8748 2.50014C30.7368 2.48002 29.6372 2.91194 28.8171 3.7012C27.997 4.49047 27.5233 5.5727 27.4999 6.71065V11.0967L29.9998 9.58389V6.71065C30.0428 6.24309 30.2589 5.80845 30.6058 5.492C30.9527 5.17555 31.4053 5.00012 31.8748 5.00012C32.3444 5.00012 32.797 5.17555 33.1438 5.492C33.4907 5.80845 33.7068 6.24309 33.7498 6.71065V7.31482L33.7678 7.30391C34.5315 6.84561 35.3727 6.53137 36.2498 6.37678V4.28053C36.2747 3.80007 36.4831 3.3475 36.832 3.01622C37.1809 2.68495 37.6437 2.50025 38.1248 2.50025C38.6059 2.50025 39.0686 2.68495 39.4175 3.01622C39.7664 3.3475 39.9748 3.80007 39.9998 4.28053V6.64378C40.9254 6.95169 41.7768 7.44897 42.4998 8.10397V6.62947C42.4998 5.91567 43.3585 5.31264 44.3747 5.31264C45.3909 5.31264 46.2497 5.91567 46.2497 6.62947V15.8708C46.2497 16.5846 45.391 17.1876 44.3747 17.1876C43.8863 17.1942 43.4086 17.044 43.0117 16.7592C42.9382 16.8428 42.8689 16.9289 42.7906 17.0094L40.5091 19.3553C40.9804 19.6851 41.428 20.0476 41.8486 20.4401C42.0803 20.0747 42.2543 19.6756 42.3644 19.2571C42.9962 19.5423 43.6816 19.6891 44.3747 19.6876C45.0805 19.7004 45.7797 19.549 46.417 19.2453C47.0543 18.9417 47.6124 18.4941 48.0471 17.9379C48.6897 18.3877 49.4387 18.6614 50.2198 18.7319C51.001 18.8025 51.787 18.6673 52.4997 18.34V22.3576C52.4931 24.0354 52.0388 25.681 51.1838 27.1245L50.2966 28.6351C49.5208 29.7963 49.0168 31.1173 48.8219 32.5001H29.9989V27.671C30.0728 26.8175 29.8371 25.9659 29.3349 25.2717L25.3328 20.2019C25.2016 20.0471 25.1058 19.8656 25.0519 19.67C24.9981 19.4744 24.9875 19.2695 25.0209 19.0694C25.0767 18.8241 25.1841 18.5935 25.3361 18.3931C25.4881 18.1927 25.6811 18.0271 25.9023 17.9072L36.3563 11.5816C36.7906 11.3307 37.2912 11.2185 37.791 11.2601C38.2909 11.3017 38.7661 11.4951 39.1529 11.8144C39.2774 11.9215 39.3789 12.0527 39.4513 12.2001C39.5238 12.3474 39.5656 12.508 39.5743 12.672C39.5737 12.8314 39.5407 12.989 39.4775 13.1353C39.4142 13.2817 39.322 13.4137 39.2063 13.5234L33.1602 19.7398C33.0031 19.9019 32.8927 20.1035 32.8408 20.3233C32.789 20.543 32.7975 20.7727 32.8656 20.988C32.9337 21.2032 33.0587 21.3961 33.2275 21.546C33.3963 21.696 33.6025 21.7975 33.8243 21.8397C34.1026 21.8929 40.6302 23.2008 39.9469 28.3772C39.9252 28.5401 39.9357 28.7057 39.978 28.8645C40.0203 29.0233 40.0935 29.1722 40.1934 29.3027C40.2933 29.4332 40.4179 29.5427 40.5602 29.625C40.7024 29.7072 40.8595 29.7606 41.0224 29.7822C41.1853 29.8037 41.3509 29.7928 41.5096 29.7503C41.6684 29.7077 41.8172 29.6343 41.9475 29.5342C42.0778 29.4341 42.1871 29.3093 42.2692 29.1669C42.3512 29.0245 42.4043 28.8673 42.4256 28.7044C43.0628 23.8747 39.4782 21.1763 36.4021 19.9925L40.9986 15.2663C41.3461 14.9187 41.6203 14.505 41.8049 14.0496C41.9896 13.5941 42.081 13.1063 42.0737 12.6149C42.0578 12.1189 41.9424 11.6311 41.7346 11.1805C41.5268 10.7298 41.2306 10.3255 40.8637 9.9913C40.0779 9.30017 39.0938 8.875 38.052 8.77652C37.0101 8.67803 35.9638 8.91126 35.0624 9.4429L24.6084 15.7683C24.0822 16.0695 23.627 16.4804 23.2738 16.9731C22.9205 17.4658 22.6774 18.0288 22.5609 18.6238C22.4633 19.1726 22.4851 19.736 22.6248 20.2756C22.7645 20.8153 23.0189 21.3185 23.3706 21.7509L27.3729 26.8211C27.4825 26.9597 27.4989 27.1364 27.4989 27.671V33.7501L27.4999 33.7592V58.7501C27.4999 58.9526 27.5491 59.152 27.6432 59.3313C27.7374 59.5105 27.8736 59.6642 28.0403 59.7792C28.207 59.8941 28.3991 59.9669 28.6 59.9912C28.801 60.0155 29.0049 59.9906 29.1942 59.9187L32.639 58.6085L29.1548 78.535C29.1061 78.814 29.1535 79.1012 29.2894 79.3497C29.4252 79.5982 29.6414 79.7932 29.9026 79.9028C30.1637 80.0124 30.4543 80.03 30.7268 79.9528C30.9993 79.8756 31.2375 79.7082 31.4024 79.478L52.8909 49.478C53.0399 49.27 53.1215 49.0212 53.1246 48.7654C53.1277 48.5095 53.0522 48.2589 52.9083 48.0473ZM50.6247 16.2501C50.1522 16.2727 49.69 16.1076 49.3388 15.7908C48.9875 15.474 48.7758 15.0311 48.7497 14.5589V10.4414C48.7976 9.97754 49.0159 9.5479 49.3622 9.23555C49.7085 8.92321 50.1583 8.75033 50.6247 8.75033C51.091 8.75033 51.5408 8.92321 51.8872 9.23555C52.2335 9.5479 52.4517 9.97754 52.4997 10.4414V14.5589C52.4736 15.0311 52.2618 15.474 51.9106 15.7908C51.5594 16.1076 51.0971 16.2727 50.6247 16.2501ZM32.5615 73.5667L35.4801 56.8742C35.5181 56.6568 35.4977 56.4331 35.4212 56.226C35.3447 56.019 35.2147 55.8358 35.0445 55.6953C34.8743 55.5547 34.6699 55.4617 34.4521 55.4258C34.2343 55.3898 34.0108 55.4122 33.8045 55.4906L29.9998 56.9374V40.0001H32.4998V50.0001C32.4989 50.1649 32.5306 50.3281 32.593 50.4806C32.6554 50.633 32.7473 50.7716 32.8635 50.8884C32.9797 51.0052 33.1178 51.0979 33.2699 51.1612C33.422 51.2244 33.5851 51.257 33.7498 51.257C33.9145 51.257 34.0776 51.2244 34.2297 51.1612C34.3818 51.0979 34.5199 51.0052 34.6361 50.8884C34.7523 50.7716 34.8442 50.633 34.9066 50.4806C34.969 50.3281 35.0007 50.1649 34.9998 50.0001V40.0001H46.5987L43.1888 50.2299C43.1181 50.4424 43.1057 50.67 43.153 50.8889C43.2002 51.1078 43.3055 51.31 43.4576 51.4744C43.6098 51.6387 43.8033 51.7591 44.0179 51.8231C44.2326 51.887 44.4605 51.8922 44.6778 51.8379L48.8775 50.7878L32.5615 73.5667Z" fill="#87AB42"/>
<path d="M68.125 40.001C68.1246 35.7716 67.1688 31.597 65.3291 27.7888C63.4893 23.9805 60.8131 20.637 57.5002 18.0079V22.3585C57.4935 24.927 56.8012 27.4471 55.4949 29.6586L54.6084 31.1683C53.8085 32.5294 53.7502 32.7836 53.7502 33.751C53.7502 33.8349 53.7444 33.9338 53.7353 34.0266C53.7298 34.0946 53.7221 34.1642 53.713 34.235C53.694 34.3781 53.6672 34.52 53.6327 34.6601C53.6135 34.7474 53.5903 34.8365 53.5656 34.9128L50.093 45.3312L50.9658 45.113C51.7105 44.9269 52.4944 44.9738 53.2116 45.2473C53.9288 45.5209 54.5448 46.008 54.9764 46.6428C55.4079 47.2775 55.6343 48.0295 55.6249 48.797C55.6156 49.5646 55.3709 50.3108 54.9239 50.9348L42.7051 67.9932C49.66 67.3129 56.1135 64.071 60.8115 58.8976C65.5094 53.7243 68.1161 46.9891 68.125 40.001Z" fill="#87AB42"/>
<path d="M28.7495 62.4998C27.755 62.4998 26.8013 62.1047 26.0981 61.4016C25.3949 60.6984 24.9998 59.7446 24.9998 58.7501L24.9989 27.8487L21.4082 23.3C20.6893 22.4013 20.2235 21.3269 20.0592 20.1879C16.8277 23.4344 14.4389 27.4216 13.1007 31.8024C11.7626 36.1832 11.5157 40.8247 12.3816 45.3228C13.2475 49.8208 15.1998 54.039 18.0687 57.6099C20.9375 61.1809 24.6358 63.9964 28.8416 65.8112L29.4315 62.4376C29.2066 62.4791 28.9783 62.4999 28.7495 62.4998Z" fill="#87AB42"/>
</g>
<defs>
<clipPath id="clip0_0_14876">
<rect width="80" height="80" fill="white"/>
</clipPath>
</defs>
</svg>
