<svg width="68" height="68" viewBox="0 0 68 68" fill="none" xmlns="http://www.w3.org/2000/svg">
<g clip-path="url(#clip0_0_14920)">
<path d="M38.25 65.8751H29.75C27.4061 65.8751 25.5 63.969 25.5 61.6251V60.2587C24.1017 59.8082 22.7439 59.2451 21.4412 58.58L20.4765 59.5447C18.8211 61.2001 16.1224 61.2022 14.467 59.5447L8.4575 53.5352C7.65425 52.732 7.21225 51.6652 7.21225 50.5305C7.21225 49.3936 7.65425 48.3269 8.4575 47.5236L9.42225 46.5589C8.75287 45.2562 8.19187 43.8984 7.74137 42.5001H6.375C4.03112 42.5001 2.125 40.594 2.125 38.2501V29.7501C2.125 27.4062 4.03112 25.5001 6.375 25.5001H7.74137C8.194 24.1019 8.755 22.744 9.42225 21.4414L8.45538 20.4766C7.65425 19.6755 7.21225 18.6066 7.21225 17.4719C7.21225 16.3371 7.65425 15.2704 8.4575 14.4671L14.467 8.45762C16.1224 6.80012 18.8211 6.80012 20.4765 8.45762L21.4412 9.42237C22.7439 8.75725 24.1017 8.19412 25.5 7.74362V6.37512C25.5 4.03125 27.4061 2.12512 29.75 2.12512H38.25C40.5939 2.12512 42.5 4.03125 42.5 6.37512V7.7415C43.8983 8.192 45.2561 8.75512 46.5588 9.42025L47.5235 8.4555C49.1789 6.80012 51.8776 6.798 53.533 8.4555L59.5425 14.465C60.3458 15.2682 60.7878 16.335 60.7878 17.4697C60.7878 18.6066 60.3458 19.6734 59.5425 20.4766L58.5778 21.4414C59.245 22.744 59.806 24.1019 60.2586 25.5001H61.625C63.9689 25.5001 65.875 27.4062 65.875 29.7501V38.2501C65.875 40.594 63.9689 42.5001 61.625 42.5001H60.2586C59.806 43.8984 59.245 45.2562 58.5778 46.5589L59.5425 47.5236C60.3458 48.3247 60.7878 49.3915 60.7878 50.5284C60.7878 51.6631 60.3458 52.7299 59.5425 53.5331L53.533 59.5426C51.8776 61.2001 49.1789 61.2001 47.5235 59.5426L46.5588 58.5779C45.2561 59.243 43.8983 59.8061 42.5 60.2566V61.6251C42.5 63.969 40.5939 65.8751 38.25 65.8751ZM20.7315 53.2824L22.1489 54.1217C24.0168 55.2246 26.0376 56.0619 28.1562 56.608L29.75 57.0181V61.6251H38.25V57.0181L39.8438 56.608C41.9624 56.0619 43.9832 55.2246 45.8511 54.1217L47.2685 53.2824L50.5283 56.5379L56.5378 50.5284L53.2822 47.2707L54.1195 45.8534C55.2245 43.9834 56.0596 41.9625 56.6058 39.8439L57.018 38.2501H61.625V29.7501H57.018L56.6058 28.1564C56.0596 26.0377 55.2245 24.0169 54.1195 22.1469L53.2822 20.7295L56.5378 17.4719L50.5283 11.4624L47.2685 14.72L45.8511 13.8806C43.9832 12.7777 41.9624 11.9405 39.8438 11.3944L38.25 10.9821V6.37512H29.75V10.9821L28.1562 11.3922C26.0376 11.9384 24.0168 12.7756 22.1489 13.8785L20.7315 14.7179L17.4718 11.4624L11.4622 17.4719L14.7178 20.7295L13.8805 22.1469C12.7755 24.0169 11.9404 26.0377 11.3942 28.1564L10.982 29.7501H6.375V38.2501H10.982L11.3942 39.8439C11.9404 41.9625 12.7755 43.9834 13.8805 45.8534L14.7178 47.2707L11.4622 50.5284L17.4718 56.5379L20.7315 53.2824Z" fill="#87AB42"/>
<path d="M34 48.8751C25.7996 48.8751 19.125 42.2026 19.125 34.0001C19.125 25.7976 25.7996 19.1251 34 19.1251C42.2004 19.1251 48.875 25.7976 48.875 34.0001C48.875 42.2026 42.2004 48.8751 34 48.8751ZM34 23.3751C28.1414 23.3751 23.375 28.1415 23.375 34.0001C23.375 39.8587 28.1414 44.6251 34 44.6251C39.8586 44.6251 44.625 39.8587 44.625 34.0001C44.625 28.1415 39.8586 23.3751 34 23.3751Z" fill="#87AB42"/>
<path d="M34 40.3751C32.8249 40.3751 31.875 39.4231 31.875 38.2501V29.7501C31.875 28.5771 32.8249 27.6251 34 27.6251C35.1751 27.6251 36.125 28.5771 36.125 29.7501V38.2501C36.125 39.4231 35.1751 40.3751 34 40.3751Z" fill="#87AB42"/>
<path d="M33.9996 40.375C33.4556 40.375 32.9116 40.1667 32.4972 39.7523C31.6663 38.9215 31.6663 37.5785 32.4972 36.7476L37.0043 32.2405C37.8352 31.4096 39.1782 31.4096 40.0091 32.2405C40.8399 33.0713 40.8399 34.4143 40.0091 35.2452L35.5019 39.7523C35.0876 40.1667 34.5436 40.375 33.9996 40.375Z" fill="#87AB42"/>
<path d="M33.9998 40.3751C33.4558 40.3751 32.9118 40.1668 32.4975 39.7525L27.9903 35.2453C27.1595 34.4145 27.1595 33.0715 27.9903 32.2406C28.8212 31.4097 30.1642 31.4097 30.9951 32.2406L35.5022 36.7477C36.3331 37.5786 36.3331 38.9216 35.5022 39.7525C35.0878 40.1668 34.5438 40.3751 33.9998 40.3751Z" fill="#87AB42"/>
</g>
<defs>
<clipPath id="clip0_0_14920">
<rect width="68" height="68" fill="white"/>
</clipPath>
</defs>
</svg>
