<svg width="35" height="35" viewBox="0 0 35 35" fill="none" xmlns="http://www.w3.org/2000/svg">
<path d="M31.0475 25.5883C30.5857 25.8285 30.11 26.0384 29.6226 26.2203C28.0811 26.794 26.4463 27.0855 24.7999 27.0808C18.4473 27.0808 12.911 22.7152 12.911 17.0996C12.9273 15.5698 13.7692 14.1659 15.1148 13.4336C9.36622 13.6761 7.8877 19.6672 7.8877 23.1723C7.8877 33.1116 17.0341 34.1074 19.0093 34.1074C20.0704 34.1074 21.6679 33.7995 22.6357 33.4894L22.8106 33.4357C26.5116 32.1578 29.6669 29.6555 31.7564 26.3439C31.9103 26.0897 31.8287 25.7586 31.5745 25.607C31.4159 25.5067 31.213 25.4997 31.0475 25.5883Z" fill="#496018"/>
<path opacity="0.35" d="M31.0475 25.5883C30.5857 25.8285 30.11 26.0384 29.6226 26.2203C28.0811 26.794 26.4463 27.0855 24.7999 27.0808C18.4473 27.0808 12.911 22.7152 12.911 17.0996C12.9273 15.5698 13.7692 14.1659 15.1148 13.4336C9.36622 13.6761 7.8877 19.6672 7.8877 23.1723C7.8877 33.1116 17.0341 34.1074 19.0093 34.1074C20.0704 34.1074 21.6679 33.7995 22.6357 33.4894L22.8106 33.4357C26.5116 32.1578 29.6669 29.6555 31.7564 26.3439C31.9103 26.0897 31.8287 25.7586 31.5745 25.607C31.4159 25.5067 31.213 25.4997 31.0475 25.5883Z" fill="url(#paint0_radial_1_7696)"/>
<path d="M14.2029 32.4122C13.0066 31.6706 11.9711 30.6981 11.1549 29.5507C7.62414 24.7164 8.67823 17.9347 13.5126 14.404C14.0187 14.0355 14.555 13.709 15.1171 13.4315C15.5462 13.2309 16.2598 12.8811 17.2136 12.8951C18.5732 12.9068 19.8512 13.5528 20.6651 14.6418C21.2061 15.3694 21.5023 16.2486 21.5116 17.1535C21.5116 17.1255 24.8022 6.46094 10.7654 6.46094C4.86763 6.46094 0.0192603 12.0486 0.0192603 16.9646C-0.00406041 19.5625 0.550972 22.1301 1.64471 24.4878C5.3527 32.3819 14.3801 36.2508 22.652 33.4873C19.8185 34.3828 16.7355 33.9887 14.2169 32.4122H14.2029Z" fill="#87AB42"/>
<path opacity="0.41" d="M14.2029 32.4122C13.0066 31.6706 11.9711 30.6981 11.1549 29.5507C7.62414 24.7164 8.67823 17.9347 13.5126 14.404C14.0187 14.0355 14.555 13.709 15.1171 13.4315C15.5462 13.2309 16.2598 12.8811 17.2136 12.8951C18.5732 12.9068 19.8512 13.5528 20.6651 14.6418C21.2061 15.3694 21.5023 16.2486 21.5116 17.1535C21.5116 17.1255 24.8022 6.46094 10.7654 6.46094C4.86763 6.46094 0.0192603 12.0486 0.0192603 16.9646C-0.00406041 19.5625 0.550972 22.1301 1.64471 24.4878C5.3527 32.3819 14.3801 36.2508 22.652 33.4873C19.8185 34.3828 16.7355 33.9887 14.2169 32.4122H14.2029Z" fill="url(#paint1_radial_1_7696)"/>
<path d="M20.4756 19.9881C20.3543 20.1234 20.0185 20.324 20.0185 20.7414C20.0185 21.0912 20.247 21.441 20.6621 21.7209C22.5837 23.0641 26.2241 22.8752 26.2358 22.8752C27.6677 22.8752 29.0739 22.4881 30.3052 21.7605C32.8309 20.2843 34.384 17.5791 34.3887 14.6547C34.4283 11.6463 33.3136 9.64543 32.8705 8.75691C30.0091 3.19493 23.871 0 17.1943 0C7.79144 0 0.132928 7.55122 0 16.9518C0.06763 12.0498 4.94399 8.08528 10.7462 8.08528C11.2172 8.08528 13.9038 8.12492 16.3874 9.42855C18.1342 10.2961 19.58 11.6673 20.5385 13.3651C21.3571 14.79 21.5063 16.602 21.5063 17.3273C21.5063 18.0525 21.1425 19.1136 20.4592 19.9998L20.4756 19.9881Z" fill="url(#paint2_radial_1_7696)"/>
<path d="M20.4756 19.9881C20.3543 20.1234 20.0185 20.324 20.0185 20.7414C20.0185 21.0912 20.247 21.441 20.6621 21.7209C22.5837 23.0641 26.2241 22.8752 26.2358 22.8752C27.6677 22.8752 29.0739 22.4881 30.3052 21.7605C32.8309 20.2843 34.384 17.5791 34.3887 14.6547C34.4283 11.6463 33.3136 9.64543 32.8705 8.75691C30.0091 3.19493 23.871 0 17.1943 0C7.79144 0 0.132928 7.55122 0 16.9518C0.06763 12.0498 4.94399 8.08528 10.7462 8.08528C11.2172 8.08528 13.9038 8.12492 16.3874 9.42855C18.1342 10.2961 19.58 11.6673 20.5385 13.3651C21.3571 14.79 21.5063 16.602 21.5063 17.3273C21.5063 18.0525 21.1425 19.1136 20.4592 19.9998L20.4756 19.9881Z" fill="url(#paint3_linear_1_7696)"/>
<defs>
<radialGradient id="paint0_radial_1_7696" cx="0" cy="0" r="1" gradientUnits="userSpaceOnUse" gradientTransform="translate(21.1207 23.9563) scale(12.8146 12.1738)">
<stop offset="0.7" stop-opacity="0"/>
<stop offset="0.9" stop-opacity="0.5"/>
<stop offset="1"/>
</radialGradient>
<radialGradient id="paint1_radial_1_7696" cx="0" cy="0" r="1" gradientTransform="matrix(2.88529 -19.0429 15.3882 2.30824 9.48207 26.7226)" gradientUnits="userSpaceOnUse">
<stop offset="0.8" stop-opacity="0"/>
<stop offset="0.9" stop-opacity="0.5"/>
<stop offset="1"/>
</radialGradient>
<radialGradient id="paint2_radial_1_7696" cx="0" cy="0" r="1" gradientTransform="matrix(-1.08749 27.1873 -57.909 -2.17499 3.48188 6.35737)" gradientUnits="userSpaceOnUse">
<stop stop-color="#FF7029"/>
<stop offset="0.1" stop-color="#FF7029"/>
<stop offset="0.2" stop-color="#FF7029"/>
<stop offset="0.3" stop-color="#FF7029"/>
<stop offset="0.7" stop-color="#87AB42"/>
</radialGradient>
<linearGradient id="paint3_linear_1_7696" x1="-1.73744" y1="11.3615" x2="36.1697" y2="15.0976" gradientUnits="userSpaceOnUse">
<stop offset="0.49" stop-color="#87AB42"/>
<stop offset="1" stop-color="#87AB42"/>
</linearGradient>
</defs>
</svg>
