<svg width="61" height="61" viewBox="0 0 61 61" fill="none" xmlns="http://www.w3.org/2000/svg">
<path d="M45.7344 16.2812C46.9396 16.2812 48.1178 15.9239 49.1199 15.2543C50.122 14.5847 50.903 13.633 51.3643 12.5195C51.8255 11.406 51.9462 10.1807 51.711 8.99867C51.4759 7.8166 50.8955 6.73079 50.0433 5.87857C49.1911 5.02634 48.1053 4.44597 46.9232 4.21084C45.7411 3.97571 44.5159 4.09639 43.4024 4.55761C42.2889 5.01883 41.3372 5.79988 40.6676 6.80199C39.998 7.80411 39.6406 8.98227 39.6406 10.1875C39.6422 11.8032 40.2848 13.3522 41.4272 14.4947C42.5697 15.6371 44.1187 16.2796 45.7344 16.2812ZM45.7344 6.125C46.5379 6.125 47.3233 6.36326 47.9914 6.80966C48.6595 7.25605 49.1802 7.89052 49.4876 8.63285C49.7951 9.37517 49.8756 10.192 49.7188 10.9801C49.5621 11.7681 49.1751 12.492 48.607 13.0601C48.0388 13.6283 47.315 14.0152 46.5269 14.1719C45.7389 14.3287 44.922 14.2482 44.1797 13.9408C43.4374 13.6333 42.8029 13.1126 42.3565 12.4445C41.9101 11.7764 41.6719 10.991 41.6719 10.1875C41.6719 9.11006 42.0999 8.07675 42.8618 7.31488C43.6236 6.55301 44.6569 6.125 45.7344 6.125Z" fill="#717580"/>
<path d="M44.7188 0.03125H46.75V2.0625H44.7188V0.03125Z" fill="#717580"/>
<path d="M39.7737 1.89634L41.5327 0.880715L42.5484 2.63978L40.7893 3.6554L39.7737 1.89634Z" fill="#717580"/>
<path d="M36.4343 5.99257L37.4499 4.2335L39.209 5.24913L38.1934 7.00819L36.4343 5.99257Z" fill="#717580"/>
<path d="M35.5781 9.17188H37.6094V11.2031H35.5781V9.17188Z" fill="#717580"/>
<path d="M36.4296 14.382L38.1887 13.3664L39.2043 15.1255L37.4452 16.1411L36.4296 14.382Z" fill="#717580"/>
<path d="M39.7783 18.4801L40.794 16.721L42.553 17.7366L41.5374 19.4957L39.7783 18.4801Z" fill="#717580"/>
<path d="M44.7188 18.3125H46.75V20.3438H44.7188V18.3125Z" fill="#717580"/>
<path d="M48.9153 17.7261L50.6744 16.7105L51.69 18.4695L49.9309 19.4851L48.9153 17.7261Z" fill="#717580"/>
<path d="M52.2659 15.135L53.2815 13.376L55.0406 14.3916L54.0249 16.1506L52.2659 15.135Z" fill="#717580"/>
<path d="M53.8594 9.17188H55.8906V11.2031H53.8594V9.17188Z" fill="#717580"/>
<path d="M52.2594 5.24039L54.0184 4.22477L55.0341 5.98383L53.275 6.99945L52.2594 5.24039Z" fill="#717580"/>
<path d="M48.9208 2.6475L49.9364 0.888438L51.6955 1.90406L50.6799 3.66313L48.9208 2.6475Z" fill="#717580"/>
<path d="M59.9531 38.625H48.7812V36.5938H54.5094C54.9516 36.5938 55.3886 36.4976 55.7899 36.3117C56.1912 36.1259 56.5473 35.8549 56.8333 35.5177C57.1194 35.1804 57.3286 34.7849 57.4464 34.3586C57.5643 33.9323 57.5879 33.4855 57.5156 33.0492L56.1547 24.9242C56.0413 24.2118 55.6771 23.5634 55.1277 23.096C54.5783 22.6285 53.8799 22.3728 53.1586 22.375H38.3102C37.5888 22.3728 36.8904 22.6285 36.341 23.096C35.7917 23.5634 35.4274 24.2118 35.3141 24.9242L33.9531 33.0492C33.8809 33.4855 33.9045 33.9323 34.0223 34.3586C34.1401 34.7849 34.3494 35.1804 34.6354 35.5177C34.9215 35.8549 35.2775 36.1259 35.6788 36.3117C36.0802 36.4976 36.5171 36.5938 36.9594 36.5938H42.6875V38.625H30.5V1.04688C30.5 0.777515 30.393 0.519186 30.2025 0.32872C30.0121 0.138253 29.7537 0.03125 29.4844 0.03125H1.04688C0.777515 0.03125 0.519186 0.138253 0.32872 0.32872C0.138253 0.519186 0.03125 0.777515 0.03125 1.04688V59.9531C0.03125 60.2225 0.138253 60.4808 0.32872 60.6713C0.519186 60.8617 0.777515 60.9688 1.04688 60.9688H59.9531C60.2225 60.9688 60.4808 60.8617 60.6713 60.6713C60.8617 60.4808 60.9688 60.2225 60.9688 59.9531V39.6406C60.9688 39.3713 60.8617 39.1129 60.6713 38.9225C60.4808 38.732 60.2225 38.625 59.9531 38.625ZM20.3438 58.9375H10.1875V46.75H20.3438V58.9375ZM28.4688 58.9375H22.375V45.7344C22.375 45.465 22.268 45.2067 22.0775 45.0162C21.8871 44.8258 21.6287 44.7188 21.3594 44.7188H9.17188C8.90251 44.7188 8.64419 44.8258 8.45372 45.0162C8.26325 45.2067 8.15625 45.465 8.15625 45.7344V58.9375H2.0625V2.0625H28.4688V58.9375ZM55.3727 32.5312L55.5148 33.3742C55.5386 33.5217 55.5301 33.6725 55.4897 33.8163C55.4494 33.9601 55.3783 34.0935 55.2813 34.207C55.1859 34.3185 55.0675 34.408 54.9343 34.4694C54.801 34.5307 54.6561 34.5625 54.5094 34.5625H52.6914L52.3461 32.5312H55.3727ZM55.0273 30.5H52.0109L51.6758 28.4688H54.6922L55.0273 30.5ZM53.1586 24.4062C53.3977 24.4053 53.6292 24.4897 53.8117 24.6442C53.9941 24.7987 54.1155 25.0132 54.1539 25.2492L54.357 26.4375H51.3305L50.9953 24.4062H53.1586ZM46.75 24.4062H48.9336L49.2789 26.4375H46.75V24.4062ZM46.75 28.4688H49.6141L49.9492 30.5H46.75V28.4688ZM46.75 32.5312H50.2945L50.6297 34.5625H46.75V32.5312ZM42.5352 24.4062H44.7188V26.4375H42.1898L42.5352 24.4062ZM46.75 36.5938V38.625H44.7188V36.5938H46.75ZM41.8547 28.4688H44.7188V30.5H41.5195L41.8547 28.4688ZM38.7773 34.5625H36.9594C36.8127 34.5625 36.6677 34.5307 36.5345 34.4694C36.4012 34.408 36.2829 34.3185 36.1875 34.207C36.0905 34.0935 36.0194 33.9601 35.979 33.8163C35.9387 33.6725 35.9301 33.5217 35.9539 33.3742L36.0961 32.5312H39.1227L38.7773 34.5625ZM39.4578 30.5H36.4414L36.7766 28.4688H39.793L39.4578 30.5ZM40.1383 26.4375H37.1117L37.3148 25.2492C37.3533 25.0132 37.4746 24.7987 37.6571 24.6442C37.8395 24.4897 38.0711 24.4053 38.3102 24.4062H40.4734L40.1383 26.4375ZM40.8391 34.5625L41.1742 32.5312H44.7188V34.5625H40.8391ZM58.9375 58.9375H30.5V52.8438H58.9375V58.9375ZM58.9375 50.8125H30.5V46.75H58.9375V50.8125ZM58.9375 44.7188H30.5V40.6562H58.9375V44.7188Z" fill="#717580"/>
<path d="M6.125 14.25H12.2188C12.4881 14.25 12.7464 14.143 12.9369 13.9525C13.1274 13.7621 13.2344 13.5037 13.2344 13.2344V7.14062C13.2344 6.87126 13.1274 6.61294 12.9369 6.42247C12.7464 6.232 12.4881 6.125 12.2188 6.125H6.125C5.85564 6.125 5.59731 6.232 5.40685 6.42247C5.21638 6.61294 5.10938 6.87126 5.10938 7.14062V13.2344C5.10938 13.5037 5.21638 13.7621 5.40685 13.9525C5.59731 14.143 5.85564 14.25 6.125 14.25ZM7.14062 8.15625H11.2031V12.2188H7.14062V8.15625Z" fill="#717580"/>
<path d="M18.3125 14.25H24.4062C24.6756 14.25 24.9339 14.143 25.1244 13.9525C25.3149 13.7621 25.4219 13.5037 25.4219 13.2344V7.14062C25.4219 6.87126 25.3149 6.61294 25.1244 6.42247C24.9339 6.232 24.6756 6.125 24.4062 6.125H18.3125C18.0431 6.125 17.7848 6.232 17.5943 6.42247C17.4039 6.61294 17.2969 6.87126 17.2969 7.14062V13.2344C17.2969 13.5037 17.4039 13.7621 17.5943 13.9525C17.7848 14.143 18.0431 14.25 18.3125 14.25ZM19.3281 8.15625H23.3906V12.2188H19.3281V8.15625Z" fill="#717580"/>
<path d="M6.125 26.4375H12.2188C12.4881 26.4375 12.7464 26.3305 12.9369 26.14C13.1274 25.9496 13.2344 25.6912 13.2344 25.4219V19.3281C13.2344 19.0588 13.1274 18.8004 12.9369 18.61C12.7464 18.4195 12.4881 18.3125 12.2188 18.3125H6.125C5.85564 18.3125 5.59731 18.4195 5.40685 18.61C5.21638 18.8004 5.10938 19.0588 5.10938 19.3281V25.4219C5.10938 25.6912 5.21638 25.9496 5.40685 26.14C5.59731 26.3305 5.85564 26.4375 6.125 26.4375ZM7.14062 20.3438H11.2031V24.4062H7.14062V20.3438Z" fill="#717580"/>
<path d="M18.3125 26.4375H24.4062C24.6756 26.4375 24.9339 26.3305 25.1244 26.14C25.3149 25.9496 25.4219 25.6912 25.4219 25.4219V19.3281C25.4219 19.0588 25.3149 18.8004 25.1244 18.61C24.9339 18.4195 24.6756 18.3125 24.4062 18.3125H18.3125C18.0431 18.3125 17.7848 18.4195 17.5943 18.61C17.4039 18.8004 17.2969 19.0588 17.2969 19.3281V25.4219C17.2969 25.6912 17.4039 25.9496 17.5943 26.14C17.7848 26.3305 18.0431 26.4375 18.3125 26.4375ZM19.3281 20.3438H23.3906V24.4062H19.3281V20.3438Z" fill="#717580"/>
<path d="M12.2188 38.625C12.4881 38.625 12.7464 38.518 12.9369 38.3275C13.1274 38.1371 13.2344 37.8787 13.2344 37.6094V31.5156C13.2344 31.2463 13.1274 30.9879 12.9369 30.7975C12.7464 30.607 12.4881 30.5 12.2188 30.5H6.125C5.85564 30.5 5.59731 30.607 5.40685 30.7975C5.21638 30.9879 5.10938 31.2463 5.10938 31.5156V37.6094C5.10938 37.8787 5.21638 38.1371 5.40685 38.3275C5.59731 38.518 5.85564 38.625 6.125 38.625H12.2188ZM7.14062 32.5312H11.2031V36.5938H7.14062V32.5312Z" fill="#717580"/>
<path d="M18.3125 38.625H24.4062C24.6756 38.625 24.9339 38.518 25.1244 38.3275C25.3149 38.1371 25.4219 37.8787 25.4219 37.6094V31.5156C25.4219 31.2463 25.3149 30.9879 25.1244 30.7975C24.9339 30.607 24.6756 30.5 24.4062 30.5H18.3125C18.0431 30.5 17.7848 30.607 17.5943 30.7975C17.4039 30.9879 17.2969 31.2463 17.2969 31.5156V37.6094C17.2969 37.8787 17.4039 38.1371 17.5943 38.3275C17.7848 38.518 18.0431 38.625 18.3125 38.625ZM19.3281 32.5312H23.3906V36.5938H19.3281V32.5312Z" fill="#717580"/>
</svg>
