<svg width="65" height="65" viewBox="0 0 65 65" fill="none" xmlns="http://www.w3.org/2000/svg">
<path d="M63.9167 45.5H56.3333V23.8333C56.3333 23.546 56.2192 23.2705 56.016 23.0673C55.8129 22.8641 55.5373 22.75 55.25 22.75H46.4179L45.4854 17.1553C45.4432 16.9023 45.3127 16.6725 45.117 16.5067C44.9213 16.3409 44.6731 16.25 44.4167 16.25H26.7436C27.4422 15.7177 28.1667 15.0536 28.1667 14.0833C28.1667 12.9624 27.1997 12.2498 26.4226 11.6772C26.1567 11.4813 25.7221 11.161 25.6015 10.9896C25.6141 10.7729 25.8406 10.2523 25.979 9.93444C26.3572 9.06547 26.8279 7.98444 26.2813 7.03991C25.7292 6.08468 24.5479 5.95197 23.5982 5.8454C23.2597 5.80748 22.7067 5.74532 22.5149 5.65202C22.4215 5.46014 22.3593 4.90723 22.3214 4.56869C22.2148 3.61982 22.0821 2.43885 21.1277 1.88581C20.1828 1.33859 19.1015 1.8093 18.2324 2.18752C17.9144 2.32592 17.3939 2.55315 17.1772 2.56506C17.0058 2.44441 16.6855 2.00985 16.4897 1.7439C15.9169 0.96701 15.2043 0 14.0833 0C12.9624 0 12.2498 0.96701 11.6771 1.74403C11.4813 2.00999 11.161 2.44454 10.9896 2.5652C10.7729 2.5526 10.2524 2.32605 9.93444 2.18766C9.06547 1.80944 7.98444 1.33873 7.04004 1.88541C6.08468 2.4375 5.95197 3.61874 5.8454 4.56855C5.80748 4.90709 5.74532 5.46 5.65189 5.65189C5.46 5.74519 4.90709 5.80734 4.56855 5.8454C3.61955 5.95183 2.43858 6.08454 1.88568 7.03896C1.33846 7.98403 1.80917 9.06533 2.18739 9.9343C2.32578 10.2521 2.55301 10.7727 2.56493 10.9895C2.44427 11.1609 2.00972 11.4812 1.74376 11.6771C0.96701 12.2498 0 12.9624 0 14.0833C0 15.2043 0.96701 15.9169 1.74403 16.4894C2.00999 16.6854 2.44454 17.0056 2.5652 17.1771C2.5526 17.3937 2.32605 17.9144 2.18766 18.2322C1.80944 19.1012 1.33873 20.1822 1.88541 21.1268C2.4375 22.082 3.61874 22.2147 4.56842 22.3213C4.90696 22.3592 5.46 22.4213 5.65175 22.5146C5.74519 22.7065 5.80734 23.2594 5.84526 23.598C5.95183 24.5468 6.08454 25.7278 7.03896 26.2809C7.9839 26.8281 9.0652 26.3574 9.9343 25.9791C10.2523 25.8407 10.7728 25.6135 10.9895 25.6016C11.1609 25.7223 11.4812 26.1568 11.677 26.4228C12.2498 27.1997 12.9624 28.1667 14.0833 28.1667C14.7118 28.1667 15.2118 27.8627 15.6307 27.4587L15.1813 30.1553C15.1554 30.3105 15.1637 30.4694 15.2055 30.6211C15.2473 30.7728 15.3216 30.9136 15.4233 31.0336C15.525 31.1537 15.6517 31.2501 15.7944 31.3163C15.9372 31.3824 16.0927 31.4167 16.25 31.4167H20.5833V33.5833H16.25C15.9627 33.5833 15.6871 33.6975 15.484 33.9006C15.2808 34.1038 15.1667 34.3794 15.1667 34.6667V63.9167C15.1667 64.204 15.2808 64.4795 15.484 64.6827C15.6871 64.8859 15.9627 65 16.25 65H63.9167C64.204 65 64.4795 64.8859 64.6827 64.6827C64.8859 64.4795 65 64.204 65 63.9167V46.5833C65 46.296 64.8859 46.0205 64.6827 45.8173C64.4795 45.6141 64.204 45.5 63.9167 45.5ZM45.3046 29.25H38.8345L38.4734 27.0833H44.9434L45.3046 29.25ZM25.8046 18.4167L25.4434 20.5833H18.9734L19.3344 18.4167H25.8046ZM28.0013 18.4167H34.8323L35.1934 20.5833H27.64L28.0013 18.4167ZM19.0472 16.25H18.4167C18.1602 16.25 17.912 16.3409 17.7163 16.5067C17.5207 16.6725 17.3901 16.9023 17.348 17.1553L17.1112 18.5754C16.2182 19.1817 15.1628 19.504 14.0833 19.5C12.9163 19.5005 11.7803 19.1242 10.8443 18.427C9.90836 17.7299 9.22246 16.7493 8.88868 15.631C8.5549 14.5127 8.59107 13.3165 8.99181 12.2204C9.39255 11.1244 10.1364 10.1869 11.1128 9.54765C12.0892 8.90837 13.2459 8.60138 14.4107 8.67237C15.5756 8.74335 16.6865 9.18851 17.578 9.94162C18.4695 10.6947 19.0941 11.7155 19.3588 12.8522C19.6235 13.9888 19.5143 15.1805 19.0472 16.25ZM18.6123 22.75H25.0823L24.7213 24.9167H18.2511L18.6123 22.75ZM27.279 22.75H35.5546L35.9156 24.9167H26.9179L27.279 22.75ZM36.2768 27.0833L36.6379 29.25H26.1955L26.5567 27.0833H36.2768ZM44.5824 24.9167H38.1122L37.7512 22.75H44.2211L44.5824 24.9167ZM43.8601 20.5833H37.39L37.0289 18.4167H43.4989L43.8601 20.5833ZM14.7455 25.1373C14.5469 25.4242 14.3255 25.6946 14.0833 25.9458C13.8413 25.6946 13.6199 25.4243 13.4214 25.1374C12.9094 24.4426 12.3799 23.7239 11.5573 23.5033C10.7128 23.2773 9.83951 23.6573 9.06967 23.9924C8.77326 24.1303 8.46777 24.2476 8.15533 24.3437C8.07976 24.0186 8.02731 23.6886 7.99839 23.3561C7.90549 22.5279 7.80013 21.5892 7.18886 20.9779C6.57759 20.3667 5.63861 20.2613 4.81014 20.1683C4.47782 20.1395 4.14797 20.0872 3.82308 20.0116C3.91918 19.6991 4.0365 19.3936 4.17422 19.0971C4.50951 18.3272 4.88935 17.4545 4.66334 16.6086C4.44289 15.787 3.72423 15.2574 3.02927 14.7452C2.74237 14.5468 2.472 14.3254 2.22083 14.0833C2.47197 13.8413 2.74228 13.62 3.02914 13.4216C3.72409 12.9094 4.44275 12.3798 4.66334 11.5571C4.88922 10.7123 4.50937 9.83965 4.17408 9.06967C4.03634 8.77325 3.91902 8.46776 3.82295 8.15533C4.14797 8.07974 4.47795 8.02734 4.81041 7.99852C5.63875 7.90549 6.57732 7.80013 7.18873 7.18886C7.80014 6.57759 7.90535 5.63861 7.99825 4.81027C8.02712 4.47791 8.07952 4.14803 8.15506 3.82308C8.46754 3.91919 8.77307 4.03655 9.06953 4.17435C9.83951 4.50951 10.7121 4.88922 11.5582 4.66334C12.3798 4.44289 12.9093 3.72423 13.4213 3.02941C13.6198 2.74249 13.8412 2.47208 14.0833 2.22083C14.3254 2.47205 14.5467 2.7424 14.7452 3.02927C15.2573 3.72409 15.7867 4.44275 16.6094 4.66334C17.4543 4.88935 18.3272 4.50938 19.097 4.17422C19.3934 4.0364 19.6989 3.91903 20.0113 3.82295C20.0869 4.14803 20.1394 4.47805 20.1683 4.81054C20.2612 5.63875 20.3665 6.57746 20.9778 7.18873C21.5891 7.8 22.5281 7.90535 23.3565 7.99839C23.6888 8.02716 24.0187 8.07952 24.3436 8.15506C24.2475 8.46752 24.1302 8.77305 23.9924 9.06953C23.6572 9.83951 23.2773 10.7121 23.5033 11.5581C23.7238 12.3797 24.4424 12.9093 25.1374 13.4214C25.4243 13.6199 25.6947 13.8412 25.9458 14.0833C25.6947 14.3254 25.4244 14.5467 25.1375 14.7451C24.549 15.1784 23.9446 15.6253 23.6396 16.25H21.351C21.8344 14.6184 21.7536 12.8715 21.1218 11.2915C20.4899 9.71148 19.3439 8.3906 17.8688 7.54223C16.3936 6.69387 14.6756 6.36756 12.9921 6.61602C11.3087 6.86448 9.75816 7.6732 8.59102 8.91154C7.42387 10.1499 6.70827 11.7455 6.55981 13.4407C6.41134 15.1359 6.83869 16.8316 7.77281 18.254C8.70693 19.6764 10.0933 20.7423 11.7079 21.2796C13.3225 21.8169 15.0711 21.7942 16.6713 21.2152L16.2688 23.6302C15.634 23.933 15.1832 24.5433 14.7455 25.1373ZM17.8899 27.0833H24.36L23.9988 29.25H17.5287L17.8899 27.0833ZM22.75 31.4167H40.0833V33.5833H22.75V31.4167ZM33.5833 62.8333H29.25V57.4167H33.5833V62.8333ZM45.5 62.8333H35.75V56.3333C35.75 56.046 35.6359 55.7705 35.4327 55.5673C35.2295 55.3641 34.954 55.25 34.6667 55.25H28.1667C27.8793 55.25 27.6038 55.3641 27.4006 55.5673C27.1975 55.7705 27.0833 56.046 27.0833 56.3333V62.8333H17.3333V35.75H45.5V62.8333ZM42.25 33.5833V31.4167H46.5833C46.7407 31.4167 46.8961 31.3824 47.0389 31.3163C47.1817 31.2501 47.3083 31.1537 47.41 31.0336C47.5117 30.9136 47.5861 30.7728 47.6279 30.6211C47.6697 30.4694 47.6779 30.3105 47.652 30.1553L46.7789 24.9167H54.1667V45.5H47.6667V34.6667C47.6667 34.3794 47.5525 34.1038 47.3494 33.9006C47.1462 33.6975 46.8706 33.5833 46.5833 33.5833H42.25ZM62.8333 62.8333H47.6667V47.6667H62.8333V62.8333ZM20.5833 44.4167H24.9167C25.204 44.4167 25.4795 44.3025 25.6827 44.0994C25.8859 43.8962 26 43.6206 26 43.3333V39C26 38.7127 25.8859 38.4371 25.6827 38.234C25.4795 38.0308 25.204 37.9167 24.9167 37.9167H20.5833C20.296 37.9167 20.0205 38.0308 19.8173 38.234C19.6141 38.4371 19.5 38.7127 19.5 39V43.3333C19.5 43.6206 19.6141 43.8962 19.8173 44.0994C20.0205 44.3025 20.296 44.4167 20.5833 44.4167ZM21.6667 40.0833H23.8333V42.25H21.6667V40.0833ZM29.25 44.4167H33.5833C33.8706 44.4167 34.1462 44.3025 34.3494 44.0994C34.5525 43.8962 34.6667 43.6206 34.6667 43.3333V39C34.6667 38.7127 34.5525 38.4371 34.3494 38.234C34.1462 38.0308 33.8706 37.9167 33.5833 37.9167H29.25C28.9627 37.9167 28.6871 38.0308 28.484 38.234C28.2808 38.4371 28.1667 38.7127 28.1667 39V43.3333C28.1667 43.6206 28.2808 43.8962 28.484 44.0994C28.6871 44.3025 28.9627 44.4167 29.25 44.4167ZM30.3333 40.0833H32.5V42.25H30.3333V40.0833ZM37.9167 44.4167H42.25C42.5373 44.4167 42.8129 44.3025 43.016 44.0994C43.2192 43.8962 43.3333 43.6206 43.3333 43.3333V39C43.3333 38.7127 43.2192 38.4371 43.016 38.234C42.8129 38.0308 42.5373 37.9167 42.25 37.9167H37.9167C37.6293 37.9167 37.3538 38.0308 37.1506 38.234C36.9475 38.4371 36.8333 38.7127 36.8333 39V43.3333C36.8333 43.6206 36.9475 43.8962 37.1506 44.0994C37.3538 44.3025 37.6293 44.4167 37.9167 44.4167ZM39 40.0833H41.1667V42.25H39V40.0833ZM20.5833 53.0833H24.9167C25.204 53.0833 25.4795 52.9692 25.6827 52.766C25.8859 52.5629 26 52.2873 26 52V47.6667C26 47.3793 25.8859 47.1038 25.6827 46.9006C25.4795 46.6975 25.204 46.5833 24.9167 46.5833H20.5833C20.296 46.5833 20.0205 46.6975 19.8173 46.9006C19.6141 47.1038 19.5 47.3793 19.5 47.6667V52C19.5 52.2873 19.6141 52.5629 19.8173 52.766C20.0205 52.9692 20.296 53.0833 20.5833 53.0833ZM21.6667 48.75H23.8333V50.9167H21.6667V48.75ZM29.25 53.0833H33.5833C33.8706 53.0833 34.1462 52.9692 34.3494 52.766C34.5525 52.5629 34.6667 52.2873 34.6667 52V47.6667C34.6667 47.3793 34.5525 47.1038 34.3494 46.9006C34.1462 46.6975 33.8706 46.5833 33.5833 46.5833H29.25C28.9627 46.5833 28.6871 46.6975 28.484 46.9006C28.2808 47.1038 28.1667 47.3793 28.1667 47.6667V52C28.1667 52.2873 28.2808 52.5629 28.484 52.766C28.6871 52.9692 28.9627 53.0833 29.25 53.0833ZM30.3333 48.75H32.5V50.9167H30.3333V48.75ZM37.9167 53.0833H42.25C42.5373 53.0833 42.8129 52.9692 43.016 52.766C43.2192 52.5629 43.3333 52.2873 43.3333 52V47.6667C43.3333 47.3793 43.2192 47.1038 43.016 46.9006C42.8129 46.6975 42.5373 46.5833 42.25 46.5833H37.9167C37.6293 46.5833 37.3538 46.6975 37.1506 46.9006C36.9475 47.1038 36.8333 47.3793 36.8333 47.6667V52C36.8333 52.2873 36.9475 52.5629 37.1506 52.766C37.3538 52.9692 37.6293 53.0833 37.9167 53.0833ZM39 48.75H41.1667V50.9167H39V48.75ZM52.2167 54.6L55.4667 50.2667C55.6391 50.0368 55.8957 49.8849 56.1801 49.8442C56.4646 49.8036 56.7535 49.8776 56.9833 50.05C57.2132 50.2224 57.3651 50.479 57.4058 50.7635C57.4464 51.0479 57.3724 51.3368 57.2 51.5667L55.25 54.1667H57.4167C57.6179 54.1667 57.8151 54.2227 57.9862 54.3285C58.1574 54.4342 58.2957 54.5856 58.3856 54.7655C58.4756 54.9455 58.5137 55.1469 58.4956 55.3473C58.4776 55.5477 58.404 55.739 58.2833 55.9L55.0333 60.2333C54.8609 60.4632 54.6043 60.6151 54.3199 60.6558C54.0354 60.6964 53.7465 60.6224 53.5167 60.45C53.2868 60.2776 53.1349 60.021 53.0942 59.7365C53.0536 59.4521 53.1276 59.1632 53.3 58.9333L55.25 56.3333H53.0833C52.8821 56.3333 52.6849 56.2773 52.5138 56.1715C52.3426 56.0658 52.2043 55.9144 52.1144 55.7345C52.0244 55.5545 51.9863 55.3531 52.0044 55.1527C52.0224 54.9523 52.096 54.7609 52.2167 54.6Z" fill="#717580"/>
</svg>
