<svg width="63" height="65" viewBox="0 0 63 65" fill="none" xmlns="http://www.w3.org/2000/svg">
<path d="M62.0489 22.3502C62.3734 21.7004 62.3493 20.9311 61.9851 20.3028L57.3045 12.1966C56.9436 11.5655 56.2892 11.1585 55.5635 11.1139L50.2345 10.7892L40.934 5.41792L37.9837 0.967973C37.5824 0.36317 36.9047 -0.000131073 36.1789 3.54776e-08H26.82C26.0926 0.000786686 25.4141 0.366841 25.0141 0.974398L22.0648 5.42435L12.7687 10.7902L7.43965 11.115C6.71397 11.1605 6.05974 11.5672 5.69762 12.1977L1.0139 20.3017C0.650338 20.9307 0.626345 21.6999 0.950052 22.3502L3.33203 27.1292V37.8696L0.950052 42.6486C0.625558 43.2984 0.649682 44.0678 1.0139 44.696L5.69447 52.8022C6.05528 53.4334 6.70977 53.8403 7.43546 53.8849L12.7645 54.2096L22.0649 59.5809L25.0153 64.0319C25.4166 64.6367 26.0943 65 26.8201 64.9999H36.179C36.9064 64.9991 37.5849 64.633 37.9849 64.0255L40.9342 59.5755L50.2346 54.2043L55.5636 53.8795C56.2893 53.834 56.9436 53.4273 57.3057 52.7968L61.9851 44.6917C62.3486 44.0628 62.3726 43.2936 62.0489 42.6433L59.6669 37.8642V27.1292L62.0489 22.3502ZM57.6163 38.607L60.1065 43.6133L55.4272 51.7195L49.8437 52.0638C49.6766 52.0742 49.5143 52.1231 49.3694 52.2067L39.6251 57.8368C39.4802 57.9209 39.3564 58.0372 39.2635 58.1767L36.1734 62.8388H26.82L23.7299 58.1757C23.6369 58.0362 23.5131 57.9199 23.3683 57.8357L13.6239 52.211C13.479 52.1274 13.3167 52.0785 13.1497 52.0681L7.57155 51.7195L2.88888 43.6133L5.37916 38.607C5.45153 38.4563 5.4885 38.2911 5.48745 38.1241V26.8749C5.48863 26.7077 5.45153 26.5426 5.37916 26.392L2.88888 21.3856L7.57155 13.2794L13.1551 12.9352C13.3221 12.9248 13.4844 12.8759 13.6293 12.7922L23.3737 7.16756C23.5185 7.08339 23.6423 6.9671 23.7352 6.8276L26.8253 2.16552H36.1842L39.2743 6.82865C39.3673 6.96815 39.4911 7.08444 39.6359 7.16861L49.3803 12.7987C49.5252 12.8823 49.6875 12.9312 49.8545 12.9416L55.438 13.2859L60.1174 21.392L57.6272 26.3984C57.5548 26.5491 57.5178 26.7143 57.5189 26.8813V38.1295C57.5152 38.294 57.5485 38.4571 57.6163 38.607Z" fill="#717580"/>
<path d="M42.7899 19.5071H20.2091C19.1895 19.5114 18.3093 20.2228 18.0913 21.2188L15.3077 34.2113C15.1707 34.8506 15.33 35.5175 15.7409 36.0261C16.1519 36.5345 16.7706 36.8302 17.4243 36.8304H26.086V38.9958C23.6942 38.9958 21.7552 40.9348 21.7552 43.3266C21.7552 44.5226 22.7248 45.492 23.9206 45.492H39.0785C40.2744 45.492 41.2439 44.5224 41.2439 43.3266C41.2439 40.9348 39.3049 38.9958 36.9131 38.9958V36.8304H45.5748C46.2286 36.8302 46.8473 36.5347 47.2582 36.0261C47.6692 35.5177 47.8284 34.8506 47.6914 34.2113L44.9077 21.2188C44.6895 20.2227 43.8095 19.5113 42.7899 19.5071ZM26.1347 26.0033H30.4168V29.2513H25.7611L26.1347 26.0033ZM23.5805 29.2513H18.5849L19.2811 26.0033H23.9551L23.5805 29.2513ZM32.5822 26.0033H36.8643L37.2389 29.2513H32.5822V26.0033ZM39.0437 26.0033H43.7188L44.416 29.2513H39.4183L39.0437 26.0033ZM42.7909 21.6725L43.2555 23.8379H38.7937L38.5447 21.6725H42.7909ZM36.6142 23.8379H32.5822V21.6725H36.364L36.6142 23.8379ZM30.4167 21.6725V23.8379H26.3847L26.6348 21.6725H30.4167ZM24.4542 21.6725L24.2053 23.8379H19.7456L20.209 21.6725H24.4542ZM18.1205 31.4167H23.3305L22.9559 34.6648H17.4245L18.1205 31.4167ZM25.5099 31.4167H30.4168V34.6648H25.1354L25.5099 31.4167ZM39.0783 43.3265H23.9205C23.9205 42.1305 24.89 41.1611 26.0859 41.1611H36.913C38.1088 41.1611 39.0783 42.1305 39.0783 43.3265ZM34.7476 38.9957H28.2514V36.8303H34.7476V38.9957ZM32.5822 34.6648V31.4167H37.489L37.8636 34.6648H32.5822ZM40.043 34.6648L39.6685 31.4167H44.8805L45.5745 34.6648H40.043Z" fill="#717580"/>
<path d="M31.4994 9.76272C18.9422 9.76272 8.76267 19.9422 8.76267 32.4994C8.76267 45.0566 18.9422 55.2361 31.4994 55.2361C44.0565 55.2361 54.236 45.0566 54.236 32.4994C54.2219 19.9483 44.0506 9.77701 31.4994 9.76272ZM31.4994 53.0708C20.1382 53.0708 10.9281 43.8607 10.9281 32.4995C10.9281 21.1383 20.1382 11.9281 31.4994 11.9281C42.8606 11.9281 52.0708 21.1382 52.0708 32.4994C52.0582 43.8555 42.8554 53.0583 31.4994 53.0708Z" fill="#717580"/>
</svg>
