<svg width="65" height="65" viewBox="0 0 65 65" fill="none" xmlns="http://www.w3.org/2000/svg">
<path d="M64.7837 36.9286C64.782 36.9229 64.7816 36.9176 64.7794 36.9117L61.3054 27.2699C61.0292 26.5035 60.3022 25.9926 59.4875 25.9926H29.3794C28.5648 25.9926 27.8376 26.5035 27.5615 27.2699L24.0875 36.9117C24.0861 36.9156 24.0865 36.919 24.0853 36.9229C24.0139 37.1245 23.9731 37.3407 23.9731 37.5667V53.0702H8.41387V35.8351C11.2978 35.1016 13.4375 32.4834 13.4375 29.3743V25.5683H23.6726C24.7397 25.5683 25.6048 24.7031 25.6048 23.636V1.93225C25.6048 0.865131 24.7397 0 23.6726 0H2.03772C0.9706 0 0.105469 0.865131 0.105469 1.93225V29.3743C0.105469 32.271 1.96326 34.7408 4.54938 35.6581V55.0023C4.54938 56.0694 5.41451 56.9345 6.48163 56.9345H23.9731V63.0676C23.9731 64.1347 24.8382 64.9999 25.9053 64.9999H62.9616C64.0287 64.9999 64.8938 64.1347 64.8938 63.0676V37.5666C64.8938 37.3427 64.8538 37.1285 64.7837 36.9286ZM3.96996 14.7164H10.7961V21.7038H3.96996V14.7164ZM14.6607 21.7038V14.7164H21.7404V21.7038H14.6607ZM21.7403 10.8519H14.6606V3.86449H21.7403V10.8519ZM10.7962 3.86449V10.8519H3.96996V3.86449H10.7962ZM3.96996 25.5683H9.57296V29.3743C9.57296 30.919 8.31623 32.1758 6.77146 32.1758C5.2267 32.1758 3.96996 30.919 3.96996 29.3743V25.5683ZM30.737 29.8571H58.1299L60.2115 35.6344H48.6126L45.9834 32.1025C45.6189 31.6127 45.0441 31.324 44.4335 31.324C43.8229 31.324 43.2483 31.6127 42.8836 32.1025L40.2543 35.6344H28.6554L30.737 29.8571ZM41.2775 61.1355V52.7033C41.2775 50.9631 42.6932 49.5473 44.4335 49.5473C46.1738 49.5473 47.5895 50.9631 47.5895 52.7033V61.1355H41.2775ZM51.454 61.1355V52.7033C51.454 48.8323 48.3047 45.6828 44.4335 45.6828C40.5623 45.6828 37.413 48.8323 37.413 52.7033V61.1355H27.8376V39.4989H41.2247C41.8353 39.4989 42.4099 39.2102 42.7746 38.7204L44.4335 36.4921L46.0923 38.7204C46.457 39.2102 47.0316 39.4989 47.6422 39.4989H61.0293V61.1354L51.454 61.1355Z" fill="#717580"/>
<path d="M33.7633 42.9984C32.6962 42.9984 31.831 43.8635 31.831 44.9307V48.1068C31.831 49.1739 32.6962 50.039 33.7633 50.039C34.8304 50.039 35.6955 49.1739 35.6955 48.1068V44.9307C35.6955 43.8635 34.8305 42.9984 33.7633 42.9984Z" fill="#717580"/>
<path d="M55.1041 42.9983C54.037 42.9983 53.1719 43.8634 53.1719 44.9305V48.1066C53.1719 49.1738 54.037 50.0389 55.1041 50.0389C56.1712 50.0389 57.0364 49.1738 57.0364 48.1066V44.9305C57.0364 43.8634 56.1714 42.9983 55.1041 42.9983Z" fill="#717580"/>
<path d="M44.4338 18.1946C47.5016 18.1946 49.9974 15.6987 49.9974 12.6308C49.9974 9.56296 47.5016 7.06714 44.4338 7.06714C41.3661 7.06714 38.8701 9.56296 38.8701 12.6308C38.8701 15.6987 41.3661 18.1946 44.4338 18.1946ZM44.4338 10.9316C45.3707 10.9316 46.1329 11.6938 46.1329 12.6308C46.1329 13.5679 45.3707 14.3301 44.4338 14.3301C43.4969 14.3301 42.7346 13.5679 42.7346 12.6308C42.7346 11.6938 43.4969 10.9316 44.4338 10.9316Z" fill="#717580"/>
<path d="M42.501 21.4952V22.1393C42.501 23.2064 43.3661 24.0716 44.4332 24.0716C45.5003 24.0716 46.3655 23.2064 46.3655 22.1393V21.4952C46.3655 20.4281 45.5003 19.563 44.4332 19.563C43.3661 19.563 42.501 20.428 42.501 21.4952Z" fill="#717580"/>
<path d="M51.1442 18.7365L51.7019 19.0585C52.0061 19.2342 52.3383 19.3177 52.6662 19.3177C53.334 19.3177 53.9835 18.9712 54.3413 18.3513C54.875 17.4272 54.5584 16.2454 53.6341 15.7119L53.0765 15.3898C52.1522 14.8563 50.9706 15.1728 50.437 16.097C49.9033 17.0212 50.22 18.2029 51.1442 18.7365Z" fill="#717580"/>
<path d="M52.1121 10.1313C52.44 10.1313 52.7723 10.0478 53.0765 9.8721L53.6341 9.55006C54.5584 9.01651 54.875 7.83474 54.3413 6.91061C53.8076 5.98636 52.6256 5.66986 51.7019 6.20341L51.1442 6.52545C50.22 7.05901 49.9033 8.24077 50.437 9.1649C50.7949 9.78477 51.4444 10.1313 52.1121 10.1313Z" fill="#717580"/>
<path d="M44.4332 5.69888C45.5003 5.69888 46.3655 4.83375 46.3655 3.76663V3.12268C46.3655 2.05556 45.5003 1.19043 44.4332 1.19043C43.3661 1.19043 42.501 2.05556 42.501 3.12268V3.76663C42.501 4.83375 43.3661 5.69888 44.4332 5.69888Z" fill="#717580"/>
<path d="M35.2331 9.55019L35.7908 9.87223C36.0951 10.0478 36.4272 10.1313 36.755 10.1313C37.4228 10.1313 38.0724 9.78464 38.4303 9.16477C38.9639 8.24052 38.6471 7.05875 37.7228 6.52533L37.1651 6.20341C36.2408 5.66986 35.059 5.98649 34.5256 6.91087C33.9921 7.835 34.3088 9.01676 35.2331 9.55019Z" fill="#717580"/>
<path d="M36.201 19.3177C36.5287 19.3177 36.8611 19.2342 37.1652 19.0585L37.723 18.7366C38.6472 18.2031 38.964 17.0214 38.4304 16.0972C37.8969 15.1729 36.715 14.8563 35.791 15.3897L35.2332 15.7118C34.309 16.2452 33.9922 17.4269 34.5258 18.3512C34.8837 18.9711 35.5332 19.3177 36.201 19.3177Z" fill="#717580"/>
</svg>
