<svg width="43" height="59" viewBox="0 0 43 59" fill="none" xmlns="http://www.w3.org/2000/svg">
<path d="M17.4375 58.9219C17.9984 58.9219 18.4531 58.4672 18.4531 57.9062C18.4531 57.3453 17.9984 56.8906 17.4375 56.8906C16.8766 56.8906 16.4219 57.3453 16.4219 57.9062C16.4219 58.4672 16.8766 58.9219 17.4375 58.9219Z" fill="#FF7029"/>
<path fill-rule="evenodd" clip-rule="evenodd" d="M2.20312 43.6871H10.3281V48.7652H9.3125C8.75187 48.7652 8.29688 49.2202 8.29688 49.7809C8.29688 50.3415 8.75187 50.7965 9.3125 50.7965H16.4219V52.8277H12.3594C10.6775 52.8277 9.3125 54.1927 9.3125 55.8746C9.3125 57.5565 10.6775 58.9215 12.3594 58.9215H14.3906C14.9513 58.9215 15.4062 58.4665 15.4062 57.9059C15.4062 57.3452 14.9513 56.8902 14.3906 56.8902H12.3594C11.7987 56.8902 11.3438 56.4352 11.3438 55.8746C11.3438 55.314 11.7987 54.859 12.3594 54.859H30.6406C31.2013 54.859 31.6562 55.314 31.6562 55.8746C31.6562 56.4352 31.2013 56.8902 30.6406 56.8902H20.4844C19.9237 56.8902 19.4688 57.3452 19.4688 57.9059C19.4688 58.4665 19.9237 58.9215 20.4844 58.9215H30.6406C32.3225 58.9215 33.6875 57.5565 33.6875 55.8746C33.6875 54.1927 32.3225 52.8277 30.6406 52.8277H26.5781V50.7965H39.7812C41.4641 50.7965 42.8281 49.4325 42.8281 47.7496C42.8281 44.5727 42.8281 33.023 42.8281 33.023C42.8281 32.4624 42.3731 32.0074 41.8125 32.0074C41.2519 32.0074 40.7969 32.4624 40.7969 33.023V34.5465H32.6719V29.4684H40.7969V29.9762C40.7969 30.5368 41.2519 30.9918 41.8125 30.9918C42.3731 30.9918 42.8281 30.5368 42.8281 29.9762V23.3746C42.8281 21.6917 41.4641 20.3277 39.7812 20.3277H36.971L36.4673 19.8575L37.1142 19.1202C37.7866 18.3534 37.7866 17.2087 37.1142 16.442L36.4673 15.7046L37.8658 14.3985C38.4416 13.8602 38.6549 13.0366 38.4112 12.286C38.1674 11.5365 37.5113 10.9952 36.7283 10.8987L34.8301 10.663L34.9195 9.68602C35.0119 8.67141 34.3395 7.74516 33.3452 7.51969L32.3885 7.30336L32.7521 5.42445C32.9014 4.65055 32.5896 3.85938 31.9518 3.39625C31.313 2.93211 30.4649 2.88031 29.7743 3.26219L28.1005 4.18742L27.5988 3.34445C27.0778 2.46898 25.988 2.11555 25.0516 2.51672L24.1508 2.90469L23.3403 1.17102C23.0062 0.457031 22.2891 0 21.5 0C20.7109 0 19.9938 0.457031 19.6597 1.17102L18.8492 2.90469L17.9484 2.51672C17.012 2.11555 15.9222 2.46898 15.4012 3.34445L14.8995 4.18742L13.2257 3.26219C12.5351 2.88031 11.687 2.93211 11.0482 3.39625C10.4104 3.85938 10.0986 4.65055 10.2479 5.42445L10.6115 7.30336L9.65477 7.51969C8.66047 7.74516 7.98813 8.67141 8.08055 9.68602L8.16992 10.663L6.27172 10.8987C5.48867 10.9952 4.83258 11.5365 4.58883 12.286C4.34508 13.0366 4.55836 13.8602 5.13422 14.3985L6.53273 15.7046L5.88578 16.442C5.21344 17.2087 5.21344 18.3534 5.88578 19.1202L6.53273 19.8575L6.02898 20.3277H3.21875C1.53586 20.3277 0.171875 21.6917 0.171875 23.3746V47.7496C0.171875 49.4325 1.53586 50.7965 3.21875 50.7965H6.26562C6.82625 50.7965 7.28125 50.3415 7.28125 49.7809C7.28125 49.2202 6.82625 48.7652 6.26562 48.7652H3.21875C2.65812 48.7652 2.20312 48.3102 2.20312 47.7496V43.6871ZM18.4531 50.7965V52.8277H24.5469V50.7965H18.4531ZM12.3594 43.6871V48.7652H20.4844V43.6871H12.3594ZM22.5156 43.6871V48.7652H30.6406V43.6871H22.5156ZM40.7969 43.6871H32.6719V48.7652H39.7812C40.3419 48.7652 40.7969 48.3102 40.7969 47.7496V43.6871ZM10.3281 41.6559V36.5777H2.20312V41.6559H10.3281ZM12.3594 36.5777V41.6559H20.4844V36.5777H12.3594ZM22.5156 36.5777V41.6559H30.6406V36.5777H22.5156ZM32.6719 36.5777V41.6559H40.7969V36.5777H32.6719ZM10.3281 34.5465V29.4684H2.20312V34.5465H10.3281ZM12.3594 29.4684V34.5465H20.4844V29.4684H12.3594ZM22.5156 29.4684V34.5465H30.6406V29.4684H22.5156ZM40.7969 27.4371V23.3746C40.7969 22.814 40.3419 22.359 39.7812 22.359H32.6719V27.4371H40.7969ZM10.3281 22.359H3.21875C2.65812 22.359 2.20312 22.814 2.20312 23.3746V27.4371H10.3281V22.359ZM12.3594 22.359V27.4371H20.4844V22.359H12.3594ZM22.5156 22.359V27.4371H30.6406V22.359H22.5156ZM34.4919 20.3277C34.3446 19.7092 34.4909 19.0318 34.9408 18.5189L35.5867 17.7816L34.9408 17.0432C34.2177 16.2185 34.2796 14.9693 35.0809 14.2208L36.4784 12.9137L34.5802 12.6791C33.4915 12.544 32.7064 11.57 32.807 10.4782L32.8963 9.50117L31.9396 9.28484C30.8702 9.04211 30.1856 7.99398 30.3938 6.91742L30.7574 5.03953L29.0837 5.96477C28.1239 6.49594 26.9153 6.16891 26.3547 5.22641L25.853 4.38344L24.9521 4.77039C23.9436 5.20305 22.7746 4.7582 22.3105 3.76492L21.5 2.03125L20.6895 3.76492C20.2254 4.7582 19.0564 5.20305 18.0479 4.77039L17.147 4.38344L16.6453 5.22641C16.0847 6.16891 14.8761 6.49594 13.9163 5.96477L12.2426 5.03953L12.6062 6.91742C12.8144 7.99398 12.1298 9.04211 11.0604 9.28484L10.1037 9.50117L10.193 10.4782C10.2936 11.57 9.50852 12.544 8.41977 12.6791L6.52156 12.9137L7.91906 14.2208C8.72039 14.9693 8.78234 16.2185 8.05922 17.0432L7.41328 17.7816L8.05922 18.5189C8.50914 19.0318 8.65539 19.7092 8.50813 20.3277H10.6206C10.4297 19.5102 10.3281 18.657 10.3281 17.7816C10.3281 11.6147 15.3341 6.60969 21.5 6.60969C23.5343 6.60969 25.4427 7.15508 27.087 8.10672C27.5724 8.38703 27.738 9.00961 27.4566 9.49406C27.1763 9.97953 26.5548 10.1451 26.0693 9.86477C24.7246 9.08578 23.1636 8.64094 21.5 8.64094C16.4554 8.64094 12.3594 12.7359 12.3594 17.7816C12.3594 18.6652 12.4853 19.5193 12.7189 20.3277H30.2811C30.5147 19.5193 30.6406 18.6652 30.6406 17.7816C30.6406 15.3969 29.7255 13.2255 28.2285 11.5974C27.8487 11.1841 27.8761 10.5412 28.2884 10.1623C28.7008 9.7825 29.3447 9.80992 29.7235 10.2223C31.5537 12.2119 32.6719 14.8667 32.6719 17.7816C32.6719 18.657 32.5703 19.5102 32.3794 20.3277H34.4919Z" fill="#717580"/>
</svg>
