<svg width="260" height="261" viewBox="0 0 260 261" fill="none" xmlns="http://www.w3.org/2000/svg">
<g opacity="0.15">
<path d="M150.941 122.968L116.503 122.968V127.127L150.941 127.127V122.968Z" fill="#87AB42"/>
<path d="M150.941 146.396V129.424H116.503V154.154L139.359 138.382L150.941 146.396Z" fill="#87AB42"/>
<path d="M150.941 52.6325C144.294 52.6354 137.791 54.5654 132.218 58.1888C126.645 61.8122 122.241 66.9738 119.538 73.0491H150.941V52.6325Z" fill="#87AB42"/>
<path d="M116.503 98.4677H150.941V82.7725H116.809C116.617 84.2024 116.515 85.6428 116.503 87.0855L116.503 98.4677Z" fill="#87AB42"/>
<path d="M150.941 75.3204H118.62C118.288 76.2647 117.982 77.209 117.727 78.1787H150.89L150.941 75.3204Z" fill="#87AB42"/>
<path d="M183.134 73.0236C180.43 66.9444 176.022 61.78 170.444 58.1563C164.866 54.5326 158.357 52.605 151.706 52.607C158.356 52.6114 164.862 54.5416 170.439 58.1645C176.016 61.7875 180.425 66.9483 183.134 73.0236Z" fill="#87AB42"/>
<path d="M184.945 78.1787C184.69 77.209 184.384 76.2647 184.053 75.3204C184.384 76.3668 184.69 77.209 184.945 78.1787Z" fill="#87AB42"/>
<path d="M150.941 107.859L116.503 107.859L116.503 118.399H150.941V107.859Z" fill="#87AB42"/>
<path d="M183.134 73.0236C180.425 66.9483 176.016 61.7875 170.439 58.1645C164.862 54.5416 158.356 52.6114 151.706 52.607H150.941V73.0236H183.134Z" fill="#87AB42"/>
<path d="M183.134 73.0236C180.425 66.9483 176.016 61.7875 170.439 58.1645C164.862 54.5416 158.356 52.6114 151.706 52.607H150.941V73.0236H183.134Z" fill="white"/>
<path d="M150.941 146.396L176.502 164.03V238.857H186.144V129.424H150.941V146.396Z" fill="#87AB42"/>
<path d="M150.941 146.396L176.502 164.03V238.857H186.144V129.424H150.941V146.396Z" fill="white"/>
<path d="M186.144 107.859H150.941V118.399H186.144V107.859Z" fill="#87AB42"/>
<path d="M186.144 107.859H150.941V118.399H186.144V107.859Z" fill="white"/>
<path d="M150.941 98.4677H186.221V87.0855C186.217 85.6434 186.123 84.2029 185.94 82.7725H150.941V98.4677Z" fill="#87AB42"/>
<path d="M150.941 98.4677H186.221V87.0855C186.217 85.6434 186.123 84.2029 185.94 82.7725H150.941V98.4677Z" fill="white"/>
<path d="M184.053 75.3204H150.89V78.1787H184.945C184.69 77.209 184.384 76.3668 184.053 75.3204Z" fill="#87AB42"/>
<path d="M184.053 75.3204H150.89V78.1787H184.945C184.69 77.209 184.384 76.3668 184.053 75.3204Z" fill="white"/>
<path d="M186.144 122.968H150.941V127.127H186.144V122.968Z" fill="#87AB42"/>
<path d="M186.144 122.968H150.941V127.127H186.144V122.968Z" fill="white"/>
<path d="M13.3926 175.719H28.1372V171.125H8.80085V238.882L13.3926 238.882V175.719Z" fill="#87AB42"/>
<path d="M28.1372 188.147V183.554H17.3211V238.882L21.9128 238.882V188.147H28.1372Z" fill="#87AB42"/>
<path d="M236.858 128.914V209.457L241.449 207.518V124.32H225.557V128.914H236.858Z" fill="#87AB42"/>
<path d="M28.0607 238.882H57.1417V204.506H72.8047V238.882H116.503V232.043H105.967V217.011H116.503V211.907H105.967V196.85H116.503V188.658H111.962V165.689H116.503L116.503 154.154L102.294 163.928L65.3048 138.382L28.0607 164.03V238.882ZM99.4878 232.043H84.7177V217.011H99.6409L99.4878 232.043ZM99.4878 211.882H84.7177V196.85H99.6409L99.4878 211.882ZM81.631 165.944H91.9625V188.913H81.8351L81.631 165.944ZM66.9885 165.944H77.3199V188.913H67.1926L66.9885 165.944ZM47.6266 228.904H38.4686V199.07H47.6266V228.904ZM52.5245 165.689H62.8559V188.658H52.5245V165.689ZM37.8819 165.689H48.0858V188.658H37.8819V165.689Z" fill="#87AB42"/>
<path d="M148.466 232.043V217.011H151.017V211.907H148.466V196.85H151.017V188.658H141.273V165.689H150.941V146.396L139.359 138.382L116.401 154.154V165.689H122.191V188.658H116.503V196.799H120.89V211.728H116.503V216.833H120.89V232.043H116.503V238.959H150.941V232.043H148.466ZM126.63 165.689H136.834V188.658H126.63V165.689ZM142.14 232.043H127.217V217.011H142.14V232.043ZM142.14 211.882H127.217V196.85H142.14V211.882Z" fill="#87AB42"/>
<path d="M150.941 146.396V165.689H151.604V188.658H150.941V196.799H163.39V211.728H150.941V216.833H163.39V232.043H150.941V238.959L176.451 238.959V164.03L150.941 146.396ZM156.043 188.709V165.689H166.247V188.658L156.043 188.709Z" fill="#87AB42"/>
<path d="M208.261 238.882H176.502V242.251H28.0607L28.0607 238.882H21.9128V242.251H17.3211V238.882H13.3926V242.251H8.80085V238.882H0V245.773H207.802C207.75 243.467 207.904 241.161 208.261 238.882Z" fill="#87AB42"/>
<path d="M13.3926 238.882L8.80085 238.882V242.328H13.3926V238.882Z" fill="#87AB42"/>
<path d="M21.9128 238.882L17.3211 238.882V242.328H21.9128V238.882Z" fill="#87AB42"/>
<path d="M176.502 238.882H72.8557V242.328H176.502V238.882Z" fill="#87AB42"/>
<path d="M57.1927 238.882H28.1117V242.328H57.1927V238.882Z" fill="#87AB42"/>
<path d="M43.6216 153.337V138.382H37.8819V157.293L43.6216 153.337Z" fill="#87AB42"/>
<path d="M209.18 26.9843C207.371 26.9843 205.579 27.3407 203.908 28.0333C202.237 28.7259 200.718 29.741 199.439 31.0207C198.16 32.3004 197.145 33.8196 196.453 35.4916C195.761 37.1636 195.404 38.9557 195.404 40.7654V43.0112H209.18V26.9843Z" fill="#87AB42"/>
<path d="M209.18 158.722H195.404V238.857H208.338C208.55 237.558 208.831 236.272 209.18 235.003V158.722Z" fill="#87AB42"/>
<path d="M209.103 47.605H195.328V51.4841H209.103V47.605Z" fill="#87AB42"/>
<path d="M209.103 143.792H195.328V154.128H209.103V143.792Z" fill="#87AB42"/>
<path d="M209.103 99.1312H195.328V133.023H209.103V99.1312Z" fill="#87AB42"/>
<path d="M209.103 92.9807H195.328V96.8599H209.103V92.9807Z" fill="#87AB42"/>
<path d="M209.103 53.781H195.328V88.387H209.103V53.781Z" fill="#87AB42"/>
<path d="M209.103 137.616H195.328V141.496H209.103V137.616Z" fill="#87AB42"/>
<path d="M225.557 214.816V158.671H209.18V235.003C210.679 229.646 213.484 224.744 217.343 220.737C219.781 218.378 222.548 216.384 225.557 214.816Z" fill="#87AB42"/>
<path d="M225.557 214.816V158.671H209.18V235.003C210.679 229.646 213.484 224.744 217.343 220.737C219.781 218.378 222.548 216.384 225.557 214.816Z" fill="white"/>
<path d="M225.557 47.605H209.103V51.4841H225.557V47.605Z" fill="#87AB42"/>
<path d="M225.557 47.605H209.103V51.4841H225.557V47.605Z" fill="white"/>
<path d="M225.557 128.914H220.991V124.346H225.557V99.1312H209.103V133.023H225.557V128.914Z" fill="#87AB42"/>
<path d="M225.557 128.914H220.991V124.346H225.557V99.1312H209.103V133.023H225.557V128.914Z" fill="white"/>
<path d="M225.557 137.616L209.103 137.616V141.496L225.557 141.496V137.616Z" fill="#87AB42"/>
<path d="M225.557 137.616L209.103 137.616V141.496L225.557 141.496V137.616Z" fill="white"/>
<path d="M225.557 43.0112V40.7654C225.557 37.1104 224.105 33.6051 221.522 31.0207C218.939 28.4362 215.435 26.9843 211.782 26.9843H209.18V43.0112H225.557Z" fill="#87AB42"/>
<path d="M225.557 43.0112V40.7654C225.557 37.1104 224.105 33.6051 221.522 31.0207C218.939 28.4362 215.435 26.9843 211.782 26.9843H209.18V43.0112H225.557Z" fill="white"/>
<path d="M225.557 92.9807H209.103V96.8599H225.557V92.9807Z" fill="#87AB42"/>
<path d="M225.557 92.9807H209.103V96.8599H225.557V92.9807Z" fill="white"/>
<path d="M225.557 53.781H209.103V88.387H225.557V53.781Z" fill="#87AB42"/>
<path d="M225.557 53.781H209.103V88.387H225.557V53.781Z" fill="white"/>
<path d="M225.557 143.792H209.103V154.128H225.557V143.792Z" fill="#87AB42"/>
<path d="M225.557 143.792H209.103V154.128H225.557V143.792Z" fill="white"/>
<path d="M225.582 124.32H220.991V128.914H225.582V124.32Z" fill="#87AB42"/>
<path d="M225.582 124.32H220.991V128.914H225.582V124.32Z" fill="white"/>
<path d="M185.864 82.7725H190.711V78.1787H184.945C185.124 78.8423 185.328 79.4803 185.456 80.1438C185.583 80.8074 185.736 81.9048 185.864 82.7725Z" fill="#87AB42"/>
<path d="M111.962 78.1787V82.7725H116.809C117.012 81.2223 117.318 79.6876 117.727 78.1787H111.962Z" fill="#87AB42"/>
<path d="M185.456 80.1438C185.456 79.4803 185.124 78.8423 184.945 78.1787C185.124 78.9188 185.328 79.4803 185.456 80.1438Z" fill="#87AB42"/>
<path d="M150.941 78.1787H117.778C117.369 79.6876 117.063 81.2223 116.86 82.7725H150.941V78.1787Z" fill="#87AB42"/>
<path d="M184.945 78.1787H150.941V82.7725H185.864C185.864 81.9048 185.634 81.0115 185.456 80.2204C185.277 79.4293 185.124 78.9188 184.945 78.1787Z" fill="#87AB42"/>
<path d="M111.962 73.0236V75.3204H118.62C118.892 74.5378 119.198 73.7722 119.538 73.0236H111.962Z" fill="#87AB42"/>
<path d="M190.711 75.3204V73.0236H183.058C183.381 73.7552 183.687 74.5208 183.976 75.3204H190.711Z" fill="#87AB42"/>
<path d="M184.053 75.3204C183.78 74.5378 183.474 73.7722 183.134 73.0236C183.491 73.7722 183.797 74.5378 184.053 75.3204Z" fill="#87AB42"/>
<path d="M150.941 73.0236H119.538C119.198 73.7552 118.892 74.5208 118.62 75.3204H150.941V73.0236Z" fill="#87AB42"/>
<path d="M183.134 73.0236H150.941V75.3204H184.104C183.814 74.5378 183.491 73.7722 183.134 73.0236Z" fill="#87AB42"/>
<path d="M190.685 118.374H186.144V122.968L190.685 122.968V118.374Z" fill="#87AB42"/>
<path d="M116.503 118.374H111.962V122.968H116.503V118.374Z" fill="#87AB42"/>
<path d="M150.941 118.374H116.503V122.968L150.941 122.968V118.374Z" fill="#87AB42"/>
<path d="M186.144 118.374H150.941V122.968H186.144V118.374Z" fill="#87AB42"/>
<path d="M190.685 127.127H186.144V129.424H190.685V127.127Z" fill="#87AB42"/>
<path d="M116.503 127.127H111.962V129.424H116.503V127.127Z" fill="#87AB42"/>
<path d="M150.941 127.127L116.503 127.127V129.424H150.941V127.127Z" fill="#87AB42"/>
<path d="M186.144 127.127H150.941V129.424H186.144V127.127Z" fill="#87AB42"/>
<path d="M195.328 43.0113H190.608V47.605H195.328L195.328 43.0113Z" fill="#87AB42"/>
<path d="M230.302 43.0113L225.557 43.0112V47.605H230.302V43.0113Z" fill="#87AB42"/>
<path d="M209.103 43.0113H195.328L195.328 47.605H209.103V43.0113Z" fill="#87AB42"/>
<path d="M225.557 43.0112L209.103 43.0113V47.605H225.557V43.0112Z" fill="#87AB42"/>
<path d="M195.328 51.4841L190.608 51.4841V53.781H195.328V51.4841Z" fill="#87AB42"/>
<path d="M230.302 51.4841L225.557 51.4841V53.781H230.302V51.4841Z" fill="#87AB42"/>
<path d="M209.103 51.4841H195.328V53.781H209.103V51.4841Z" fill="#87AB42"/>
<path d="M225.557 51.4841H209.103V53.781H225.557V51.4841Z" fill="#87AB42"/>
<path d="M195.328 88.387L190.608 88.387V92.9807H195.328V88.387Z" fill="#87AB42"/>
<path d="M230.302 88.387L225.557 88.387V92.9807H230.302V88.387Z" fill="#87AB42"/>
<path d="M209.103 88.387H195.328V92.9807H209.103V88.387Z" fill="#87AB42"/>
<path d="M225.557 88.387H209.103V92.9807H225.557V88.387Z" fill="#87AB42"/>
<path d="M230.302 96.8344H225.557V99.1312L230.302 99.1312V96.8344Z" fill="#87AB42"/>
<path d="M195.328 96.8344H190.608V99.1312L195.328 99.1312L195.328 96.8344Z" fill="#87AB42"/>
<path d="M209.103 96.8344H195.328L195.328 99.1312H209.103V96.8344Z" fill="#87AB42"/>
<path d="M225.557 96.8344H209.103V99.1312H225.557V96.8344Z" fill="#87AB42"/>
<path d="M230.302 133.023H225.557V137.616H230.302V133.023Z" fill="#87AB42"/>
<path d="M195.328 133.023H190.608V137.616L195.328 137.616V133.023Z" fill="#87AB42"/>
<path d="M209.103 133.023H195.328V137.616H209.103V133.023Z" fill="#87AB42"/>
<path d="M225.557 133.023H209.103V137.616L225.557 137.616V133.023Z" fill="#87AB42"/>
<path d="M195.328 141.496L190.608 141.496V143.792H195.328V141.496Z" fill="#87AB42"/>
<path d="M230.302 141.496H225.557V143.792H230.302V141.496Z" fill="#87AB42"/>
<path d="M209.103 141.496H195.328V143.792H209.103V141.496Z" fill="#87AB42"/>
<path d="M225.557 141.496L209.103 141.496V143.792H225.557V141.496Z" fill="#87AB42"/>
<path d="M230.302 154.128H225.557V158.722H230.302V154.128Z" fill="#87AB42"/>
<path d="M195.328 154.128H190.608V158.722H195.328L195.328 154.128Z" fill="#87AB42"/>
<path d="M209.103 154.128H195.328L195.328 158.722H209.103V154.128Z" fill="#87AB42"/>
<path d="M225.557 154.128H209.103V158.722H225.557V154.128Z" fill="#87AB42"/>
<path d="M72.8302 204.506H57.1928V238.857H72.8302V204.506Z" fill="#87AB42"/>
<path d="M72.8302 238.882H57.1927V242.328H72.8302V238.882Z" fill="#87AB42"/>
<path d="M99.6409 217.011H84.7177L84.7177 231.941H99.6409V217.011Z" fill="#D2EBEB"/>
<path d="M116.528 217.011H105.967V231.941H116.528V217.011Z" fill="#D2EBEB"/>
<path d="M120.865 217.011H116.503V231.941H120.865V217.011Z" fill="#D2EBEB"/>
<path d="M142.14 217.011H127.217V231.941H142.14V217.011Z" fill="#D2EBEB"/>
<path d="M150.941 217.011H148.466V231.941H150.941V217.011Z" fill="#D2EBEB"/>
<path d="M163.39 217.011H150.941V231.941H163.39V217.011Z" fill="#D2EBEB"/>
<path d="M99.6409 196.85H84.7177L84.7177 211.779H99.6409V196.85Z" fill="#D2EBEB"/>
<path d="M116.528 196.85L105.967 196.85V211.779H116.528V196.85Z" fill="#D2EBEB"/>
<path d="M120.865 196.85L116.503 196.85V211.779H120.865V196.85Z" fill="#D2EBEB"/>
<path d="M142.14 196.85H127.217V211.779H142.14V196.85Z" fill="#D2EBEB"/>
<path d="M150.941 196.85L148.466 196.85V211.779H150.941V196.85Z" fill="#D2EBEB"/>
<path d="M163.39 196.85H150.941V211.779H163.39V196.85Z" fill="#D2EBEB"/>
<path d="M166.272 165.74H155.941V188.709H166.272V165.74Z" fill="#D2EBEB"/>
<path d="M150.941 165.74H141.273V188.709H150.941V165.74Z" fill="#D2EBEB"/>
<path d="M151.604 165.74H150.941V188.709H151.604V165.74Z" fill="#D2EBEB"/>
<path d="M136.962 165.74H126.63V188.709H136.962V165.74Z" fill="#D2EBEB"/>
<path d="M116.503 165.74H111.962V188.709H116.503V165.74Z" fill="#D2EBEB"/>
<path d="M122.294 165.74H116.503V188.709H122.294V165.74Z" fill="#D2EBEB"/>
<path d="M92.1666 165.74H81.8351V188.709H92.1666V165.74Z" fill="#D2EBEB"/>
<path d="M77.524 165.74H67.1926V188.709H77.524V165.74Z" fill="#D2EBEB"/>
<path d="M62.8559 165.74H52.5245V188.709H62.8559V165.74Z" fill="#D2EBEB"/>
<path d="M48.2133 165.74H37.8819V188.709H48.2133V165.74Z" fill="#D2EBEB"/>
<path d="M47.6521 199.07L38.4686 199.07V228.929H47.6521V199.07Z" fill="#D2EBEB"/>
<path d="M210.251 26.9843V6.56772C209.891 6.71863 209.506 6.79635 209.116 6.79635C208.726 6.79635 208.34 6.71863 207.981 6.56772V26.9843H210.251Z" fill="#87AB42"/>
<path d="M210.251 3.837V6.38907C210.924 6.16096 211.509 5.72869 211.925 5.15237C212.341 4.57606 212.568 3.88435 212.572 3.17347C212.498 2.30762 212.102 1.5012 211.462 0.91361C210.822 0.326015 209.984 0 209.116 0C208.247 0 207.41 0.326015 206.77 0.91361C206.13 1.5012 205.734 2.30762 205.659 3.17347C205.664 3.88435 205.89 4.57606 206.306 5.15237C206.722 5.72869 207.308 6.16096 207.981 6.38907V3.837H210.251Z" fill="#87AB42"/>
<path d="M210.251 6.46563V3.91357H207.981V6.46563C208.34 6.61654 208.726 6.69427 209.116 6.69427C209.506 6.69427 209.891 6.61654 210.251 6.46563Z" fill="#87AB42"/>
<path d="M150.941 98.4677H116.503V107.859L150.941 107.859V98.4677Z" fill="#87AB42"/>
<path d="M150.941 98.4677H116.503V107.859L150.941 107.859V98.4677Z" fill="white"/>
<path d="M186.144 98.4677H150.941V107.859H186.144V98.4677Z" fill="#87AB42"/>
<path d="M186.144 98.4677H150.941V107.859H186.144V98.4677Z" fill="white"/>
<path d="M186.144 98.4677H150.941V107.859H186.144V98.4677Z" fill="white"/>
<path d="M106.324 95.2776H116.503V90.6839H101.733V163.52L102.319 163.928L106.324 161.172V95.2776Z" fill="#87AB42"/>
<path d="M247.01 224.004C245.276 226.556 243.414 229.108 241.449 231.788V238.882H248.516V245.773H229.409C224.671 250.476 219.089 254.242 212.955 256.875C233.363 266.113 247.189 256.875 252.521 248.708C262.75 233.089 257.852 198.866 257.852 198.866C254.969 201.75 248.516 204.532 241.449 207.543V230.052C242.546 228.827 244.179 226.939 247.01 224.004Z" fill="#87AB42"/>
<path d="M223.95 245.773L207.802 245.773C207.845 248.348 208.144 250.913 208.695 253.429C214.075 251.677 219.171 249.15 223.822 245.926L223.95 245.773Z" fill="#87AB42"/>
<path d="M236.858 237.683L235.837 238.882H236.858V237.683Z" fill="#87AB42"/>
<path d="M233.133 238.321L236.858 234.748V209.457C232.929 211.142 229.026 212.928 225.557 214.816V238.857H232.597L233.133 238.321Z" fill="#87AB42"/>
<path d="M236.858 234.748L237.444 234.187C239.307 232.375 239.613 232.017 241.449 230.027V207.518L236.858 209.457V234.748Z" fill="#87AB42"/>
<path d="M236.858 237.683V238.882H241.449V231.788C240.148 233.523 238.898 235.284 237.444 236.892L236.858 237.683Z" fill="#87AB42"/>
<path d="M236.858 240.312V238.882H235.837C233.796 241.256 231.679 243.604 229.409 245.773H248.516V238.882H241.449L241.449 240.312H236.858Z" fill="#87AB42"/>
<path d="M223.95 245.773C227.024 243.727 229.917 241.422 232.597 238.882H208.261C207.904 241.161 207.75 243.467 207.802 245.773L223.95 245.773Z" fill="#87AB42"/>
<path d="M241.449 238.882H236.858V240.337H241.449V238.882Z" fill="#87AB42"/>
<path d="M209.18 235.003C208.831 236.272 208.55 237.558 208.338 238.857H209.18L209.18 235.003Z" fill="#87AB42"/>
<path d="M217.266 220.737C213.435 224.752 210.657 229.653 209.18 235.003L209.18 238.857H225.633V214.816C222.57 216.371 219.751 218.366 217.266 220.737Z" fill="#87AB42"/>
<path d="M208.695 253.353C203.769 254.953 198.487 255.097 193.481 253.766C188.476 252.435 183.962 249.686 180.481 245.85H173.466L174.844 247.508C185.226 260.269 197.802 262.515 212.674 256.977C211.501 256.441 210.302 255.879 209.078 255.19C208.918 254.585 208.79 253.972 208.695 253.353Z" fill="#87AB42"/>
<path d="M236.858 237.683V234.748L233.133 238.321L232.597 238.882H235.837L236.858 237.683Z" fill="#87AB42"/>
<path d="M229.332 245.85H223.822C219.171 249.073 214.075 251.601 208.695 253.353C208.823 253.973 208.985 254.587 209.18 255.19C210.404 255.879 211.731 256.441 212.776 256.977C218.948 254.348 224.566 250.572 229.332 245.85Z" fill="#87AB42"/>
<path d="M247.01 224.004C244.179 227.041 242.546 228.827 241.449 230.027V231.788C243.414 229.159 245.276 226.556 247.01 224.004Z" fill="#87AB42"/>
<path d="M237.444 236.994C238.847 235.284 240.148 233.523 241.449 231.89V230.129C239.613 232.119 239.307 232.477 237.444 234.289L236.858 234.85V237.785L237.444 236.994Z" fill="#87AB42"/>
<path d="M235.837 238.882H232.597C229.917 241.422 227.024 243.727 223.95 245.773L229.409 245.773C231.679 243.604 233.796 241.256 235.837 238.882Z" fill="#87AB42"/>
</g>
</svg>
