<svg width="69" height="65" viewBox="0 0 69 65" fill="none" xmlns="http://www.w3.org/2000/svg">
<path d="M58.6506 42.8666C58.6506 42.4272 59.0114 42.0664 59.4508 42.0664C59.8901 42.0664 60.251 42.4272 60.251 42.8666V59.6555C60.251 60.8636 59.7489 61.9777 58.9487 62.7622C58.1642 63.5624 57.0501 64.0645 55.8419 64.0645H13.4618C12.2536 64.0645 11.1553 63.5624 10.355 62.7622C9.55483 61.9777 9.05273 60.8636 9.05273 59.6555V42.8666C9.05273 42.4272 9.41362 42.0664 9.85295 42.0664C10.2923 42.0664 10.6532 42.4272 10.6532 42.8666V59.6555C10.6532 60.4243 10.967 61.1304 11.4848 61.6482C11.9869 62.1503 12.6929 62.4641 13.4618 62.4641H55.8419C56.6108 62.4641 57.3169 62.1503 57.8346 61.6482C58.3367 61.1304 58.6506 60.4243 58.6506 59.6555V42.8666ZM10.6532 21.1979C10.6532 21.6373 10.2923 21.9981 9.85295 21.9981C9.41362 21.9981 9.05273 21.6373 9.05273 21.1979V4.40904C9.05273 3.20087 9.55483 2.10253 10.355 1.30232V1.28662C11.1553 0.502097 12.2536 0 13.4618 0H55.8419C57.0501 0 58.1485 0.502097 58.9487 1.28662V1.30232C59.7489 2.10253 60.251 3.20087 60.251 4.40904V21.1979C60.251 21.6373 59.8901 21.9981 59.4508 21.9981C59.0114 21.9981 58.6506 21.6373 58.6506 21.1979V4.40904C58.6506 3.64021 58.3367 2.93413 57.8346 2.41634C57.3169 1.91425 56.6108 1.60044 55.8419 1.60044H13.4618C12.6929 1.60044 11.9869 1.91425 11.4848 2.41634C10.967 2.93413 10.6532 3.64021 10.6532 4.40904V21.1979Z" fill="#87AB42"/>
<path d="M15.1264 57.6668C14.6871 57.6668 14.3262 57.306 14.3262 56.8666C14.3262 56.4273 14.6871 56.0664 15.1264 56.0664H54.1802C54.6195 56.0664 54.9804 56.4273 54.9804 56.8666C54.9804 57.306 54.6195 57.6668 54.1802 57.6668H15.1264Z" fill="#87AB42"/>
<path d="M15.1264 50.6629C14.6871 50.6629 14.3262 50.302 14.3262 49.8627C14.3262 49.4233 14.6871 49.0781 15.1264 49.0781H54.1802C54.6195 49.0781 54.9804 49.4233 54.9804 49.8627C54.9804 50.302 54.6195 50.6629 54.1802 50.6629H15.1264Z" fill="#87AB42"/>
<path d="M37.7828 21.9988C37.3435 21.9988 36.9826 21.6379 36.9826 21.1986C36.9826 20.7593 37.3435 20.4141 37.7828 20.4141H67.2183C67.6576 20.4141 68.0185 20.7593 68.0185 21.1986V42.8672C68.0185 43.3066 67.6576 43.6518 67.2183 43.6518H0.800218C0.360883 43.6518 0 43.3066 0 42.8672V21.1986C0 20.7593 0.360883 20.4141 0.800218 20.4141H30.2357C30.675 20.4141 31.0359 20.7593 31.0359 21.1986C31.0359 21.6379 30.675 21.9988 30.2357 21.9988H1.60044V42.067H66.4181V21.9988H37.7828Z" fill="#87AB42"/>
<path d="M15.1244 50.659C14.6851 50.659 14.3242 50.2981 14.3242 49.8587C14.3242 49.4194 14.6851 49.0742 15.1244 49.0742H54.1782C54.6175 49.0742 54.9784 49.4194 54.9784 49.8587C54.9784 50.2981 54.6175 50.659 54.1782 50.659H15.1244Z" fill="#87AB42"/>
<path d="M15.1244 15.5301C14.6851 15.5301 14.3242 15.1849 14.3242 14.7455C14.3242 14.3062 14.6851 13.9453 15.1244 13.9453H54.1782C54.6175 13.9453 54.9784 14.3062 54.9784 14.7455C54.9784 15.1849 54.6175 15.5301 54.1782 15.5301H15.1244Z" fill="#87AB42"/>
<path d="M15.1244 9.0809C14.6851 9.0809 14.3242 8.72002 14.3242 8.28069C14.3242 7.84135 14.6851 7.48047 15.1244 7.48047H34.6592C35.0985 7.48047 35.4437 7.84135 35.4437 8.28069C35.4437 8.72002 35.0985 9.0809 34.6592 9.0809H15.1244Z" fill="#87AB42"/>
<path d="M56.2819 24.4592L57.9137 29.5115H63.2171C63.6565 29.5115 64.0173 29.8567 64.0173 30.2961C64.0173 30.5628 63.8918 30.7982 63.6878 30.9394L59.3886 34.0618L61.0361 39.1141C61.1774 39.5221 60.942 39.9771 60.534 40.1183C60.2516 40.1968 59.9692 40.134 59.7652 39.9614L55.5131 36.8704L51.2296 39.9928C50.8687 40.2596 50.3823 40.1811 50.1155 39.8202C49.9586 39.6162 49.9272 39.3495 50.0057 39.1141L51.6532 34.0618L47.354 30.9394C46.9931 30.6883 46.9147 30.1862 47.1657 29.8253C47.3383 29.6057 47.605 29.4801 47.8718 29.5115H53.1281L54.7599 24.4592C54.9011 24.0355 55.3405 23.8159 55.7641 23.9414C56.0152 24.0198 56.2035 24.2238 56.2819 24.4592Z" fill="#FF9A50"/>
<path d="M12.8971 24.4592L14.529 29.5115H19.8324C20.2717 29.5115 20.6326 29.8567 20.6326 30.2961C20.6326 30.5628 20.5071 30.7982 20.3031 30.9394L16.0039 34.0618L17.6514 39.1141C17.7926 39.5221 17.5572 39.9771 17.1336 40.1183C16.8669 40.1968 16.5844 40.134 16.3804 39.9614L12.1283 36.8704L7.84479 39.9928C7.48391 40.2596 6.98181 40.1811 6.73076 39.8202C6.57385 39.6162 6.54247 39.3495 6.62093 39.1141L8.26843 34.0618L3.96922 30.9394C3.60834 30.6883 3.52989 30.1862 3.78094 29.8253C3.95353 29.6057 4.22027 29.4801 4.48701 29.5115H9.74334L11.3752 24.4592C11.5164 24.0355 11.9557 23.8159 12.3794 23.9414C12.6304 24.0198 12.8187 24.2238 12.8971 24.4592Z" fill="#FF9A50"/>
<path d="M34.7697 18.3713L36.7624 24.5377L43.2426 24.522C43.6819 24.522 44.0271 24.8672 44.0271 25.3066C44.0271 25.5733 43.9016 25.8087 43.6976 25.9499L38.457 29.7627L40.4654 35.9134C40.6066 36.337 40.3712 36.7764 39.9633 36.9176C39.6808 37.0117 39.3984 36.9489 39.1944 36.7764L34.0009 32.9792L28.7759 36.8077C28.415 37.0588 27.9129 36.9803 27.6619 36.6351C27.505 36.4155 27.4736 36.1487 27.552 35.9134L29.5604 29.7627L24.3041 25.9499C23.9589 25.6988 23.8805 25.1967 24.1315 24.8515C24.3041 24.6162 24.5708 24.5063 24.8376 24.522L31.255 24.5377L33.2477 18.3713C33.3889 17.9477 33.8283 17.7123 34.2519 17.8536C34.503 17.932 34.6912 18.136 34.7697 18.3713Z" fill="#FF9A50"/>
</svg>
