<svg width="64" height="64" viewBox="0 0 64 64" fill="none" xmlns="http://www.w3.org/2000/svg">
<g clip-path="url(#clip0_2001_259)">
<path d="M50.1327 8.53125C46.0089 8.53125 42.666 11.8743 42.666 15.9979C42.666 20.1215 46.009 23.4645 50.1327 23.4645C54.2563 23.4645 57.5993 20.1215 57.5993 15.9979C57.5945 11.8761 54.2544 8.536 50.1327 8.53125ZM50.1327 21.3313C47.1871 21.3313 44.7993 18.9434 44.7993 15.9979C44.7993 13.0524 47.1871 10.6645 50.1327 10.6645C53.0782 10.6645 55.466 13.0524 55.466 15.9979C55.4624 18.942 53.0767 21.3278 50.1327 21.3313Z" fill="#87AB42"/>
<path d="M52.2669 14.934H51.2002V13.8674C51.2002 13.2783 50.7226 12.8008 50.1336 12.8008C49.5446 12.8008 49.067 13.2784 49.067 13.8674V14.934H48.0002C47.4111 14.934 46.9336 15.4117 46.9336 16.0007C46.9336 16.5898 47.4112 17.0673 48.0002 17.0673H49.0668V18.1339C49.0668 18.723 49.5443 19.2005 50.1335 19.2005C50.7226 19.2005 51.2001 18.7229 51.2001 18.1339V17.0673H52.2667C52.8559 17.0673 53.3334 16.5897 53.3334 16.0007C53.3336 15.4115 52.856 14.934 52.2669 14.934Z" fill="#87AB42"/>
<path d="M21.9731 7.67827C21.5018 7.32477 20.8332 7.42027 20.4797 7.89164L14.8178 15.4415L13.5538 14.1775C13.1353 13.7733 12.4699 13.779 12.0585 14.1905C11.647 14.602 11.6413 15.2673 12.0455 15.6858L14.1789 17.8192C14.3789 18.0192 14.6502 18.1317 14.933 18.1317H15.0088C15.3177 18.109 15.6014 17.9534 15.7864 17.705L22.1864 9.17165C22.3562 8.94527 22.4291 8.6609 22.3891 8.38077C22.3489 8.10077 22.1993 7.84802 21.9731 7.67827Z" fill="#87AB42"/>
<path d="M29.8662 25.5984C31.0445 25.5984 31.9996 26.5536 31.9996 27.7318C31.9996 28.3209 32.4772 28.7984 33.0662 28.7984C33.6552 28.7984 34.1329 28.3208 34.1329 27.7318C34.1256 25.7922 32.8109 24.1016 30.9329 23.6166V23.4651C30.9329 22.8759 30.4552 22.3984 29.8662 22.3984C29.2771 22.3984 28.7996 22.8761 28.7996 23.4651V23.6166C26.7215 24.1514 25.366 26.1492 25.6369 28.2778C25.9077 30.4065 27.7204 32.0011 29.8662 31.9985C31.0445 31.9985 31.9996 32.9536 31.9996 34.1318C31.9996 35.3101 31.0445 36.2652 29.8662 36.2652C28.688 36.2652 27.7329 35.3101 27.7329 34.1318C27.7329 33.5427 27.2552 33.0652 26.6662 33.0652C26.0772 33.0652 25.5996 33.5428 25.5996 34.1318C25.6069 36.0715 26.9215 37.7621 28.7996 38.2471V38.3986C28.7996 38.9877 29.2772 39.4652 29.8662 39.4652C30.4554 39.4652 30.9329 38.9877 30.9329 38.3986V38.2471C33.011 37.7122 34.3665 35.7145 34.0956 33.5858C33.8248 31.4571 32.0121 29.8626 29.8662 29.8652C28.688 29.8652 27.7329 28.9101 27.7329 27.7318C27.733 26.5536 28.6881 25.5984 29.8662 25.5984Z" fill="#87AB42"/>
<path d="M59.7335 4.26663H56.5335V3.20001C56.5335 1.43275 55.1007 0 53.3335 0H46.9335C45.1662 0 43.7335 1.43275 43.7335 3.20001V4.26663H40.5335C38.1771 4.26663 36.2668 6.17689 36.2668 8.53327V18.6442C33.3754 17.1213 30.0347 16.6828 26.8482 17.4079C27.4558 15.2355 27.7539 12.9883 27.7336 10.7326V4.88738C27.7443 3.74026 26.8424 2.79163 25.6962 2.74451C21.4295 2.57488 19.3175 1.27038 18.4343 0.504501C17.6459 -0.168 16.4857 -0.168 15.6972 0.504501C14.816 1.26713 12.6998 2.57176 8.44377 2.74451C7.29526 2.78888 6.38989 3.73813 6.40001 4.88738V10.7328C6.40001 18.8459 9.74827 24.7904 15.8208 27.4699C16.0088 27.5532 16.2052 27.6166 16.4064 27.6587C15.498 31.2973 16.1223 35.1492 18.1333 38.3147C16.7272 37.6716 15.1995 37.3369 13.6533 37.3333H11.537C11.0866 36.0593 9.88452 35.2056 8.53327 35.1999H3.20001C1.43275 35.1999 0 36.6327 0 38.3999V60.8C0 62.5672 1.43275 64 3.20001 64H8.53339C9.43839 63.9971 10.2995 63.6092 10.9014 62.9334H37.6534C39.2187 62.9342 40.754 62.5039 42.0908 61.6896L62.0802 49.5211C63.0256 48.9503 63.6912 48.0122 63.9176 46.9313C64.144 45.8505 63.9109 44.7241 63.2739 43.822C63.252 43.7846 63.2274 43.749 63.2002 43.7153C62.1679 42.3451 60.3775 41.7845 58.748 42.3212L38.9954 48.9005C38.6698 49.011 38.3282 49.0671 37.9842 49.0668H37.1202C37.7139 47.6542 37.6249 46.047 36.8791 44.7085C36.5989 44.2422 36.2598 43.8141 35.8699 43.4348C41.7616 40.6277 44.8808 34.0767 43.3462 27.7334H59.7335C62.0899 27.7334 64.0001 25.8232 64.0001 23.4668V8.53327C64.0001 6.17689 62.0899 4.26663 59.7335 4.26663ZM45.8667 3.19988C45.8667 2.61076 46.3443 2.13325 46.9333 2.13325H53.3334C53.9225 2.13325 54.4 2.61088 54.4 3.19988V4.26651H45.8666V3.19988H45.8667ZM16.6869 25.5199C9.94777 22.5472 8.53339 15.8378 8.53339 10.7328L8.52277 4.87563C13.4294 4.68051 16 3.06226 17.0412 2.1215C18.1334 3.06663 20.6998 4.68038 25.6 4.88738V10.7328C25.6388 13.2942 25.1985 15.8403 24.3019 18.24C21.0379 19.6782 18.4488 22.3119 17.0667 25.6C16.9359 25.6007 16.8064 25.5734 16.6869 25.5199ZM8.53339 61.8667H3.20001C2.61088 61.8667 2.13338 61.3891 2.13338 60.8001V38.4001C2.13338 37.8109 2.61101 37.3334 3.20001 37.3334H8.53339C9.12252 37.3334 9.60002 37.8111 9.60002 38.4001V60.8001C9.60002 61.3891 9.12252 61.8667 8.53339 61.8667ZM28.5024 49.0667C26.3964 49.0678 24.3378 49.691 22.5845 50.8576L21.8048 51.3802C21.3153 51.709 21.1849 52.3722 21.5135 52.8619C21.8423 53.3514 22.5055 53.4817 22.9952 53.1531L23.7674 52.6326C25.1702 51.6992 26.8174 51.2008 28.5023 51.2001H37.9839C38.5597 51.2007 39.1316 51.1067 39.6767 50.9217L59.4132 44.3415C60.1449 44.1006 60.9495 44.3331 61.4399 44.9271C61.4559 44.9537 61.474 44.9783 61.4921 45.0038C61.8072 45.4216 61.9301 45.9535 61.8302 46.4672C61.7304 46.9808 61.4171 47.428 60.9685 47.6972L40.9812 59.8679C39.9786 60.4784 38.8271 60.8009 37.6532 60.8001H11.7334V39.4667H13.6534C15.6212 39.4691 17.5299 40.1388 19.0678 41.3665C20.9842 42.8952 23.3619 43.7296 25.8134 43.7333H31.3932C32.8906 43.7373 34.2773 44.5226 35.0508 45.8048C35.5894 46.8643 35.4562 48.1412 34.7106 49.0667H28.5024ZM33.6716 42.0267C32.9453 41.7466 32.1738 41.602 31.3953 41.6001H25.8134C25.4925 41.598 25.172 41.5777 24.8534 41.5393C19.7788 39.1408 17.1135 33.4843 18.4947 28.0441C19.8758 22.6038 24.9164 18.9035 30.5206 19.216C36.1247 19.5285 40.7227 23.7664 41.4903 29.3266C42.258 34.8867 38.9803 40.2118 33.6704 42.0311L33.6716 42.0267ZM61.8667 23.4667C61.8667 24.6449 60.9116 25.6 59.7334 25.6H42.6667C41.7437 23.4082 40.2748 21.489 38.4001 20.0257V8.53327C38.4001 7.35501 39.3552 6.39989 40.5335 6.39989H59.7335C60.9117 6.39989 61.8669 7.35501 61.8669 8.53327L61.8667 23.4667Z" fill="#87AB42"/>
</g>
<defs>
<clipPath id="clip0_2001_259">
<rect width="64" height="64" fill="white"/>
</clipPath>
</defs>
</svg>
