<svg width="395" height="395" viewBox="0 0 395 395" fill="none" xmlns="http://www.w3.org/2000/svg">
<g opacity="0.6">
<path d="M266.323 266.32C264.134 268.509 261.819 270.53 259.42 272.592C261.819 270.614 264.134 268.509 266.323 266.32Z" fill="#EBEBEB"/>
<path d="M129.226 197.499C129.248 179.398 136.448 162.045 149.248 149.246C162.047 136.446 179.4 129.246 197.5 129.224V100.18C171.69 100.18 146.936 110.433 128.686 128.684C110.435 146.935 100.182 171.688 100.182 197.499C100.182 223.309 110.435 248.063 128.686 266.313C146.936 284.564 171.69 294.817 197.5 294.817V265.773C179.4 265.751 162.047 258.551 149.248 245.751C136.448 232.952 129.248 215.599 129.226 197.499Z" fill="#F2F2F2"/>
<path d="M133.393 197.498C133.404 214.497 140.161 230.797 152.182 242.817C164.202 254.837 180.501 261.595 197.5 261.606V133.391C180.501 133.402 164.202 140.16 152.182 152.18C140.161 164.2 133.404 180.499 133.393 197.498ZM167.362 187.101C169.418 187.101 171.428 187.711 173.138 188.853C174.848 189.996 176.18 191.62 176.967 193.519C177.754 195.419 177.96 197.51 177.559 199.526C177.158 201.543 176.167 203.396 174.713 204.85C173.259 206.304 171.407 207.294 169.39 207.695C167.373 208.096 165.283 207.891 163.383 207.104C161.483 206.317 159.859 204.984 158.717 203.274C157.574 201.565 156.965 199.554 156.965 197.498C156.965 194.741 158.06 192.096 160.01 190.146C161.96 188.197 164.604 187.101 167.362 187.101Z" fill="#F3F3F3"/>
<path d="M129.225 197.501C129.247 215.602 136.447 232.955 149.246 245.754C162.046 258.553 179.399 265.754 197.499 265.776V263.713C179.939 263.713 163.097 256.738 150.68 244.32C138.263 231.903 131.287 215.062 131.287 197.501C131.287 179.941 138.263 163.099 150.68 150.682C163.097 138.265 179.939 131.289 197.499 131.289V129.227C179.399 129.249 162.046 136.449 149.246 149.248C136.447 162.048 129.247 179.401 129.225 197.501Z" fill="white"/>
<path d="M133.392 197.501C133.403 180.502 140.161 164.203 152.181 152.183C164.201 140.163 180.5 133.405 197.499 133.394V131.289C179.939 131.289 163.097 138.265 150.68 150.682C138.263 163.099 131.287 179.941 131.287 197.501C131.287 215.062 138.263 231.903 150.68 244.32C163.097 256.737 179.939 263.713 197.499 263.713V261.609C180.5 261.598 164.201 254.84 152.181 242.82C140.161 230.8 133.403 214.5 133.392 197.501Z" fill="white"/>
<path d="M173.928 86.7114C189.474 83.4557 205.526 83.4557 221.072 86.7114C208.444 65.665 197.5 21.5095 197.5 0C197.5 21.5095 186.64 65.8754 173.928 86.7114Z" fill="#78B400" fill-opacity="0.1"/>
<path d="M308.289 173.93C311.601 189.47 311.601 205.534 308.289 221.074C329.336 208.446 373.491 197.502 395 197.502C373.491 197.502 329.167 186.642 308.289 173.93Z" fill="#78B400" fill-opacity="0.1"/>
<path d="M173.928 308.289C186.556 329.336 197.5 373.491 197.5 395C197.5 373.491 208.36 329.125 221.072 308.289C205.526 311.545 189.474 311.545 173.928 308.289Z" fill="#78B400" fill-opacity="0.1"/>
<path d="M86.7114 221.074C83.4557 205.528 83.4557 189.476 86.7114 173.93C65.665 186.558 21.5095 197.502 0 197.502C21.5095 197.502 65.8754 208.362 86.7114 221.074Z" fill="#78B400" fill-opacity="0.1"/>
<path d="M117.44 117.44C123.035 111.832 129.2 106.824 135.834 102.497C112.094 96.7298 73.0736 73.0315 57.8359 57.8359C73.0736 73.0736 96.814 112.094 102.497 135.834C106.814 129.192 111.823 123.026 117.44 117.44Z" fill="#78B400" fill-opacity="0.1"/>
<path d="M277.813 117.44C283.405 123.038 288.399 129.202 292.714 135.834C298.481 112.094 322.179 73.0736 337.375 57.8359C321.927 73.0736 282.906 96.814 259.166 102.497C265.887 106.812 272.137 111.82 277.813 117.44Z" fill="#78B400" fill-opacity="0.1"/>
<path d="M292.504 259.164C288.244 265.778 283.322 271.942 277.814 277.559C272.204 283.166 266.025 288.174 259.377 292.502C283.117 298.268 322.138 321.967 337.375 337.162C322.138 321.925 298.481 282.904 292.715 259.164H292.504Z" fill="#78B400" fill-opacity="0.1"/>
<path d="M102.497 259.164C96.7298 282.904 73.0315 321.925 57.8359 337.162C73.0736 321.925 112.094 298.268 135.834 292.502C122.54 283.809 111.189 272.458 102.497 259.164Z" fill="#78B400" fill-opacity="0.1"/>
<path d="M266.322 266.32C268.511 264.132 270.531 261.817 272.594 259.417C276.578 254.588 280.088 249.387 283.075 243.885C285.331 239.722 287.286 235.404 288.926 230.962C290.02 227.974 290.946 224.943 291.746 221.828C292.565 218.695 293.212 215.519 293.682 212.315C294.389 207.409 294.713 202.455 294.65 197.499C294.65 195.815 294.65 194.131 294.65 192.489C294.487 189.205 294.15 185.931 293.64 182.682C293.64 181.082 293.135 179.483 292.798 177.883C288.276 155.946 276.328 136.238 258.968 122.084C241.608 107.929 219.899 100.193 197.5 100.18V129.224C215.608 129.224 232.974 136.417 245.778 149.221C258.582 162.025 265.775 179.391 265.775 197.499C265.775 215.606 258.582 232.972 245.778 245.776C232.974 258.58 215.608 265.773 197.5 265.773V294.649C204.089 294.656 210.661 293.993 217.115 292.671C220.268 292.095 223.387 291.35 226.46 290.44C238.501 286.687 249.696 280.625 259.419 272.592C261.818 270.614 264.133 268.509 266.322 266.32Z" fill="#EBEBEB"/>
<path opacity="0.2" d="M266.322 266.32C268.511 264.132 270.531 261.817 272.594 259.417C276.578 254.588 280.088 249.387 283.075 243.885C285.331 239.722 287.286 235.404 288.926 230.962C290.02 227.974 290.946 224.943 291.746 221.828C292.565 218.695 293.212 215.519 293.682 212.315C294.389 207.409 294.713 202.455 294.65 197.499C294.65 195.815 294.65 194.131 294.65 192.489C294.487 189.205 294.15 185.931 293.64 182.682C293.64 181.082 293.135 179.483 292.798 177.883C288.276 155.946 276.328 136.238 258.968 122.084C241.608 107.929 219.899 100.193 197.5 100.18V129.224C215.608 129.224 232.974 136.417 245.778 149.221C258.582 162.025 265.775 179.391 265.775 197.499C265.775 215.606 258.582 232.972 245.778 245.776C232.974 258.58 215.608 265.773 197.5 265.773V294.649C204.089 294.656 210.661 293.993 217.115 292.671C220.268 292.095 223.387 291.35 226.46 290.44C238.501 286.687 249.696 280.625 259.419 272.592C261.818 270.614 264.133 268.509 266.322 266.32Z" fill="white"/>
<path d="M197.5 261.61C214.502 261.61 230.808 254.855 242.831 242.833C254.853 230.81 261.608 214.504 261.608 197.502C261.608 180.5 254.853 164.194 242.831 152.171C230.808 140.149 214.502 133.395 197.5 133.395V261.61ZM226.67 187.105C228.727 187.105 230.737 187.715 232.447 188.857C234.156 190 235.489 191.624 236.276 193.523C237.063 195.423 237.269 197.514 236.868 199.53C236.466 201.547 235.476 203.4 234.022 204.854C232.568 206.308 230.716 207.298 228.699 207.699C226.682 208.1 224.591 207.894 222.692 207.108C220.792 206.321 219.168 204.988 218.026 203.278C216.883 201.569 216.273 199.558 216.273 197.502C216.273 194.745 217.369 192.1 219.319 190.15C221.268 188.2 223.913 187.105 226.67 187.105Z" fill="#E1E1E1"/>
<path d="M197.5 261.61C214.502 261.61 230.808 254.855 242.831 242.833C254.853 230.81 261.608 214.504 261.608 197.502C261.608 180.5 254.853 164.194 242.831 152.171C230.808 140.149 214.502 133.395 197.5 133.395V261.61ZM226.67 187.105C228.727 187.105 230.737 187.715 232.447 188.857C234.156 190 235.489 191.624 236.276 193.523C237.063 195.423 237.269 197.514 236.868 199.53C236.466 201.547 235.476 203.4 234.022 204.854C232.568 206.308 230.716 207.298 228.699 207.699C226.682 208.1 224.591 207.894 222.692 207.108C220.792 206.321 219.168 204.988 218.026 203.278C216.883 201.569 216.273 199.558 216.273 197.502C216.273 194.745 217.369 192.1 219.319 190.15C221.268 188.2 223.913 187.105 226.67 187.105Z" fill="#F1F1F1"/>
<path d="M197.5 131.289C215.061 131.289 231.902 138.265 244.319 150.682C256.736 163.099 263.712 179.941 263.712 197.501C263.712 215.062 256.736 231.903 244.319 244.32C231.902 256.738 215.061 263.713 197.5 263.713V265.776C215.608 265.776 232.974 258.583 245.778 245.779C258.582 232.975 265.775 215.609 265.775 197.501C265.775 179.394 258.582 162.028 245.778 149.224C232.974 136.42 215.608 129.227 197.5 129.227V131.289Z" fill="white"/>
<path opacity="0.2" d="M197.5 131.289C215.061 131.289 231.902 138.265 244.319 150.682C256.736 163.099 263.712 179.941 263.712 197.501C263.712 215.062 256.736 231.903 244.319 244.32C231.902 256.738 215.061 263.713 197.5 263.713V265.776C215.608 265.776 232.974 258.583 245.778 245.779C258.582 232.975 265.775 215.609 265.775 197.501C265.775 179.394 258.582 162.028 245.778 149.224C232.974 136.42 215.608 129.227 197.5 129.227V131.289Z" fill="white"/>
<path d="M263.712 197.501C263.712 179.941 256.736 163.099 244.319 150.682C231.902 138.265 215.061 131.289 197.5 131.289V133.394C214.502 133.394 230.808 140.148 242.831 152.17C254.853 164.193 261.608 180.499 261.608 197.501C261.608 214.504 254.853 230.81 242.831 242.832C230.808 254.855 214.502 261.609 197.5 261.609V263.713C206.195 263.713 214.805 262.001 222.838 258.673C230.872 255.346 238.171 250.469 244.319 244.32C250.467 238.172 255.345 230.873 258.672 222.84C262 214.806 263.712 206.196 263.712 197.501Z" fill="white"/>
<path opacity="0.2" d="M263.712 197.501C263.712 179.941 256.736 163.099 244.319 150.682C231.902 138.265 215.061 131.289 197.5 131.289V133.394C214.502 133.394 230.808 140.148 242.831 152.17C254.853 164.193 261.608 180.499 261.608 197.501C261.608 214.504 254.853 230.81 242.831 242.832C230.808 254.855 214.502 261.609 197.5 261.609V263.713C206.195 263.713 214.805 262.001 222.838 258.673C230.872 255.346 238.171 250.469 244.319 244.32C250.467 238.172 255.345 230.873 258.672 222.84C262 214.806 263.712 206.196 263.712 197.501Z" fill="white"/>
<path d="M197.397 207.794C199.453 207.794 201.463 207.184 203.173 206.042C204.883 204.899 206.216 203.275 207.002 201.376C207.789 199.476 207.995 197.385 207.594 195.369C207.193 193.352 206.203 191.499 204.749 190.045C203.295 188.591 201.442 187.601 199.425 187.2C197.408 186.799 195.318 187.005 193.418 187.791C191.518 188.578 189.895 189.911 188.752 191.621C187.61 193.33 187 195.341 187 197.397C187.011 200.151 188.11 202.789 190.057 204.736C192.005 206.684 194.643 207.783 197.397 207.794Z" fill="#505050"/>
</g>
</svg>
