<svg width="101" height="102" viewBox="0 0 101 102" fill="none" xmlns="http://www.w3.org/2000/svg">
<path d="M75.7196 42.319C75.2923 41.6779 74.7131 41.1523 74.0336 40.789C73.354 40.4257 72.5953 40.2359 71.8248 40.2366H60.9728V39.1147C60.9718 38.1807 60.6004 37.2852 59.94 36.6247C59.2796 35.9642 58.3843 35.5926 57.4503 35.5914H49.4757C49.1661 33.1199 47.9646 30.8465 46.097 29.1983C44.2294 27.5501 41.8243 26.6406 39.3334 26.6406C36.8425 26.6407 34.4374 27.5502 32.5698 29.1984C30.7023 30.8467 29.5009 33.1201 29.1913 35.5917L20.3561 35.5914C19.4221 35.5926 18.5267 35.9642 17.8663 36.6247C17.206 37.2852 16.8345 38.1807 16.8335 39.1147V66.9619C16.8361 67.8943 17.2084 68.7876 17.8688 69.4457C18.5292 70.1039 19.4237 70.4733 20.3561 70.4727H23.8894C24.1636 71.7863 24.8817 72.9655 25.9229 73.8119C26.9642 74.6583 28.2652 75.1203 29.6071 75.1203C30.9489 75.1203 32.2499 74.6583 33.2912 73.8119C34.3325 72.9655 35.0505 71.7863 35.3247 70.4727C35.3427 70.4822 59.6406 70.4603 59.6565 70.4775H65.6454C65.9324 71.7798 66.6555 72.945 67.695 73.7804C68.7345 74.6157 70.0281 75.0711 71.3616 75.071C72.6952 75.071 73.9888 74.6156 75.0282 73.7802C76.0677 72.9449 76.7907 71.7796 77.0777 70.4773L80.6442 70.4775C81.578 70.4766 82.4733 70.1054 83.1337 69.4452C83.7941 68.7851 84.1656 67.8899 84.1668 66.9561V55.3573C84.1667 55.12 84.0964 54.8879 83.9648 54.6904L75.7196 42.319ZM39.3335 28.9836C40.8792 28.9837 42.3901 29.4421 43.6753 30.3008C44.9605 31.1596 45.9622 32.3802 46.5536 33.8082C47.1451 35.2362 47.2999 36.8076 46.9983 38.3236C46.6967 39.8396 45.9524 41.2321 44.8594 42.3251C43.7665 43.418 42.3739 44.1623 40.8579 44.4639C39.3419 44.7654 37.7706 44.6107 36.3425 44.0192C34.9145 43.4277 33.694 42.426 32.8352 41.1408C31.9765 39.8556 31.5181 38.3446 31.5181 36.7989C31.5208 34.727 32.3451 32.7407 33.8102 31.2757C35.2752 29.8106 37.2616 28.9863 39.3335 28.9836ZM29.6064 72.7156C28.7016 72.7053 27.8374 72.3387 27.2012 71.6953C26.565 71.0518 26.2082 70.1835 26.2082 69.2786C26.2082 68.3737 26.565 67.5054 27.2012 66.862C27.8375 66.2185 28.7017 65.852 29.6065 65.8418C30.5113 65.852 31.3756 66.2186 32.0118 66.862C32.648 67.5055 33.0048 68.3738 33.0048 69.2787C33.0048 70.1836 32.648 71.0519 32.0118 71.6953C31.3755 72.3388 30.5112 72.7054 29.6064 72.7156ZM58.5682 68.0681H35.3197C35.0311 66.7681 34.3078 65.6054 33.2692 64.7721C32.2306 63.9387 30.9388 63.4846 29.6071 63.4846C28.2755 63.4846 26.9837 63.9388 25.9451 64.7721C24.9065 65.6055 24.1832 66.7682 23.8947 68.0682L20.3563 68.0681C20.0615 68.0692 19.7783 67.9534 19.5687 67.7461C19.3592 67.5387 19.2404 67.2568 19.2384 66.962V60.0424H58.5681L58.5682 68.0681ZM58.5682 57.6377H19.2383V39.1147C19.2421 38.8193 19.361 38.5371 19.5698 38.3282C19.7786 38.1193 20.0608 38.0001 20.3561 37.9962H29.1896C29.4968 40.4701 30.6974 42.7465 32.5656 44.397C34.4337 46.0476 36.8407 46.9586 39.3336 46.9586C41.8265 46.9585 44.2334 46.0475 46.1016 44.397C47.9697 42.7464 49.1703 40.47 49.4775 37.9961L57.4503 37.9962C57.7456 38.0001 58.0278 38.1192 58.2366 38.3282C58.4454 38.5371 58.5644 38.8193 58.5681 39.1147L58.5682 57.6377ZM76.1361 47.2806L80.7218 54.1606L66.5257 54.1972L66.4834 47.2806L76.1361 47.2806ZM71.3621 72.7156C70.4573 72.7053 69.593 72.3387 68.9568 71.6953C68.3206 71.0518 67.9638 70.1835 67.9638 69.2786C67.9639 68.3737 68.3207 67.5054 68.9569 66.862C69.5931 66.2185 70.4574 65.852 71.3622 65.8418C72.267 65.852 73.1313 66.2186 73.7675 66.862C74.4037 67.5055 74.7605 68.3738 74.7605 69.2787C74.7605 70.1836 74.4037 71.0519 73.7674 71.6953C73.1312 72.3388 72.2669 72.7054 71.3621 72.7156ZM81.762 66.9561C81.7615 67.2523 81.6435 67.5362 81.4339 67.7455C81.2244 67.9548 80.9404 68.0725 80.6442 68.0727H77.0755C76.7994 66.7618 76.0809 65.5857 75.0405 64.7417C74.0002 63.8976 72.7012 63.437 71.3615 63.437C70.0219 63.437 68.7229 63.8976 67.6826 64.7417C66.6422 65.5857 65.9237 66.7618 65.6476 68.0727H60.9728V42.6414H71.8248C73.1712 42.5623 73.9112 43.9031 74.5331 44.8759L66.4834 44.8758C65.8571 44.8766 65.2567 45.1256 64.8138 45.5684C64.3709 46.0112 64.1217 46.6115 64.1208 47.2378V54.1972C64.1217 54.8235 64.3709 55.424 64.8138 55.8668C65.2566 56.3097 65.8571 56.5589 66.4834 56.5597H81.762V66.9561Z" fill="#87AB42"/>
<path d="M36.9802 40.6581C37.0918 40.7697 37.2243 40.8583 37.3702 40.9188C37.5161 40.9792 37.6724 41.0104 37.8303 41.0104C37.9882 41.0104 38.1446 40.9792 38.2905 40.9188C38.4363 40.8583 38.5689 40.7697 38.6805 40.6581L44.6924 34.6462C44.9161 34.4204 45.0414 34.1151 45.0406 33.7972C45.0399 33.4793 44.9133 33.1746 44.6885 32.9498C44.4638 32.725 44.1591 32.5984 43.8412 32.5977C43.5233 32.5969 43.218 32.7221 42.9922 32.9459L37.8304 38.1077L35.6745 35.9518C35.4476 35.7336 35.1441 35.6131 34.8293 35.6162C34.5145 35.6193 34.2134 35.7458 33.9908 35.9684C33.7682 36.191 33.6418 36.4921 33.6387 36.8069C33.6357 37.1217 33.7562 37.4252 33.9744 37.6521L36.9802 40.6581Z" fill="#87AB42"/>
<path d="M50.5 0.339844C40.5121 0.339844 30.7484 3.30162 22.4437 8.85063C14.139 14.3996 7.66633 22.2867 3.84411 31.5143C0.0218813 40.742 -0.978188 50.8959 0.970366 60.6919C2.91892 70.4879 7.72858 79.4862 14.7911 86.5487C21.8537 93.6113 30.8519 98.4209 40.648 100.369C50.444 102.318 60.5979 101.318 69.8255 97.4957C79.0532 93.6735 86.9402 87.2008 92.4892 78.8961C98.0382 70.5914 101 60.8278 101 50.8398C100.985 37.4511 95.6595 24.615 86.1922 15.1477C76.7249 5.68038 63.8888 0.354992 50.5 0.339844ZM50.5 98.6291C41.0482 98.6291 31.8086 95.8263 23.9497 90.5751C16.0908 85.324 9.96557 77.8603 6.34852 69.128C2.73146 60.3956 1.78508 50.7868 3.62903 41.5166C5.47299 32.2464 10.0245 23.7312 16.7079 17.0477C23.3914 10.3643 31.9066 5.81281 41.1768 3.96886C50.447 2.1249 60.0558 3.07128 68.7882 6.68834C77.5205 10.3054 84.9842 16.4307 90.2353 24.2896C95.4865 32.1485 98.2893 41.388 98.2893 50.8398C98.2747 63.5099 93.2351 75.6568 84.2761 84.6159C75.317 93.575 63.17 98.6145 50.5 98.6291Z" fill="#87AB42"/>
</svg>
