<svg width="101" height="106" viewBox="0 0 101 106" fill="none" xmlns="http://www.w3.org/2000/svg">
<path fill-rule="evenodd" clip-rule="evenodd" d="M35.3546 40.4879H5.04555C4.45379 40.4879 3.97366 40.9679 3.97366 41.5594V80.6535H1.19321C0.612171 80.6535 0.136411 81.1164 0.121311 81.6972L0.00117526 86.2251C-0.0279312 86.8106 0.487877 87.3374 1.07307 87.3265H7.41238C-0.052444 92.982 4.12333 105.448 13.6276 105.339C23.1283 105.448 27.3055 92.9794 19.84 87.3265H75.6323C68.1674 92.982 72.3432 105.448 81.8475 105.339C91.3472 105.448 95.5267 92.9778 88.0599 87.3265H90.8576C91.4494 87.3265 91.9295 86.8465 91.9295 86.255V36.974H99.9281C100.52 36.974 101 36.4962 101 35.9025C101 35.3132 100.52 34.8311 99.9281 34.8311H91.9295V31.2954H99.9281C100.52 31.2954 101 30.8155 101 30.224C101 29.6325 100.52 29.1526 99.9281 29.1526H90.8576C90.2658 29.1526 89.7857 29.6325 89.7857 30.224V80.6537H86.45V41.5596C86.45 40.9681 85.9699 40.4882 85.3781 40.4882H77.6647V1.41129C77.6647 0.819795 77.1846 0.339844 76.5928 0.339844H36.4267C35.8328 0.339844 35.3548 0.819795 35.3548 1.41129L35.3546 40.4879ZM81.8471 87.3263C92.3162 87.5964 92.314 102.928 81.8468 103.196C71.3751 102.927 71.3773 87.5944 81.8471 87.3263ZM13.6272 87.3263C24.0963 87.5964 24.0941 102.928 13.6269 103.196C3.15517 102.927 3.15736 87.5944 13.6272 87.3263ZM13.6272 90.3071C7.09023 90.4743 7.09154 100.05 13.6274 100.216C20.1639 100.047 20.1623 90.4745 13.6272 90.3071ZM81.8471 90.3071C75.3106 90.4756 75.3119 100.048 81.8473 100.216C88.3836 100.047 88.3822 90.4745 81.8471 90.3071ZM13.6272 92.45C17.3364 92.5458 17.3357 97.9776 13.6272 98.0727C9.9175 97.9782 9.91838 92.5438 13.6272 92.45ZM81.8471 92.45C85.5563 92.5458 85.5556 97.9776 81.8471 98.0727C78.1379 97.9769 78.1385 92.5452 81.8471 92.45ZM89.7855 85.1834H2.17278L2.2371 82.7964H89.7855V85.1834ZM44.1399 42.6308V80.6363H6.11769V42.6308H44.1399ZM84.306 42.6308V80.6363H46.2838V42.6308H84.306ZM61.8133 73.145H80.8266C81.4183 73.145 81.8985 72.665 81.8985 72.0735C81.8985 71.482 81.4183 71.0021 80.8266 71.0021H61.8133C60.4177 71.0076 60.407 73.1384 61.8133 73.145ZM21.6472 73.145H40.6605C41.2523 73.145 41.7324 72.665 41.7324 72.0735C41.7324 71.482 41.2523 71.0021 40.6605 71.0021H21.6472C20.2516 71.0076 20.2409 73.1384 21.6472 73.145ZM21.6472 67.925H40.6605C41.2523 67.925 41.7324 67.445 41.7324 66.8535C41.7324 66.262 41.2523 65.7821 40.6605 65.7821H21.6472C20.2516 65.7876 20.2409 67.9184 21.6472 67.925ZM61.8133 67.925H80.8266C81.4183 67.925 81.8985 67.445 81.8985 66.8535C81.8985 66.262 81.4183 65.7821 80.8266 65.7821H61.8133C60.4177 65.7876 60.407 67.9184 61.8133 67.925ZM26.2005 62.705H40.6603C42.0574 62.6993 42.0655 60.5686 40.6603 60.5621H26.2005C24.8034 60.568 24.7955 62.6984 26.2005 62.705ZM66.3668 62.705H80.8266C82.2237 62.6993 82.2318 60.5686 80.8266 60.5621H66.3668C64.9695 60.568 64.9616 62.6984 66.3668 62.705ZM41.7324 46.1109C41.7324 45.5172 41.2523 45.0395 40.6605 45.0395H31.0199C30.4282 45.0395 29.948 45.5174 29.948 46.1109V55.745C29.948 56.3365 30.4282 56.8165 31.0199 56.8165H40.6605C41.2523 56.8165 41.7324 56.3365 41.7324 55.745V46.1109ZM81.8985 46.1109C81.8985 45.5172 81.4183 45.0395 80.8266 45.0395H71.186C70.5942 45.0395 70.1141 45.5174 70.1141 46.1109V55.745C70.1141 56.3365 70.5942 56.8165 71.186 56.8165H80.8266C81.4183 56.8165 81.8985 56.3365 81.8985 55.745V46.1109ZM39.5886 47.1823V54.6738H32.0918V47.1823H39.5886ZM79.7547 47.1823V54.6738H72.2579V47.1823H79.7547ZM75.5207 40.4879H37.4984V2.4825H75.5207V40.4879ZM53.0281 32.9945H72.0393C72.631 32.9945 73.1112 32.5145 73.1112 31.923C73.1112 31.3315 72.631 30.8516 72.0393 30.8516H53.0281C51.6323 30.8571 51.6216 32.9879 53.0281 32.9945ZM53.0281 27.7767H72.0393C72.631 27.7767 73.1112 27.2967 73.1112 26.7052C73.1112 26.1137 72.631 25.6338 72.0393 25.6338H53.0281C51.6323 25.6393 51.6216 27.7701 53.0281 27.7767ZM57.5793 22.5566H72.0391C73.4362 22.551 73.4443 20.4203 72.0391 20.4138H57.5793C56.1822 20.4195 56.1741 22.5501 57.5793 22.5566ZM73.1112 5.96037C73.1112 5.36888 72.631 4.88895 72.0393 4.88895H62.4009C61.8069 4.88895 61.3289 5.36888 61.3289 5.96037V15.5967C61.3289 16.1882 61.8069 16.6681 62.4009 16.6681H72.0393C72.631 16.6681 73.1112 16.1882 73.1112 15.5967V5.96037ZM70.9674 7.03182V14.5253H63.4726V7.03182H70.9674Z" fill="#87AB42"/>
</svg>
