<svg width="101" height="103" viewBox="0 0 101 103" fill="none" xmlns="http://www.w3.org/2000/svg">
<path d="M72.58 48.2508C88.3365 29.8374 74.808 0.115377 50.4996 0.341122C26.193 0.12039 12.6611 29.8337 28.4206 48.251C39.3896 62.0295 61.6125 62.03 72.58 48.2508ZM50.5001 55.0281C46.8801 55.0265 43.303 54.2361 40.0126 52.7108C36.7222 51.1855 33.7958 48.9612 31.4331 46.1895C31.4602 44.6582 31.9556 43.1729 32.8513 41.9375C33.7469 40.7021 34.999 39.7771 36.4356 39.2895C39.4425 38.4455 47.4236 35.0543 50.5173 35.2867C53.5469 35.0518 61.6304 38.4666 64.5619 39.2894C65.9991 39.7764 67.2518 40.7012 68.148 41.9367C69.0442 43.1722 69.5399 44.6578 69.5671 46.1895C67.2043 48.9612 64.278 51.1855 60.9876 52.7108C57.6972 54.2361 54.1201 55.0265 50.5001 55.0281ZM50.5003 13.3077C62.4958 13.6954 62.4791 31.2761 50.4844 31.6402C38.5083 31.2365 38.5273 13.6894 50.5003 13.3077ZM65.706 35.8323L57.5844 33.0954C67.82 26.2183 62.9665 9.64168 50.4998 9.66204C38.0324 9.64547 33.1791 26.2173 43.4172 33.0961L35.2916 35.8324C33.7901 36.3447 32.4169 37.181 31.2671 38.2832C30.1174 39.3854 29.2185 40.7272 28.633 42.2154C18.8374 25.7112 31.3608 3.71397 50.5001 3.98672C69.6369 3.71413 82.1658 25.7134 72.3668 42.2158C71.7811 40.7272 70.882 39.3851 69.7319 38.2829C68.5817 37.1806 67.2079 36.3443 65.706 35.8323Z" fill="#87AB42"/>
<path d="M19.8366 62.3224C3.16659 62.178 -6.13391 82.4789 4.58336 95.179C11.987 104.726 27.6873 104.727 35.0902 95.1784C45.8053 82.4815 36.5071 62.1744 19.8366 62.3224ZM19.8366 98.7805C17.5508 98.7791 15.2912 98.2882 13.2067 97.3402C11.1221 96.3923 9.26004 95.0087 7.743 93.2807C7.80129 92.4267 8.10843 91.6093 8.62569 90.9315C9.14296 90.2537 9.84721 89.7459 10.6496 89.472C12.529 88.9649 17.9003 86.6802 19.8217 86.8338C21.735 86.6599 27.1614 88.9659 29.0192 89.4719C29.8226 89.7449 30.5278 90.2525 31.0459 90.9304C31.564 91.6083 31.8717 92.4261 31.9302 93.2807C30.4132 95.0087 28.5511 96.3923 26.4665 97.3402C24.382 98.2882 22.1224 98.7791 19.8366 98.7805ZM19.8368 72.1828C21.2708 72.1991 22.6406 72.7865 23.6487 73.8173C24.6569 74.8481 25.2219 76.2393 25.2212 77.6886C25.2205 79.138 24.6541 80.5286 23.645 81.5584C22.6359 82.5883 21.2656 83.1743 19.8315 83.1891C18.3975 83.1729 17.0277 82.5855 16.0196 81.5547C15.0115 80.5238 14.4464 79.1327 14.4471 77.6833C14.4478 76.234 15.0142 74.8434 16.0233 73.8136C17.0324 72.7837 18.4028 72.1977 19.8368 72.1828ZM34.4292 89.5152C32.9659 86.4782 28.6824 85.5216 25.7744 84.5367C27.159 83.3152 28.1418 81.6958 28.5915 79.8948C29.0412 78.0938 28.9363 76.197 28.2909 74.4578C27.6455 72.7186 26.4903 71.22 24.9796 70.162C23.469 69.104 21.6748 68.5371 19.8369 68.5371C17.999 68.537 16.2048 69.1039 14.6941 70.1618C13.1834 71.2197 12.0282 72.7183 11.3827 74.4575C10.7372 76.1966 10.6323 78.0934 11.0819 79.8944C11.5315 81.6954 12.5142 83.3149 13.8988 84.5364C10.996 85.5184 6.7066 86.4755 5.2437 89.5147C-0.100975 79.069 8.13051 65.6777 19.8366 65.9682C31.5402 65.6777 39.778 79.0703 34.4292 89.5152Z" fill="#87AB42"/>
<path d="M81.1637 62.3224C64.4941 62.1779 55.1936 82.4789 65.9108 95.1789C73.3145 104.726 89.0148 104.727 96.4176 95.1788C107.133 82.4814 97.8346 62.1743 81.1637 62.3224ZM81.1641 98.7804C78.8782 98.779 76.6186 98.2881 74.5341 97.3401C72.4496 96.3922 70.5875 95.0086 69.0705 93.2805C69.1288 92.4266 69.4359 91.6092 69.9532 90.9314C70.4704 90.2536 71.1747 89.7458 71.9771 89.4719C73.8564 88.9648 79.2278 86.6801 81.1492 86.8337C83.0625 86.6598 88.4889 88.9658 90.3467 89.4717C91.15 89.7448 91.8553 90.2524 92.3734 90.9303C92.8915 91.6082 93.1992 92.426 93.2577 93.2805C91.7406 95.0086 89.8785 96.3922 87.794 97.3401C85.7095 98.2881 83.4499 98.779 81.1641 98.7804ZM81.1644 72.1827C82.5984 72.199 83.9682 72.7864 84.9763 73.8172C85.9844 74.848 86.5495 76.2392 86.5488 77.6885C86.5481 79.1379 85.9817 80.5285 84.9726 81.5583C83.9635 82.5882 82.5931 83.1741 81.1591 83.189C79.7251 83.1727 78.3553 82.5854 77.3471 81.5546C76.339 80.5237 75.774 79.1326 75.7747 77.6832C75.7754 76.2339 76.3418 74.8433 77.3509 73.8135C78.36 72.7836 79.7303 72.1976 81.1644 72.1827ZM95.7567 89.5151C94.2935 86.4781 90.0099 85.5215 87.102 84.5366C88.4866 83.3151 89.4694 81.6956 89.9191 79.8946C90.3688 78.0936 90.2639 76.1968 89.6185 74.4577C88.9731 72.7185 87.8179 71.2198 86.3072 70.1618C84.7966 69.1039 83.0024 68.537 81.1645 68.5369C79.3265 68.5369 77.5324 69.1037 76.0217 70.1616C74.511 71.2196 73.3557 72.7182 72.7102 74.4573C72.0648 76.1965 71.9598 78.0933 72.4094 79.8943C72.859 81.6953 73.8418 83.3148 75.2263 84.5363C72.3236 85.5183 68.0341 86.4754 66.5713 89.5146C61.2265 79.0688 69.4581 65.6775 81.1641 65.968C92.8677 65.6776 101.106 79.0702 95.7567 89.5151Z" fill="#87AB42"/>
<path d="M6.68168 8.92482L9.01385 6.56787V34.9796C9.02331 35.4567 9.21751 35.9111 9.55476 36.2452C9.89201 36.5792 10.3454 36.7663 10.8177 36.7663C11.2899 36.7663 11.7433 36.5792 12.0805 36.2451C12.4178 35.911 12.6119 35.4566 12.6214 34.9795V6.56787L14.9535 8.92482C15.294 9.25571 15.7493 9.43845 16.2216 9.43378C16.6939 9.42912 17.1456 9.23741 17.4795 8.89985C17.8135 8.5623 18.0032 8.10582 18.0078 7.62849C18.0123 7.15115 17.8315 6.69104 17.504 6.34701L12.0929 0.878404C11.9255 0.709095 11.7266 0.574787 11.5078 0.483153C11.289 0.39152 11.0545 0.344355 10.8176 0.344355C10.5807 0.344355 10.3462 0.39152 10.1274 0.483153C9.90856 0.574787 9.70975 0.709095 9.5423 0.878404L4.13107 6.34712C3.80336 6.69111 3.62227 7.15132 3.62675 7.62881C3.63123 8.10631 3.82091 8.56297 4.15501 8.90062C4.48912 9.23828 4.94098 9.42997 5.41345 9.43449C5.88593 9.43902 6.3413 9.25601 6.68168 8.92482Z" fill="#87AB42"/>
<path d="M86.0465 8.92482L88.3787 6.56787V34.9796C88.3882 35.4567 88.5823 35.9111 88.9196 36.2452C89.2568 36.5792 89.7103 36.7663 90.1825 36.7663C90.6547 36.7663 91.1081 36.5792 91.4454 36.2451C91.7826 35.911 91.9768 35.4566 91.9862 34.9795V6.56787L94.3184 8.92482C94.6588 9.25571 95.1141 9.43845 95.5864 9.43378C96.0587 9.42912 96.5104 9.23741 96.8444 8.89985C97.1784 8.5623 97.368 8.10582 97.3726 7.62849C97.3772 7.15115 97.1963 6.69104 96.8689 6.34701L91.4577 0.878404C91.2903 0.709095 91.0915 0.574787 90.8727 0.483153C90.6539 0.39152 90.4193 0.344355 90.1824 0.344355C89.9456 0.344355 89.711 0.39152 89.4922 0.483153C89.2734 0.574787 89.0746 0.709095 88.9071 0.878404L83.4959 6.34712C83.1682 6.69111 82.9871 7.15132 82.9916 7.62881C82.9961 8.10631 83.1857 8.56297 83.5199 8.90062C83.854 9.23828 84.3058 9.42997 84.7783 9.43449C85.2508 9.43902 85.7061 9.25601 86.0465 8.92482Z" fill="#87AB42"/>
</svg>
