<svg width="101" height="102" viewBox="0 0 101 102" fill="none" xmlns="http://www.w3.org/2000/svg">
<path d="M55.0653 48.3334C57.3712 48.3334 59.247 46.4574 59.247 44.1521C59.247 41.8465 57.3712 39.9707 55.0653 39.9707C52.7599 39.9707 50.8843 41.8467 50.8843 44.1521C50.8841 46.4574 52.7599 48.3334 55.0653 48.3334ZM55.0653 40.9249C56.8449 40.9249 58.2926 42.3728 58.2926 44.1519C58.2926 45.9315 56.8449 47.3788 55.0653 47.3788C53.286 47.3788 51.8388 45.9313 51.8388 44.1519C51.8386 42.3728 53.286 40.9249 55.0653 40.9249ZM59.0742 72.5481C56.7685 72.5481 54.8931 74.4241 54.8931 76.7294C54.8931 79.035 56.7687 80.9106 59.0742 80.9106C61.3796 80.9106 63.2556 79.0348 63.2556 76.7294C63.2556 74.4241 61.3796 72.5481 59.0742 72.5481ZM58.624 79.9211C57.0575 79.7014 55.8475 78.3556 55.8475 76.7294C55.8475 76.1293 56.0152 75.5687 56.3018 75.0869C57.5601 76.1676 58.9986 77.1247 58.9986 77.8996C58.9984 78.2464 58.8603 78.9723 58.624 79.9211ZM59.5973 79.9101C59.823 78.9751 59.953 78.2582 59.953 77.8996C59.953 76.4958 58.2494 75.4637 56.9054 74.3472C57.4789 73.8244 58.2387 73.5025 59.0742 73.5025C60.8537 73.5025 62.301 74.9504 62.301 76.7294C62.301 78.33 61.1283 79.6588 59.5973 79.9101ZM33.6865 22.6916C35.9921 22.6916 37.8681 20.8156 37.8681 18.5102C37.8681 16.2047 35.9921 14.3289 33.6865 14.3289C31.3808 14.3289 29.5052 16.2049 29.5052 18.5102C29.5052 20.8156 31.381 22.6916 33.6865 22.6916ZM33.6865 15.2831C35.466 15.2831 36.9135 16.731 36.9135 18.51C36.9135 20.2893 35.4658 21.737 33.6865 21.737C31.9071 21.737 30.4596 20.2891 30.4596 18.51C30.4596 16.731 31.9071 15.2831 33.6865 15.2831ZM81.3261 55.7959C81.3261 53.4905 79.4501 51.6147 77.1445 51.6147C74.8388 51.6147 72.9634 53.4907 72.9634 55.7959C72.9634 58.1016 74.839 59.9772 77.1445 59.9772C79.4501 59.9772 81.3261 58.1016 81.3261 55.7959ZM73.9176 55.7959C73.9176 54.0166 75.3649 52.5691 77.1443 52.5691C78.9238 52.5691 80.3713 54.0168 80.3713 55.7959C80.3713 57.5755 78.9238 59.0228 77.1443 59.0228C75.3649 59.0228 73.9176 57.5757 73.9176 55.7959ZM50.5 0.339844C22.6094 0.339844 0 22.9496 0 50.8395C0 78.73 22.6094 101.34 50.5 101.34C78.3906 101.34 101 78.73 101 50.8395C101 22.9496 78.3906 0.339844 50.5 0.339844ZM98.7685 47.4232C98.2762 47.8949 96.9821 48.8924 96.6742 48.8944H96.674C96.0265 48.8944 95.1777 47.3023 94.5581 46.1394C94.1521 45.2509 93.0555 43.9785 93.168 42.4146C93.0115 38.0992 90.1597 39.0647 91.9197 34.7086C92.2386 33.7965 92.1759 31.887 91.9621 29.7946C92.5624 29.5148 93.1244 29.2292 93.6412 28.937C96.5065 34.5579 98.3046 40.8089 98.7685 47.4232ZM93.1968 28.09C92.779 28.3263 92.3278 28.5587 91.8494 28.7871C91.6845 27.413 91.4725 26.0179 91.275 24.8166C91.956 25.8806 92.5985 26.9719 93.1968 28.09ZM90.1096 23.0779C90.483 25.0884 90.8124 27.252 91.0144 29.1694C88.8041 30.138 86.0569 31.0294 82.8752 31.8264C80.1232 26.1016 76.1633 19.7021 68.3525 11.7069C70.9351 11.0105 73.1074 10.1035 74.6362 8.91163C80.7676 12.4547 86.0524 17.3051 90.1096 23.0779ZM59.0745 88.1112C57.4374 86.5603 53.0688 81.9325 53.0688 76.7294C53.0688 73.557 55.7315 70.7242 59.0742 70.7242C62.5912 70.7242 65.0789 73.671 65.0789 76.7294C65.0789 81.9392 60.7105 86.5631 59.0745 88.1112ZM62.3123 86.3264C62.0562 87.491 61.7473 88.585 61.4048 89.6075C61.3143 89.6964 55.7711 94.9179 54.5854 95.9663C53.4071 94.6727 54.1372 93.2594 54.8089 92.3291C55.5743 91.269 56.4028 89.4917 57.167 87.533C58.2488 88.7121 59.0742 89.3968 59.0742 89.3968C59.0742 89.3968 60.4722 88.24 62.0148 86.3431C62.1144 86.3374 62.2158 86.3323 62.3123 86.3264ZM36.5346 43.4286C37.0402 44.4841 38.0736 45.1436 39.0886 45.5533C39.026 46.3191 38.9671 47.0896 38.9124 47.8669C35.1425 47.0415 31.5572 44.4334 31.4836 42.6728C31.3802 40.1946 30.5701 38.0336 29.7246 36.4566C32.5307 36.7241 35.6015 36.9046 38.9454 36.9592C36.16 39.5657 35.898 42.099 36.5346 43.4286ZM37.3954 43.0159C36.9157 42.0146 37.329 39.4347 39.9033 37.4382C39.6285 39.7403 39.3811 42.1148 39.1708 44.5546C38.4311 44.2192 37.7367 43.7284 37.3954 43.0159ZM39.7928 48.9891C43.1978 49.0645 43.9123 51.765 46.8752 54.8526C48.6962 56.4647 52.838 58.2326 52.8776 58.8678C52.8792 58.8749 52.0391 60.2309 51.6276 62.6452C47.5925 62.6878 43.4992 62.6535 39.3728 62.5888C39.3507 57.9193 39.5078 53.3674 39.7928 48.9891ZM52.4421 63.5939C57.3566 63.494 62.0517 63.2968 64.9667 63.0916C64.9268 66.5035 64.7765 69.601 64.5445 72.4181C63.3033 70.8294 61.3715 69.7697 59.0742 69.7697C57.4333 69.7697 55.9785 70.3098 54.8288 71.1975C54.0228 69.3325 52.7938 66.5104 52.4608 66.011C52.257 65.7058 52.2831 64.7214 52.4421 63.5939ZM52.6027 62.634C52.8559 61.3241 53.244 60.0206 53.6312 59.4781C54.4609 58.2203 52.6009 57.2975 51.033 56.411C49.891 55.7656 48.597 55.0341 47.482 54.1156C45.9104 52.8308 43.876 47.9505 39.8573 48.0351C39.908 47.3078 39.9619 46.5858 40.0193 45.8691C40.7653 46.0788 41.3942 46.1623 41.6416 46.1891C42.7632 46.8257 44.5637 48.0852 44.8785 48.924C45.6323 51.1361 48.2107 53.8347 52.2896 53.959C53.7653 55.7397 55.0651 56.8194 55.0651 56.8194C55.0651 56.8194 57.0786 55.1544 58.9398 52.5403C60.8922 52.2199 62.95 52.4357 64.6698 53.0472C64.8777 56.0033 64.9884 59.039 64.9732 62.1376C60.9353 62.4296 56.8017 62.576 52.6027 62.634ZM59.5715 24.5858C60.6322 28.3602 61.5587 32.1316 62.1736 35.1099C57.312 35.6885 50.3607 35.8887 50.3607 35.8887C50.1897 34.7935 52.6711 33.5527 53.6152 32.2093C54.7947 30.8209 55.7559 27.501 56.0353 26.8865C56.7395 25.3448 59.2807 25.464 59.5715 24.5858ZM58.1001 16.6667C59.0016 17.0423 59.8198 17.5355 60.3568 17.9651C60.6748 18.2196 63.344 19.6596 63.3781 19.9508C63.3726 20.4534 60.1037 21.396 59.7135 21.6433C59.1181 19.6963 58.5607 18.0085 58.1001 16.6667ZM50.59 38.8066C50.3361 39.0209 50.0992 39.2525 49.8796 39.499C48.7503 38.9388 46.2257 37.2985 45.5039 36.9214C46.7379 36.8989 48.15 36.8673 49.648 36.8231C50.138 37.7493 50.4284 38.3774 50.59 38.8066ZM55.0653 38.147C58.5828 38.147 61.0705 41.0939 61.0705 44.1519C61.0705 49.3617 56.7018 53.9854 55.0661 55.5338C53.4288 53.9829 49.0602 49.355 49.0602 44.1519C49.06 40.9797 51.7225 38.147 55.0653 38.147ZM49.2706 40.2909C48.5271 41.4155 48.1054 42.7549 48.1054 44.1519C48.1054 47.5441 49.7916 50.6639 51.5041 52.9595C48.3778 52.5657 46.4608 50.425 45.7719 48.5888C45.2208 47.1196 41.93 45.257 41.93 45.257C41.93 45.257 41.0226 45.1762 40.0996 44.8988C40.3306 42.1749 40.6071 39.528 40.918 36.9774C40.9806 36.9774 41.7448 36.9742 42.9739 36.96C44.8071 37.2222 47.5126 39.4229 49.2706 40.2909ZM59.6427 51.4892C60.9482 49.4093 62.0248 46.8724 62.0248 44.1521C62.0248 40.4751 59.1108 37.1924 55.0653 37.1924C53.6864 37.1924 52.4391 37.5747 51.3932 38.2237C51.2289 37.8177 50.9947 37.3447 50.6734 36.7916C54.6661 36.6622 59.1041 36.443 62.3691 36.0751C63.3467 40.9785 64.1488 46.3424 64.5942 52.0179C63.1124 51.5508 61.3796 51.3326 59.6427 51.4892ZM59.9942 22.5705C61.2015 21.9566 64.3151 21.3599 64.3329 19.9508C64.3329 18.7116 61.8696 17.96 60.9529 17.2195C60.257 16.6628 59.0479 15.9372 57.6931 15.4969C57.3573 14.5461 57.1054 13.866 56.9741 13.5125C60.6584 13.1826 64.2074 12.71 67.2705 11.9803C75.0061 19.8871 78.7638 25.5774 81.9029 32.0637C76.5988 33.3264 70.1873 34.3358 63.1299 35.0197C62.2071 30.426 61.0563 26.1213 59.9942 22.5705ZM56.9823 16.2809C57.6308 18.1304 58.2794 20.1646 58.8974 22.2503C58.2904 22.9112 58.6445 24.1441 58.6542 24.223C58.4814 24.4741 56.0359 24.6294 55.1663 26.4915C54.8677 27.1488 53.7032 30.5722 52.8701 31.6133C52.0627 32.8609 49.2592 34.1376 49.4056 35.9185C46.3839 36.0822 41.5761 36.0224 41.0443 35.9648C42.1245 27.4278 44.8412 14.2289 44.8807 14.2275C44.3595 16.9938 45.5544 17.7937 47.8432 18.7094C48.887 19.1268 49.6815 19.4223 50.4029 19.4223C52.1361 19.4223 52.5103 17.7566 52.4448 16.0704C52.4314 15.7264 52.3969 15.0969 52.4981 15.0462C53.0769 14.846 56.2623 16.2418 56.9823 16.2809ZM55.091 14.7106C52.4934 13.777 51.3932 13.5989 51.4911 16.1077C51.5402 17.3745 51.4591 18.468 50.4029 18.468C49.8098 18.468 48.9903 18.1401 48.1975 17.8227C46.4198 17.268 45.0993 16.2659 45.9252 14.1816C49.1556 14.038 52.6701 13.8711 55.9875 13.5977C56.1889 14.1074 56.3917 14.644 56.5953 15.2003C56.0933 15.0677 55.5849 14.8882 55.091 14.7106ZM45.3715 13.2501C45.2429 13.2562 45.2273 13.2619 45.0989 13.2674C45.5792 11.2021 46.0367 9.3754 46.4466 7.81444C46.4947 7.83692 48.9509 9.79459 48.9075 10.4846C48.9051 11.4151 46.9486 11.0383 45.3715 13.2501ZM44.1106 13.3093C42.0505 13.3913 40.0692 13.3383 38.1989 13.1952C37.0112 12.1797 35.4573 11.5504 33.6865 11.5504C33.286 11.5504 32.8974 11.584 32.5208 11.6453C33.6342 10.4872 34.7304 9.44484 35.7838 8.51414C39.9512 10.2015 44.0524 8.40702 44.0524 8.40702C44.0524 8.40702 44.6584 7.90064 45.4849 7.72212C45.0657 9.32372 44.599 11.1962 44.1106 13.3093ZM30.7715 12.1158C29.7786 11.9032 28.8631 11.6787 28.0318 11.4564C27.8095 11.1536 27.573 10.8961 27.325 10.7026C28.2557 10.2599 30.4955 9.23889 30.4955 9.23889C30.9464 8.72363 33.1312 6.03826 34.8251 8.09159C33.517 9.26532 32.1509 10.6018 30.7715 12.1158ZM29.6338 12.8366C29.4192 12.9909 29.2146 13.1566 29.0203 13.3331C28.9249 13.0873 28.8248 12.8457 28.7148 12.6163C29.0117 12.6899 29.32 12.7634 29.6338 12.8366ZM33.6865 12.5048C37.2037 12.5048 39.6914 15.4516 39.6914 18.51C39.6914 23.72 35.3228 28.3433 33.6869 29.892C32.0499 28.3409 27.6811 23.7131 27.6811 18.51C27.6811 15.3376 30.3436 12.5048 33.6865 12.5048ZM33.6865 31.1776C33.6865 31.1776 40.646 25.4287 40.646 18.51C40.646 16.924 40.1027 15.4117 39.1612 14.2045C41.7637 14.3508 43.5785 14.2814 43.8906 14.2703C42.581 20.0569 41.148 27.4974 40.0761 36.0185C36.0446 35.9873 32.3981 35.7656 29.1188 35.4241C28.5005 34.1851 23.2036 30.0331 25.3457 26.27C25.511 26.0084 26.5821 24.7025 27.634 22.9563C29.5186 27.7164 33.6865 31.1776 33.6865 31.1776ZM24.5391 25.7603C21.9628 29.9616 27.6612 35.0022 27.8732 35.287C24.5446 34.8984 21.6164 34.3885 19.0874 33.8304C21.1958 27.8391 23.6273 23.1507 26.7338 18.7416C26.7567 19.7531 26.9236 20.7399 27.197 21.6856C26.0582 23.706 24.7328 25.4451 24.5391 25.7603ZM28.5678 36.3396C29.4804 37.8866 30.4243 40.1757 30.53 42.7125C30.6306 45.1274 34.6939 47.983 38.8475 48.8321C38.5573 53.2548 38.3968 57.8532 38.4185 62.5718C28.4617 62.3836 20.6103 61.3772 14.7778 60.2374C14.8235 50.2029 16.4131 41.769 18.7643 34.7686C21.5461 35.3825 24.8075 35.9388 28.5678 36.3396ZM38.4248 63.5268C38.5118 73.2031 39.1085 80.4431 39.9202 85.8492C32.9331 85.8882 25.4419 85.2483 20.4152 84.7084C15.8239 76.4907 14.8306 67.2892 14.778 61.2067C20.6523 62.3444 28.5074 63.3406 38.4248 63.5268ZM39.3792 63.543C42.821 63.6838 47.1905 63.6868 51.4713 63.612C51.306 64.8717 51.3181 66.0175 51.6666 66.5406C51.9793 67.0101 53.2899 70.0389 54.079 71.8691C52.8437 73.1494 52.1144 74.8901 52.1144 76.7296C52.1144 80.1652 53.8437 83.323 55.5782 85.6263C49.0389 85.7951 41.7073 85.8334 40.8727 85.8413C40.068 80.4995 39.4677 73.2776 39.3792 63.543ZM63.3122 86.2648C64.5351 86.1855 65.7713 86.0924 67.0159 85.9847C66.6732 86.3323 63.2463 88.2359 62.6691 88.6123C62.8972 87.8678 63.113 87.085 63.3122 86.2648ZM63.5533 85.2915C63.6823 84.7506 63.8081 84.1882 63.9306 83.608C65.1067 81.6184 66.0335 79.2528 66.0335 76.7294C66.0335 75.6953 65.8029 74.6928 65.3819 73.7854C65.6831 70.5863 65.8771 67.0137 65.9216 63.022C67.9921 62.9105 70.0934 62.7032 72.157 62.4397C74.2149 66.0303 77.1441 68.4634 77.1441 68.4634C77.1441 68.4634 79.8667 66.2141 81.9063 62.8368C83.2396 63.6079 83.7002 64.7952 82.6271 67.0837C81.7763 68.8989 81.3249 70.4327 80.9266 71.7861C80.1516 74.4194 79.6395 76.1591 76.7754 77.6437C71.0793 80.6889 73.728 82.6933 69.5555 84.7835C67.5347 84.9936 65.5273 85.1601 63.5533 85.2915ZM71.6546 61.4993C69.7699 61.7263 67.8608 61.9143 65.9277 62.0658C65.9402 59.1412 65.8427 56.2717 65.6569 53.4727C66.0929 53.6311 66.9756 54.5618 69.284 55.3349C69.6129 55.4596 69.9123 55.5752 70.1875 55.6841C70.1867 55.7212 70.1845 55.7587 70.1845 55.7957C70.1845 57.8361 70.7963 59.776 71.6546 61.4993ZM71.1389 55.7959C71.1389 52.6235 73.8016 49.7908 77.1443 49.7908C80.6615 49.7908 83.1492 52.7379 83.1492 55.7959C83.1492 61.0057 78.7806 65.6296 77.1447 67.1778C75.5076 65.6269 71.1389 60.999 71.1389 55.7959ZM77.2149 78.4914C80.4406 76.8189 81.0284 74.8212 81.8426 72.0554C82.2314 70.7353 82.6717 69.2384 83.4917 67.4893C84.4806 65.3797 84.6514 63.3487 82.3783 62.0055C82.6419 61.5149 82.8863 61.0051 83.1047 60.478C85.0818 60.0192 86.7884 59.5612 88.0872 59.1597C88.029 69.6041 85.3296 77.3164 81.997 82.8624C78.5855 83.593 75.1091 84.1403 71.6567 84.551C73.776 82.9677 72.9648 80.606 77.2149 78.4914ZM83.5053 59.3925C83.8756 58.2493 84.1038 57.0419 84.1038 55.7959C84.1038 52.1189 81.1894 48.8364 77.1443 48.8364C73.5093 48.8364 70.7886 51.4873 70.2739 54.6928C70.067 54.6124 69.8529 54.5303 69.6227 54.4425C67.8704 53.9055 66.2836 52.629 65.5776 52.3817C65.1395 46.5414 64.3248 41.0227 63.3242 35.9857C70.4968 35.2965 76.9734 34.2695 82.3328 32.9715C85.6186 40.0384 87.9777 48.4533 88.086 58.1249C86.5874 58.594 85.0582 59.013 83.5053 59.3925ZM73.7262 8.40012C72.2095 9.47916 70.0824 10.3025 67.566 10.9372C63.8247 7.32601 60.3747 4.68403 58.0269 3.03706C63.6355 3.91666 68.9272 5.76346 73.7262 8.40012ZM55.9159 2.75556C57.9744 4.10525 61.9765 6.93581 66.4598 11.1989C63.5207 11.8521 60.1374 12.2823 56.6275 12.5877C54.7974 7.75545 53.169 4.25123 52.3058 2.48807C53.5209 2.53265 54.725 2.62221 55.9159 2.75556ZM51.2277 2.46005C51.9823 3.97269 53.6862 7.54517 55.638 12.6701C52.695 12.9057 49.5717 13.0607 46.6798 13.1919C47.5763 12.0848 49.6999 12.0641 49.8597 10.545C49.9991 8.92406 47.2522 7.08495 46.6942 6.88295C47.2313 4.88149 47.6681 3.40081 47.9369 2.51904C48.786 2.47386 50.9855 2.45631 51.2277 2.46005ZM46.9204 2.58354C46.6413 3.51109 46.2339 4.91384 45.7463 6.73441C44.7252 6.77425 43.8202 7.38795 43.575 7.56884C43.2448 7.69233 39.9928 8.98817 36.6336 7.77853C39.39 5.44291 41.7897 3.88609 43.3395 2.98143C44.5197 2.80566 45.7135 2.67192 46.9204 2.58354ZM40.8369 3.42074C39.3541 4.40292 37.5485 5.72283 35.5844 7.42168C32.8177 5.01346 31.2486 7.29346 29.8733 8.44233C29.5887 8.57647 25.4299 10.5574 25.3358 10.6578C24.8926 10.5124 24.5032 10.3777 24.1727 10.2591C29.1695 7.00624 34.8002 4.64931 40.8369 3.42074ZM23.1927 10.9141C24.0045 11.2232 25.4808 11.7457 27.4649 12.2894C27.7716 12.7767 28.0634 13.4042 28.2999 14.0936C27.6633 14.8769 27.198 15.7952 26.9451 16.7833C20.8666 25.061 18.2703 33.1907 18.1232 33.6116C11.7172 32.1118 8.05317 30.3619 6.94 29.7796C10.6346 22.1677 16.2681 15.6654 23.1927 10.9141ZM6.53068 30.6481C7.74938 31.2967 11.4106 33.0514 17.8064 34.55C15.223 42.2935 13.8861 50.8537 13.8273 60.0462C7.62294 58.7715 3.88219 57.3824 2.47884 56.8052C1.06129 46.2585 3.69557 36.7971 6.53068 30.6481ZM2.6262 57.8909C4.38324 58.575 8.08454 59.8494 13.8222 61.0176C13.8551 67.0657 14.7963 76.2524 19.2557 84.5809C17.5487 84.3888 16.2137 84.2196 15.3978 84.1118C8.69843 77.0474 4.10411 67.9688 2.6262 57.8909ZM16.4766 85.2126C17.3633 85.3235 18.4986 85.4592 19.8234 85.604C20.9338 87.5314 22.2464 89.4009 23.7859 91.1655C21.1587 89.4191 18.7106 87.4239 16.4766 85.2126ZM27.0678 93.1636C24.5929 90.9033 22.6027 88.3791 21.0074 85.731C27.0852 86.5351 39.8123 86.8033 40.068 86.8014C41.0628 92.9706 42.3352 96.5988 43.3892 98.7052C37.5452 97.8408 32.0395 95.9275 27.0678 93.1636ZM44.5286 98.8606C43.5059 97.0367 42.1056 93.491 41.0216 86.7943C41.8623 86.7864 49.6877 86.7465 56.3213 86.5639C56.3673 86.6195 56.413 86.6737 56.4588 86.7276C55.6729 88.7943 54.8105 90.697 54.0354 91.7703C51.8138 94.8465 53.7947 96.8404 54.6353 97.1939C54.6353 97.1939 58.5025 93.7931 60.5815 91.7985C59.0966 95.3365 57.3157 97.7508 56.3339 98.8764C54.4211 99.1072 50.0451 99.48 44.5286 98.8606ZM57.7679 98.6831C58.7443 97.4072 60.6057 94.5744 62.1404 90.2208C63.1826 89.3137 69.2029 85.8561 69.8135 85.718C73.6266 85.3185 77.4924 84.7632 81.2912 83.9874C77.6148 89.772 72.8589 93.3531 69.4456 95.3641C65.7634 96.9369 61.8483 98.0656 57.7679 98.6831ZM75.0546 92.5201C77.1969 90.6697 80.2216 87.6599 82.6186 83.7063C84.0734 83.3875 85.5148 83.0324 86.9387 82.6428C83.5384 86.5335 79.5263 89.8756 75.0546 92.5201ZM88.0414 81.3344C86.4814 81.792 84.8974 82.207 83.2932 82.5748C84.0452 81.2594 89.1889 72.2365 89.0455 58.8563C92.513 57.7291 95.7135 56.3743 98.7281 54.7777C97.9173 64.7968 94.0415 73.9617 88.0414 81.3344ZM89.0329 57.8215C88.9013 49.4395 87.4102 41.9645 83.3025 32.7311C86.3128 31.9635 88.941 31.1076 91.1103 30.1757C91.2726 32.0949 91.2758 33.659 91.0188 34.3932C89.1286 39.0211 92.3535 39.2404 92.215 42.4665C92.1558 44.6808 93.4502 45.7557 93.7156 46.5886C94.5699 48.1912 95.4533 49.8484 96.6734 49.8488H96.6738C97.3545 49.8488 98.4346 48.941 98.8356 48.5679C98.9565 50.6913 98.8587 52.7188 98.8054 53.6487C95.7139 55.3209 92.4497 56.6982 89.0329 57.8215Z" fill="#87AB42"/>
</svg>
