<svg width="43" height="47" viewBox="0 0 43 47" fill="none" xmlns="http://www.w3.org/2000/svg">
<g clip-path="url(#clip0_0_6729)">
<path d="M23.4552 20.097C23.3944 19.9762 23.3663 19.8402 23.3739 19.7038C23.3815 19.5674 23.4244 19.4358 23.4982 19.3231L27.1503 13.7422H21.1418L15.0078 22.7498H19.6661C19.7776 22.7498 19.8875 22.777 19.9871 22.8293C20.0868 22.8816 20.1734 22.9575 20.2401 23.051C20.3068 23.1445 20.3518 23.253 20.3715 23.3679C20.3911 23.4828 20.385 23.6009 20.3534 23.7128L18.0809 31.7941L27.7752 20.4979H24.0887C23.9583 20.4978 23.8303 20.4604 23.7187 20.3897C23.6071 20.3191 23.5159 20.2179 23.4552 20.097Z" fill="#87AB42"/>
<path d="M42.6106 18.3355C42.7566 18.2573 42.8725 18.129 42.9391 17.972C43.0057 17.8151 43.0189 17.6389 42.9764 17.473C42.934 17.3071 42.8385 17.1615 42.706 17.0604C42.5734 16.9593 42.4117 16.9089 42.2479 16.9176C40.5795 16.9926 38.7248 15.7308 37.6304 13.7454C36.5361 11.76 36.4121 9.44053 37.3165 7.97155C37.4051 7.82738 37.4438 7.65582 37.4264 7.48539C37.4089 7.31496 37.3363 7.15593 37.2205 7.03472C37.1048 6.91352 36.953 6.83745 36.7903 6.81916C36.6275 6.80086 36.4638 6.84145 36.3261 6.93417C34.9236 7.88372 32.7077 7.75236 30.8128 6.6054C28.9179 5.45843 27.701 3.51579 27.7849 1.76907C27.7932 1.59753 27.745 1.4282 27.6485 1.28934C27.552 1.15047 27.413 1.05047 27.2546 1.00603C27.0962 0.961589 26.928 0.975391 26.7781 1.04513C26.6283 1.11487 26.5058 1.23634 26.4311 1.38925C25.6707 2.94606 23.6891 3.99169 21.5004 3.99169C19.3117 3.99169 17.3301 2.94606 16.5698 1.38925C16.4951 1.23634 16.3726 1.11487 16.2227 1.04513C16.0729 0.975391 15.9047 0.961589 15.7463 1.00603C15.5879 1.05047 15.4488 1.15047 15.3523 1.28934C15.2558 1.4282 15.2077 1.59753 15.216 1.76907C15.2998 3.51579 14.0829 5.45918 12.1881 6.6054C10.2932 7.75161 8.07797 7.88147 6.67474 6.93417C6.5371 6.84145 6.3733 6.80086 6.21058 6.81916C6.04787 6.83745 5.89603 6.91352 5.78031 7.03472C5.66459 7.15593 5.59196 7.31496 5.57449 7.48539C5.55703 7.65582 5.59578 7.82738 5.68431 7.97155C6.59376 9.44053 6.46476 11.7607 5.37041 13.7454C4.27605 15.7301 2.43207 17.0047 0.752921 16.9176C0.589143 16.9089 0.427473 16.9593 0.294891 17.0604C0.16231 17.1615 0.0668371 17.3071 0.0244059 17.473C-0.0180252 17.6389 -0.00484814 17.8151 0.0617382 17.972C0.128324 18.129 0.244292 18.2573 0.390288 18.3355C1.87665 19.1319 2.87497 21.2074 2.87497 23.4999C2.87497 25.7923 1.87665 27.8678 0.390288 28.6642C0.244292 28.7424 0.128324 28.8707 0.0617382 29.0277C-0.00484814 29.1847 -0.0180252 29.3608 0.0244059 29.5267C0.0668371 29.6926 0.16231 29.8383 0.294891 29.9394C0.427473 30.0404 0.589143 30.0909 0.752921 30.0822C2.42275 29.9996 4.27605 31.2682 5.37041 33.2543C6.46476 35.2405 6.58874 37.5592 5.68431 39.0282C5.59578 39.1724 5.55703 39.3439 5.57449 39.5143C5.59196 39.6848 5.66459 39.8438 5.78031 39.965C5.89603 40.0862 6.04787 40.1623 6.21058 40.1806C6.3733 40.1989 6.5371 40.1583 6.67474 40.0656L12.1881 40.3943C14.0829 41.5406 15.2998 43.4839 15.216 45.2307C15.2077 45.4022 15.2558 45.5715 15.3523 45.7104C15.4488 45.8493 15.5879 45.9493 15.7463 45.9937C15.9047 46.0382 16.0729 46.0243 16.2227 45.9546C16.3726 45.8849 16.4951 45.7634 16.5698 45.6105C17.3301 44.0537 19.3117 43.008 21.5004 43.008C23.6891 43.008 25.6707 44.0537 26.4311 45.6105C26.5058 45.7634 26.6283 45.8849 26.7781 45.9546C26.928 46.0243 27.0962 46.0382 27.2546 45.9937C27.413 45.9493 27.552 45.8493 27.6485 45.7104C27.745 45.5715 27.7932 45.4022 27.7849 45.2307C27.701 43.4839 28.9179 41.5406 30.8128 40.3943C32.7077 39.2481 34.9229 39.1183 36.3261 40.0656C36.4638 40.1583 36.6275 40.1989 36.7903 40.1806C36.953 40.1623 37.1048 40.0862 37.2205 39.965C37.3363 39.8438 37.4089 39.6848 37.4264 39.5143C37.4438 39.3439 37.4051 39.1724 37.3165 39.0282C36.4071 37.5592 36.5361 35.239 37.6304 33.2581C38.7248 31.2772 40.5774 30.0146 42.2479 30.0859C42.412 30.0962 42.5744 30.0464 42.7072 29.9451C42.84 29.8438 42.9351 29.6972 42.9761 29.5304C43.0185 29.3646 43.0054 29.1885 42.9389 29.0315C42.8724 28.8746 42.7565 28.7463 42.6106 28.668C41.1242 27.8716 40.1259 25.7961 40.1259 23.5036C40.1259 21.2112 41.1242 19.1319 42.6106 18.3355ZM21.5004 40.0138C18.3821 40.0138 15.3337 39.0453 12.7409 37.2307C10.1481 35.4161 8.12726 32.837 6.93392 29.8195C5.74058 26.8019 5.42835 23.4816 6.03671 20.2782C6.64507 17.0748 8.1467 14.1323 10.3517 11.8228C12.5567 9.51327 15.3661 7.94047 18.4245 7.30328C21.4829 6.66608 24.6531 6.99311 27.5341 8.24301C30.415 9.49291 32.8775 11.6095 34.6099 14.3252C36.3424 17.0409 37.2671 20.2337 37.2671 23.4999C37.2624 27.8781 35.5997 32.0756 32.6439 35.1715C29.6881 38.2674 25.6805 40.0088 21.5004 40.0138Z" fill="#87AB42"/>
</g>
<defs>
<clipPath id="clip0_0_6729">
<rect width="43" height="45.0379" fill="white" transform="translate(0 0.980469)"/>
</clipPath>
</defs>
</svg>
