<svg width="43" height="47" viewBox="0 0 43 47" fill="none" xmlns="http://www.w3.org/2000/svg">
<g clip-path="url(#clip0_0_6742)">
<path d="M41.92 16.2189H34.5903L35.6842 4.19531L25.8535 21.0714H33.1193L31.8389 32.8858L41.92 16.2189Z" fill="#87AB42"/>
<path d="M21.364 23.7086L23.7019 19.6952L27.3973 13.3513C27.3928 13.3479 27.3884 13.3442 27.3839 13.3407L30.7249 7.27971L28.543 5.96024L25.2029 12.0197C24.0658 11.4902 22.8482 11.1473 21.5892 11.0095V0.980469H19.0697V11.0091C17.7965 11.149 16.5822 11.4986 15.4585 12.0239L12.1161 5.96015L9.93421 7.27962L13.2788 13.3472C12.267 14.1202 11.3748 15.0546 10.6367 16.1144L2.33993 11.0973L1.08016 13.3826L9.37328 18.3976C8.87173 19.5745 8.53797 20.8464 8.40444 22.18H1.72071V24.8189H8.40444C8.53797 26.1524 8.87173 27.4243 9.37328 28.6013L1.08008 33.6162L2.33984 35.9016L10.6367 30.8844C11.3747 31.9441 12.2669 32.8787 13.2787 33.6517L9.93413 39.7192L12.116 41.0387L15.4585 34.975C16.5822 35.5004 17.7966 35.8499 19.0698 35.9898V46.0184H21.5893V35.9897C22.8625 35.8498 24.0768 35.5003 25.2006 34.9749L28.4392 40.8501L28.9171 36.4394L27.3805 33.6516C28.137 33.0737 28.8265 32.4052 29.4349 31.6618L30.2968 23.7086H25.8528H21.364Z" fill="#87AB42"/>
<path d="M35.7713 31.3125L34.4219 33.5436L38.3198 35.9007L39.5796 33.6154L35.7713 31.3125Z" fill="#87AB42"/>
</g>
<defs>
<clipPath id="clip0_0_6742">
<rect width="43" height="45.0379" fill="white" transform="translate(0 0.980469)"/>
</clipPath>
</defs>
</svg>
