<svg width="43" height="48" viewBox="0 0 43 48" fill="none" xmlns="http://www.w3.org/2000/svg">
<g clip-path="url(#clip0_0_6762)">
<path d="M11.4532 2.02344L11.2695 6.52491L14.8657 4.53531L11.4532 2.02344Z" fill="#87AB42"/>
<path d="M31.235 44.746L31.3772 40.2383L27.7988 42.2714L31.235 44.746Z" fill="#87AB42"/>
<path d="M11.623 40.2383L11.7652 44.746L15.2014 42.2714L11.623 40.2383Z" fill="#87AB42"/>
<path d="M21.2799 -0.6875L19.2656 3.24196H23.2942L21.2799 -0.6875Z" fill="#87AB42"/>
<path d="M0.113281 18.4962L3.18807 21.493L4.04711 17.1719L0.113281 18.4962Z" fill="#87AB42"/>
<path d="M8.27699 9.36664L4.21875 8.66406L5.77688 12.836L8.27699 9.36664Z" fill="#87AB42"/>
<path d="M3.34197 25.9805L0.302734 29.0208L4.24841 30.2892L3.34197 25.9805Z" fill="#87AB42"/>
<path d="M8.66762 37.7561L6.16158 34.293L4.60938 38.4649L8.66762 37.7561Z" fill="#87AB42"/>
<path d="M23.8997 43.3477L19.8711 43.3601L21.8913 47.2833L23.8997 43.3477Z" fill="#87AB42"/>
<path d="M39.8122 21.493L42.887 18.4962L38.9531 17.1719L39.8122 21.493Z" fill="#87AB42"/>
<path d="M34.7227 9.36664L37.2168 12.836L38.7809 8.66406L34.7227 9.36664Z" fill="#87AB42"/>
<path d="M42.6976 29.0208L39.6584 25.9805L38.752 30.2892L42.6976 29.0208Z" fill="#87AB42"/>
<path d="M28.1348 4.53531L31.7309 6.52491L31.5472 2.02344L28.1348 4.53531Z" fill="#87AB42"/>
<path d="M34.332 37.76L38.3903 38.4688L36.8381 34.2969L34.332 37.76Z" fill="#87AB42"/>
<path d="M22.5665 19.9837C22.538 19.9432 22.5193 19.8959 22.5121 19.8461C22.5049 19.7963 22.5093 19.7454 22.525 19.6977L24.7585 12.5352H18.2831L13.3125 25.1256H21.0735C21.1208 25.1263 21.1674 25.1385 21.2095 25.1611C21.2516 25.1838 21.2882 25.2163 21.3164 25.2562C21.3455 25.2964 21.3649 25.3434 21.3731 25.3931C21.3814 25.4429 21.3782 25.494 21.3638 25.5422L17.9454 36.9513L29.7943 20.1205H22.8153C22.7664 20.1206 22.7182 20.1081 22.6748 20.0843C22.6315 20.0605 22.5943 20.026 22.5665 19.9837Z" fill="#87AB42"/>
</g>
<defs>
<clipPath id="clip0_0_6762">
<rect width="43" height="47.1327" fill="white" transform="translate(0 0.03125)"/>
</clipPath>
</defs>
</svg>
