<svg width="87" height="65" viewBox="0 0 87 65" fill="none" xmlns="http://www.w3.org/2000/svg">
<path d="M0.490285 3.94876C5.40068 19.6083 16.3299 32.6763 30.8742 40.2787C45.4185 47.8811 62.3869 49.3954 78.0475 44.4884L69.4876 60.8249C69.193 61.4644 69.1556 62.1926 69.3832 62.8589C69.6108 63.5251 70.0858 64.0784 70.71 64.404C71.3342 64.7297 72.0598 64.8028 72.7364 64.6083C73.413 64.4138 73.989 63.9665 74.3449 63.3591L85.9742 41.1648C86.1417 40.8457 86.2446 40.4966 86.2771 40.1377C86.3095 39.7787 86.2709 39.4169 86.1635 39.0728C86.056 38.7288 85.8818 38.4093 85.6508 38.1327C85.4198 37.856 85.1365 37.6276 84.8171 37.4605L62.6229 25.8312C62.3037 25.6639 61.9546 25.5612 61.5957 25.5288C61.2368 25.4965 60.875 25.5351 60.5311 25.6425C60.1871 25.75 59.8676 25.9241 59.5909 26.155C59.3143 26.3859 59.0858 26.6691 58.9185 26.9883C58.7513 27.3075 58.6485 27.6565 58.6161 28.0154C58.5838 28.3743 58.6224 28.7361 58.7299 29.0801C58.8373 29.4241 59.0114 29.7435 59.2423 30.0202C59.4732 30.2969 59.7564 30.5254 60.0756 30.6926L76.4121 39.2526C62.1401 43.7258 46.6757 42.3472 33.42 35.42C20.1643 28.4928 10.2028 16.5842 5.72613 2.31331C5.50925 1.619 5.02545 1.03927 4.38114 0.701663C3.73683 0.364065 2.9848 0.296242 2.29048 0.513116C1.59617 0.72999 1.01644 1.21379 0.678836 1.8581C0.341235 2.50241 0.273411 3.25444 0.490285 3.94876Z" fill="#87AB42"/>
</svg>
