<svg width="777" height="706" viewBox="0 0 777 706" fill="none" xmlns="http://www.w3.org/2000/svg">
<path d="M757.104 689.25H338.354C328.304 689.25 321.604 682.55 321.604 672.5V-64.5002C321.604 -74.5502 328.304 -81.2502 338.354 -81.2502H760.454C770.504 -81.2502 777.204 -74.5502 777.204 -64.5002V672.5C773.854 682.55 767.154 689.25 757.104 689.25ZM355.104 655.75H743.704V-47.7502H355.104V655.75Z" fill="#87AB42" fill-opacity="0.06"/>
<path d="M629.804 689.251H465.654C455.604 689.251 448.904 682.551 448.904 672.501V548.551C448.904 538.501 455.604 531.801 465.654 531.801H629.804C639.854 531.801 646.554 538.501 646.554 548.551V672.501C646.554 682.551 639.854 689.251 629.804 689.251ZM482.404 655.751H613.054V565.301H482.404V655.751Z" fill="#87AB42" fill-opacity="0.06"/>
<path d="M546.051 689.251C536.001 689.251 529.301 682.551 529.301 672.501V548.551C529.301 538.501 536.001 531.801 546.051 531.801C556.101 531.801 562.801 538.501 562.801 548.551V672.501C562.801 682.551 556.101 689.251 546.051 689.251Z" fill="#87AB42" fill-opacity="0.06"/>
<path d="M391.951 468.148H445.551V501.648H391.951V468.148Z" fill="#87AB42" fill-opacity="0.06"/>
<path d="M479.051 468.148H532.651V501.648H479.051V468.148Z" fill="#87AB42" fill-opacity="0.06"/>
<path d="M566.15 468.148H619.75V501.648H566.15V468.148Z" fill="#87AB42" fill-opacity="0.06"/>
<path d="M653.25 468.148H706.85V501.648H653.25V468.148Z" fill="#87AB42" fill-opacity="0.06"/>
<path d="M391.951 377.699H445.551V411.199H391.951V377.699Z" fill="#87AB42" fill-opacity="0.06"/>
<path d="M479.051 377.699H532.651V411.199H479.051V377.699Z" fill="#87AB42" fill-opacity="0.06"/>
<path d="M566.15 377.699H619.75V411.199H566.15V377.699Z" fill="#87AB42" fill-opacity="0.06"/>
<path d="M653.25 377.699H706.85V411.199H653.25V377.699Z" fill="#87AB42" fill-opacity="0.06"/>
<path d="M391.951 290.601H445.551V324.101H391.951V290.601Z" fill="#87AB42" fill-opacity="0.06"/>
<path d="M479.051 290.601H532.651V324.101H479.051V290.601Z" fill="#87AB42" fill-opacity="0.06"/>
<path d="M566.15 290.601H619.75V324.101H566.15V290.601Z" fill="#87AB42" fill-opacity="0.06"/>
<path d="M653.25 290.601H706.85V324.101H653.25V290.601Z" fill="#87AB42" fill-opacity="0.06"/>
<path d="M391.951 200.148H445.551V233.648H391.951V200.148Z" fill="#87AB42" fill-opacity="0.06"/>
<path d="M479.051 200.148H532.651V233.648H479.051V200.148Z" fill="#87AB42" fill-opacity="0.06"/>
<path d="M566.15 200.148H619.75V233.648H566.15V200.148Z" fill="#87AB42" fill-opacity="0.06"/>
<path d="M653.25 200.148H706.85V233.648H653.25V200.148Z" fill="#87AB42" fill-opacity="0.06"/>
<path d="M391.951 109.699H445.551V143.199H391.951V109.699Z" fill="#87AB42" fill-opacity="0.06"/>
<path d="M479.051 109.699H532.651V143.199H479.051V109.699Z" fill="#87AB42" fill-opacity="0.06"/>
<path d="M566.15 109.699H619.75V143.199H566.15V109.699Z" fill="#87AB42" fill-opacity="0.06"/>
<path d="M653.25 109.699H706.85V143.199H653.25V109.699Z" fill="#87AB42" fill-opacity="0.06"/>
<path d="M391.951 19.2498H445.551V52.7498H391.951V19.2498Z" fill="#87AB42" fill-opacity="0.06"/>
<path d="M479.051 19.2498H532.651V52.7498H479.051V19.2498Z" fill="#87AB42" fill-opacity="0.06"/>
<path d="M566.15 19.2498H619.75V52.7498H566.15V19.2498Z" fill="#87AB42" fill-opacity="0.06"/>
<path d="M653.25 19.2498H706.85V52.7498H653.25V19.2498Z" fill="#87AB42" fill-opacity="0.06"/>
<path d="M338.352 689.251H221.102C211.052 689.251 204.352 682.551 204.352 672.501V307.351C204.352 297.301 211.052 290.601 221.102 290.601H338.352C348.402 290.601 355.102 297.301 355.102 307.351V672.501C355.102 682.551 345.052 689.251 338.352 689.251ZM237.852 655.751H321.602V324.101H237.852V655.751Z" fill="#87AB42" fill-opacity="0.06"/>
<path d="M147.404 210.199C117.254 210.199 90.4544 200.149 70.3544 176.699C50.2544 156.599 36.8544 129.799 40.2044 99.6489C40.2044 69.4989 50.2544 42.6989 73.7044 22.5989C113.904 -17.6011 187.604 -17.6011 227.804 22.5989C247.904 42.6989 261.304 69.4989 261.304 99.6489C261.304 129.799 251.254 156.599 227.804 176.699C204.354 196.799 177.554 210.199 147.404 210.199ZM147.404 25.9489C127.304 25.9489 107.204 32.6489 93.8044 49.3989C80.4044 62.7989 70.3544 82.8989 70.3544 102.999C70.3544 123.099 77.0544 143.199 93.8044 156.599C120.604 183.399 170.854 183.399 201.004 156.599C214.404 143.199 224.454 123.099 224.454 102.999C224.454 82.8989 217.754 62.7989 201.004 49.3989C187.604 32.6489 167.504 25.9489 147.404 25.9489Z" fill="#87AB42" fill-opacity="0.06"/>
<path d="M248.947 -22.9066L272.632 0.811387L213.337 60.0226L189.652 36.3046L248.947 -22.9066Z" fill="#87AB42" fill-opacity="0.06"/>
<path d="M80.7559 143.125L104.407 166.876L45.0281 226.004L21.3771 202.252L80.7559 143.125Z" fill="#87AB42" fill-opacity="0.06"/>
<path d="M212.27 141.761L271.481 201.056L247.763 224.741L188.552 165.446L212.27 141.761Z" fill="#87AB42" fill-opacity="0.06"/>
<path d="M46.2617 -21.6918L105.557 37.5195L81.8722 61.2375L22.5772 2.02623L46.2617 -21.6918Z" fill="#87AB42" fill-opacity="0.06"/>
</svg>
