<svg width="50" height="50" viewBox="0 0 50 50" fill="none" xmlns="http://www.w3.org/2000/svg">
<g clip-path="url(#clip0_0_11959)">
<path d="M13.2212 50.0011C13.0554 50.0011 12.8882 49.9734 12.7265 49.9163C12.1873 49.7254 11.8057 49.2418 11.7455 48.6731L11.0617 42.2048L4.59379 41.5213C4.02494 41.4613 3.54145 41.0795 3.35062 40.5404C3.1599 40.0012 3.29594 39.4003 3.70043 38.9959L15.4803 27.2159C16.0598 26.6364 16.9996 26.6364 17.5792 27.2159L26.0509 35.6875C26.6305 36.267 26.6305 37.2069 26.0509 37.7865L14.2709 49.5664C13.9878 49.8496 13.6084 50.0011 13.2212 50.0011Z" fill="#FFDA68"/>
<path d="M36.7798 50.001C36.3927 50.001 36.0133 49.8496 35.7302 49.5663L23.9503 37.7865C23.3707 37.207 23.3707 36.2671 23.9503 35.6875L32.422 27.2159C33.0015 26.6364 33.9413 26.6364 34.5209 27.2159L46.3007 38.9957C46.7052 39.4 46.8412 40.0009 46.6504 40.5401C46.4597 41.0792 45.9761 41.461 45.4072 41.521L38.9395 42.2045L38.2556 48.6728C38.1954 49.2416 37.8138 49.7251 37.2746 49.916C37.1129 49.9733 36.9455 50.001 36.7798 50.001Z" fill="#FFA918"/>
<path d="M45.1301 16.8917C44.6917 14.4059 43.0513 12.3351 40.8059 11.3154C41.0455 8.86094 40.0724 6.40498 38.1387 4.78252C36.2049 3.15986 33.6176 2.62793 31.2419 3.29033C29.8479 1.25566 27.524 0 24.9997 0C22.4753 0 20.1514 1.25566 18.7572 3.29023C16.3815 2.62764 13.7941 3.15986 11.8604 4.78242C9.9268 6.40488 8.95366 8.86104 9.19321 11.3153C6.9476 12.335 5.30737 14.4056 4.86909 16.8916C4.43071 19.3775 5.26381 21.8843 7.02524 23.6104C5.96069 25.8349 6.0351 28.4757 7.29711 30.6617C8.55922 32.8479 10.8087 34.2327 13.2677 34.4228C13.882 36.811 15.6365 38.7862 18.0083 39.6495C20.3803 40.5126 22.9937 40.1277 24.9996 38.6928C26.2918 39.6172 27.8358 40.1058 29.4052 40.1057C30.2721 40.1057 31.1468 39.9565 31.9908 39.6494C34.3629 38.7859 36.1172 36.8112 36.7315 34.4227C39.1903 34.2324 41.4401 32.8476 42.7021 30.6616C43.9641 28.4756 44.0386 25.8349 42.974 23.6104C44.7355 21.8844 45.5685 19.3776 45.1301 16.8917Z" fill="#87AB42"/>
<path d="M24.9989 32.6932C18.2879 32.6932 12.8281 27.2334 12.8281 20.5224C12.8281 13.8113 18.2879 8.35156 24.9989 8.35156C31.71 8.35156 37.1697 13.8113 37.1697 20.5224C37.1697 27.2334 31.7098 32.6932 24.9989 32.6932Z" fill="#E0F4FF"/>
<path d="M29.7831 26.1891H20.2186C19.3989 26.1891 18.7344 25.5246 18.7344 24.7049V18.7157C18.7344 18.2478 18.955 17.8071 19.3299 17.527L24.1124 13.9518C24.6394 13.5577 25.3629 13.5578 25.8897 13.9518L30.6718 17.527C31.0466 17.8072 31.2673 18.2477 31.2673 18.7157V24.7049C31.2673 25.5246 30.6027 26.1891 29.7831 26.1891Z" fill="#FF7029"/>
<path d="M23.5156 26.1921V22.2342C23.5156 21.4146 24.1802 20.75 24.9998 20.75C25.8195 20.75 26.4841 21.4146 26.4841 22.2342V26.1921H23.5156Z" fill="#87AB42"/>
<path d="M45.1306 16.8917C44.6922 14.4059 43.0518 12.3351 40.8063 11.3154C41.046 8.86094 40.0728 6.40498 38.1392 4.78252C36.2054 3.15986 33.6181 2.62793 31.2424 3.29033C29.8483 1.25566 27.5244 0 25.0001 0L25 38.693L25.0001 38.6929C26.2924 39.6173 27.8363 40.1059 29.4058 40.1058C30.2727 40.1058 31.1474 39.9566 31.9913 39.6495C34.3635 38.786 36.1178 36.8113 36.732 34.4228C39.1908 34.2325 41.4406 32.8477 42.7026 30.6617C43.9646 28.4757 44.0392 25.835 42.9745 23.6104C44.7359 21.8844 45.5689 19.3776 45.1306 16.8917Z" fill="#87AB42"/>
<path d="M25.0001 8.35156L25 32.6931C31.711 32.6931 37.1709 27.2333 37.1709 20.5223C37.1709 13.8112 31.7109 8.35156 25.0001 8.35156Z" fill="#B7E3FF"/>
<path d="M30.671 17.527L25.8891 13.9518C25.6255 13.7547 25.3127 13.6562 25 13.6563V26.1892H29.7824C30.602 26.1892 31.2666 25.5246 31.2666 24.705V18.7157C31.2664 18.2477 31.0458 17.8071 30.671 17.527Z" fill="#FF7029"/>
<path d="M25.0004 20.75H25V26.192H26.4847V22.2341C26.4846 21.4146 25.82 20.75 25.0004 20.75Z" fill="#87AB42"/>
</g>
<defs>
<clipPath id="clip0_0_11959">
<rect width="50" height="50" fill="white"/>
</clipPath>
</defs>
</svg>
