<svg width="46" height="48" viewBox="0 0 46 48" fill="none" xmlns="http://www.w3.org/2000/svg">
<path d="M45.8301 16.5048C46.0726 16.0249 46.0545 15.4568 45.7824 14.9929L42.2845 9.00675C42.0148 8.54067 41.5257 8.24014 40.9834 8.20722L37.001 7.9674L30.0506 4.00094L27.8458 0.714812C27.5458 0.268188 27.0394 -9.67925e-05 26.497 2.61989e-08H19.5029C18.9593 0.000580938 18.4523 0.270899 18.1534 0.719557L15.9493 4.00568L9.00218 7.96818L5.01972 8.208C4.4774 8.24159 3.98848 8.54193 3.71787 9.00753L0.217652 14.9921C-0.0540446 15.4565 -0.0719748 16.0246 0.169936 16.5048L1.95002 20.0339V27.9653L0.169936 31.4944C-0.0725627 31.9743 -0.0545345 32.5424 0.217652 33.0064L3.71551 38.9925C3.98515 39.4586 4.47427 39.7591 5.01658 39.792L8.99905 40.0318L15.9494 43.9983L18.1542 47.2852C18.4542 47.7318 18.9606 48.0001 19.503 48H26.4971C27.0407 47.9994 27.5477 47.7291 27.8466 47.2804L30.0507 43.9943L37.0011 40.0279L40.9835 39.788C41.5258 39.7544 42.0147 39.4541 42.2854 38.9885L45.7824 33.0032C46.054 32.5387 46.072 31.9707 45.8301 31.4905L44.05 27.9613V20.0339L45.8301 16.5048ZM42.5175 28.5098L44.3785 32.2068L40.8815 38.1929L36.7089 38.4472C36.5841 38.4548 36.4628 38.4909 36.3545 38.5527L29.0724 42.7103C28.9641 42.7725 28.8716 42.8583 28.8021 42.9614L26.4929 46.4041H19.5029L17.1936 42.9606C17.1242 42.8576 17.0317 42.7717 16.9234 42.7095L9.6413 38.5559C9.53304 38.4941 9.41174 38.458 9.28691 38.4504L5.11828 38.1929L1.61885 32.2068L3.47987 28.5098C3.53396 28.3986 3.56159 28.2766 3.5608 28.1532V19.8461C3.56169 19.7226 3.53396 19.6007 3.47987 19.4895L1.61885 15.7925L5.11828 9.80638L9.29093 9.55213C9.41576 9.54448 9.53705 9.50837 9.64532 9.4466L16.9274 5.29298C17.0357 5.23082 17.1282 5.14495 17.1977 5.04193L19.5069 1.59915H26.501L28.8103 5.0427C28.8797 5.14572 28.9722 5.2316 29.0805 5.29376L36.3626 9.45134C36.4709 9.51311 36.5922 9.54923 36.717 9.55688L40.8897 9.81112L44.3866 15.7972L42.5256 19.4943C42.4715 19.6055 42.4439 19.7275 42.4447 19.8508V28.1572C42.4419 28.2787 42.4668 28.3992 42.5175 28.5098Z" fill="#FF7029"/>
<path d="M31.4375 14.4053H14.5625C13.8005 14.4085 13.1428 14.9338 12.9799 15.6693L10.8997 25.2638C10.7973 25.7359 10.9163 26.2284 11.2234 26.6039C11.5305 26.9794 11.9929 27.1977 12.4814 27.1979H18.9544V28.797C17.167 28.797 15.718 30.2288 15.718 31.9951C15.718 32.8783 16.4425 33.5942 17.3362 33.5942H28.6639C29.5577 33.5942 30.2821 32.8782 30.2821 31.9951C30.2821 30.2288 28.8331 28.797 27.0457 28.797V27.1979H33.5187C34.0073 27.1977 34.4697 26.9795 34.7767 26.6039C35.0839 26.2285 35.2028 25.7359 35.1004 25.2638L33.0202 15.6693C32.8571 14.9337 32.1995 14.4084 31.4375 14.4053ZM18.9908 19.2024H22.1909V21.601H18.7116L18.9908 19.2024ZM17.0821 21.601H13.3487L13.869 19.2024H17.362L17.0821 21.601ZM23.8091 19.2024H27.0092L27.2891 21.601H23.8091V19.2024ZM28.6379 19.2024H32.1317L32.6527 21.601H28.9179L28.6379 19.2024ZM31.4383 16.0043L31.7854 17.6034H28.4511L28.265 16.0043H31.4383ZM26.8223 17.6034H23.8091V16.0043H26.6353L26.8223 17.6034ZM22.1908 16.0043V17.6034H19.1776L19.3646 16.0043H22.1908ZM17.735 16.0043L17.5489 17.6034H14.2162L14.5624 16.0043H17.735ZM13.0017 23.2001H16.8952L16.6153 25.5987H12.4815L13.0017 23.2001ZM18.5239 23.2001H22.1909V25.5987H18.244L18.5239 23.2001ZM28.6638 31.995H17.3361C17.3361 31.1118 18.0607 30.3959 18.9543 30.3959H27.0456C27.9392 30.3959 28.6638 31.1118 28.6638 31.995ZM25.4273 28.7969H20.5727V27.1978H25.4273V28.7969ZM23.8091 25.5987V23.2001H27.4761L27.756 25.5987H23.8091ZM29.3847 25.5987L29.1048 23.2001H32.9999L33.5185 25.5987H29.3847Z" fill="#FF7029"/>
<path d="M22.9999 7.20941C13.6157 7.20941 6.00843 14.7266 6.00843 23.9996C6.00843 33.2726 13.6157 40.7898 22.9999 40.7898C32.3841 40.7898 39.9914 33.2726 39.9914 23.9996C39.9808 14.7311 32.3797 7.21996 22.9999 7.20941ZM22.9999 39.1908C14.5095 39.1908 7.62665 32.3895 7.62665 23.9997C7.62665 15.6099 14.5095 8.80847 22.9999 8.80847C31.4903 8.80847 38.3733 15.6098 38.3733 23.9996C38.3638 32.3857 31.4865 39.1816 22.9999 39.1908Z" fill="#FF7029"/>
</svg>
