<svg width="46" height="46" viewBox="0 0 46 46" fill="none" xmlns="http://www.w3.org/2000/svg">
<path d="M45.9218 26.1341C45.9206 26.1301 45.9203 26.1264 45.9188 26.1222L43.4522 19.2988C43.2561 18.7563 42.7399 18.3948 42.1615 18.3948H20.7846C20.2062 18.3948 19.6899 18.7563 19.4939 19.2988L17.0273 26.1222C17.0263 26.1249 17.0266 26.1274 17.0258 26.1301C16.9751 26.2728 16.9461 26.4258 16.9461 26.5857V37.5574H5.899V25.3602C7.94661 24.8412 9.46577 22.9883 9.46577 20.788V18.0945H16.7327C17.4904 18.0945 18.1046 17.4822 18.1046 16.7271V1.36744C18.1046 0.612248 17.4904 0 16.7327 0H1.3719C0.614247 0 0 0.612248 0 1.36744V20.788C0 22.838 1.31904 24.5858 3.15519 25.235V38.9248C3.15519 39.68 3.76944 40.2922 4.5271 40.2922H16.9461V44.6326C16.9461 45.3878 17.5604 46 18.318 46H44.6281C45.3858 46 46 45.3878 46 44.6326V26.5857C46 26.4272 45.9716 26.2756 45.9218 26.1341ZM2.74381 10.4147H7.59037V15.3596H2.74381V10.4147ZM10.3343 15.3596V10.4147H15.3609V15.3596H10.3343ZM15.3608 7.67981H10.3342V2.73488H15.3608V7.67981ZM7.59047 2.73488V7.67981H2.74381V2.73488H7.59047ZM2.74381 18.0945H6.72196V20.788C6.72196 21.8812 5.82967 22.7706 4.73288 22.7706C3.63609 22.7706 2.74381 21.8812 2.74381 20.788V18.0945ZM21.7485 21.1297H41.1976L42.6755 25.2182H34.4403L32.5736 22.7187C32.3147 22.3721 31.9066 22.1678 31.4731 22.1678C31.0396 22.1678 30.6316 22.3721 30.3727 22.7187L28.5059 25.2182H20.2706L21.7485 21.1297ZM29.2323 43.2652V37.2978C29.2323 36.0663 30.2375 35.0643 31.4731 35.0643C32.7087 35.0643 33.7139 36.0663 33.7139 37.2978V43.2652H29.2323ZM36.4577 43.2652V37.2978C36.4577 34.5583 34.2217 32.3294 31.4731 32.3294C28.7245 32.3294 26.4885 34.5583 26.4885 37.2978V43.2652H19.6899V27.9531H29.1948C29.6283 27.9531 30.0364 27.7488 30.2953 27.4022L31.4731 25.8253L32.6508 27.4022C32.9098 27.7488 33.3178 27.9531 33.7513 27.9531H43.2562V43.2651L36.4577 43.2652Z" fill="#FF7029"/>
<path d="M23.8972 30.4297C23.1395 30.4297 22.5253 31.042 22.5253 31.7971V34.0448C22.5253 34.8 23.1395 35.4123 23.8972 35.4123C24.6548 35.4123 25.2691 34.8 25.2691 34.0448V31.7971C25.2691 31.042 24.6549 30.4297 23.8972 30.4297Z" fill="#FF7029"/>
<path d="M39.0493 30.4296C38.2916 30.4296 37.6774 31.0419 37.6774 31.7971V34.0448C37.6774 34.8 38.2916 35.4122 39.0493 35.4122C39.8069 35.4122 40.4212 34.8 40.4212 34.0448V31.7971C40.4212 31.0419 39.807 30.4296 39.0493 30.4296Z" fill="#FF7029"/>
<path d="M31.4733 12.8762C33.6514 12.8762 35.4235 11.1099 35.4235 8.93877C35.4235 6.76764 33.6514 5.00137 31.4733 5.00137C29.2952 5.00137 27.5231 6.76764 27.5231 8.93877C27.5231 11.1099 29.2952 12.8762 31.4733 12.8762ZM31.4733 7.73625C32.1385 7.73625 32.6797 8.27566 32.6797 8.93877C32.6797 9.60189 32.1385 10.1413 31.4733 10.1413C30.8081 10.1413 30.2669 9.60189 30.2669 8.93877C30.2669 8.27566 30.8081 7.73625 31.4733 7.73625Z" fill="#FF7029"/>
<path d="M30.101 15.212V15.6679C30.101 16.423 30.7152 17.0353 31.4729 17.0353C32.2305 17.0353 32.8448 16.423 32.8448 15.6679V15.212C32.8448 14.4569 32.2305 13.8446 31.4729 13.8446C30.7152 13.8446 30.101 14.4568 30.101 15.212Z" fill="#FF7029"/>
<path d="M36.2377 13.2597L36.6337 13.4876C36.8497 13.6119 37.0856 13.671 37.3183 13.671C37.7925 13.671 38.2536 13.4258 38.5077 12.9871C38.8866 12.3331 38.6618 11.4968 38.0056 11.1192L37.6096 10.8913C36.9534 10.5137 36.1144 10.7377 35.7356 11.3918C35.3567 12.0458 35.5815 12.8821 36.2377 13.2597Z" fill="#FF7029"/>
<path d="M36.925 7.16985C37.1577 7.16985 37.3937 7.11077 37.6096 6.98643L38.0056 6.75852C38.6618 6.38092 38.8866 5.5446 38.5077 4.8906C38.1288 4.23651 37.2895 4.01252 36.6337 4.39012L36.2377 4.61802C35.5815 4.99562 35.3567 5.83194 35.7356 6.48594C35.9897 6.92462 36.4508 7.16985 36.925 7.16985Z" fill="#FF7029"/>
<path d="M31.4729 4.03306C32.2305 4.03306 32.8448 3.42081 32.8448 2.66562V2.2099C32.8448 1.45471 32.2305 0.84246 31.4729 0.84246C30.7152 0.84246 30.101 1.45471 30.101 2.2099V2.66562C30.101 3.42081 30.7152 4.03306 31.4729 4.03306Z" fill="#FF7029"/>
<path d="M24.9407 6.75861L25.3368 6.98652C25.5528 7.11077 25.7886 7.16985 26.0213 7.16985C26.4955 7.16985 26.9567 6.92453 27.2108 6.48585C27.5896 5.83176 27.3647 4.99544 26.7085 4.61793L26.3125 4.39012C25.6562 4.01252 24.8172 4.2366 24.4384 4.89078C24.0596 5.54478 24.2845 6.38111 24.9407 6.75861Z" fill="#FF7029"/>
<path d="M25.628 13.671C25.8607 13.671 26.0966 13.6119 26.3126 13.4876L26.7086 13.2598C27.3648 12.8822 27.5897 12.046 27.2109 11.3919C26.8321 10.7378 25.9929 10.5137 25.3369 10.8912L24.9408 11.1191C24.2846 11.4966 24.0597 12.3329 24.4385 12.987C24.6927 13.4257 25.1539 13.671 25.628 13.671Z" fill="#FF7029"/>
</svg>
