<svg width="90" height="90" viewBox="0 0 90 90" fill="none" xmlns="http://www.w3.org/2000/svg">
<path d="M88.5 63H78V33C78 32.6022 77.842 32.2206 77.5607 31.9393C77.2794 31.658 76.8978 31.5 76.5 31.5H64.2709L62.9798 23.7534C62.9214 23.4032 62.7406 23.085 62.4697 22.8554C62.1987 22.6259 61.8551 22.5 61.5 22.5H37.0296C37.9969 21.7629 39 20.8434 39 19.5C39 17.9479 37.6611 16.9613 36.5852 16.1685C36.2169 15.8972 35.6152 15.4538 35.4482 15.2164C35.4656 14.9164 35.7793 14.1954 35.9709 13.7554C36.4946 12.5522 37.1464 11.0554 36.3894 9.74756C35.625 8.42494 33.9894 8.24119 32.6745 8.09363C32.2057 8.04113 31.44 7.95506 31.1745 7.82587C31.0451 7.56019 30.9591 6.79463 30.9066 6.32588C30.759 5.01206 30.5753 3.37688 29.2538 2.61112C27.9454 1.85344 26.4482 2.50519 25.2448 3.02887C24.8046 3.2205 24.0838 3.53513 23.7838 3.55163C23.5464 3.38456 23.103 2.78288 22.8319 2.41463C22.0387 1.33894 21.0521 0 19.5 0C17.9479 0 16.9613 1.33894 16.1683 2.41481C15.8972 2.78306 15.4538 3.38475 15.2164 3.55181C14.9164 3.53438 14.1956 3.22069 13.7554 3.02906C12.5522 2.50537 11.0554 1.85363 9.74775 2.61056C8.42494 3.375 8.24119 5.01056 8.09363 6.32569C8.04113 6.79444 7.95506 7.56 7.82569 7.82569C7.56 7.95488 6.79444 8.04094 6.32569 8.09363C5.01169 8.241 3.3765 8.42475 2.61094 9.74625C1.85325 11.0548 2.505 12.552 3.02869 13.7552C3.22031 14.1952 3.53494 14.916 3.55144 15.2162C3.38438 15.4536 2.78269 15.897 2.41444 16.1683C1.33894 16.9613 0 17.9479 0 19.5C0 21.0521 1.33894 22.0388 2.41481 22.8315C2.78306 23.1028 3.38475 23.5462 3.55181 23.7836C3.53438 24.0836 3.22069 24.8046 3.02906 25.2446C2.50537 26.4478 1.85363 27.9446 2.61056 29.2524C3.375 30.5751 5.01056 30.7588 6.3255 30.9064C6.79425 30.9589 7.56 31.0449 7.8255 31.1741C7.95488 31.4398 8.04094 32.2054 8.09344 32.6741C8.241 33.9879 8.42475 35.6231 9.74625 36.3889C11.0546 37.1466 12.5518 36.4948 13.7552 35.9711C14.1954 35.7795 14.9162 35.4649 15.2162 35.4484C15.4536 35.6154 15.897 36.2171 16.1681 36.5854C16.9613 37.6611 17.9479 39 19.5 39C20.3702 39 21.0624 38.5791 21.6426 38.0197L21.0203 41.7534C20.9844 41.9683 20.9959 42.1884 21.0537 42.3985C21.1116 42.6085 21.2146 42.8034 21.3554 42.9696C21.4962 43.1359 21.6716 43.2694 21.8692 43.361C22.0669 43.4526 22.2821 43.5 22.5 43.5H28.5V46.5H22.5C22.1022 46.5 21.7206 46.658 21.4393 46.9393C21.158 47.2206 21 47.6022 21 48V88.5C21 88.8978 21.158 89.2794 21.4393 89.5607C21.7206 89.842 22.1022 90 22.5 90H88.5C88.8978 90 89.2794 89.842 89.5607 89.5607C89.842 89.2794 90 88.8978 90 88.5V64.5C90 64.1022 89.842 63.7206 89.5607 63.4393C89.2794 63.158 88.8978 63 88.5 63ZM62.7294 40.5H53.7709L53.2708 37.5H62.2294L62.7294 40.5ZM35.7294 25.5L35.2294 28.5H26.2708L26.7707 25.5H35.7294ZM38.7711 25.5H48.2293L48.7294 28.5H38.2708L38.7711 25.5ZM26.373 22.5H25.5C25.1449 22.5 24.8013 22.6259 24.5303 22.8554C24.2594 23.085 24.0786 23.4032 24.0203 23.7534L23.6925 25.7197C22.456 26.5593 20.9946 27.0056 19.5 27C17.8841 27.0007 16.3112 26.4796 15.0152 25.5144C13.7193 24.5491 12.7696 23.1913 12.3074 21.6429C11.8452 20.0945 11.8953 18.4383 12.4502 16.9206C13.0051 15.403 14.0351 14.105 15.387 13.2198C16.7389 12.3347 18.3404 11.9096 19.9533 12.0079C21.5663 12.1062 23.1043 12.7226 24.3388 13.7653C25.5732 14.8081 26.438 16.2215 26.8045 17.7953C27.171 19.3691 27.0198 21.0192 26.373 22.5ZM25.7709 31.5H34.7293L34.2294 34.5H25.2707L25.7709 31.5ZM37.7709 31.5H49.2294L49.7293 34.5H37.2709L37.7709 31.5ZM50.2294 37.5L50.7294 40.5H36.2708L36.7708 37.5H50.2294ZM61.7295 34.5H52.7707L52.2709 31.5H61.2293L61.7295 34.5ZM60.7294 28.5H51.7708L51.2707 25.5H60.2293L60.7294 28.5ZM20.4169 34.8054C20.1419 35.2027 19.8353 35.5771 19.5 35.925C19.1649 35.5772 18.8584 35.2028 18.5835 34.8056C17.8746 33.8436 17.1414 32.8485 16.0024 32.5431C14.8331 32.2301 13.6239 32.7563 12.558 33.2203C12.1476 33.4111 11.7246 33.5736 11.292 33.7067C11.1874 33.2566 11.1147 32.7996 11.0747 32.3392C10.9461 31.1925 10.8002 29.8928 9.95381 29.0464C9.10744 28.2 7.80731 28.0541 6.66019 27.9253C6.20006 27.8855 5.74335 27.813 5.2935 27.7084C5.42655 27.2757 5.58899 26.8527 5.77969 26.4422C6.24394 25.3761 6.76987 24.1678 6.45694 22.9965C6.15169 21.8589 5.15662 21.1256 4.19438 20.4165C3.79712 20.1417 3.42278 19.8352 3.075 19.5C3.42272 19.1649 3.79701 18.8584 4.19419 18.5837C5.15644 17.8746 6.1515 17.1413 6.45694 16.0022C6.76969 14.8324 6.24375 13.6241 5.7795 12.558C5.58878 12.1476 5.42634 11.7246 5.29331 11.292C5.74334 11.1873 6.20025 11.1148 6.66056 11.0749C7.8075 10.9461 9.10706 10.8002 9.95362 9.95381C10.8002 9.10744 10.9459 7.80731 11.0745 6.66037C11.1145 6.20019 11.187 5.74342 11.2916 5.2935C11.7243 5.42657 12.1473 5.58907 12.5578 5.77987C13.6239 6.24394 14.8322 6.76969 16.0037 6.45694C17.1412 6.15169 17.8744 5.15662 18.5833 4.19456C18.8582 3.79729 19.1648 3.42288 19.5 3.075C19.8351 3.42283 20.1416 3.79717 20.4165 4.19438C21.1254 5.15644 21.8586 6.1515 22.9976 6.45694C24.1674 6.76987 25.3761 6.24375 26.442 5.77969C26.8524 5.58886 27.2754 5.42635 27.708 5.29331C27.8126 5.74342 27.8853 6.20038 27.9253 6.66075C28.0539 7.8075 28.1998 9.10725 29.0462 9.95362C29.8926 10.8 31.1927 10.9459 32.3398 11.0747C32.7999 11.1145 33.2567 11.187 33.7065 11.2916C33.5734 11.7243 33.411 12.1473 33.2203 12.5578C32.7561 13.6239 32.2301 14.8322 32.5431 16.0035C32.8483 17.1411 33.8434 17.8744 34.8056 18.5835C35.2029 18.8583 35.5772 19.1648 35.925 19.5C35.5773 19.8351 35.203 20.1416 34.8058 20.4163C33.9909 21.0163 33.1541 21.6351 32.7317 22.5H29.5629C30.2322 20.2409 30.1204 17.8221 29.2456 15.6344C28.3707 13.4467 26.7838 11.6178 24.7413 10.4431C22.6989 9.26843 20.32 8.81662 17.9891 9.16064C15.6582 9.50467 13.5113 10.6244 11.8953 12.3391C10.2792 14.0537 9.28837 16.263 9.08281 18.6102C8.87724 20.9574 9.46895 23.3054 10.7624 25.2748C12.0558 27.2442 13.9753 28.7201 16.2109 29.4641C18.4466 30.208 20.8677 30.1766 23.0833 29.3749L22.5261 32.7188C21.6471 33.138 21.0229 33.9831 20.4169 34.8054ZM24.7706 37.5H33.7292L33.2291 40.5H24.2706L24.7706 37.5ZM31.5 43.5H55.5V46.5H31.5V43.5ZM46.5 87H40.5V79.5H46.5V87ZM63 87H49.5V78C49.5 77.6022 49.342 77.2206 49.0607 76.9393C48.7794 76.658 48.3978 76.5 48 76.5H39C38.6022 76.5 38.2206 76.658 37.9393 76.9393C37.658 77.2206 37.5 77.6022 37.5 78V87H24V49.5H63V87ZM58.5 46.5V43.5H64.5C64.7179 43.5 64.9331 43.4526 65.1308 43.361C65.3284 43.2694 65.5038 43.1359 65.6446 42.9696C65.7855 42.8034 65.8884 42.6085 65.9463 42.3985C66.0041 42.1884 66.0156 41.9683 65.9797 41.7534L64.7708 34.5H75V63H66V48C66 47.6022 65.842 47.2206 65.5607 46.9393C65.2794 46.658 64.8978 46.5 64.5 46.5H58.5ZM87 87H66V66H87V87ZM28.5 61.5H34.5C34.8978 61.5 35.2794 61.342 35.5607 61.0607C35.842 60.7794 36 60.3978 36 60V54C36 53.6022 35.842 53.2206 35.5607 52.9393C35.2794 52.658 34.8978 52.5 34.5 52.5H28.5C28.1022 52.5 27.7206 52.658 27.4393 52.9393C27.158 53.2206 27 53.6022 27 54V60C27 60.3978 27.158 60.7794 27.4393 61.0607C27.7206 61.342 28.1022 61.5 28.5 61.5ZM30 55.5H33V58.5H30V55.5ZM40.5 61.5H46.5C46.8978 61.5 47.2794 61.342 47.5607 61.0607C47.842 60.7794 48 60.3978 48 60V54C48 53.6022 47.842 53.2206 47.5607 52.9393C47.2794 52.658 46.8978 52.5 46.5 52.5H40.5C40.1022 52.5 39.7206 52.658 39.4393 52.9393C39.158 53.2206 39 53.6022 39 54V60C39 60.3978 39.158 60.7794 39.4393 61.0607C39.7206 61.342 40.1022 61.5 40.5 61.5ZM42 55.5H45V58.5H42V55.5ZM52.5 61.5H58.5C58.8978 61.5 59.2794 61.342 59.5607 61.0607C59.842 60.7794 60 60.3978 60 60V54C60 53.6022 59.842 53.2206 59.5607 52.9393C59.2794 52.658 58.8978 52.5 58.5 52.5H52.5C52.1022 52.5 51.7206 52.658 51.4393 52.9393C51.158 53.2206 51 53.6022 51 54V60C51 60.3978 51.158 60.7794 51.4393 61.0607C51.7206 61.342 52.1022 61.5 52.5 61.5ZM54 55.5H57V58.5H54V55.5ZM28.5 73.5H34.5C34.8978 73.5 35.2794 73.342 35.5607 73.0607C35.842 72.7794 36 72.3978 36 72V66C36 65.6022 35.842 65.2206 35.5607 64.9393C35.2794 64.658 34.8978 64.5 34.5 64.5H28.5C28.1022 64.5 27.7206 64.658 27.4393 64.9393C27.158 65.2206 27 65.6022 27 66V72C27 72.3978 27.158 72.7794 27.4393 73.0607C27.7206 73.342 28.1022 73.5 28.5 73.5ZM30 67.5H33V70.5H30V67.5ZM40.5 73.5H46.5C46.8978 73.5 47.2794 73.342 47.5607 73.0607C47.842 72.7794 48 72.3978 48 72V66C48 65.6022 47.842 65.2206 47.5607 64.9393C47.2794 64.658 46.8978 64.5 46.5 64.5H40.5C40.1022 64.5 39.7206 64.658 39.4393 64.9393C39.158 65.2206 39 65.6022 39 66V72C39 72.3978 39.158 72.7794 39.4393 73.0607C39.7206 73.342 40.1022 73.5 40.5 73.5ZM42 67.5H45V70.5H42V67.5ZM52.5 73.5H58.5C58.8978 73.5 59.2794 73.342 59.5607 73.0607C59.842 72.7794 60 72.3978 60 72V66C60 65.6022 59.842 65.2206 59.5607 64.9393C59.2794 64.658 58.8978 64.5 58.5 64.5H52.5C52.1022 64.5 51.7206 64.658 51.4393 64.9393C51.158 65.2206 51 65.6022 51 66V72C51 72.3978 51.158 72.7794 51.4393 73.0607C51.7206 73.342 52.1022 73.5 52.5 73.5ZM54 67.5H57V70.5H54V67.5ZM72.3 75.6L76.8 69.6C77.0387 69.2817 77.394 69.0713 77.7879 69.0151C78.1817 68.9588 78.5817 69.0613 78.9 69.3C79.2183 69.5387 79.4287 69.894 79.4849 70.2879C79.5412 70.6817 79.4387 71.0817 79.2 71.4L76.5 75H79.5C79.7786 75 80.0516 75.0776 80.2886 75.224C80.5256 75.3705 80.7171 75.58 80.8416 75.8292C80.9662 76.0783 81.019 76.3573 80.9939 76.6347C80.9689 76.9122 80.8671 77.1771 80.7 77.4L76.2 83.4C75.9613 83.7183 75.606 83.9287 75.2121 83.9849C74.8183 84.0412 74.4183 83.9387 74.1 83.7C73.7817 83.4613 73.5713 83.106 73.5151 82.7121C73.4588 82.3183 73.5613 81.9183 73.8 81.6L76.5 78H73.5C73.2214 78 72.9484 77.9224 72.7114 77.776C72.4744 77.6295 72.2829 77.42 72.1584 77.1708C72.0338 76.9217 71.981 76.6427 72.0061 76.3653C72.0311 76.0879 72.1329 75.8229 72.3 75.6Z" fill="#FF7029"/>
</svg>
