<svg width="48" height="53" viewBox="0 0 48 53" fill="none" xmlns="http://www.w3.org/2000/svg">
<path d="M20.28 47.34V48.19H7.59V47.34H20.28ZM13.4 49.19V51.35H14.47V49.19H13.4ZM7.59 52.35V52.69H20.28V52.35H7.59ZM0.44 40.82L0 46.34H5.56L5.97 40.82H0.44ZM6.97 40.82L6.57 46.34H13.43V40.82H6.97ZM20.89 40.82H14.43V46.34H21.29L20.89 40.82ZM20.32 33.11H14.42V39.83H20.81L20.32 33.11ZM19.76 25.39H14.43V32.11H20.25L19.76 25.39ZM7.53 33.11L7.04 39.83H13.43V33.11H7.53ZM1.07 33.11L0.53 39.83H6.05L6.54 33.11H1.07ZM1.69 25.39L1.15 32.11H6.61L7.1 25.39H1.69ZM8.1 25.39L7.61 32.11H13.43V25.39H8.1ZM2.25 18.41L1.77 24.39H7.17L7.61 18.41H2.25ZM8.61 18.41L8.17 24.39H13.43V18.41H8.61ZM19.25 18.41H14.43V24.39H19.69L19.25 18.41ZM25.61 18.41H20.25L20.69 24.39H26.09L25.61 18.41ZM26.17 25.39H20.76L21.25 32.11H26.71L26.17 25.39ZM26.79 33.11H21.33L21.82 39.83H27.33L26.79 33.11ZM27.41 40.82H21.89L22.3 46.34H27.85L27.41 40.82ZM36.74 4.7C33.27 4.7 30.44 7.53 30.44 11C30.44 14.47 33.27 17.3 36.74 17.3C40.21 17.3 43.04 14.47 43.04 11C43.04 7.53 40.21 4.7 36.74 4.7ZM36.24 3.6H37.24V0H36.24V3.6ZM36.24 22H37.24V18.4H36.24V22ZM44.14 11.5H47.74V10.5H44.14V11.5ZM25.74 11.5H29.34V10.5H25.74V11.5ZM42.33 6.12L44.88 3.57L44.17 2.86L41.62 5.41L42.33 6.12ZM29.31 19.14L31.86 16.59L31.15 15.88L28.6 18.43L29.31 19.14ZM44.17 19.14L44.88 18.43L42.33 15.88L41.62 16.59L44.17 19.14ZM31.15 6.14L31.86 5.43L29.31 2.88L28.6 3.59L31.15 6.14Z" fill="url(#paint0_linear_0_11993)"/>
<defs>
<linearGradient id="paint0_linear_0_11993" x1="0" y1="26.34" x2="47.74" y2="26.34" gradientUnits="userSpaceOnUse">
<stop stop-color="#DEDC00"/>
<stop offset="1" stop-color="#006633"/>
</linearGradient>
</defs>
</svg>
