<svg width="145" height="145" viewBox="0 0 145 145" fill="none" xmlns="http://www.w3.org/2000/svg">
<g clip-path="url(#clip0_0_454)">
<path d="M11.4415 77.1632L22.4562 107.394C23.3185 109.76 25.9132 110.969 28.2605 110.098C30.6079 109.226 31.8359 106.641 30.9647 104.293L23.6249 84.1493L34.4647 89.1994C75.0179 108.093 123.373 90.4579 142.257 49.9239C143.314 47.656 142.328 44.9514 140.06 43.8948C137.792 42.8382 135.088 43.8237 134.031 46.0916C117.251 82.1089 74.3144 97.7534 38.2971 80.9734L17.8091 71.4283C16.6367 70.8821 15.366 70.8983 14.2493 71.3371C14.2212 71.3474 14.1738 71.3487 14.1456 71.359C11.8072 72.211 10.5894 74.8248 11.4415 77.1632Z" fill="#FF7029" fill-opacity="0.5"/>
<path d="M41.9115 64.8299C41.0511 65.2711 40.3009 65.9274 39.8621 66.8692C38.8055 69.1371 39.791 71.8417 42.0589 72.8983C73.6173 87.601 111.229 73.8966 125.932 42.3382C126.988 40.0703 126.003 37.3656 123.735 36.3091C121.467 35.2525 118.762 36.2379 117.706 38.5058C106.934 61.6269 81.7742 73.5069 57.8089 68.5638L67.078 65.1865C69.4446 64.3242 70.6534 61.7296 69.7821 59.3822C69.351 58.1989 68.5012 57.3118 67.4441 56.8193C66.387 56.3269 65.1611 56.2469 63.9778 56.6781L42.4442 64.5401C42.4161 64.5503 42.3789 64.5798 42.3418 64.6093C42.1254 64.6722 41.9755 64.7428 41.9115 64.8299Z" fill="#87AB42" fill-opacity="0.5"/>
</g>
<defs>
<clipPath id="clip0_0_454">
<rect width="108.559" height="108.559" fill="white" transform="translate(98.4043 144.25) rotate(-155.02)"/>
</clipPath>
</defs>
</svg>
