<svg width="192" height="254" viewBox="0 0 192 254" fill="none" xmlns="http://www.w3.org/2000/svg">
<path fill-rule="evenodd" clip-rule="evenodd" d="M75.401 108.174C102.51 81.0743 102.805 80.7787 128.57 55.0219C129.011 54.5801 129.606 54.4155 130.211 54.5662C130.818 54.718 131.265 55.1429 131.447 55.7401L190.945 251.142C191.196 251.967 190.812 252.836 190.034 253.207C189.255 253.577 188.338 253.326 187.856 252.611L115.842 145.59C88.7336 172.691 88.4378 172.986 62.6737 198.743C62.2322 199.185 61.6376 199.349 61.0318 199.199C60.4254 199.047 59.9781 198.622 59.7962 198.025L0.299387 2.6228C0.0477037 1.79843 0.43197 0.928868 1.2105 0.558608C1.98904 0.188333 2.90627 0.439459 3.38773 1.15451L75.401 108.174Z" fill="#87AB42" fill-opacity="0.08"/>
</svg>
