<svg width="124" height="157" viewBox="0 0 124 157" fill="none" xmlns="http://www.w3.org/2000/svg">
<path fill-rule="evenodd" clip-rule="evenodd" d="M70.1214 63.1316C91.121 75.2193 91.3501 75.3512 111.309 86.8393C111.651 87.036 111.849 87.3713 111.856 87.7648C111.863 88.159 111.676 88.5007 111.341 88.709L1.67376 156.833C1.21121 157.121 0.616887 157.029 0.263139 156.615C-0.0906081 156.201 -0.0873276 155.602 0.270794 155.192L53.8786 93.8678C32.879 81.7802 32.6499 81.6482 12.6913 70.1602C12.3491 69.9634 12.1511 69.6282 12.144 69.2346C12.1375 68.8405 12.3239 68.4987 12.6591 68.2905L122.326 0.166836C122.789 -0.120978 123.383 -0.0288509 123.737 0.384882C124.091 0.798615 124.087 1.39822 123.729 1.80814L70.1214 63.1316Z" fill="#CFB81E" fill-opacity="0.21"/>
</svg>
