<svg width="230" height="204" viewBox="0 0 230 204" fill="none" xmlns="http://www.w3.org/2000/svg">
<path d="M169.568 29.8555C163.664 29.8555 157.892 31.6063 152.982 34.8866C148.073 38.1669 144.247 42.8293 141.987 48.2842C139.728 53.7392 139.137 59.7416 140.288 65.5325C141.44 71.3235 144.284 76.6428 148.459 80.8178C152.634 84.9928 157.953 87.836 163.744 88.9879C169.535 90.1398 175.537 89.5486 180.992 87.2891C186.447 85.0296 191.109 81.2033 194.39 76.294C197.67 71.3847 199.421 65.6129 199.421 59.7085C199.413 51.7934 196.265 44.2048 190.668 38.6079C185.072 33.0111 177.483 29.8634 169.568 29.8555ZM169.568 49.7575C166.929 49.7575 164.398 50.8059 162.531 52.6721C160.665 54.5383 159.617 57.0693 159.617 59.7085C159.617 61.0281 159.093 62.2936 158.16 63.2267C157.227 64.1598 155.961 64.684 154.641 64.684C153.322 64.684 152.056 64.1598 151.123 63.2267C150.19 62.2936 149.666 61.0281 149.666 59.7085C149.666 54.4302 151.763 49.368 155.495 45.6356C159.227 41.9033 164.29 39.8065 169.568 39.8065C170.887 39.8065 172.153 40.3307 173.086 41.2638C174.019 42.1969 174.543 43.4624 174.543 44.782C174.543 46.1016 174.019 47.3671 173.086 48.3002C172.153 49.2333 170.887 49.7575 169.568 49.7575Z" fill="#87AB42" fill-opacity="0.34"/>
<path d="M218.222 41.709C217.469 40.5937 216.95 39.338 216.694 38.0171L213.211 20.1053C213.017 19.122 212.535 18.2185 211.827 17.5098C211.118 16.8011 210.214 16.319 209.231 16.1249L191.294 12.5774C189.947 12.3132 188.667 11.782 187.528 11.0151L172.452 0.860048C171.617 0.299398 170.634 0 169.629 0C168.623 0 167.64 0.299398 166.805 0.860048L151.545 11.0698C150.432 11.8063 149.184 12.3137 147.873 12.5624L129.986 16.0453C129.003 16.2394 128.099 16.7215 127.391 17.4302C126.682 18.1389 126.2 19.0424 126.006 20.0257L122.453 38.0022C122.19 39.3223 121.667 40.5771 120.916 41.694L110.741 56.8046C110.18 57.6396 109.881 58.6225 109.881 59.6282C109.881 60.6339 110.18 61.6169 110.741 62.4518L120.951 77.6918C121.687 78.8045 122.195 80.0528 122.443 81.3637L125.926 99.2507C126.12 100.234 126.602 101.137 127.311 101.846C128.02 102.555 128.923 103.037 129.907 103.231L147.843 106.779C149.177 107.043 150.445 107.569 151.575 108.326L166.686 118.501C167.521 119.06 168.504 119.359 169.509 119.359C170.515 119.359 171.497 119.06 172.333 118.501L187.518 108.331C188.664 107.56 189.953 107.027 191.309 106.764L209.132 103.281C210.115 103.087 211.018 102.605 211.727 101.896C212.436 101.187 212.918 100.284 213.112 99.3004L216.659 81.3637C216.923 80.0185 217.456 78.7407 218.227 77.6072C218.227 77.6072 225.023 67.4821 228.407 62.417C228.966 61.5871 229.265 60.6091 229.265 59.6083C229.265 58.6075 228.966 57.6295 228.407 56.7997L218.222 41.709ZM169.566 99.5144C161.694 99.5144 153.998 97.1799 147.452 92.8062C140.907 88.4325 135.805 82.2159 132.792 74.9427C129.779 67.6694 128.991 59.6662 130.527 51.9449C132.063 44.2237 135.854 37.1313 141.421 31.5646C146.987 25.9979 154.08 22.207 161.801 20.6711C169.522 19.1353 177.525 19.9235 184.799 22.9362C192.072 25.9489 198.288 31.0506 202.662 37.5964C207.036 44.1421 209.37 51.8378 209.37 59.7103C209.359 70.2634 205.161 80.3808 197.699 87.8429C190.237 95.3051 180.119 99.5025 169.566 99.5144Z" fill="#87AB42" fill-opacity="0.34"/>
<path d="M175.971 144.502C175.345 144.315 174.688 144.252 174.038 144.319C173.388 144.385 172.757 144.579 172.182 144.889C171.607 145.199 171.099 145.619 170.686 146.125C170.273 146.632 169.964 147.215 169.777 147.841L154.85 197.596C154.662 198.222 154.6 198.879 154.666 199.529C154.733 200.179 154.926 200.81 155.236 201.385C155.546 201.96 155.967 202.468 156.473 202.881C156.98 203.294 157.563 203.603 158.189 203.79C158.652 203.928 159.133 203.998 159.617 203.999C160.687 204 161.729 203.654 162.588 203.015C163.446 202.376 164.076 201.477 164.383 200.452L179.31 150.697C179.497 150.071 179.56 149.414 179.493 148.764C179.427 148.114 179.233 147.483 178.923 146.908C178.613 146.333 178.193 145.824 177.686 145.412C177.18 144.999 176.597 144.69 175.971 144.502Z" fill="#87AB42" fill-opacity="0.34"/>
<path d="M103.019 103.402C103.529 102.994 103.954 102.489 104.269 101.916C104.584 101.344 104.784 100.714 104.856 100.065C104.928 99.4153 104.871 98.7578 104.689 98.1301C104.507 97.5024 104.203 96.9166 103.795 96.4063C103.387 95.896 102.882 95.4712 102.309 95.156C101.737 94.8408 101.108 94.6415 100.458 94.5694C99.8084 94.4973 99.151 94.5539 98.5233 94.7359C97.8955 94.9179 97.3098 95.2218 96.7995 95.6302L71.922 115.532C70.8914 116.357 70.2306 117.557 70.0851 118.869C69.9395 120.181 70.3211 121.497 71.1458 122.528C71.9705 123.558 73.1709 124.219 74.4828 124.365C75.7948 124.51 77.1108 124.129 78.1414 123.304L103.019 103.402Z" fill="#87AB42" fill-opacity="0.34"/>
<path d="M151.511 134.695C150.904 134.453 150.255 134.332 149.602 134.34C148.948 134.348 148.302 134.485 147.702 134.743C147.101 135.001 146.557 135.375 146.101 135.843C145.645 136.311 145.285 136.864 145.043 137.472L135.092 162.349C134.849 162.956 134.728 163.605 134.737 164.259C134.745 164.912 134.882 165.558 135.14 166.159C135.398 166.759 135.771 167.303 136.239 167.759C136.708 168.216 137.261 168.575 137.868 168.817C138.455 169.053 139.082 169.173 139.714 169.171C140.709 169.171 141.681 168.873 142.505 168.315C143.329 167.757 143.967 166.965 144.336 166.041L154.287 141.163C154.53 140.556 154.651 139.908 154.642 139.254C154.634 138.6 154.497 137.955 154.239 137.354C153.982 136.753 153.608 136.209 153.14 135.753C152.672 135.297 152.118 134.938 151.511 134.695Z" fill="#87AB42" fill-opacity="0.34"/>
<path d="M84.2714 67.0995C83.5916 65.9688 82.4906 65.1543 81.2105 64.8352C79.9304 64.5161 78.5759 64.7185 77.445 65.3979L2.81239 110.177C2.2398 110.508 1.73874 110.949 1.33846 111.475C0.93818 112 0.646704 112.601 0.481056 113.241C0.315408 113.881 0.278908 114.547 0.373686 115.201C0.468464 115.855 0.692621 116.484 1.03307 117.051C1.37351 117.617 1.82343 118.11 2.35653 118.501C2.88963 118.892 3.49523 119.172 4.13798 119.326C4.78073 119.48 5.44773 119.505 6.10003 119.398C6.75234 119.292 7.37687 119.056 7.93716 118.705L82.5697 73.9259C83.7005 73.2462 84.5149 72.1452 84.834 70.8651C85.1531 69.5849 84.9507 68.2305 84.2714 67.0995Z" fill="#87AB42" fill-opacity="0.34"/>
</svg>
