<svg width="141" height="141" viewBox="0 0 141 141" fill="none" xmlns="http://www.w3.org/2000/svg">
<path d="M70.5 110.156C92.4015 110.156 110.156 92.4015 110.156 70.5C110.156 48.5985 92.4015 30.8438 70.5 30.8438C48.5985 30.8438 30.8438 48.5985 30.8438 70.5C30.8438 92.4015 48.5985 110.156 70.5 110.156Z" fill="#FFE885"/>
<path d="M110.157 70.5025C110.156 62.7976 107.909 55.2601 103.693 48.8115C99.4757 42.3629 93.4714 37.2828 86.4135 34.1921C76.7803 31.8586 66.6223 33.2197 57.9431 38.0069C49.264 42.794 42.6937 50.6597 39.5284 60.0526C36.363 69.4454 36.8322 79.6834 40.8436 88.7473C44.855 97.8111 52.1172 105.043 61.1979 109.016C67.0287 110.449 73.1095 110.535 78.9786 109.268C84.8477 108 90.3508 105.412 95.07 101.699C99.7893 97.9868 103.601 93.248 106.215 87.8425C108.829 82.437 110.177 76.5069 110.157 70.5025Z" fill="#FFDC29"/>
<path d="M61.6875 74.9062C68.988 74.9062 74.9062 68.988 74.9062 61.6875C74.9062 54.387 68.988 48.4688 61.6875 48.4688C54.387 48.4688 48.4688 54.387 48.4688 61.6875C48.4688 68.988 54.387 74.9062 61.6875 74.9062Z" fill="#FFE885"/>
<path d="M70.5 17.625C69.9157 17.625 69.3553 17.3929 68.9422 16.9797C68.529 16.5666 68.2969 16.0062 68.2969 15.4219V8.8125C68.2969 8.22819 68.529 7.66782 68.9422 7.25466C69.3553 6.84149 69.9157 6.60938 70.5 6.60938C71.0843 6.60938 71.6447 6.84149 72.0578 7.25466C72.471 7.66782 72.7031 8.22819 72.7031 8.8125V15.4219C72.7031 16.0062 72.471 16.5666 72.0578 16.9797C71.6447 17.3929 71.0843 17.625 70.5 17.625Z" fill="#FFDC29"/>
<path d="M70.5 134.391C69.9157 134.391 69.3553 134.159 68.9422 133.745C68.529 133.332 68.2969 132.772 68.2969 132.188V123.375C68.2969 122.791 68.529 122.23 68.9422 121.817C69.3553 121.404 69.9157 121.172 70.5 121.172C71.0843 121.172 71.6447 121.404 72.0578 121.817C72.471 122.23 72.7031 122.791 72.7031 123.375V132.188C72.7031 132.772 72.471 133.332 72.0578 133.745C71.6447 134.159 71.0843 134.391 70.5 134.391Z" fill="#FFDC29"/>
<path d="M44.063 24.7129C43.8125 24.8578 43.5359 24.9518 43.249 24.9897C42.9622 25.0275 42.6706 25.0085 42.3911 24.9336C42.1116 24.8587 41.8496 24.7294 41.6201 24.5532C41.3906 24.377 41.1981 24.1573 41.0535 23.9066L37.7489 18.1827C37.4613 17.6769 37.3855 17.078 37.5379 16.5165C37.6903 15.9551 38.0587 15.4767 38.5625 15.1858C39.0663 14.8949 39.6647 14.8151 40.2272 14.9638C40.7896 15.1125 41.2704 15.4777 41.5647 15.9795L44.8694 21.7035C45.0142 21.954 45.1082 22.2306 45.1461 22.5175C45.1839 22.8043 45.1649 23.0958 45.09 23.3753C45.0151 23.6548 44.8858 23.9168 44.7096 24.1464C44.5334 24.3759 44.3137 24.5684 44.063 24.7129Z" fill="#FFDC29"/>
<path d="M102.445 125.834C102.194 125.979 101.918 126.073 101.631 126.11C101.344 126.148 101.052 126.129 100.773 126.054C100.493 125.979 100.231 125.85 100.002 125.674C99.7724 125.498 99.5799 125.278 99.4353 125.027L95.0291 117.395C94.8821 117.145 94.7862 116.868 94.7469 116.58C94.7075 116.292 94.7255 115.999 94.7997 115.718C94.874 115.437 95.0031 115.174 95.1796 114.943C95.3561 114.712 95.5765 114.519 95.8281 114.373C96.0797 114.228 96.3576 114.134 96.6457 114.097C96.9338 114.059 97.2265 114.079 97.5069 114.155C97.7873 114.231 98.0499 114.362 98.2795 114.54C98.5092 114.718 98.7013 114.94 98.8449 115.192L103.251 122.824C103.396 123.075 103.49 123.351 103.528 123.638C103.566 123.925 103.547 124.217 103.472 124.496C103.397 124.776 103.268 125.038 103.091 125.267C102.915 125.497 102.696 125.689 102.445 125.834Z" fill="#FFDC29"/>
<path d="M24.709 44.063C24.5645 44.3137 24.372 44.5334 24.1425 44.7096C23.9129 44.8858 23.6509 45.0151 23.3714 45.09C23.0919 45.1649 22.8004 45.1839 22.5135 45.1461C22.2267 45.1082 21.9501 45.0142 21.6996 44.8694L15.9756 41.5647C15.4737 41.2704 15.1086 40.7896 14.9599 40.2272C14.8112 39.6647 14.891 39.0663 15.1819 38.5625C15.4728 38.0587 15.9512 37.6903 16.5126 37.5379C17.0741 37.3855 17.673 37.4613 18.1788 37.7489L23.9027 41.0535C24.1534 41.1981 24.3731 41.3906 24.5493 41.6201C24.7255 41.8496 24.8548 42.1116 24.9297 42.3911C25.0045 42.6706 25.0236 42.9622 24.9858 43.249C24.9479 43.5359 24.8539 43.8125 24.709 44.063Z" fill="#FFDC29"/>
<path d="M125.83 102.449C125.685 102.699 125.493 102.919 125.263 103.095C125.034 103.272 124.772 103.401 124.492 103.476C124.213 103.551 123.921 103.57 123.634 103.532C123.347 103.494 123.071 103.4 122.82 103.255L115.188 98.8488C114.936 98.7052 114.714 98.5131 114.536 98.2834C114.358 98.0538 114.227 97.7912 114.151 97.5108C114.075 97.2304 114.055 96.9378 114.093 96.6496C114.13 96.3615 114.224 96.0836 114.369 95.832C114.515 95.5804 114.708 95.36 114.939 95.1835C115.17 95.007 115.433 94.8779 115.714 94.8037C115.995 94.7294 116.288 94.7114 116.576 94.7508C116.864 94.7901 117.141 94.8861 117.392 95.033L125.023 99.4392C125.274 99.5838 125.494 99.7763 125.67 100.006C125.846 100.235 125.976 100.497 126.05 100.777C126.125 101.056 126.144 101.348 126.107 101.635C126.069 101.922 125.975 102.198 125.83 102.449Z" fill="#FFDC29"/>
<path d="M17.625 70.5C17.625 71.0843 17.3929 71.6447 16.9797 72.0578C16.5666 72.471 16.0062 72.7031 15.4219 72.7031H8.8125C8.22819 72.7031 7.66782 72.471 7.25466 72.0578C6.84149 71.6447 6.60938 71.0843 6.60938 70.5C6.60938 69.9157 6.84149 69.3553 7.25466 68.9422C7.66782 68.529 8.22819 68.2969 8.8125 68.2969H15.4219C16.0062 68.2969 16.5666 68.529 16.9797 68.9422C17.3929 69.3553 17.625 69.9157 17.625 70.5Z" fill="#FFDC29"/>
<path d="M134.391 70.5C134.391 71.0843 134.159 71.6447 133.745 72.0578C133.332 72.471 132.772 72.7031 132.188 72.7031H123.375C122.791 72.7031 122.23 72.471 121.817 72.0578C121.404 71.6447 121.172 71.0843 121.172 70.5C121.172 69.9157 121.404 69.3553 121.817 68.9422C122.23 68.529 122.791 68.2969 123.375 68.2969H132.188C132.772 68.2969 133.332 68.529 133.745 68.9422C134.159 69.3553 134.391 69.9157 134.391 70.5Z" fill="#FFDC29"/>
<path d="M24.709 96.9379C24.8538 97.1884 24.9478 97.465 24.9857 97.7519C25.0235 98.0388 25.0045 98.3303 24.9296 98.6098C24.8547 98.8893 24.7254 99.1513 24.5492 99.3808C24.373 99.6103 24.1533 99.8029 23.9026 99.9474L18.1787 103.252C17.928 103.399 17.6508 103.495 17.3629 103.534C17.075 103.574 16.7822 103.556 16.5013 103.481C16.2204 103.407 15.957 103.278 15.7262 103.102C15.4954 102.925 15.3018 102.705 15.1565 102.453C15.0112 102.201 14.9172 101.924 14.8797 101.635C14.8423 101.347 14.8622 101.055 14.9383 100.774C15.0144 100.494 15.1453 100.231 15.3233 100.002C15.5013 99.772 15.723 99.5799 15.9755 99.4363L21.6995 96.1316C21.95 95.9867 22.2266 95.8927 22.5135 95.8549C22.8003 95.817 23.0919 95.8361 23.3714 95.911C23.6509 95.9858 23.9129 96.1151 24.1424 96.2913C24.3719 96.4675 24.5644 96.6872 24.709 96.9379Z" fill="#FFDC29"/>
<path d="M125.83 38.5552C125.975 38.8057 126.069 39.0823 126.107 39.3692C126.144 39.656 126.125 39.9476 126.05 40.2271C125.976 40.5066 125.846 40.7686 125.67 40.9981C125.494 41.2276 125.274 41.4201 125.023 41.5647L117.392 45.9709C117.141 46.1178 116.864 46.2138 116.576 46.2531C116.288 46.2925 115.995 46.2745 115.714 46.2002C115.433 46.126 115.17 45.9969 114.939 45.8204C114.708 45.6439 114.515 45.4235 114.369 45.1719C114.224 44.9203 114.13 44.6424 114.093 44.3543C114.055 44.0662 114.075 43.7735 114.151 43.4931C114.227 43.2127 114.358 42.9501 114.536 42.7205C114.714 42.4908 114.936 42.2987 115.188 42.1551L122.82 37.7488C123.071 37.604 123.347 37.5099 123.634 37.4721C123.921 37.4342 124.213 37.4532 124.492 37.5281C124.772 37.603 125.034 37.7323 125.263 37.9085C125.493 38.0847 125.685 38.3045 125.83 38.5552Z" fill="#FFDC29"/>
<path d="M44.062 116.296C44.3127 116.44 44.5324 116.633 44.7086 116.862C44.8848 117.092 45.0141 117.354 45.089 117.633C45.1638 117.913 45.1829 118.204 45.1451 118.491C45.1072 118.778 45.0132 119.055 44.8683 119.305L41.5636 125.029C41.42 125.282 41.2279 125.503 40.9983 125.681C40.7686 125.859 40.5061 125.99 40.2257 126.066C39.9453 126.142 39.6526 126.162 39.3645 126.125C39.0763 126.087 38.7985 125.993 38.5468 125.848C38.2952 125.703 38.0748 125.509 37.8983 125.278C37.7219 125.048 37.5928 124.784 37.5185 124.503C37.4442 124.222 37.4263 123.93 37.4656 123.642C37.505 123.354 37.6009 123.077 37.7478 122.826L41.0525 117.102C41.1971 116.851 41.3896 116.632 41.6191 116.455C41.8486 116.279 42.1106 116.15 42.3901 116.075C42.6696 116 42.9611 115.981 43.248 116.019C43.5349 116.057 43.8115 116.151 44.062 116.296Z" fill="#FFDC29"/>
<path d="M102.445 15.1707C102.696 15.3152 102.915 15.5078 103.091 15.7373C103.268 15.9668 103.397 16.2288 103.472 16.5083C103.547 16.7878 103.566 17.0793 103.528 17.3662C103.49 17.6531 103.396 17.9297 103.251 18.1802L98.8449 25.812C98.7013 26.0646 98.5092 26.2863 98.2795 26.4643C98.0499 26.6423 97.7873 26.7732 97.5069 26.8493C97.2265 26.9254 96.9338 26.9453 96.6457 26.9079C96.3576 26.8704 96.0797 26.7764 95.8281 26.6311C95.5765 26.4858 95.3561 26.2922 95.1796 26.0614C95.0031 25.8306 94.874 25.5671 94.7997 25.2862C94.7255 25.0054 94.7075 24.7125 94.7469 24.4247C94.7862 24.1368 94.8821 23.8596 95.0291 23.6089L99.4353 15.9771C99.5799 15.7264 99.7724 15.5066 100.002 15.3304C100.231 15.1542 100.493 15.0249 100.773 14.95C101.052 14.8751 101.344 14.8561 101.631 14.8939C101.918 14.9318 102.194 15.0259 102.445 15.1707Z" fill="#FFDC29"/>
<path d="M24.2527 85.178L9.3563 89.1694C9.07568 89.248 8.78224 89.2702 8.49298 89.2347C8.20372 89.1991 7.92439 89.1065 7.67116 88.9623C7.41794 88.818 7.19585 88.6249 7.01777 88.3942C6.83968 88.1636 6.70913 87.8998 6.63369 87.6183C6.55825 87.3368 6.53941 87.0431 6.57826 86.7543C6.61711 86.4655 6.71288 86.1872 6.86002 85.9356C7.00717 85.6841 7.20276 85.4642 7.43548 85.2888C7.66819 85.1133 7.9334 84.9858 8.21575 84.9136L23.1122 80.9222C23.3922 80.8454 23.6847 80.8247 23.9728 80.8614C24.2609 80.898 24.5389 80.9912 24.7908 81.1357C25.0427 81.2801 25.2636 81.473 25.4407 81.7031C25.6178 81.9332 25.7477 82.1961 25.8229 82.4766C25.898 82.7571 25.917 83.0497 25.8787 83.3375C25.8404 83.6254 25.7456 83.9028 25.5996 84.1539C25.4537 84.405 25.2596 84.6247 25.0284 84.8005C24.7973 84.9763 24.5337 85.1044 24.2527 85.178Z" fill="#FFDC29"/>
<path d="M132.784 56.0969L117.887 60.0883C117.607 60.1651 117.315 60.1858 117.027 60.1492C116.739 60.1125 116.461 60.0193 116.209 59.8748C115.957 59.7304 115.736 59.5376 115.559 59.3074C115.382 59.0773 115.252 58.8144 115.177 58.5339C115.101 58.2534 115.083 57.9608 115.121 57.673C115.159 57.3851 115.254 57.1077 115.4 56.8566C115.546 56.6055 115.74 56.3858 115.971 56.21C116.202 56.0342 116.466 55.9059 116.747 55.8323L131.643 51.8407C131.923 51.7658 132.214 51.7467 132.501 51.7845C132.788 51.8222 133.064 51.9161 133.315 52.0608C133.566 52.2054 133.785 52.398 133.961 52.6276C134.138 52.8571 134.267 53.1191 134.342 53.3985C134.416 53.678 134.436 53.9695 134.398 54.2563C134.36 54.5432 134.266 54.8198 134.122 55.0704C133.977 55.3209 133.784 55.5406 133.555 55.7167C133.325 55.8928 133.063 56.022 132.784 56.0969Z" fill="#FFDC29"/>
<path d="M37.7846 106.335L26.8791 117.241C26.6749 117.447 26.4319 117.61 26.1642 117.722C25.8966 117.834 25.6094 117.892 25.3193 117.893C25.0291 117.893 24.7418 117.837 24.4736 117.726C24.2054 117.615 23.9618 117.453 23.7566 117.248C23.5515 117.042 23.3888 116.799 23.2781 116.531C23.1674 116.262 23.1107 115.975 23.1113 115.685C23.112 115.395 23.1699 115.108 23.2818 114.84C23.3937 114.572 23.5574 114.329 23.7634 114.125L34.6689 103.22C35.0821 102.806 35.6425 102.574 36.2269 102.574C36.8112 102.574 37.3716 102.806 37.7848 103.22C38.198 103.633 38.4301 104.193 38.4301 104.777C38.4301 105.362 38.1978 105.922 37.7846 106.335Z" fill="#FFDC29"/>
<path d="M117.235 26.8813L106.33 37.7867C106.125 37.9913 105.882 38.1536 105.615 38.2644C105.347 38.3751 105.061 38.4321 104.772 38.4321C104.187 38.4321 103.627 38.1999 103.214 37.7867C102.8 37.3736 102.568 36.8131 102.568 36.2288C102.568 35.6445 102.8 35.0841 103.214 34.6709L114.119 23.7654C114.323 23.5594 114.566 23.3957 114.834 23.2838C115.102 23.1719 115.389 23.1139 115.679 23.1133C115.969 23.1127 116.257 23.1693 116.525 23.2801C116.793 23.3908 117.036 23.5534 117.242 23.7586C117.447 23.9637 117.609 24.2074 117.72 24.4755C117.831 24.7437 117.888 25.0311 117.887 25.3212C117.886 25.6114 117.828 25.8985 117.716 26.1662C117.605 26.4339 117.441 26.677 117.235 26.8813Z" fill="#FFDC29"/>
<path d="M60.0829 117.887L56.0911 132.784C56.0162 133.063 55.887 133.325 55.7108 133.555C55.5347 133.784 55.3151 133.977 55.0645 134.122C54.8139 134.266 54.5373 134.36 54.2505 134.398C53.9636 134.436 53.6722 134.416 53.3927 134.342C53.1132 134.267 52.8512 134.138 52.6217 133.961C52.3922 133.785 52.1996 133.566 52.0549 133.315C51.9103 133.064 51.8164 132.788 51.7786 132.501C51.7409 132.214 51.76 131.923 51.8348 131.643L55.8267 116.747C55.9002 116.466 56.0286 116.202 56.2044 115.971C56.3801 115.74 56.5999 115.546 56.851 115.4C57.102 115.254 57.3795 115.159 57.6673 115.121C57.9552 115.083 58.2478 115.101 58.5283 115.177C58.8088 115.252 59.0717 115.382 59.3018 115.559C59.5319 115.736 59.7248 115.957 59.8692 116.209C60.0137 116.461 60.1069 116.739 60.1435 117.027C60.1802 117.315 60.1597 117.607 60.0829 117.887Z" fill="#FFDC29"/>
<path d="M89.1637 9.35941L85.1723 24.2558C85.0988 24.5368 84.9704 24.8004 84.7947 25.0315C84.6189 25.2627 84.3991 25.4568 84.1481 25.6027C83.897 25.7487 83.6195 25.8435 83.3317 25.8818C83.0438 25.9201 82.7512 25.9012 82.4707 25.826C82.1902 25.7508 81.9274 25.6209 81.6972 25.4438C81.4671 25.2667 81.2743 25.0458 81.1298 24.7939C80.9854 24.542 80.8921 24.264 80.8555 23.9759C80.8189 23.6878 80.8395 23.3953 80.9163 23.1153L84.908 8.21885C84.9828 7.93939 85.112 7.67741 85.2882 7.44787C85.4643 7.21834 85.6839 7.02574 85.9345 6.88108C86.1851 6.73643 86.4617 6.64254 86.7485 6.60478C87.0354 6.56702 87.3269 6.58613 87.6063 6.66102C87.8858 6.73591 88.1478 6.86511 88.3773 7.04125C88.6069 7.21739 88.7995 7.43701 88.9441 7.68758C89.0888 7.93815 89.1827 8.21476 89.2204 8.50161C89.2582 8.78846 89.2386 9.07994 89.1637 9.35941Z" fill="#FFDC29"/>
<path d="M85.1723 116.747L89.164 131.643C89.2388 131.923 89.258 132.214 89.2202 132.501C89.1824 132.788 89.0886 133.064 88.9439 133.315C88.7992 133.566 88.6066 133.785 88.3771 133.961C88.1476 134.138 87.8856 134.267 87.6061 134.342C87.3267 134.416 87.0352 134.436 86.7483 134.398C86.4615 134.36 86.1849 134.266 85.9343 134.122C85.6837 133.977 85.4641 133.784 85.288 133.555C85.1118 133.325 84.9826 133.063 84.9077 132.784L80.9163 117.887C80.8395 117.607 80.8189 117.315 80.8555 117.027C80.8921 116.739 80.9854 116.461 81.1298 116.209C81.2743 115.957 81.4671 115.736 81.6972 115.559C81.9274 115.382 82.1902 115.252 82.4707 115.177C82.7512 115.101 83.0438 115.083 83.3317 115.121C83.6195 115.159 83.897 115.254 84.1481 115.4C84.3991 115.546 84.6189 115.74 84.7947 115.971C84.9704 116.202 85.0988 116.466 85.1723 116.747Z" fill="#FFDC29"/>
<path d="M56.0901 8.21792L60.0815 23.1143C60.1583 23.3944 60.179 23.6869 60.1424 23.975C60.1057 24.263 60.0125 24.541 59.8681 24.7929C59.7236 25.0449 59.5308 25.2657 59.3006 25.4429C59.0705 25.62 58.8076 25.7499 58.5271 25.825C58.2466 25.9002 57.9541 25.9192 57.6662 25.8809C57.3783 25.8426 57.1009 25.7477 56.8498 25.6018C56.5987 25.4559 56.379 25.2618 56.2032 25.0306C56.0274 24.7995 55.8991 24.5358 55.8255 24.2549L51.8344 9.35848C51.6906 8.79662 51.7743 8.20076 52.0671 7.70016C52.3599 7.19956 52.8383 6.83461 53.3984 6.68448C53.9586 6.53435 54.5554 6.61115 55.0593 6.89823C55.5632 7.1853 55.9336 7.65949 56.0901 8.21792Z" fill="#FFDC29"/>
<path d="M106.329 103.216L117.235 114.121C117.441 114.326 117.605 114.569 117.716 114.836C117.828 115.104 117.886 115.391 117.887 115.681C117.888 115.971 117.831 116.259 117.72 116.527C117.609 116.795 117.447 117.039 117.242 117.244C117.036 117.449 116.793 117.612 116.525 117.722C116.257 117.833 115.969 117.89 115.679 117.889C115.389 117.888 115.102 117.831 114.834 117.719C114.566 117.607 114.323 117.443 114.119 117.237L103.214 106.332C102.8 105.918 102.568 105.358 102.568 104.774C102.568 104.189 102.8 103.629 103.214 103.216C103.627 102.802 104.187 102.57 104.772 102.57C105.356 102.57 105.916 102.803 106.329 103.216Z" fill="#FFDC29"/>
<path d="M26.8794 23.7672L37.7848 34.6726C38.198 35.0858 38.4301 35.6462 38.4301 36.2306C38.4301 36.8149 38.198 37.3753 37.7848 37.7885C37.3716 38.2017 36.8112 38.4338 36.2269 38.4338C35.6425 38.4338 35.0821 38.2017 34.6689 37.7885L23.7635 26.883C23.3533 26.4693 23.1237 25.9098 23.125 25.3272C23.1263 24.7446 23.3583 24.1862 23.7703 23.7742C24.1823 23.3622 24.7407 23.1302 25.3233 23.1289C25.9059 23.1276 26.4656 23.357 26.8794 23.7672Z" fill="#FFDC29"/>
<path d="M117.887 80.922L132.784 84.9138C133.063 84.9887 133.325 85.1179 133.555 85.294C133.784 85.4702 133.977 85.6898 134.122 85.9404C134.266 86.1909 134.36 86.4675 134.398 86.7544C134.436 87.0413 134.416 87.3327 134.342 87.6122C134.267 87.8917 134.138 88.1537 133.961 88.3832C133.785 88.6127 133.566 88.8053 133.315 88.95C133.064 89.0946 132.788 89.1885 132.501 89.2263C132.214 89.264 131.923 89.2449 131.643 89.17L116.747 85.1782C116.466 85.1047 116.202 84.9763 115.971 84.8005C115.74 84.6247 115.546 84.405 115.4 84.1539C115.254 83.9028 115.159 83.6254 115.121 83.3375C115.083 83.0497 115.101 82.7571 115.177 82.4766C115.252 82.1961 115.382 81.9332 115.559 81.7031C115.736 81.473 115.957 81.2801 116.209 81.1357C116.461 80.9912 116.739 80.898 117.027 80.8614C117.315 80.8247 117.607 80.8452 117.887 80.922Z" fill="#FFDC29"/>
<path d="M9.35551 51.8412L24.2519 55.8326C24.5329 55.9061 24.7965 56.0344 25.0276 56.2102C25.2588 56.386 25.4529 56.6058 25.5988 56.8568C25.7448 57.1079 25.8396 57.3854 25.8779 57.6732C25.9162 57.9611 25.8972 58.2537 25.8221 58.5342C25.7469 58.8147 25.617 59.0775 25.4399 59.3077C25.2628 59.5378 25.0419 59.7306 24.79 59.8751C24.5381 60.0195 24.2601 60.1128 23.972 60.1494C23.6839 60.186 23.3914 60.1654 23.1114 60.0886L8.21495 56.0969C7.65054 55.9457 7.16933 55.5764 6.87718 55.0704C6.58503 54.5643 6.50588 53.963 6.65712 53.3985C6.80837 52.8341 7.17763 52.3529 7.68368 52.0608C8.18972 51.7686 8.7911 51.6899 9.35551 51.8412Z" fill="#FFDC29"/>
</svg>
