<svg width="132" height="132" viewBox="0 0 132 132" fill="none" xmlns="http://www.w3.org/2000/svg">
<path d="M88.9983 89C88.2669 89.7315 87.4932 90.4067 86.6914 91.0959C87.4932 90.4348 88.2669 89.7315 88.9983 89Z" fill="#87AB42" fill-opacity="0.38"/>
<path d="M43.1844 65.9983C43.1918 59.9494 45.598 54.1505 49.8752 49.8733C54.1524 45.5961 59.9514 43.1899 66.0003 43.1824V33.4766C57.375 33.4766 49.1029 36.903 43.0039 43.002C36.9049 49.101 33.4785 57.373 33.4785 65.9983C33.4785 74.6236 36.9049 82.8956 43.0039 88.9946C49.1029 95.0937 57.375 98.52 66.0003 98.52V88.8142C59.9514 88.8067 54.1524 86.4005 49.8752 82.1233C45.598 77.8461 43.1918 72.0472 43.1844 65.9983Z" fill="#87AB42" fill-opacity="0.38"/>
<path d="M58.123 28.977C63.3182 27.889 68.6824 27.889 73.8775 28.977C69.6576 21.9437 66.0003 7.18798 66.0003 0C66.0003 7.18798 62.3711 22.0141 58.123 28.977Z" fill="#87AB42" fill-opacity="0.49"/>
<path d="M103.023 58.1211C104.13 63.3143 104.13 68.6824 103.023 73.8756C110.057 69.6556 124.812 65.9983 132 65.9983C124.812 65.9983 110 62.3692 103.023 58.1211Z" fill="#87AB42" fill-opacity="0.49"/>
<path d="M58.123 103.023C62.343 110.057 66.0003 124.812 66.0003 132C66.0003 124.812 69.6294 109.986 73.8775 103.023C68.6824 104.111 63.3182 104.111 58.123 103.023Z" fill="#87AB42" fill-opacity="0.49"/>
<path d="M28.977 73.8756C27.889 68.6804 27.889 63.3162 28.977 58.1211C21.9437 62.341 7.18798 65.9983 0 65.9983C7.18798 65.9983 22.0141 69.6275 28.977 73.8756Z" fill="#87AB42" fill-opacity="0.49"/>
<path d="M39.2463 39.2463C41.1161 37.3725 43.1763 35.6989 45.3933 34.2527C37.4598 32.3256 24.4202 24.4061 19.3281 19.3281C24.4202 24.4202 32.3537 37.4598 34.2527 45.3933C35.6954 43.1737 37.3693 41.1132 39.2463 39.2463Z" fill="#87AB42" fill-opacity="0.49"/>
<path d="M92.8389 39.2463C94.7074 41.1171 96.3763 43.1772 97.8184 45.3933C99.7455 37.4598 107.665 24.4202 112.743 19.3281C107.581 24.4202 94.5409 32.3537 86.6074 34.2527C88.8535 35.6947 90.9421 37.3684 92.8389 39.2463Z" fill="#87AB42" fill-opacity="0.49"/>
<path d="M97.7481 86.6094C96.3245 88.8197 94.6796 90.8793 92.8389 92.7564C90.9642 94.6304 88.8993 96.304 86.6777 97.75C94.6112 99.6771 107.651 107.597 112.743 112.675C107.651 107.583 99.7455 94.5429 97.8184 86.6094H97.7481Z" fill="#87AB42" fill-opacity="0.49"/>
<path d="M34.2527 86.6094C32.3256 94.5429 24.4061 107.583 19.3281 112.675C24.4202 107.583 37.4598 99.6771 45.3933 97.75C40.9508 94.8451 37.1576 91.052 34.2527 86.6094Z" fill="#87AB42" fill-opacity="0.49"/>
<path d="M88.9987 88.997C89.7302 88.2656 90.4054 87.4919 91.0946 86.6901C92.426 85.0764 93.599 83.3382 94.5972 81.4996C95.351 80.1085 96.0044 78.6654 96.5524 77.1812C96.9182 76.1824 97.2276 75.1697 97.4949 74.1287C97.7686 73.0817 97.9847 72.0204 98.1419 70.9497C98.3781 69.3101 98.4862 67.6547 98.4655 65.9983C98.4655 65.4356 98.4655 64.873 98.4655 64.3244C98.4109 63.2267 98.2982 62.1327 98.1279 61.0469C98.1279 60.5124 97.9591 59.9778 97.8465 59.4433C96.3353 52.1122 92.3424 45.5265 86.5412 40.7963C80.74 36.0662 73.4852 33.481 66 33.4766V43.1824C72.0511 43.1824 77.8544 45.5863 82.1332 49.8651C86.4121 54.1439 88.8159 59.9472 88.8159 65.9983C88.8159 72.0494 86.4121 77.8527 82.1332 82.1315C77.8544 86.4104 72.0511 88.8142 66 88.8142V98.4638C68.2018 98.4661 70.3981 98.2446 72.555 97.8027C73.6085 97.6103 74.6509 97.3614 75.6778 97.0571C79.7016 95.8032 83.4426 93.7774 86.6918 91.0929C87.4936 90.4318 88.2673 89.7285 88.9987 88.997Z" fill="#87AB42" fill-opacity="0.38"/>
<path opacity="0.2" d="M88.9987 88.997C89.7302 88.2656 90.4054 87.4919 91.0946 86.6901C92.426 85.0764 93.599 83.3382 94.5972 81.4996C95.351 80.1085 96.0044 78.6654 96.5524 77.1812C96.9182 76.1824 97.2276 75.1697 97.4949 74.1287C97.7686 73.0817 97.9847 72.0204 98.1419 70.9497C98.3781 69.3101 98.4862 67.6547 98.4655 65.9983C98.4655 65.4356 98.4655 64.873 98.4655 64.3244C98.4109 63.2267 98.2982 62.1327 98.1279 61.0469C98.1279 60.5124 97.9591 59.9778 97.8465 59.4433C96.3353 52.1122 92.3424 45.5265 86.5412 40.7963C80.74 36.0662 73.4852 33.481 66 33.4766V43.1824C72.0511 43.1824 77.8544 45.5863 82.1332 49.8651C86.4121 54.1439 88.8159 59.9472 88.8159 65.9983C88.8159 72.0494 86.4121 77.8527 82.1332 82.1315C77.8544 86.4104 72.0511 88.8142 66 88.8142V98.4638C68.2018 98.4661 70.3981 98.2446 72.555 97.8027C73.6085 97.6103 74.6509 97.3614 75.6778 97.0571C79.7016 95.8032 83.4426 93.7774 86.6918 91.0929C87.4936 90.4318 88.2673 89.7285 88.9987 88.997Z" fill="#87AB42" fill-opacity="0.28"/>
<path d="M44.5762 66.0014C44.5799 71.6821 46.8382 77.129 50.855 81.1458C54.8719 85.1627 60.3188 87.421 65.9994 87.4247V44.5781C60.3188 44.5819 54.8719 46.8401 50.855 50.857C46.8382 54.8738 44.5799 60.3207 44.5762 66.0014ZM55.9278 62.527C56.615 62.527 57.2868 62.7307 57.8581 63.1125C58.4295 63.4943 58.8748 64.0369 59.1378 64.6718C59.4008 65.3067 59.4696 66.0053 59.3355 66.6792C59.2014 67.3532 58.8705 67.9723 58.3846 68.4582C57.8987 68.9441 57.2796 69.275 56.6057 69.4091C55.9317 69.5431 55.2331 69.4743 54.5982 69.2113C53.9634 68.9484 53.4207 68.5031 53.039 67.9317C52.6572 67.3603 52.4534 66.6886 52.4534 66.0014C52.4534 65.0799 52.8195 64.1962 53.471 63.5446C54.1226 62.893 55.0064 62.527 55.9278 62.527Z" fill="white"/>
<path d="M55.9275 69.4762C56.6147 69.4762 57.2865 69.2724 57.8578 68.8906C58.4292 68.5089 58.8745 67.9662 59.1375 67.3314C59.4005 66.6965 59.4693 65.9979 59.3352 65.3239C59.2012 64.65 58.8702 64.0309 58.3843 63.545C57.8984 63.0591 57.2793 62.7282 56.6054 62.5941C55.9314 62.46 55.2328 62.5288 54.5979 62.7918C53.9631 63.0548 53.4204 63.5001 53.0387 64.0715C52.6569 64.6429 52.4531 65.3146 52.4531 66.0018C52.4568 66.9221 52.8241 67.8037 53.4748 68.4545C54.1256 69.1053 55.0072 69.4725 55.9275 69.4762Z" fill="#FF7029"/>
<path d="M43.1836 65.9994C43.191 72.0483 45.5972 77.8473 49.8744 82.1245C54.1516 86.4017 59.9506 88.8079 65.9994 88.8153V88.1261C60.1311 88.1261 54.5031 85.7949 50.3536 81.6453C46.204 77.4958 43.8729 71.8678 43.8729 65.9994C43.8729 60.1311 46.204 54.5031 50.3536 50.3536C54.5031 46.204 60.1311 43.8729 65.9994 43.8729V43.1836C59.9506 43.191 54.1516 45.5972 49.8744 49.8744C45.5972 54.1516 43.191 59.9506 43.1836 65.9994Z" fill="#87AB42" fill-opacity="0.28"/>
<path d="M44.5764 66.0016C44.5801 60.3209 46.8384 54.874 50.8552 50.8572C54.8721 46.8403 60.319 44.5821 65.9996 44.5783V43.875C60.1313 43.875 54.5033 46.2062 50.3538 50.3557C46.2042 54.5053 43.873 60.1333 43.873 66.0016C43.873 71.8699 46.2042 77.4979 50.3538 81.6475C54.5033 85.797 60.1313 88.1282 65.9996 88.1282V87.4249C60.319 87.4212 54.8721 85.1629 50.8552 81.146C46.8384 77.1292 44.5801 71.6823 44.5764 66.0016Z" fill="#87AB42" fill-opacity="0.28"/>
<path d="M66 87.4247C71.6818 87.4247 77.1309 85.1676 81.1485 81.1499C85.1662 77.1323 87.4233 71.6832 87.4233 66.0014C87.4233 60.3196 85.1662 54.8705 81.1485 50.8529C77.1309 46.8352 71.6818 44.5781 66 44.5781V87.4247ZM75.7481 62.527C76.4353 62.527 77.107 62.7307 77.6784 63.1125C78.2497 63.4943 78.6951 64.0369 78.958 64.6718C79.221 65.3067 79.2898 66.0053 79.1558 66.6792C79.0217 67.3532 78.6908 67.9723 78.2049 68.4582C77.719 68.9441 77.0999 69.275 76.4259 69.4091C75.7519 69.5431 75.0534 69.4743 74.4185 69.2113C73.7836 68.9484 73.241 68.5031 72.8592 67.9317C72.4774 67.3603 72.2737 66.6886 72.2737 66.0014C72.2737 65.0799 72.6397 64.1962 73.2913 63.5446C73.9429 62.893 74.8266 62.527 75.7481 62.527Z" fill="white"/>
<path opacity="0.2" d="M66 87.4247C71.6818 87.4247 77.1309 85.1676 81.1485 81.1499C85.1662 77.1323 87.4233 71.6832 87.4233 66.0014C87.4233 60.3196 85.1662 54.8705 81.1485 50.8529C77.1309 46.8352 71.6818 44.5781 66 44.5781V87.4247ZM75.7481 62.527C76.4353 62.527 77.107 62.7307 77.6784 63.1125C78.2497 63.4943 78.6951 64.0369 78.958 64.6718C79.221 65.3067 79.2898 66.0053 79.1558 66.6792C79.0217 67.3532 78.6908 67.9723 78.2049 68.4582C77.719 68.9441 77.0999 69.275 76.4259 69.4091C75.7519 69.5431 75.0534 69.4743 74.4185 69.2113C73.7836 68.9484 73.241 68.5031 72.8592 67.9317C72.4774 67.3603 72.2737 66.6886 72.2737 66.0014C72.2737 65.0799 72.6397 64.1962 73.2913 63.5446C73.9429 62.893 74.8266 62.527 75.7481 62.527Z" fill="#87AB42" fill-opacity="0.28"/>
<path d="M75.7479 69.4762C76.435 69.4762 77.1068 69.2724 77.6781 68.8906C78.2495 68.5089 78.6948 67.9662 78.9578 67.3314C79.2208 66.6965 79.2896 65.9979 79.1555 65.3239C79.0215 64.65 78.6906 64.0309 78.2047 63.545C77.7187 63.0591 77.0997 62.7282 76.4257 62.5941C75.7517 62.46 75.0531 62.5288 74.4183 62.7918C73.7834 63.0548 73.2408 63.5001 72.859 64.0715C72.4772 64.6429 72.2734 65.3146 72.2734 66.0018C72.2771 66.9221 72.6444 67.8037 73.2952 68.4545C73.9459 69.1053 74.8275 69.4725 75.7479 69.4762Z" fill="#FF7029"/>
<path opacity="0.2" d="M75.7479 69.4762C76.435 69.4762 77.1068 69.2724 77.6781 68.8906C78.2495 68.5089 78.6948 67.9662 78.9578 67.3314C79.2208 66.6965 79.2896 65.9979 79.1555 65.3239C79.0215 64.65 78.6906 64.0309 78.2047 63.545C77.7187 63.0591 77.0997 62.7282 76.4257 62.5941C75.7517 62.46 75.0531 62.5288 74.4183 62.7918C73.7834 63.0548 73.2408 63.5001 72.859 64.0715C72.4772 64.6429 72.2734 65.3146 72.2734 66.0018C72.2771 66.9221 72.6444 67.8037 73.2952 68.4545C73.9459 69.1053 74.8275 69.4725 75.7479 69.4762Z" fill="#87AB42" fill-opacity="0.28"/>
<path d="M66 43.8729C71.8683 43.8729 77.4963 46.204 81.6459 50.3536C85.7954 54.5031 88.1266 60.1311 88.1266 65.9994C88.1266 71.8678 85.7954 77.4958 81.6459 81.6453C77.4963 85.7949 71.8683 88.1261 66 88.1261V88.8153C72.0511 88.8153 77.8544 86.4115 82.1332 82.1327C86.4121 77.8539 88.8159 72.0506 88.8159 65.9994C88.8159 59.9483 86.4121 54.145 82.1332 49.8662C77.8544 45.5874 72.0511 43.1836 66 43.1836V43.8729Z" fill="#87AB42" fill-opacity="0.28"/>
<path opacity="0.2" d="M66 43.8729C71.8683 43.8729 77.4963 46.204 81.6459 50.3536C85.7954 54.5031 88.1266 60.1311 88.1266 65.9994C88.1266 71.8678 85.7954 77.4958 81.6459 81.6453C77.4963 85.7949 71.8683 88.1261 66 88.1261V88.8153C72.0511 88.8153 77.8544 86.4115 82.1332 82.1327C86.4121 77.8539 88.8159 72.0506 88.8159 65.9994C88.8159 59.9483 86.4121 54.145 82.1332 49.8662C77.8544 45.5874 72.0511 43.1836 66 43.1836V43.8729Z" fill="#87AB42" fill-opacity="0.28"/>
<path d="M88.1266 66.0016C88.1266 60.1333 85.7954 54.5053 81.6459 50.3557C77.4963 46.2062 71.8683 43.875 66 43.875V44.5783C71.6818 44.5783 77.1309 46.8354 81.1485 50.8531C85.1662 54.8707 87.4233 60.3198 87.4233 66.0016C87.4233 71.6834 85.1662 77.1325 81.1485 81.1501C77.1309 85.1678 71.6818 87.4249 66 87.4249V88.1282C68.9057 88.1282 71.783 87.5559 74.4675 86.4439C77.152 85.3319 79.5912 83.7021 81.6459 81.6475C83.7005 79.5928 85.3304 77.1536 86.4423 74.4691C87.5543 71.7846 88.1266 68.9073 88.1266 66.0016Z" fill="#87AB42" fill-opacity="0.28"/>
<path opacity="0.2" d="M88.1266 66.0016C88.1266 60.1333 85.7954 54.5053 81.6459 50.3557C77.4963 46.2062 71.8683 43.875 66 43.875V44.5783C71.6818 44.5783 77.1309 46.8354 81.1485 50.8531C85.1662 54.8707 87.4233 60.3198 87.4233 66.0016C87.4233 71.6834 85.1662 77.1325 81.1485 81.1501C77.1309 85.1678 71.6818 87.4249 66 87.4249V88.1282C68.9057 88.1282 71.783 87.5559 74.4675 86.4439C77.152 85.3319 79.5912 83.7021 81.6459 81.6475C83.7005 79.5928 85.3304 77.1536 86.4423 74.4691C87.5543 71.7846 88.1266 68.9073 88.1266 66.0016Z" fill="#87AB42" fill-opacity="0.28"/>
</svg>
