<svg width="92" height="91" viewBox="0 0 92 91" fill="none" xmlns="http://www.w3.org/2000/svg">
<path opacity="0.4" d="M89.9453 47.1836C90.8242 51.0508 91.1758 55.0938 90.6484 58.9609C90.4727 61.9492 88.1875 64.2344 85.1992 64.7617C82.3867 65.1133 79.5742 63.5312 78.3438 60.8945C76.7617 57.0273 73.9492 54.0391 70.2578 51.9297C70.6094 55.4453 70.4336 59.1367 69.7305 62.6523C67.2695 75.6602 56.8984 86.3828 44.0664 89.3711C41.2539 90.0742 38.4414 90.25 35.6289 90.25C34.5742 90.25 33.3438 90.25 32.2891 90.0742C29.3008 89.8984 27.0156 87.6133 26.4883 84.625C26.1367 81.8125 27.543 79 30.3555 77.7695C34.0469 76.1875 37.2109 73.375 39.3203 69.6836C35.6289 70.0352 32.1133 69.8594 28.5977 69.1562C15.5898 66.6953 4.86719 56.3242 1.87891 43.4922C1 39.625 0.648438 35.582 1 31.7148C1.35156 28.7266 3.63672 26.2656 6.44922 25.9141C9.4375 25.3867 12.25 26.9688 13.4805 29.7812C15.0625 33.4727 17.875 36.6367 21.5664 38.7461C21.2148 35.0547 21.2148 31.5391 22.0938 28.0234C24.5547 15.0156 34.9258 4.29297 47.7578 1.30469C51.625 0.425781 55.668 0.0742188 59.5352 0.425781C62.5234 0.777344 64.8086 3.0625 65.3359 5.875C65.8633 8.86328 64.2812 11.6758 61.4688 12.9062C57.6016 14.4883 54.6133 17.3008 52.5039 20.9922C56.0195 20.4648 59.7109 20.6406 63.2266 21.5195C76.2344 23.9805 86.957 34.3516 89.9453 47.1836ZM65.1602 41.3828C71.8398 42.4375 77.8164 45.7773 82.0352 51.0508C80.2773 39.9766 71.4883 31.7148 61.6445 29.7812C56.8984 28.7266 51.9766 29.0781 47.582 30.6602C46.1758 31.0117 44.5938 30.8359 43.5391 29.7812C42.3086 28.9023 41.7812 27.4961 41.957 25.9141C43.0117 19.4102 46.3516 13.4336 51.625 9.21484C40.5508 10.9727 32.2891 19.7617 30.3555 29.6055C29.3008 34.3516 29.6523 39.0977 31.2344 43.668C31.5859 45.0742 31.4102 46.6562 30.3555 47.7109C29.4766 48.9414 28.0703 49.4688 26.4883 49.293C19.9844 48.2383 14.0078 44.8984 9.78906 39.625C11.5469 50.6992 20.1602 58.9609 30.1797 60.8945C34.9258 61.9492 39.6719 61.5977 44.2422 60.0156C45.6484 59.4883 47.2305 59.8398 48.2852 60.7188C49.5156 61.7734 50.043 63.1797 49.8672 64.5859C48.8125 71.2656 45.4727 77.2422 40.1992 81.4609C51.2734 79.7031 59.5352 70.9141 61.4688 61.0703C62.5234 56.3242 62.1719 51.5781 60.5898 47.0078C60.0625 45.6016 60.4141 44.0195 61.293 42.9648C62.3477 41.7344 63.7539 41.207 65.1602 41.3828ZM45.8242 38.2188C49.8672 38.2188 52.8555 41.3828 52.8555 45.25C52.8555 49.293 49.8672 52.2812 45.8242 52.2812C41.957 52.2812 38.793 49.293 38.793 45.25C38.793 41.3828 41.957 38.2188 45.8242 38.2188Z" fill="#87AB42"/>
</svg>
