<svg width="94" height="94" viewBox="0 0 94 94" fill="none" xmlns="http://www.w3.org/2000/svg">
<path d="M90.418 3.83203C92.4102 6.05859 92.5273 9.75 90.7695 14.9062C89.0117 20.0625 85.6719 26.1562 80.75 33.1875C82.625 37.6406 83.5625 42.3281 83.5625 47.25C83.3281 57.5625 79.8125 66.1172 73.0156 72.9141C66.1016 79.8281 57.4883 83.4023 47.1758 83.6367C42.2539 83.6367 37.5664 82.6992 33.1133 80.8242C26.082 85.7461 19.9883 89.0859 14.832 90.8438C9.55859 92.6016 5.86719 92.4844 3.75781 90.4922C1.76563 88.3828 1.64844 84.6914 3.40625 79.418C5.16406 74.2617 8.50391 68.168 13.4258 61.1367C11.5508 56.6836 10.6133 51.9961 10.6133 47.0742C10.8477 36.7617 14.3633 28.207 21.1602 21.4102C28.0742 14.4961 36.6875 10.9219 47 10.6875C51.8047 10.6875 56.4922 11.625 61.0625 13.5C68.0938 8.57812 74.1875 5.23828 79.3438 3.48047C84.5 1.72266 88.1914 1.83984 90.418 3.83203ZM13.25 81C14.8906 82.2891 18.8164 80.7656 25.0273 76.4297C22.332 74.3203 19.9297 71.918 17.8203 69.2227C13.4844 75.4336 11.9609 79.3594 13.25 81ZM32.4102 71.1562C38.6211 66.2344 45.3594 60.1406 52.625 52.875C59.8906 45.6094 65.9844 38.8711 70.9062 32.6602C68.3281 28.5586 64.9883 25.2773 60.8867 22.8164C56.7852 20.4727 52.1562 19.2422 47 19.125C39.0312 19.3594 32.4102 22.1133 27.1367 27.3867C21.8633 32.6602 19.1094 39.2812 18.875 47.25C18.875 52.4062 20.1055 57.0352 22.5664 61.1367C25.0273 65.2383 28.3086 68.5781 32.4102 71.1562ZM47 75.375C54.9688 75.1406 61.5898 72.3867 66.8633 67.1133C72.1367 61.8398 74.8906 55.2188 75.125 47.25C75.125 45.375 74.9492 43.5 74.5977 41.625C69.6758 47.7188 64.4023 53.5195 58.7773 59.0273C53.2695 64.6523 47.4688 69.9258 41.375 74.8477C43.25 75.1992 45.125 75.375 47 75.375ZM68.9727 18.0703C71.668 20.1797 74.0703 22.582 76.1797 25.2773C80.5156 19.0664 82.0391 15.1406 80.75 13.5C79.1094 12.2109 75.1836 13.7344 68.9727 18.0703Z" fill="#87AB42" fill-opacity="0.4"/>
</svg>
