<svg width="156" height="232" viewBox="0 0 156 232" fill="none" xmlns="http://www.w3.org/2000/svg">
<path d="M86.0228 226.16V227.099C86.0396 228.173 85.3516 229.264 83.9425 230.069C82.1641 231.11 79.6641 231.479 77.349 231.177C76.0238 231.026 74.782 230.64 73.7586 230.052C72.3492 229.23 71.6445 228.173 71.6445 227.099V226.998L71.7287 221.494L72.6346 163.23C72.7352 164.07 73.3559 164.892 74.4465 165.53C75.2685 165.999 76.2584 166.318 77.2986 166.469C79.3623 166.788 81.627 166.469 83.2378 165.546C84.3452 164.925 84.9322 164.103 85.0329 163.264L85.939 221.478L86.0228 226.16Z" fill="#595D6D"/>
<path d="M81.3489 45.394C81.1087 45.394 80.8747 45.2701 80.7454 45.0472C80.5516 44.7144 80.6636 44.2874 80.9973 44.0936L85.9458 41.2122C86.277 41.0183 86.7056 41.1304 86.8994 41.4641C87.0932 41.7971 86.9809 42.2241 86.6473 42.4179L81.6987 45.2993C81.5891 45.3635 81.4682 45.394 81.3489 45.394Z" fill="#9AA0B7"/>
<path d="M85.0256 163.27C84.9291 164.106 84.3506 164.926 83.2416 165.552C81.6344 166.469 79.3685 166.79 77.2952 166.469C76.2508 166.324 75.2702 166.003 74.4507 165.536C73.3578 164.893 72.7311 164.074 72.6348 163.238L72.7149 158.174L74.3863 51.8686L74.4182 49.6503L74.4666 46.9175C74.5149 44.5223 76.4917 42.5933 78.8863 42.6254C79.3683 42.6254 79.8185 42.7219 80.2525 42.8665C81.9719 43.4613 83.1774 45.0527 83.2095 46.9175L84.9452 158.142L85.0256 163.27Z" fill="#CACEE0"/>
<path opacity="0.11" d="M78.8864 42.6254C76.4917 42.5933 74.5149 44.5223 74.4667 46.9175L74.4183 49.6503L74.418 49.6652L74.4128 49.6581L72.7182 158.182L72.6346 163.233L71.7285 221.496L71.6445 227.001V227.101C71.6445 228.175 72.3492 229.232 73.7582 230.055C74.7816 230.642 76.0232 231.028 77.3486 231.179L77.2979 166.471L77.2144 53.4342L77.2065 53.4237L77.2144 53.4279C77.2144 53.4279 77.2144 51.6435 77.2144 49.4092C77.2144 47.1586 77.2465 43.2685 80.2198 42.8665C80.236 42.8665 80.2521 42.8665 80.2521 42.8665C79.8185 42.7217 79.3684 42.6254 78.8864 42.6254Z" fill="#769AC4"/>
<path d="M155.463 38.6726L152.463 38.9064L89.8698 2.75935C89.0436 2.28225 87.587 2.34262 86.633 2.89362L4.2769 50.4531L0.751667 50.7279V52.9894C0.704028 53.3321 0.882059 53.6662 1.2997 53.9075L66.3361 91.465C67.1621 91.9421 68.6185 91.8817 69.5726 91.3307L154.674 42.1861C155.182 41.8925 155.441 41.5168 155.455 41.1574L155.463 41.1568V38.6726Z" fill="#B7BCDB"/>
<path d="M66.3356 89.0783L1.29947 51.5208C0.473473 51.0437 0.577833 50.2025 1.53181 49.6515L86.633 0.506902C87.587 -0.0440958 89.0434 -0.104467 89.8696 0.372634L154.906 37.9301C155.732 38.4072 155.627 39.2484 154.673 39.7992L69.5722 88.944C68.6184 89.495 67.1618 89.5554 66.3356 89.0783Z" fill="#E4E9F5"/>
<path d="M86.3329 24.23L70.1387 14.878C68.8995 14.1624 69.0563 12.9007 70.4873 12.0743L85.8553 3.1996C87.2863 2.37341 89.471 2.28276 90.7102 2.99831L106.905 12.3503C108.144 13.0659 107.987 14.3276 106.556 15.154L91.188 24.0287C89.757 24.8549 87.5723 24.9456 86.3329 24.23Z" fill="#484B59"/>
<path d="M92.2984 3.64013L71.7207 15.5078L72.2135 16.3628L92.7912 4.49509L92.2984 3.64013Z" fill="#A0A5B5"/>
<path d="M104.647 10.7648L84.0684 22.6328L84.5612 23.4878L105.139 11.6198L104.647 10.7648Z" fill="#A0A5B5"/>
<path d="M98.3716 7.0541L77.8047 18.9414L78.4617 20.0787L99.0286 8.1914L98.3716 7.0541Z" fill="#A0A5B5"/>
<path d="M107.907 36.6909L91.7129 27.3389C90.4737 26.6234 90.6306 25.3617 92.0615 24.5353L107.43 15.6605C108.86 14.8343 111.045 14.7437 112.284 15.4592L128.479 24.8113C129.718 25.5268 129.561 26.7885 128.13 27.6149L112.762 36.4896C111.331 37.3158 109.147 37.4065 107.907 36.6909Z" fill="#484B59"/>
<path d="M113.871 16.0932L93.293 27.9609L93.7858 28.8159L114.364 16.9482L113.871 16.0932Z" fill="#A0A5B5"/>
<path d="M126.221 23.2255L105.643 35.0938L106.135 35.9487L126.714 24.0804L126.221 23.2255Z" fill="#A0A5B5"/>
<path d="M119.951 19.5271L99.3848 31.4141L100.042 32.5514L120.608 20.6644L119.951 19.5271Z" fill="#A0A5B5"/>
<path d="M129.483 49.1481L113.289 39.7961C112.05 39.0805 112.207 37.8188 113.638 36.9924L129.006 28.1177C130.437 27.2913 132.621 27.2007 133.861 27.9164L150.055 37.2685C151.294 37.9842 151.137 39.2459 149.706 40.0721L134.338 48.9468C132.907 49.7732 130.723 49.8639 129.483 49.1481Z" fill="#484B59"/>
<path d="M135.445 28.5464L114.867 40.4141L115.36 41.269L135.938 29.4013L135.445 28.5464Z" fill="#A0A5B5"/>
<path d="M147.797 35.6789L127.219 47.5469L127.712 48.4018L148.29 36.5338L147.797 35.6789Z" fill="#A0A5B5"/>
<path d="M141.537 31.9547L120.971 43.8438L121.628 44.9811L142.194 33.092L141.537 31.9547Z" fill="#A0A5B5"/>
<path d="M64.9091 36.6012L48.7149 27.2492C47.4757 26.5337 47.6324 25.272 49.0636 24.4456L64.4315 15.5708C65.8625 14.7445 68.0472 14.6538 69.2866 15.3695L85.4808 24.7216C86.72 25.4373 86.5634 26.699 85.1322 27.5252L69.7642 36.3999C68.3332 37.2263 66.1483 37.317 64.9091 36.6012Z" fill="#484B59"/>
<path d="M70.877 16.0146L50.2988 27.8826L50.7917 28.7375L71.3699 16.8695L70.877 16.0146Z" fill="#A0A5B5"/>
<path d="M83.2286 23.1479L62.6504 35.0159L63.1432 35.8708L83.7215 24.0028L83.2286 23.1479Z" fill="#A0A5B5"/>
<path d="M76.9642 19.4117L56.3984 31.3008L57.0556 32.4381L77.6214 20.549L76.9642 19.4117Z" fill="#A0A5B5"/>
<path d="M86.4833 49.0581L70.2892 39.7061C69.05 38.9905 69.2066 37.7288 70.6378 36.9026L86.0058 28.0279C87.4367 27.2015 89.6214 27.1108 90.8608 27.8266L107.055 37.1786C108.294 37.8942 108.138 39.1559 106.706 39.9821L91.3384 48.8568C89.9075 49.6834 87.7225 49.7738 86.4833 49.0581Z" fill="#484B59"/>
<path d="M92.4468 28.4604L71.8691 40.3281L72.362 41.1831L92.9397 29.3154L92.4468 28.4604Z" fill="#A0A5B5"/>
<path d="M104.8 35.5971L84.2227 47.4648L84.7155 48.3198L105.293 36.4521L104.8 35.5971Z" fill="#A0A5B5"/>
<path d="M98.5385 31.8609L77.9727 43.75L78.6298 44.8873L99.1957 32.9982L98.5385 31.8609Z" fill="#A0A5B5"/>
<path d="M108.06 61.5191L91.8653 52.1671C90.6261 51.4514 90.7828 50.1897 92.2139 49.3635L107.582 40.4888C109.013 39.6626 111.198 39.5717 112.437 40.2874L128.631 49.6395C129.87 50.355 129.714 51.6167 128.283 52.4431L112.915 61.3179C111.484 62.1443 109.299 62.2347 108.06 61.5191Z" fill="#484B59"/>
<path d="M114.019 40.9136L93.4414 52.7812L93.9343 53.6362L114.512 41.7685L114.019 40.9136Z" fill="#A0A5B5"/>
<path d="M126.375 48.0581L105.797 59.9258L106.29 60.7807L126.867 48.913L126.375 48.0581Z" fill="#A0A5B5"/>
<path d="M120.115 44.3294L99.5488 56.2188L100.206 57.3561L120.772 45.4667L120.115 44.3294Z" fill="#A0A5B5"/>
<path d="M43.4855 48.9722L27.2911 39.6202C26.0517 38.9044 26.2088 37.6427 27.6397 36.8165L43.0077 27.9418C44.4387 27.1156 46.6234 27.0249 47.8628 27.7405L64.0572 37.0925C65.2964 37.8081 65.1395 39.0698 63.7086 39.8962L48.3408 48.7709C46.9094 49.5973 44.7247 49.6877 43.4855 48.9722Z" fill="#484B59"/>
<path d="M49.4488 28.3745L28.8711 40.2422L29.3639 41.0971L49.9416 29.2295L49.4488 28.3745Z" fill="#A0A5B5"/>
<path d="M61.8004 35.5073L41.2227 47.375L41.7155 48.23L62.2932 36.3623L61.8004 35.5073Z" fill="#A0A5B5"/>
<path d="M55.5404 31.775L34.9746 43.6641L35.6318 44.8014L56.1976 32.9123L55.5404 31.775Z" fill="#A0A5B5"/>
<path d="M65.0597 61.4331L48.8653 52.0811C47.6261 51.3656 47.7829 50.1039 49.2139 49.2775L64.5819 40.4027C66.0128 39.5765 68.1975 39.4859 69.4369 40.2014L85.6313 49.5535C86.8705 50.269 86.7137 51.5307 85.2827 52.3571L69.9149 61.2318C68.4836 62.0582 66.2989 62.1487 65.0597 61.4331Z" fill="#484B59"/>
<path d="M71.023 40.8354L50.4453 52.7031L50.9382 53.5581L71.5159 41.6904L71.023 40.8354Z" fill="#A0A5B5"/>
<path d="M83.3751 47.9679L62.7969 59.8359L63.2897 60.6909L83.868 48.8229L83.3751 47.9679Z" fill="#A0A5B5"/>
<path d="M77.1029 44.2695L56.5371 56.1562L57.1941 57.2936L77.76 45.4069L77.1029 44.2695Z" fill="#A0A5B5"/>
<path d="M86.6357 73.8942L70.4415 64.5422C69.2021 63.8266 69.3592 62.5649 70.7901 61.7385L86.1581 52.8638C87.5891 52.0374 89.7738 51.9468 91.0132 52.6625L107.208 62.0146C108.447 62.7303 108.29 63.992 106.859 64.8182L91.4912 73.6931C90.0596 74.5191 87.8749 74.6098 86.6357 73.8942Z" fill="#484B59"/>
<path d="M92.5977 53.288L72.0195 65.156L72.5124 66.011L93.0906 54.143L92.5977 53.288Z" fill="#A0A5B5"/>
<path d="M104.949 60.4214L84.3711 72.2891L84.8639 73.144L105.442 61.2763L104.949 60.4214Z" fill="#A0A5B5"/>
<path d="M98.6791 56.7305L78.1133 68.6172L78.7703 69.7545L99.3361 57.8678L98.6791 56.7305Z" fill="#A0A5B5"/>
<path d="M22.0616 61.3473L5.86722 51.9953C4.62802 51.2798 4.78485 50.0181 6.21582 49.1917L21.5838 40.3169C23.0148 39.4905 25.1993 39.3999 26.4387 40.1156L42.6331 49.4677C43.8723 50.1834 43.7154 51.4451 42.2845 52.2713L26.9165 61.146C25.4855 61.9724 23.3008 62.0631 22.0616 61.3473Z" fill="#484B59"/>
<path d="M28.0269 40.7573L7.44922 52.625L7.94206 53.48L28.5198 41.6123L28.0269 40.7573Z" fill="#A0A5B5"/>
<path d="M40.3765 47.8823L19.7988 59.75L20.2917 60.605L40.8694 48.7373L40.3765 47.8823Z" fill="#A0A5B5"/>
<path d="M34.1185 44.1617L13.5527 56.0508L14.2099 57.1881L34.7757 45.299L34.1185 44.1617Z" fill="#A0A5B5"/>
<path d="M43.6356 73.8044L27.4414 64.4524C26.2022 63.7368 26.3591 62.4751 27.79 61.6487L43.158 52.774C44.589 51.9476 46.7737 51.8569 48.0129 52.5727L64.2073 61.9247C65.4465 62.6404 65.2896 63.9022 63.8587 64.7284L48.4907 73.6031C47.0597 74.4295 44.875 74.5201 43.6356 73.8044Z" fill="#484B59"/>
<path d="M49.6017 53.2101L29.0234 65.0781L29.5163 65.9331L50.0945 54.0651L49.6017 53.2101Z" fill="#A0A5B5"/>
<path d="M61.9488 60.3315L41.3711 72.1992L41.8639 73.0542L62.4416 61.1865L61.9488 60.3315Z" fill="#A0A5B5"/>
<path d="M55.6913 56.6067L35.125 68.4961L35.7822 69.6334L56.3485 57.744L55.6913 56.6067Z" fill="#A0A5B5"/>
<path d="M65.212 86.2614L49.0176 76.9094C47.7784 76.1936 47.9352 74.9319 49.3662 74.1057L64.7342 65.231C66.1652 64.4046 68.3499 64.314 69.5891 65.0297L85.7835 74.3817C87.0227 75.0973 86.8658 76.359 85.4349 77.1854L70.0669 86.0601C68.6359 86.8865 66.4512 86.9769 65.212 86.2614Z" fill="#484B59"/>
<path d="M71.1778 65.6711L50.5996 77.5391L51.0925 78.394L71.6707 66.526L71.1778 65.6711Z" fill="#A0A5B5"/>
<path d="M83.5269 72.7925L62.9492 84.6602L63.4421 85.5151L84.0198 73.6474L83.5269 72.7925Z" fill="#A0A5B5"/>
<path d="M77.269 69.0719L56.7031 80.9609L57.3603 82.0982L77.9261 70.2092L77.269 69.0719Z" fill="#A0A5B5"/>
</svg>
