<svg width="103" height="225" viewBox="0 0 103 225" fill="none" xmlns="http://www.w3.org/2000/svg">
<path d="M59.0228 219.16V220.099C59.0396 221.173 58.3516 222.264 56.9425 223.069C55.1641 224.11 52.6641 224.479 50.349 224.177C49.0238 224.026 47.782 223.64 46.7586 223.052C45.3492 222.23 44.6445 221.173 44.6445 220.099V219.998L44.7287 214.494L45.6346 156.23C45.7352 157.07 46.3559 157.892 47.4465 158.53C48.2685 158.999 49.2584 159.318 50.2986 159.469C52.3623 159.788 54.627 159.469 56.2378 158.546C57.3452 157.925 57.9322 157.103 58.0329 156.264L58.939 214.478L59.0228 219.16Z" fill="#595D6D"/>
<path d="M54.3489 38.394C54.1087 38.394 53.8747 38.2701 53.7454 38.0472C53.5516 37.7144 53.6636 37.2874 53.9973 37.0936L58.9458 34.2122C59.277 34.0183 59.7056 34.1304 59.8994 34.4641C60.0932 34.7971 59.9809 35.2241 59.6473 35.4179L54.6987 38.2993C54.5891 38.3635 54.4682 38.394 54.3489 38.394Z" fill="#9AA0B7"/>
<path d="M58.0256 156.27C57.9291 157.106 57.3506 157.926 56.2416 158.552C54.6344 159.469 52.3685 159.79 50.2952 159.469C49.2508 159.324 48.2702 159.003 47.4507 158.536C46.3578 157.893 45.7311 157.074 45.6348 156.238L45.7149 151.174L47.3863 44.8686L47.4182 42.6503L47.4666 39.9175C47.5149 37.5223 49.4917 35.5933 51.8863 35.6254C52.3683 35.6254 52.8185 35.7219 53.2525 35.8665C54.9719 36.4613 56.1774 38.0527 56.2095 39.9175L57.9452 151.142L58.0256 156.27Z" fill="#CACEE0"/>
<path opacity="0.11" d="M51.8864 35.6254C49.4917 35.5933 47.5149 37.5223 47.4667 39.9175L47.4183 42.6503L47.418 42.6652L47.4128 42.6581L45.7182 151.182L45.6346 156.233L44.7285 214.496L44.6445 220.001V220.101C44.6445 221.175 45.3492 222.232 46.7582 223.055C47.7816 223.642 49.0232 224.028 50.3486 224.179L50.2979 159.471L50.2144 46.4342L50.2065 46.4237L50.2144 46.4279C50.2144 46.4279 50.2144 44.6435 50.2144 42.4092C50.2144 40.1586 50.2465 36.2685 53.2198 35.8665C53.236 35.8665 53.2521 35.8665 53.2521 35.8665C52.8185 35.7217 52.3684 35.6254 51.8864 35.6254Z" fill="#769AC4"/>
<path d="M13.1386 78.8071C12.9755 78.8071 12.81 78.7819 12.6483 78.7318C12.1782 78.585 11.7827 78.2325 11.5621 77.7646L0.187461 53.6063C-0.23543 52.7101 0.0814859 51.5954 0.893557 51.1229L88.3135 0.222916C88.7151 -0.0100824 89.1806 -0.0619689 89.6225 0.0745187C90.0918 0.220496 90.4881 0.573017 90.7079 1.04164L102.083 25.1991C102.512 26.112 102.202 27.2038 101.376 27.6842L13.9571 78.5834C13.703 78.7316 13.4228 78.8071 13.1386 78.8071ZM89.1336 1.39538C89.0928 1.39538 89.0535 1.40629 89.0151 1.42829L1.59521 52.3283C1.42262 52.4296 1.32291 52.7428 1.44927 53.0111L12.8239 77.1694C12.8788 77.2849 12.9652 77.3679 13.0625 77.3986C13.1285 77.4182 13.1943 77.4111 13.2555 77.3766L100.675 26.4774C100.848 26.3761 100.947 26.0621 100.821 25.7938L89.4459 1.63625C89.391 1.52076 89.3046 1.43777 89.2075 1.40709C89.1823 1.39921 89.1578 1.39538 89.1336 1.39538Z" fill="#C0C4D6"/>
<path d="M42.8215 45.1136C42.5815 45.1136 42.3476 44.9897 42.218 44.7668C42.0242 44.434 42.1364 44.007 42.4699 43.813L48.3712 40.3767C48.7016 40.1821 49.1302 40.2944 49.3248 40.6287C49.5185 40.9615 49.4065 41.3885 49.0728 41.5825L43.1717 45.0187C43.0615 45.0831 42.9408 45.1136 42.8215 45.1136Z" fill="#9AA0B7"/>
<path d="M39.3679 30.4067L51.0799 55.2805C51.2585 55.6603 51.1323 56.1295 50.7995 56.3234L13.292 78.162C12.9589 78.3558 12.5403 78.2038 12.3614 77.824L0.649677 52.9501C0.470831 52.5704 0.596992 52.1011 0.930056 51.9073L38.4377 30.0685C38.7704 29.8749 39.1891 30.0271 39.3679 30.4067Z" fill="#E4E9F5"/>
<path d="M20.2711 59.6015L24.4695 68.5184C24.8235 69.2705 24.5738 70.1995 23.9144 70.5835L14.44 76.0999C13.7807 76.4838 12.9517 76.1827 12.5977 75.4308L8.39924 66.5139C8.04518 65.762 8.29508 64.8328 8.95434 64.4488L18.4287 58.9324C19.0878 58.5488 19.917 58.8498 20.2711 59.6015Z" fill="#484B59"/>
<path d="M23.9383 67.436L12.0742 74.3594L12.228 74.6231L24.0921 67.6997L23.9383 67.436Z" fill="#A0A5B5"/>
<path d="M20.6799 60.4881L8.81445 67.4102L8.96831 67.674L20.8338 60.752L20.6799 60.4881Z" fill="#A0A5B5"/>
<path d="M10.622 71.1973L10.418 70.8456L22.2904 63.9336L22.4943 64.2853L10.622 71.1973Z" fill="#A0A5B5"/>
<path d="M14.5524 47.461L18.7508 56.3781C19.1048 57.13 18.8549 58.0592 18.1957 58.4432L8.7213 63.9595C8.06204 64.3435 7.23301 64.0424 6.87895 63.2905L2.68052 54.3734C2.32647 53.6215 2.57616 52.6922 3.23563 52.3083L12.71 46.7919C13.3691 46.4081 14.1983 46.7091 14.5524 47.461Z" fill="#484B59"/>
<path d="M6.5171 62.489L6.36328 62.2255L18.2347 55.3125L18.3885 55.5762L6.5171 62.489Z" fill="#A0A5B5"/>
<path d="M14.9475 48.3592L3.08203 55.2812L3.23579 55.5449L15.1013 48.6229L14.9475 48.3592Z" fill="#A0A5B5"/>
<path d="M4.9033 59.0534L4.69922 58.7019L16.5717 51.7891L16.7755 52.1408L4.9033 59.0534Z" fill="#A0A5B5"/>
<path d="M32.6344 52.4063L36.8328 61.3232C37.1869 62.0751 36.937 63.0045 36.2777 63.3883L26.8033 68.9048C26.1441 69.2886 25.315 68.9875 24.961 68.2356L20.7626 59.3185C20.4085 58.5666 20.6582 57.6375 21.3177 57.2536L30.792 51.7372C31.4511 51.3534 32.2803 51.6544 32.6344 52.4063Z" fill="#484B59"/>
<path d="M36.3083 60.2669L24.4414 67.1875L24.5952 67.4514L36.4621 60.5307L36.3083 60.2669Z" fill="#A0A5B5"/>
<path d="M33.0441 53.2923L21.1777 60.2148L21.3316 60.4787L33.198 53.5562L33.0441 53.2923Z" fill="#A0A5B5"/>
<path d="M22.9873 64.002L22.7832 63.6503L34.6546 56.7383L34.8587 57.0898L22.9873 64.002Z" fill="#A0A5B5"/>
<path d="M26.9155 40.2617L31.1141 49.1787C31.468 49.9305 31.2183 50.8597 30.559 51.2437L21.0847 56.7602C20.4252 57.144 19.5962 56.843 19.2423 56.0911L15.0437 47.1741C14.6898 46.4223 14.9395 45.4929 15.5988 45.1091L25.0732 39.5926C25.7324 39.2088 26.5616 39.51 26.9155 40.2617Z" fill="#484B59"/>
<path d="M30.5895 48.1184L18.7227 55.0391L18.8765 55.303L30.7434 48.3823L30.5895 48.1184Z" fill="#A0A5B5"/>
<path d="M27.3133 41.1597L15.4473 48.082L15.601 48.3457L27.467 41.4234L27.3133 41.1597Z" fill="#A0A5B5"/>
<path d="M17.2685 51.8575L17.0645 51.5057L28.9359 44.5938L29.14 44.9453L17.2685 51.8575Z" fill="#A0A5B5"/>
<path d="M44.9976 45.2031L49.1963 54.1203C49.5501 54.8721 49.3004 55.8013 48.6411 56.1851L39.1668 61.7016C38.5073 62.0854 37.6783 61.7846 37.3244 61.0325L33.1258 52.1156C32.7717 51.3637 33.0216 50.4343 33.6809 50.0505L43.1551 44.534C43.8145 44.1502 44.6436 44.4515 44.9976 45.2031Z" fill="#484B59"/>
<path d="M48.6724 53.0632L36.8047 59.9844L36.9585 60.2483L48.8263 53.3271L48.6724 53.0632Z" fill="#A0A5B5"/>
<path d="M45.399 46.1101L33.5312 53.0312L33.6851 53.2951L45.5528 46.374L45.399 46.1101Z" fill="#A0A5B5"/>
<path d="M35.3504 56.7956L35.1465 56.4441L47.0179 49.5312L47.2222 49.883L35.3504 56.7956Z" fill="#A0A5B5"/>
<path d="M39.2808 33.0625L43.4793 41.9796C43.8333 42.7315 43.5836 43.6607 42.9241 44.0447L33.4498 49.5612C32.7905 49.945 31.9615 49.6439 31.6074 48.892L27.409 39.9749C27.0549 39.223 27.3048 38.2939 27.9641 37.9098L37.4385 32.3936C38.0977 32.0096 38.9268 32.3106 39.2808 33.0625Z" fill="#484B59"/>
<path d="M42.9553 40.9189L31.0879 47.8398L31.2417 48.1037L43.1091 41.1828L42.9553 40.9189Z" fill="#A0A5B5"/>
<path d="M39.6884 33.9526L27.8223 40.875L27.976 41.1387L39.8422 34.2163L39.6884 33.9526Z" fill="#A0A5B5"/>
<path d="M29.6338 44.6585L29.4297 44.3067L41.3013 37.3945L41.5052 37.7462L29.6338 44.6585Z" fill="#A0A5B5"/>
<path d="M89.9088 0.980859L101.621 25.8547C101.799 26.2345 101.673 26.7037 101.341 26.8975L63.8329 48.7362C63.4998 48.93 63.0812 48.778 62.9025 48.3982L51.1906 23.5243C51.0119 23.1445 51.1381 22.6753 51.4709 22.4815L88.9784 0.642868C89.3113 0.449039 89.7299 0.601076 89.9088 0.980859Z" fill="#E4E9F5"/>
<path d="M70.812 30.1798L75.0106 39.0967C75.3647 39.8486 75.1148 40.7778 74.4555 41.1618L64.9811 46.6781C64.3217 47.0619 63.4928 46.7608 63.1388 46.009L58.9402 37.092C58.5863 36.3401 58.836 35.4108 59.4953 35.0269L68.9696 29.5105C69.6289 29.1269 70.4579 29.4279 70.812 30.1798Z" fill="#484B59"/>
<path d="M74.4914 38.0203L62.627 44.9453L62.7808 45.209L74.6452 38.284L74.4914 38.0203Z" fill="#A0A5B5"/>
<path d="M59.5034 38.2538L59.3496 37.9901L71.221 31.0781L71.3748 31.3416L59.5034 38.2538Z" fill="#A0A5B5"/>
<path d="M61.1652 41.7716L60.9609 41.4198L72.8326 34.5078L73.0366 34.8595L61.1652 41.7716Z" fill="#A0A5B5"/>
<path d="M65.0933 18.0312L69.292 26.9483C69.6458 27.7002 69.3961 28.6294 68.7366 29.0134L59.2625 34.5296C58.603 34.9137 57.774 34.6126 57.4201 33.8607L53.2215 24.9436C52.8674 24.1917 53.1173 23.2625 53.7766 22.8785L63.251 17.3621C63.9102 16.9785 64.7393 17.2795 65.0933 18.0312Z" fill="#484B59"/>
<path d="M57.0562 33.0585L56.9023 32.7948L68.7738 25.8828L68.9276 26.1465L57.0562 33.0585Z" fill="#A0A5B5"/>
<path d="M65.5012 18.9188L53.6367 25.8438L53.7905 26.1074L65.655 19.1825L65.5012 18.9188Z" fill="#A0A5B5"/>
<path d="M55.4463 29.627L55.2422 29.2753L67.1136 22.3633L67.3177 22.715L55.4463 29.627Z" fill="#A0A5B5"/>
<path d="M83.1754 22.9805L87.3738 31.8974C87.7278 32.6493 87.4781 33.5785 86.8187 33.9625L77.3443 39.479C76.685 39.8628 75.856 39.5617 75.502 38.8098L71.3035 29.8927C70.9495 29.1408 71.1994 28.2116 71.8586 27.8278L81.3328 22.3114C81.9923 21.9276 82.8213 22.2288 83.1754 22.9805Z" fill="#484B59"/>
<path d="M75.1382 38.0077L74.9844 37.744L86.8566 30.832L87.0104 31.0957L75.1382 38.0077Z" fill="#A0A5B5"/>
<path d="M83.5814 23.8718L71.7168 30.7969L71.8706 31.0606L83.7353 24.1355L83.5814 23.8718Z" fill="#A0A5B5"/>
<path d="M73.5283 34.5762L73.3242 34.2245L85.1956 27.3125L85.3997 27.6642L73.5283 34.5762Z" fill="#A0A5B5"/>
<path d="M77.4567 10.836L81.6551 19.7529C82.0091 20.5048 81.7594 21.4342 81.1 21.818L71.6256 27.3344C70.9663 27.7183 70.1373 27.4172 69.7833 26.6653L65.5848 17.7484C65.2308 16.9965 65.4805 16.0673 66.1399 15.6833L75.6143 10.1669C76.2734 9.78307 77.1026 10.0841 77.4567 10.836Z" fill="#484B59"/>
<path d="M81.1378 18.6894L69.2715 25.6133L69.4253 25.877L81.2916 18.9531L81.1378 18.6894Z" fill="#A0A5B5"/>
<path d="M77.8644 11.722L65.998 18.6445L66.1519 18.9084L78.0183 11.9859L77.8644 11.722Z" fill="#A0A5B5"/>
<path d="M67.8093 22.4286L67.6055 22.0769L79.4769 15.1641L79.681 15.5158L67.8093 22.4286Z" fill="#A0A5B5"/>
<path d="M95.5387 15.7813L99.7371 24.6985C100.091 25.4503 99.8415 26.3795 99.182 26.7633L89.7076 32.2798C89.0484 32.6636 88.2193 32.3628 87.8653 31.6107L83.6669 22.6937C83.3128 21.9418 83.5625 21.0127 84.222 20.6286L93.6963 15.1122C94.3554 14.7284 95.1846 15.0294 95.5387 15.7813Z" fill="#484B59"/>
<path d="M99.2176 23.6167L87.3516 30.5391L87.5054 30.8029L99.3714 23.8806L99.2176 23.6167Z" fill="#A0A5B5"/>
<path d="M95.9445 16.6712L84.0781 23.5938L84.232 23.8576L96.0983 16.9351L95.9445 16.6712Z" fill="#A0A5B5"/>
<path d="M85.8914 27.3768L85.6875 27.0253L97.5589 20.1133L97.763 20.4648L85.8914 27.3768Z" fill="#A0A5B5"/>
<path d="M89.8217 3.63644L94.0204 12.5536C94.3744 13.3055 94.1245 14.2348 93.4653 14.6186L83.9909 20.1351C83.3314 20.5189 82.5026 20.2179 82.1486 19.466L77.9499 10.5488C77.5961 9.79695 77.8458 8.86759 78.505 8.48377L87.9794 2.96752C88.6387 2.5835 89.4679 2.88475 89.8217 3.63644Z" fill="#484B59"/>
<path d="M93.5013 11.4756L81.6348 18.3982L81.7886 18.6621L93.6552 11.7394L93.5013 11.4756Z" fill="#A0A5B5"/>
<path d="M90.2268 4.53974L78.3594 11.4607L78.5132 11.7246L90.3806 4.80365L90.2268 4.53974Z" fill="#A0A5B5"/>
<path d="M80.1746 15.232L79.9707 14.8805L91.8423 7.96851L92.0462 8.32002L80.1746 15.232Z" fill="#A0A5B5"/>
</svg>
